<svg width="106" height="99" viewBox="0 0 106 99" fill="none" xmlns="http://www.w3.org/2000/svg">
<path d="M88.5014 70.9229L87.9597 65.9523L81.8882 66.614L83.7356 72.4353L88.5014 70.9229ZM93.3173 86.0985L90.425 90.1771L102.596 98.8083L98.0831 84.5861L93.3173 86.0985ZM72.026 71L74.9183 66.9214L73.6189 66H72.026V71ZM105.077 18C105.077 8.05887 97.018 0 87.0769 0V10C91.4952 10 95.0769 13.5817 95.0769 18H105.077ZM105.077 58V18H95.0769V58H105.077ZM89.0431 75.8934C98.0616 74.9105 105.077 67.2779 105.077 58H95.0769C95.0769 62.1187 91.9602 65.5163 87.9597 65.9523L89.0431 75.8934ZM98.0831 84.5861L93.2672 69.4105L83.7356 72.4353L88.5515 87.6109L98.0831 84.5861ZM69.1337 75.0786L90.425 90.1771L96.2096 82.02L74.9183 66.9214L69.1337 75.0786ZM18 76H72.026V66H18V76ZM0 58C0 67.9411 8.05888 76 18 76V66C13.5817 66 10 62.4183 10 58H0ZM0 18V58H10V18H0ZM18 0C8.05888 0 0 8.05887 0 18H10C10 13.5817 13.5817 10 18 10V0ZM87.0769 0H18V10H87.0769V0Z" fill="white"/>
</svg>
