<svg width="373" height="304" viewBox="0 0 373 304" fill="none" xmlns="http://www.w3.org/2000/svg">
<path d="M51 66.0904H321.074C342.06 66.0904 359.074 83.1036 359.074 104.09V290.285H13V104.09C13 83.1036 30.0132 66.0904 51 66.0904Z" fill="#FFE350" stroke="black" stroke-width="26"/>
<path d="M264.409 202.878C264.409 230.335 248.068 252.593 227.911 252.593C207.754 252.593 191.413 230.335 191.413 202.878C191.413 175.421 207.754 153.163 227.911 153.163C248.068 153.163 264.409 175.421 264.409 202.878Z" fill="black"/>
<circle cx="227.911" cy="225.411" r="15.1149" fill="white"/>
<path d="M176.346 202.878C176.346 230.335 160.005 252.593 139.848 252.593C119.691 252.593 103.35 230.335 103.35 202.878C103.35 175.421 119.691 153.163 139.848 153.163C160.005 153.163 176.346 175.421 176.346 202.878Z" fill="black"/>
<circle cx="139.848" cy="225.411" r="15.1149" fill="white"/>
<path d="M172.229 101.092L231.722 63.5695L245.374 13.0543" stroke="black" stroke-width="17" stroke-linecap="round"/>
<circle cx="244.08" cy="22.7521" r="22.7521" fill="black"/>
</svg>
