<svg width="289" height="38" viewBox="0 0 289 38" fill="#1f505d" xmlns="http://www.w3.org/2000/svg">
<path d="M21.6632 3.92562C21.6632 0.785124 18.6806 0 16.3259 0V0.471074C17.7387 0.471074 18.8376 0.942149 18.8376 2.04132C18.8376 2.66942 18.3666 3.61157 16.9538 3.61157C15.855 3.61157 13.5003 2.98347 11.7735 2.35537C9.73275 1.57025 7.84899 0.942149 6.2792 0.942149C3.1396 0.942149 0.941879 3.29752 0.941879 5.96694C0.941879 8.32231 2.66866 9.10744 3.29658 9.42149L3.45356 9.10744C3.1396 8.79339 2.66866 8.47934 2.66866 7.53719C2.66866 6.90909 3.29658 5.80992 4.86638 5.80992C6.2792 5.80992 8.16295 6.43802 10.6746 7.22314C12.8724 7.85124 15.227 8.32231 16.4829 8.47934V13.3471L14.1282 15.3884V15.5455L16.4829 17.5868V24.3388C15.227 25.124 13.8142 25.281 12.5584 25.281C10.2037 25.281 8.16295 24.6529 6.43618 22.7686L12.8724 19.6281V8.79339L5.02336 12.2479C5.65128 10.2066 7.37806 8.79339 9.10483 7.85124L8.94785 7.38016C4.23846 8.63636 0 13.0331 0 18.3719C0 24.6529 5.18034 29.3636 10.9886 29.3636C17.2678 29.3636 21.3493 24.3388 21.3493 19.157H21.0353C20.0934 21.1983 18.6806 23.0826 16.9538 24.0248V17.5868L19.4655 15.5455V15.3884L16.9538 13.3471V8.47934C19.3085 8.47934 21.6632 6.90909 21.6632 3.92562ZM8.00597 21.1983L6.12222 22.1405C5.02336 20.7273 4.39544 18.843 4.39544 16.1736C4.39544 15.0744 4.39544 13.8182 4.7094 12.876L8.00597 11.4628V21.1983ZM24.6458 24.8099L22.6051 26.3802L22.9191 26.6942L23.8609 25.9091L27.3145 29.0496L32.0239 25.9091L31.8669 25.595L30.6111 26.3802L29.0413 24.8099V14.1322L30.2971 13.1901L32.9658 15.3884V24.9669C32.9658 30.9339 31.7099 31.876 29.0413 32.8182V33.2893C33.4367 33.4463 37.5182 32.0331 37.5182 24.3388V13.9752L38.931 12.876L38.6171 12.562L37.3612 13.5041L33.4367 10.2066L29.0413 13.5041V0.628099H28.7273L23.233 4.39669V4.71074C23.8609 5.02479 24.8028 5.33884 24.8028 7.06612L24.6458 24.8099ZM53.3732 23.0826L49.4487 26.0661L45.5242 22.9256V21.0413L52.9022 16.0165V15.8595L49.1347 10.2066L40.9718 14.6033V24.9669L39.402 26.2231L39.7159 26.5372L41.1287 25.438L46.466 29.3636L53.5301 23.7107L53.3732 23.0826ZM45.5242 20.4132V12.719L45.8381 12.562L49.2917 18.0579L45.5242 20.4132ZM83.3563 2.5124C83.3563 2.04132 83.1993 1.57025 83.0424 1.09917H82.7284C82.2575 2.35537 81.6295 2.98347 80.0597 2.98347C78.6469 2.98347 77.705 2.19835 77.0771 1.57025L72.5247 6.75207L72.8387 7.06612L74.4085 5.65289C75.3504 6.43802 76.1353 7.06612 78.333 7.22314V20.2562L69.0712 4.39669C68.2863 3.1405 67.1874 1.41322 64.9897 1.41322C62.478 1.41322 60.2803 3.61157 60.5942 7.06612H61.0652C61.2222 6.12397 61.6931 5.02479 62.792 5.02479C63.5769 5.02479 64.3618 5.80992 64.8327 6.59504V11.7769C62.0071 11.7769 60.1233 13.0331 60.1233 15.3884C60.1233 16.6446 60.7512 18.5289 62.635 19V18.686C62.321 18.3719 62.164 18.0579 62.164 17.5868C62.164 16.8017 62.792 16.1736 63.8908 16.1736H64.6757V22.7686C61.3791 22.7686 58.7105 24.6529 58.7105 27.7934C58.7105 30.7769 61.2222 32.1901 64.0478 32.0331V31.719C62.321 31.562 61.5361 30.7769 61.5361 29.6777C61.5361 28.2645 62.478 27.6364 63.7338 27.6364C64.9897 27.6364 66.0885 28.4215 66.8734 29.3636L71.4259 24.3388L71.1119 24.0248L70.013 25.281C68.2863 23.7107 67.3444 23.2397 65.3036 22.9256V7.22314L77.862 29.2066H78.8039V7.22314C81.1586 7.06612 83.3563 5.18182 83.3563 2.5124ZM94.8159 23.0826L90.8914 26.0661L86.9669 22.9256V21.0413L94.3449 16.0165V15.8595L90.5774 10.2066L82.4144 14.6033V24.9669L80.8446 26.2231L81.1586 26.5372L82.5714 25.438L87.9087 29.3636L94.9728 23.7107L94.8159 23.0826ZM86.9669 20.4132V12.719L87.2808 12.562L90.7344 18.0579L86.9669 20.4132ZM120.404 11.9339L119.305 12.719L116.322 10.2066L112.869 13.3471L114.281 14.7603V26.5372L110.514 24.1818V14.4463L111.77 13.6612L108.159 10.2066L104.706 13.3471L106.118 14.7603V26.0661L105.647 26.3802L102.351 24.0248V14.6033C102.351 12.405 101.252 11.7769 99.9962 10.9917C98.8973 10.2066 98.2694 9.73554 98.2694 8.63636C98.2694 7.69421 99.2113 7.22314 99.6822 6.90909V6.59504C98.4264 6.59504 95.1298 7.85124 95.1298 10.8347C95.1298 12.405 95.9147 13.0331 96.6996 13.8182C97.4845 14.6033 98.2694 15.2314 98.2694 16.6446V25.7521L96.5426 27.0083L96.8566 27.3223L98.4264 26.0661L102.037 29.2066L105.961 26.5372L110.357 29.2066L118.677 24.3388V13.8182L120.718 12.2479L120.404 11.9339ZM149.602 3.29752L148.032 4.71074L144.578 1.57025L139.398 5.33884V1.8843H138.927L139.084 27.3223C138.613 27.3223 137.2 27.0083 136.102 26.6942L135.788 5.49587C135.788 3.92562 134.689 1.72727 131.863 1.72727C129.037 1.72727 127.154 3.92562 127.154 6.12397H127.625C127.782 5.18182 128.253 4.39669 129.194 4.39669C130.136 4.39669 130.921 5.02479 130.921 7.06612V13.1901C128.096 13.3471 126.369 14.9174 126.369 16.9587C126.369 18.2149 126.997 20.0992 128.88 20.0992V19.7851C128.253 19.4711 128.096 19 128.096 18.686C128.096 17.7438 128.88 17.4298 130.136 17.4298H130.764V27.1653C128.41 27.9504 127.468 29.6777 127.468 31.562C127.468 34.2314 129.508 36.1157 132.648 36.1157C134.846 36.1157 136.729 35.8017 138.613 35.3306C140.183 35.0165 142.224 34.5455 143.166 34.5455C144.421 34.5455 144.892 35.1736 144.892 35.9587C144.892 37.0578 144.422 37.5289 143.794 37.6859V38C146.305 37.5289 147.875 35.9587 147.875 33.6033C147.875 31.2479 145.52 29.8347 143.009 29.8347C141.753 29.8347 139.084 30.3058 137.2 30.6198C135.003 31.0909 132.805 31.405 132.177 31.405C131.078 31.405 129.822 30.9339 129.822 29.3636C129.822 28.1074 130.921 27.0083 133.59 27.0083C135.003 27.0083 136.729 27.1653 138.456 27.6364C140.34 28.1074 142.067 28.5785 143.637 28.5785C145.991 28.5785 148.032 27.7934 148.032 24.4959V5.18182L149.916 3.61157L149.602 3.29752ZM143.166 12.876C142.695 13.3471 142.067 13.8182 141.282 13.8182C140.497 13.8182 139.712 13.3471 139.398 12.876V5.96694L140.968 4.86777L143.166 6.90909V12.876ZM143.166 17.5868C142.852 17.2727 142.067 16.8017 141.282 16.8017C140.497 16.8017 139.712 17.2727 139.398 17.5868V13.5041C139.712 13.8182 140.497 14.2893 141.282 14.2893C142.067 14.2893 142.852 13.8182 143.166 13.5041V17.5868ZM143.166 24.9669C143.166 26.2231 142.381 27.4793 140.654 27.4793H139.398V18.2149C139.712 17.9008 140.497 17.4298 141.282 17.4298C142.067 17.4298 142.695 17.9008 143.166 18.2149V24.9669ZM164.672 13.8182L159.649 10.2066L151.957 14.6033V24.8099L150.387 26.0661L150.544 26.3802L151.8 25.438L156.823 29.2066L164.672 24.4959V13.8182ZM156.195 23.7107V12.405L160.119 15.2314V26.3802L156.195 23.7107ZM179.585 10.5207H179.271C178.8 10.8347 178.329 11.1488 177.858 11.1488C177.23 11.1488 176.445 10.8347 176.131 10.3636H175.817L173.149 13.3471L170.48 10.3636L165.771 13.5041L165.928 13.8182L167.184 13.0331L168.753 14.7603V24.6529L166.713 26.2231L167.027 26.5372L167.968 25.7521L171.736 28.8926L176.602 25.595L176.445 25.281L175.033 26.0661L173.149 24.4959V13.5041C173.934 14.2893 174.876 15.0744 175.974 15.0744C178.172 15.2314 179.428 13.0331 179.585 10.5207ZM198.423 25.595L193.085 29.2066L185.864 18.2149L191.045 10.2066H191.358C191.986 10.8347 192.928 11.4628 194.027 11.4628C195.126 11.4628 195.911 10.8347 196.382 10.2066H196.696C196.539 13.3471 194.341 15.2314 192.771 15.2314C191.202 15.2314 190.417 14.4463 189.475 13.9752L189.004 14.7603L196.853 26.3802L198.423 25.438V25.595ZM181.155 24.8099L179.114 26.3802L179.428 26.6942L180.37 25.9091L183.823 29.0496L188.533 25.9091L188.219 25.595L186.963 26.3802L185.393 24.8099V0.628099H185.236L179.585 4.39669V4.71074C180.213 5.02479 181.155 5.18182 181.155 7.06612V24.8099ZM224.481 3.92562C224.481 0.785124 221.499 0 219.144 0V0.471074C220.557 0.471074 221.656 0.942149 221.656 2.04132C221.656 2.66942 221.185 3.61157 219.772 3.61157C218.673 3.61157 216.318 2.98347 214.592 2.35537C212.551 1.72727 210.667 1.09917 209.097 1.09917C205.958 1.09917 203.76 3.45455 203.76 6.12397C203.76 8.47934 205.487 9.26446 206.115 9.57851L206.272 9.26446C205.801 8.95041 205.33 8.63636 205.33 7.69421C205.33 7.06612 205.958 5.96694 207.527 5.96694C208.94 5.96694 210.824 6.59504 213.336 7.38016C215.533 8.00826 217.888 8.47934 219.144 8.63636V13.5041L216.789 15.5455V15.7025L219.144 17.7438V24.4959C217.888 25.281 216.475 25.438 215.219 25.438C212.865 25.438 210.824 24.8099 209.097 22.9256L215.533 19.7851V8.79339L207.684 12.2479C208.469 10.2066 210.196 8.79339 211.766 7.69421L211.609 7.38016C206.9 8.63636 202.661 12.876 202.661 18.2149C202.661 24.4959 207.841 29.2066 213.65 29.2066C219.929 29.2066 224.01 24.1818 224.01 19H223.696C222.754 21.0413 221.342 22.9256 219.615 23.8678V17.4298L222.127 15.3884V15.2314L219.772 13.1901V8.47934C222.127 8.47934 224.481 6.90909 224.481 3.92562ZM210.824 21.1983L208.94 22.1405C207.841 20.7273 207.213 18.843 207.213 16.1736C207.213 15.0744 207.37 13.8182 207.684 12.876L210.981 11.4628L210.824 21.1983ZM229.976 2.35537H229.819L226.679 5.02479V5.18182L229.348 8.16529H229.662L232.801 5.49587V5.33884L229.976 2.35537ZM234.685 25.595L233.429 26.3802L231.859 24.8099V13.9752L233.429 12.876L233.115 12.562L232.016 13.5041L229.191 10.2066L224.638 13.3471L224.952 13.8182L226.051 13.0331L227.464 14.7603V24.9669L225.423 26.5372L225.58 26.8512L226.679 26.0661L230.133 29.2066L234.842 26.0661L234.685 25.595ZM260.901 25.438L259.802 26.2231L258.075 24.6529V13.9752L259.645 12.719L259.331 12.405L258.075 13.5041L254.464 10.2066L249.755 13.5041L246.144 10.2066L241.749 13.5041L238.923 10.2066L234.371 13.3471L234.528 13.8182L235.627 13.0331L237.197 14.7603V24.9669L235.941 26.2231L239.551 29.2066L243.005 26.0661L241.592 24.6529V13.9752L243.005 13.0331L245.36 15.2314V24.6529L244.104 25.9091L247.714 28.8926L251.168 25.7521L249.755 24.3388V13.9752L251.011 13.1901L253.523 15.3884V24.8099L252.424 25.9091L256.034 29.2066L260.901 25.9091V25.438ZM274.558 23.0826L270.633 26.0661L266.709 22.9256V21.0413L274.087 16.0165V15.8595L270.319 10.2066L262.156 14.6033V25.281L267.651 29.2066L274.715 23.5537L274.558 23.0826ZM266.709 20.4132V12.719L267.023 12.562L270.476 18.0579L266.709 20.4132ZM288.843 19L285.86 16.6446C287.901 14.9174 288.686 12.562 288.686 10.9917V10.0496H288.372C288.058 10.8347 287.43 11.6198 286.174 11.6198C284.919 11.6198 284.134 10.9917 283.349 10.0496L276.285 13.9752V19.6281L278.953 21.6694C276.285 24.0248 275.814 25.595 275.814 26.8512C275.814 28.4215 276.599 29.5207 277.854 29.9917L278.011 29.6777C277.697 29.3636 277.383 29.2066 277.383 28.4215C277.383 27.9504 278.011 27.1653 279.267 27.1653C280.837 27.1653 281.779 28.2645 282.25 28.7355L289 24.6529V19H288.843ZM287.116 14.2893C286.017 16.1736 283.663 18.0579 282.25 19L280.523 17.5868V12.0909C281.151 13.6612 282.878 14.9174 284.605 14.9174C285.703 14.9174 286.331 14.7603 287.116 14.2893ZM284.448 26.8512C283.663 25.124 281.779 23.8678 279.895 23.8678C279.424 23.8678 278.168 23.8678 276.913 24.6529C277.697 23.3967 279.738 21.1983 282.407 19.6281L284.291 21.1983L284.448 26.8512Z" fill="#33899d"/>
</svg>
