<svg width="153" height="50" viewBox="0 0 153 50" fill="#33899d" xmlns="http://www.w3.org/2000/svg">
<path d="M34.579 26.6769C35.0951 26.4188 35.6628 26.1092 36.1789 25.8511C36.3854 25.7479 37.1079 25.4898 37.2111 25.2834C37.2627 25.1802 37.2111 24.8705 37.2111 24.7157V23.477V14.6516V6.03269V4.89726C37.2111 4.84565 37.2627 4.48438 37.2111 4.43277C37.1595 4.38115 36.7466 4.43277 36.695 4.43277H35.5596C35.1467 4.43277 35.1983 4.48438 34.9403 4.79404C33.9597 6.0843 32.9791 7.37456 31.9985 8.71643C31.534 9.33576 31.0695 9.90347 30.6566 10.5228C30.3469 10.9357 30.3469 10.9873 29.7792 10.9873L29.9341 7.581C29.9857 6.75524 29.9857 5.92947 30.0373 5.1037C30.0373 4.79404 30.0889 4.48438 30.0889 4.17471C30.0889 4.07149 30.0373 3.76183 30.0889 3.71022C30.1921 3.55539 31.1211 3.65861 31.3792 3.65861H50.6815C50.7847 3.65861 51.2492 3.607 51.3524 3.65861C51.4556 3.71022 51.404 4.01988 51.404 4.17471C51.4556 4.84565 51.4556 5.5682 51.5072 6.23913C51.5588 7.73583 51.6105 9.18093 51.7137 10.6776V10.9873C51.4556 10.9873 51.2492 11.0389 51.0427 10.8841C50.8363 10.7292 50.6815 10.4196 50.5266 10.2131C49.9073 9.38737 49.288 8.50999 48.617 7.68422L46.7591 5.20692C46.6559 5.05209 46.501 4.69082 46.2946 4.5876C46.1397 4.48438 45.8301 4.53599 45.6236 4.53599H44.7979C44.6947 4.53599 44.2818 4.48438 44.1785 4.53599C44.1269 4.5876 44.1786 4.5876 44.1269 4.69082C44.0237 5.1037 44.1269 5.61981 44.1269 6.03269V23.9931C44.1269 24.3544 44.0237 24.8705 44.1269 25.2318C44.2302 25.5931 45.0559 25.8511 45.4172 26.0059C45.7785 26.2124 46.3978 26.3672 46.7075 26.6769C46.8107 26.7801 46.9139 27.2962 46.8107 27.451C46.7591 27.5026 46.501 27.451 46.4494 27.451H35.0951C34.9919 27.451 34.6306 27.5026 34.579 27.451C34.5274 27.2446 34.579 26.8317 34.579 26.6769ZM53.7265 25.7479V18.2128V5.87786V3.86505C53.7265 3.55539 53.8297 3.09089 53.7265 2.78123C53.6233 2.41996 53.0039 2.36835 52.6427 2.21352C52.4362 2.1619 51.7653 2.00707 51.6621 1.80063V1.38775H51.8169C52.0233 1.28453 52.4362 1.28453 52.6943 1.23292C53.1588 1.1297 53.6233 1.07809 54.0361 0.974864C55.0684 0.768422 56.1522 0.561981 57.1844 0.407149C57.8037 0.303928 58.423 0.149097 59.0424 0.045876C59.1972 0.045876 59.8165 -0.057345 59.8681 0.045876C59.9197 0.0974864 59.8681 0.303928 59.8681 0.355539V11.0389C61.8293 9.07771 65.2356 7.99389 67.971 8.66482C70.3451 9.23254 71.1192 11.4518 71.1192 13.7226C71.1708 16.6128 71.1192 19.4514 71.1192 22.3416V24.6641C71.1192 24.9221 71.016 25.5414 71.1192 25.7995C71.1708 25.9027 71.3773 25.9543 71.4805 26.0575C71.8418 26.264 72.2546 26.4704 72.6159 26.6769C72.6675 26.7285 72.8224 26.7801 72.8224 26.8317C72.874 26.8833 72.874 27.3478 72.8224 27.3994C72.7707 27.5026 72.7708 27.451 72.6159 27.451C72.0482 27.5542 71.4289 27.451 70.9128 27.451H63.4809C63.4293 27.451 63.1712 27.5026 63.1196 27.451C63.068 27.3994 63.068 26.8317 63.1196 26.7801C63.2744 26.5737 63.8937 26.3672 64.1002 26.2124C64.255 26.1092 64.7195 25.9543 64.8227 25.7995C64.926 25.6447 64.8227 25.0769 64.8227 24.9221V22.8061C64.8227 19.8127 64.8743 16.7677 64.8227 13.7743C64.8227 12.8969 64.6679 11.8647 63.7905 11.4002C63.326 11.1421 62.7067 11.0905 62.1906 11.0905C61.7777 11.0905 61.3648 11.1937 61.0036 11.297C60.6939 11.4002 60.1262 11.6066 59.9197 11.8647C59.7649 12.0711 59.8681 12.3808 59.8681 12.6388V24.8189C59.8681 25.0769 59.7649 25.5931 59.8681 25.7995C59.9197 25.9027 60.1262 26.0059 60.281 26.0575C60.6423 26.264 61.1068 26.4704 61.4681 26.6769C61.5197 26.7285 61.6229 26.7285 61.6229 26.7801C61.6745 26.8317 61.6745 27.2962 61.6229 27.3478C61.5713 27.3994 61.5197 27.3994 61.4164 27.3994C60.8487 27.451 60.2294 27.3994 59.6617 27.3994H52.2298C52.1782 27.3994 51.9201 27.451 51.8685 27.3994C51.8169 27.3478 51.8685 26.8317 51.9201 26.7285C52.0749 26.522 52.6427 26.3156 52.8491 26.2124C53.2104 26.0575 53.4684 25.9027 53.7265 25.7479ZM78.2415 18.6256C78.3447 20.8965 79.0672 23.4254 81.1316 24.6641C82.2155 25.2834 83.5573 25.4898 84.796 25.3866C86.2927 25.2318 87.5313 24.5092 88.8216 23.8383C88.8216 24.0447 88.8732 24.406 88.8216 24.6125C88.7184 24.8189 88.4603 25.0769 88.3055 25.2318C88.0991 25.4382 87.841 25.6963 87.583 25.9027C86.7056 26.6253 85.725 27.1414 84.6928 27.5026C82.7316 28.1736 80.4607 28.122 78.4479 27.6059C76.848 27.193 75.4029 26.4188 74.3191 25.1802C73.2352 23.9415 72.6159 22.3416 72.3579 20.6901C71.7902 17.1289 72.4611 13.0517 75.4029 10.6776C77.9834 8.61321 82.1122 8.20033 85.1573 9.43898C88.8732 10.9357 89.4925 15.1677 89.4925 18.6773H79.6349C79.1704 18.6256 78.7059 18.6256 78.2415 18.6256ZM78.1382 17.7483C79.1704 17.6967 80.2027 17.645 81.2865 17.5418C81.9058 17.4902 82.5767 17.4902 83.1961 17.4386C83.2993 17.4386 83.5573 17.4386 83.6606 17.387C83.8154 17.2838 83.7122 16.2516 83.7122 16.0451C83.6606 14.1871 83.6089 11.9163 82.5251 10.3164C81.751 9.18093 80.5639 9.38737 79.8414 10.4196C78.3447 12.4324 78.1382 15.4258 78.1382 17.7483ZM0 36.5861C0 33.6959 0.567715 30.7025 2.16764 28.2768C3.71595 25.9027 6.19326 24.3544 8.877 23.5802C12.1285 22.6513 15.7412 22.7545 19.0959 23.3738C19.8184 23.5286 20.541 23.6835 21.2119 23.8899C21.3151 23.9415 21.7796 24.0447 21.8312 24.148V24.3028C21.9861 24.9221 21.8828 25.6963 21.8828 26.3156C21.9344 27.9155 21.9344 29.5671 21.9861 31.167C21.7796 31.167 21.4183 31.2186 21.2635 31.167C21.1603 31.1154 21.0571 30.8573 21.0055 30.7541C20.5926 30.1348 20.1797 29.5154 19.8184 28.8445C18.941 27.451 18.012 26.0575 17.1347 24.6641C16.6702 23.8899 15.3799 23.8899 14.5541 23.8899C13.6252 23.8899 12.6962 24.0447 11.922 24.5092C10.1673 25.5931 9.34149 27.7091 8.877 29.6187C8.15445 32.6637 8.20606 35.8635 8.36089 38.9602C8.51573 41.3342 8.72217 43.8632 9.65116 46.0308C10.2189 47.3727 11.1995 48.5597 12.6962 48.8694C13.1607 48.9726 13.6252 48.9726 14.1413 48.921C14.4509 48.8694 15.5347 48.8178 15.6896 48.5081C15.7412 48.4049 15.6896 48.1468 15.6896 48.0436V47.1662V41.6955V39.5795C15.6896 39.2182 15.7928 39.0634 15.4831 38.8569C15.1219 38.6505 14.709 38.4441 14.3477 38.186C14.0897 38.0312 13.5736 37.8763 13.4187 37.6699C13.3155 37.5667 13.2639 36.999 13.3671 36.8957C13.4187 36.7925 13.4187 36.8441 13.5736 36.8441C14.038 36.7409 14.6574 36.8441 15.1219 36.8441H23.1215C23.6376 36.8441 24.2053 36.7925 24.7214 36.8441H24.9279C24.9795 36.8957 24.9795 37.6183 24.9279 37.7215C24.8246 37.8763 24.3085 38.0828 24.1021 38.186C23.7408 38.3924 23.3279 38.5989 22.9667 38.8569C22.5538 39.0634 22.6054 39.0634 22.6054 39.5279V47.9404C22.6054 48.0436 22.657 48.3017 22.6054 48.4049C22.5022 48.6629 21.4183 48.8178 21.1087 48.921C20.2313 49.179 19.3023 49.3855 18.3733 49.5403C16.567 49.85 14.7606 49.9532 12.9542 49.9016C10.064 49.7984 7.01902 49.179 4.64494 47.4243C2.58052 45.9276 1.23865 43.6567 0.619326 41.1794C0.154831 39.7343 0 38.1344 0 36.5861ZM23.7924 31.8895C23.7924 31.7863 23.7408 31.3734 23.7924 31.3218C23.844 31.2702 23.8956 31.3218 23.9473 31.2702C24.2569 31.1154 24.6698 31.1154 25.0311 31.0638C26.2181 30.8573 27.4052 30.6509 28.6438 30.4444C29.5728 30.2896 30.5018 30.0832 31.3792 29.9799C31.6372 29.9283 31.9469 29.9283 32.2049 30.0316C32.463 30.0832 32.3598 30.0316 32.4114 30.238C32.5146 30.8573 32.4114 31.5799 32.4114 32.1992V42.9858C32.4114 44.276 32.0501 46.6501 33.2887 47.4243C33.9081 47.8372 34.7854 47.8372 35.508 47.6823C36.0757 47.5791 37.1595 47.1662 37.366 46.5469C37.4176 46.3921 37.366 46.1856 37.366 46.0308V44.947V37.7731V34.4701V33.3862C37.366 33.283 37.4176 32.9733 37.366 32.8701C37.2111 32.7153 36.695 32.5605 36.5402 32.5089C36.2305 32.4056 35.9725 32.2508 35.6628 32.1476C35.5596 32.096 35.1983 32.0444 35.1467 31.9411C35.0951 31.8895 35.0951 31.425 35.1467 31.3734C35.1983 31.3218 35.1983 31.3734 35.2499 31.3218C35.508 31.167 35.9725 31.2186 36.2305 31.167C38.3466 30.8057 40.5142 30.3412 42.6818 30.0316C42.9399 29.9799 43.198 29.9799 43.456 30.0316C43.7141 30.0832 43.6108 29.9799 43.6624 30.238C43.7657 30.7541 43.6624 31.4766 43.6624 32.0444V46.9082C43.6624 47.063 43.6108 47.3211 43.6624 47.5275C43.7141 47.6823 43.6624 47.6307 43.9205 47.7339C44.4366 47.9404 45.0043 48.1984 45.5204 48.4049C45.6753 48.4565 45.7269 48.4565 45.7785 48.5597C45.8301 48.6629 45.8301 49.0242 45.7785 49.0242C45.6753 49.1274 45.1591 49.0758 45.0559 49.1274C43.9205 49.2823 42.7851 49.3855 41.598 49.5403C40.5658 49.6435 39.5336 49.7984 38.553 49.9016C38.3466 49.9532 38.1401 49.9532 37.9337 49.9016C37.8305 49.9016 37.5208 49.9016 37.4692 49.85C37.4176 49.7467 37.4692 49.3339 37.4692 49.2306V48.3533C37.4692 48.1984 37.5724 47.7856 37.4692 47.6307C37.366 47.4759 37.1595 47.6823 37.0047 47.7855C36.5918 48.1468 36.1273 48.5081 35.6628 48.7662C33.9597 49.7984 31.8437 50.2629 29.8825 49.85C28.4374 49.5403 27.1987 48.7145 26.5794 47.3211C26.1149 46.3405 26.0117 45.2566 26.0117 44.2244V38.0828V34.5733V33.3862C26.0117 33.283 26.0633 32.9733 26.0117 32.8701C25.9084 32.7153 25.2891 32.5605 25.1343 32.4572C24.6182 32.2508 24.2053 32.096 23.7924 31.8895ZM72.4611 29.9283C72.5643 29.9283 73.0288 29.9283 73.0804 30.0316C73.132 30.0832 73.0804 30.4444 73.0804 30.496V35.0378C73.0804 35.1926 73.0288 35.4507 73.0804 35.6055V35.7087C73.2869 35.9151 73.3385 35.2442 73.3901 35.1926C73.8546 33.283 74.7319 31.0638 76.6931 30.2896C77.0544 30.1348 77.4157 30.0832 77.777 30.0316C78.0866 30.0316 78.964 29.9283 79.1188 30.1864C79.1704 30.2896 79.1188 30.5477 79.1188 30.6509V35.9151C77.8802 35.6571 76.4867 35.7087 75.2997 35.9668C74.732 36.07 74.2158 36.2248 73.6997 36.4829C73.4417 36.5861 73.3901 36.5345 73.3385 36.7409C73.2869 36.9474 73.3385 37.3086 73.3385 37.5151V47.4759C73.3385 47.5791 73.2869 47.7339 73.3385 47.8372C73.4417 47.992 73.803 48.0952 73.9578 48.1468C74.2158 48.3017 74.5255 48.4565 74.7836 48.6113C74.8868 48.6629 75.0416 48.7145 75.0932 48.8178C75.1448 48.8694 75.1448 49.4887 75.0932 49.5403C75.0416 49.5919 74.7319 49.5403 74.6287 49.5403H66.0614C65.8033 49.5403 65.3388 49.6435 65.1324 49.5403H64.9776C64.926 49.4887 64.9776 48.921 64.9776 48.8694C65.0808 48.5597 65.7517 48.3533 66.0614 48.1984C66.2678 48.0952 66.6807 47.9404 66.7839 47.7339C66.8355 47.6307 66.7839 47.3211 66.7839 47.2178V46.134V32.8701C66.7839 32.8185 66.8355 32.5605 66.7839 32.5089C66.7323 32.4572 66.4743 32.4056 66.3711 32.4056C66.0614 32.3024 65.7517 32.1992 65.4421 32.1476C65.1324 32.0444 64.3582 31.9927 64.6163 31.4766C64.6679 31.3218 64.8743 31.3734 65.0808 31.3218C67.3516 30.9089 69.5709 30.496 71.8418 30.0832C72.0482 29.9799 72.2546 29.9799 72.4611 29.9283ZM91.9182 30.3928V26.264V25.0769C91.9182 24.9221 91.9698 24.6125 91.9182 24.4576C91.8666 24.3544 91.6602 24.3028 91.5053 24.2512C91.0925 24.0963 90.6796 23.9415 90.2151 23.7867C89.9054 23.6835 89.7506 23.7351 89.7506 23.3738C89.7506 23.0641 89.699 23.1674 89.957 23.1157C90.5247 22.9093 91.1957 22.9093 91.7634 22.8061C93.4665 22.4964 95.1181 22.1868 96.8212 21.8771C97.1825 21.8255 97.5438 21.7223 97.905 21.7739C98.3179 21.8255 98.3695 21.7223 98.3695 22.0835C98.4211 22.9093 98.3695 23.7867 98.3695 24.6125V47.2178C98.3695 47.4243 98.3179 47.4243 98.4728 47.5275C98.7824 47.7339 99.2985 47.8372 99.6082 47.9404C99.8146 47.992 100.382 48.0952 100.486 48.25C100.537 48.3017 100.537 48.8694 100.486 48.921C100.434 48.9726 100.124 48.9726 100.073 48.9726C99.3501 49.0758 98.6792 49.179 97.9567 49.2306C96.3567 49.4371 94.7568 49.6435 93.1053 49.85C92.8472 49.9016 92.2279 50.0048 92.1247 49.7984C92.0214 49.5919 92.1247 48.921 92.1247 48.7145C92.1247 48.5597 92.2279 47.8888 92.1247 47.7855C92.0214 47.6823 90.886 48.7145 90.7312 48.8178C90.1119 49.2306 89.4409 49.5403 88.7184 49.7467C87.583 50.0564 86.2927 50.0564 85.1573 49.7984C80.2027 48.6629 79.1705 42.7793 79.5833 38.4957C79.7898 36.2248 80.5123 33.9539 82.0606 32.3024C83.5057 30.8057 85.4669 30.0316 87.4797 29.8767C89.028 29.7219 90.5247 29.8251 91.9182 30.3928ZM91.9182 46.8566V34.1604V31.7863C91.9182 31.4766 91.8666 31.425 91.5053 31.2186C90.7828 30.8057 89.8538 30.6509 89.0797 30.9605C87.8926 31.425 87.3249 32.8185 87.0152 33.9539C86.3959 36.0184 86.3443 38.2376 86.3959 40.4053C86.4475 42.2632 86.4991 44.5341 87.5313 46.1856C88.4603 47.6307 90.5764 47.992 91.9182 46.8566ZM109.001 29.9283C109.259 29.9799 109.569 29.8767 109.672 30.1348C109.724 30.2896 109.672 30.6509 109.672 30.8057V46.9598C109.672 47.1662 109.621 47.4759 109.672 47.6823C109.724 47.8888 109.93 47.9404 110.137 48.0436C110.446 48.1984 110.704 48.3533 111.014 48.5081C111.117 48.5597 111.427 48.6629 111.479 48.8178C111.479 48.8694 111.53 49.4887 111.479 49.5403H111.324C111.014 49.5919 110.601 49.5403 110.24 49.5403H102.395C102.189 49.5403 101.621 49.6435 101.466 49.5403C101.363 49.4887 101.311 48.8694 101.415 48.7662C101.518 48.6113 101.879 48.5081 102.034 48.4565C102.344 48.3017 102.653 48.0952 102.963 47.9404C103.221 47.7856 103.169 47.8372 103.169 47.6307C103.273 46.8566 103.169 45.9792 103.169 45.205V41.1278V33.6959C103.169 33.4895 103.221 33.1282 103.169 32.9217C103.118 32.7153 102.86 32.7153 102.653 32.6121C102.292 32.4572 101.982 32.354 101.621 32.1992C101.518 32.1476 101.105 32.096 101.002 31.9411C100.95 31.8895 100.95 31.3734 101.002 31.3218C101.053 31.2702 101.156 31.3218 101.208 31.2702C101.621 31.1154 102.085 31.1154 102.55 31.0121C103.221 30.9089 103.84 30.7541 104.511 30.6509C105.801 30.4444 107.04 30.1864 108.33 29.9799C108.588 30.0316 108.795 29.9799 109.001 29.9283ZM109.724 25.1286C109.621 28.2252 105.44 29.5671 103.531 27.1414C102.653 26.0059 102.602 24.4576 103.376 23.2706C104.15 22.0835 105.647 21.5674 107.04 21.8771C108.588 22.1868 109.724 23.5286 109.724 25.1286ZM132.329 47.7855V35.3474V32.9733C132.329 32.9217 132.381 32.6637 132.329 32.6121C132.278 32.5089 131.968 32.4572 131.865 32.4572L130.936 32.1476C130.781 32.096 130.368 32.0444 130.265 31.8895C130.162 31.7863 130.213 31.5283 130.213 31.3734C130.213 31.0638 130.316 31.1154 130.626 31.0638L134.032 30.4444L137.439 29.8251C137.645 29.7735 137.8 29.7219 138.006 29.7219C138.11 29.7219 138.626 29.7219 138.729 29.7735C138.781 29.8251 138.729 30.1348 138.729 30.238V31.2186C138.729 31.3734 138.626 31.8379 138.729 31.9927C138.832 32.1992 139.039 31.9927 139.193 31.8379C139.658 31.4766 140.122 31.167 140.639 30.9089C142.496 29.8767 144.716 29.4122 146.832 29.7219C148.277 29.9283 149.464 30.7025 149.98 32.096C150.341 33.0766 150.393 34.1088 150.393 35.141V46.9082C150.393 47.1146 150.341 47.4759 150.393 47.6823C150.444 47.8888 150.599 47.9404 150.857 48.0436C151.115 48.1984 151.425 48.3533 151.683 48.5081C151.786 48.5597 152.148 48.6629 152.199 48.8178C152.251 48.921 152.251 49.4371 152.199 49.4887C152.148 49.5919 152.251 49.4887 152.096 49.5403C151.89 49.6435 151.425 49.5403 151.167 49.5403H143.787C143.477 49.5403 142.29 49.6951 142.135 49.4887C142.084 49.4371 142.084 48.8694 142.135 48.7662C142.187 48.6629 142.496 48.5597 142.6 48.5081C142.909 48.3533 143.167 48.1984 143.477 48.0436C143.58 47.992 143.89 47.8888 143.942 47.7855C143.993 47.6823 143.942 47.4759 143.942 47.3727V46.2372V42.6245V35.6571C143.942 34.8313 143.993 33.9023 143.477 33.1798C143.064 32.5605 142.342 32.4056 141.619 32.354C141.051 32.354 140.535 32.4056 140.019 32.5605C139.761 32.6637 138.987 32.8701 138.832 33.1798C138.781 33.283 138.832 33.4895 138.832 33.5927V46.9598C138.832 47.1146 138.781 47.4759 138.832 47.6307C138.884 47.8372 139.193 47.8888 139.348 47.992C139.606 48.1468 139.916 48.3017 140.174 48.4565C140.277 48.5081 140.484 48.6113 140.535 48.6629C140.587 48.7145 140.587 49.3339 140.535 49.3855C140.535 49.4371 140.484 49.3855 140.432 49.3855C140.226 49.4887 139.71 49.3855 139.503 49.3855H130.833C130.574 49.3855 130.523 49.4371 130.471 49.2823C130.42 49.179 130.42 48.7145 130.471 48.6113C130.523 48.5081 130.833 48.4049 130.936 48.3533C131.452 48.3017 131.865 48.0436 132.329 47.7855ZM121.388 38.2892C121.388 36.9474 121.439 35.5539 121.336 34.1604C121.181 32.6637 120.768 31.0122 119.065 30.7025C118.549 30.5993 117.62 30.4444 117.259 30.8573C116.898 31.2186 116.64 31.7347 116.33 32.1476L113.698 35.7087C113.543 35.9151 113.388 36.328 113.182 36.4312C113.13 36.4829 112.614 36.4829 112.614 36.4312C112.562 36.3796 112.614 36.0184 112.614 35.9151V31.7347C112.614 31.5799 112.562 31.3218 112.614 31.167C112.717 30.9089 113.853 30.7541 114.111 30.6509C115.556 30.2896 117.053 30.0316 118.549 29.9283C120.665 29.7735 123.039 29.8251 125.001 30.7541C126.549 31.4766 127.529 32.7669 127.787 34.4184C127.942 35.2442 127.891 36.1732 127.891 36.999V47.3211C127.891 47.4759 127.787 47.8888 127.891 47.992C127.942 48.0436 128.2 48.0952 128.252 48.0952C128.665 48.1984 129.026 48.3017 129.439 48.4049C129.697 48.4565 129.749 48.4565 129.749 48.7145C129.749 48.9726 129.8 48.9726 129.491 49.0758C129.129 49.2306 128.768 49.3855 128.407 49.4887C126.497 50.0564 123.504 50.2112 122.11 48.4565C122.007 48.3017 121.697 47.6307 121.543 47.5791C121.336 47.5275 120.717 48.3533 120.51 48.5081C119.685 49.2306 118.601 49.6435 117.517 49.7984C115.504 50.0564 113.337 49.6435 112.098 47.8888C111.066 46.3921 110.859 44.0696 111.633 42.4181C113.027 39.2698 117.156 38.9602 120.149 38.4441C120.51 38.4441 120.923 38.3408 121.388 38.2892ZM121.388 46.8566V39.2182C119.839 39.3214 118.24 39.4247 117.672 41.1278C117.259 42.2632 117.259 43.6051 117.414 44.7921C117.517 45.6179 117.723 46.6501 118.498 47.1662C119.323 47.7339 120.717 47.6307 121.388 46.8566ZM56.049 38.2892C56.049 36.9474 56.1006 35.5539 55.9973 34.1604C55.8425 32.6637 55.4296 31.0122 53.7265 30.7025C53.2104 30.5993 52.2814 30.4444 51.9201 30.8573C51.5588 31.2186 51.3008 31.7347 50.9911 32.1476L48.359 35.7087C48.2042 35.9151 48.0493 36.328 47.8429 36.4312C47.7913 36.4829 47.2752 36.4829 47.2752 36.4312C47.2236 36.3796 47.2752 36.0184 47.2752 35.9151V31.7863C47.2752 31.6315 47.2236 31.3734 47.2752 31.2186C47.3784 30.9605 48.4622 30.8057 48.7719 30.7025C50.217 30.3412 51.7137 30.0832 53.1588 29.9799C55.2748 29.8251 57.6489 29.8767 59.6101 30.8057C61.1584 31.5283 62.139 32.8185 62.397 34.4701C62.5519 35.2958 62.5003 36.2248 62.5003 37.0506V47.3727C62.5003 47.5275 62.397 47.9404 62.5003 48.0436C62.5519 48.0952 62.8099 48.1468 62.8615 48.1468C63.2744 48.25 63.6357 48.3533 64.0486 48.4565C64.3066 48.5081 64.3582 48.5081 64.3582 48.7662C64.3582 49.0242 64.4099 49.0242 64.1002 49.1274C63.7389 49.2823 63.3776 49.4371 63.0164 49.5403C61.1068 50.108 58.1134 50.2629 56.7199 48.5081C56.6167 48.3533 56.307 47.6823 56.1522 47.6307C55.9457 47.5791 55.3264 48.4049 55.1716 48.5597C54.3458 49.2823 53.262 49.6951 52.1782 49.85C50.1654 50.108 47.9977 49.6951 46.7591 47.9404C45.7269 46.4437 45.5204 44.1212 46.2946 42.4697C47.6881 39.3214 51.8169 39.0118 54.7587 38.4957C55.1716 38.4441 55.5845 38.3408 56.049 38.2892ZM56.049 46.8566V39.2182C54.5006 39.3214 52.9007 39.4247 52.333 41.1278C51.9201 42.2632 51.9201 43.6051 52.075 44.7921C52.1782 45.6179 52.3846 46.6501 53.1588 47.1662C53.9845 47.7339 55.378 47.6307 56.049 46.8566Z"/>
</svg>
