<svg width="160" height="159" viewBox="0 0 160 159" fill="none" xmlns="http://www.w3.org/2000/svg">
<path fill-rule="evenodd" clip-rule="evenodd" d="M68.6675 0.684501C42.2355 4.4255 19.4576 21.3045 7.90855 45.7075C2.31555 57.5265 0.721563 65.2295 0.767563 80.2075C0.803563 91.7035 1.14056 94.2485 3.68156 102.208C8.20556 116.378 13.4045 125.017 23.5895 135.294C31.1575 142.93 38.9595 148.337 48.6955 152.696C60.5535 158.004 74.0605 159.795 89.3865 158.091C104.805 156.376 113.177 153.25 125.984 144.427C140.195 134.636 150.441 120.561 156.717 102.208C159.287 94.6935 159.985 70.4145 157.821 63.7995C156.927 61.0675 156.196 58.0855 156.196 57.1735C156.196 56.2625 155.521 54.2095 154.696 52.6115C153.871 51.0145 152.495 48.3565 151.638 46.7055C150.781 45.0545 149.908 42.8075 149.697 41.7135C148.591 35.9695 135.945 21.4525 125.663 14.1255C110.612 3.39851 87.6875 -2.0075 68.6675 0.684501ZM61.9065 5.27651C54.9765 6.95551 51.6685 8.5835 52.8385 9.7405C53.3095 10.2065 56.7075 9.75052 60.3885 8.72652C64.0705 7.70352 69.5825 6.5535 72.6385 6.1715C75.6945 5.7895 78.1955 5.07852 78.1955 4.59252C78.1955 3.27152 68.5035 3.67851 61.9065 5.27651ZM82.1955 4.57851C82.1955 5.05751 84.5575 5.75951 87.4455 6.13851C90.3335 6.51751 95.5246 7.53351 98.9816 8.39751C104.699 9.82651 107.521 9.6995 105.907 8.0855C103.296 5.4745 82.1955 2.35351 82.1955 4.57851ZM65.1955 10.6845C63.2705 11.0955 60.4585 11.9335 58.9455 12.5455C55.6135 13.8935 55.2105 16.1845 58.4455 15.3835C63.0885 14.2345 69.8205 12.8185 73.4455 12.2275C75.5085 11.8915 77.1955 11.1875 77.1955 10.6625C77.1955 9.5675 70.3665 9.5805 65.1955 10.6845ZM83.1955 10.5325C83.1955 11.1295 84.8835 11.8915 86.9455 12.2275C91.8265 13.0235 98.1135 14.3805 100.946 15.2495C102.636 15.7685 103.196 15.5385 103.196 14.3245C103.196 13.4345 102.387 12.7075 101.396 12.7075C100.406 12.7075 99.1676 12.2905 98.6456 11.7805C97.1796 10.3505 83.1955 9.22152 83.1955 10.5325ZM110.755 10.6125C110.212 11.4895 115.143 15.7075 116.711 15.7075C117.099 15.7075 120.497 17.9475 124.261 20.6855C131.986 26.3045 134.496 25.9485 127.742 20.1925C122.05 15.3405 111.507 9.39551 110.755 10.6125ZM38.2565 15.8425C29.9575 21.5325 28.1955 23.0725 28.1955 24.6365C28.1955 26.3545 29.0235 25.9565 35.0215 21.3495C38.1425 18.9525 42.6085 16.0175 44.9455 14.8285C47.2825 13.6395 49.1955 12.2255 49.1955 11.6875C49.1955 9.52652 45.3235 10.9975 38.2565 15.8425ZM64.9875 17.0705C62.9475 17.7055 60.6975 18.8325 59.9875 19.5745C58.9085 20.7025 59.3545 20.8185 62.6955 20.2775C64.8955 19.9215 68.3655 19.3775 70.4075 19.0675C72.4485 18.7585 74.6415 17.8755 75.2795 17.1065C76.2415 15.9465 75.7786 15.7255 72.5676 15.8125C70.4386 15.8705 67.0265 16.4365 64.9875 17.0705ZM84.1955 16.6885C84.1955 17.2275 85.2085 17.8755 86.4455 18.1275C87.6825 18.3795 89.9325 18.8385 91.4455 19.1465C92.9585 19.4555 95.3205 19.9845 96.6955 20.3245C98.4715 20.7625 99.1955 20.5325 99.1955 19.5315C99.1955 18.7055 97.3266 17.6225 94.6816 16.9145C89.2256 15.4555 84.1955 15.3475 84.1955 16.6885ZM109.229 16.9575C109.247 17.6455 112.727 20.4575 116.963 23.2075C126.153 29.1745 126.196 29.1955 126.196 27.6845C126.196 26.2305 122.543 23.2635 115.449 18.9575C109.419 15.2965 109.183 15.2205 109.229 16.9575ZM46.1955 18.1795C44.8205 18.9725 42.7955 20.0725 41.6955 20.6225C38.2205 22.3625 32.6775 27.5225 33.4515 28.2965C33.8605 28.7055 36.7535 27.2775 39.8805 25.1235C43.0085 22.9695 46.4605 20.7575 47.5525 20.2075C49.5995 19.1765 51.0065 16.6965 49.5285 16.7225C49.0705 16.7305 47.5705 17.3865 46.1955 18.1795ZM66.4455 22.8265C62.4835 23.9705 62.1645 25.7445 65.9455 25.6075C70.0515 25.4595 73.4955 24.3075 73.9545 22.9295C74.4325 21.4965 71.2055 21.4515 66.4455 22.8265ZM86.1955 22.6485C86.1955 24.0165 87.3795 24.5535 92.0405 25.2985C97.3605 26.1495 97.6695 24.2105 92.4455 22.7605C87.7895 21.4665 86.1955 21.4385 86.1955 22.6485ZM107.772 22.5845C107.267 23.4015 119.083 32.7075 120.625 32.7075C120.939 32.7075 121.196 32.0635 121.196 31.2755C121.196 29.0295 108.763 20.9805 107.772 22.5845ZM44.1915 26.4575C41.2515 28.5205 38.6625 30.7705 38.4375 31.4575C37.7435 33.5815 40.7256 32.8365 43.1196 30.2875C44.3706 28.9575 46.6665 27.3405 48.2225 26.6965C51.2225 25.4535 53.0205 22.7075 50.8345 22.7075C50.1215 22.7075 47.1315 24.3955 44.1915 26.4575ZM20.2815 32.1445C15.3885 38.3935 9.94052 48.4315 11.0635 49.1265C11.9745 49.6885 18.1955 40.6595 18.1955 38.7755C18.1955 38.2795 18.5366 37.7245 18.9526 37.5405C19.9196 37.1155 26.1955 29.1195 26.1955 28.3135C26.1955 26.4425 23.2525 28.3485 20.2815 32.1445ZM68.9455 28.3965C66.4955 29.0375 66.7665 30.9555 69.6955 33.7075C72.0175 35.8895 72.1965 35.9195 72.2095 34.1315C72.2165 33.0735 72.4945 31.1955 72.8255 29.9575C73.4415 27.6615 72.7795 27.3945 68.9455 28.3965ZM75.7065 33.3125L73.9435 38.9165L80.0746 45.0485L83.0705 41.8415C85.5825 39.1525 85.9285 38.1965 85.2135 35.9215C84.7445 34.4285 84.0906 31.9695 83.7596 30.4575C83.2746 28.2435 82.6035 27.7075 80.3135 27.7075C77.7355 27.7075 77.3045 28.2325 75.7065 33.3125ZM87.2106 29.9575C87.2376 33.8925 88.6075 35.0155 90.6405 32.7685C92.7955 30.3875 92.0465 27.7075 89.2265 27.7075C87.7825 27.7075 87.1996 28.3575 87.2106 29.9575ZM134.196 28.5185C134.196 28.9655 135.006 30.2025 135.995 31.2685C139.178 34.6975 143.196 41.1235 143.196 42.7845C143.196 44.5745 146.232 47.7075 147.967 47.7075C149.837 47.7075 148.546 44.2065 144.599 38.5695C138.558 29.9425 134.196 25.7285 134.196 28.5185ZM47.1155 31.8805C44.5735 33.7225 43.2715 35.2325 44.0145 35.4805C45.5145 35.9805 53.1955 31.1385 53.1955 29.6935C53.1955 28.0285 51.6795 28.5745 47.1155 31.8805ZM106.196 29.5295C106.196 30.4685 113.904 35.7075 115.286 35.7075C117.247 35.7075 116.021 33.8575 112.392 31.3435C108.571 28.6955 106.196 28.0005 106.196 29.5295ZM58.8976 32.1345C57.3966 33.2725 57.2125 34.3515 57.7825 38.6515C58.4105 43.3895 58.7855 43.9675 62.4275 45.8255C64.6065 46.9375 66.5536 47.6825 66.7546 47.4815C66.9556 47.2805 67.7655 45.5825 68.5535 43.7075C69.9105 40.4795 69.8466 40.1125 67.3406 36.7535C64.7376 33.2635 62.1775 30.7715 61.1955 30.7715C60.9205 30.7715 59.8866 31.3845 58.8976 32.1345ZM93.1495 35.2735C90.2445 39.4975 90.1025 40.0795 91.2615 43.0235C93.0925 47.6705 93.4025 47.8235 97.3495 46.0335C100.718 44.5075 100.986 44.0455 101.542 38.8055C102.023 34.2825 101.818 32.9675 100.475 31.9575C97.7375 29.8985 96.4455 30.4835 93.1495 35.2735ZM23.7056 37.8275C18.8256 44.6185 16.2015 49.3795 16.9335 50.1115C18.0425 51.2215 19.0585 50.7155 19.6855 48.7395C20.0285 47.6575 22.3085 44.0565 24.7525 40.7375C27.1965 37.4175 29.1955 34.2535 29.1955 33.7045C29.1955 31.4745 27.1836 32.9855 23.7056 37.8275ZM131.196 33.6975C131.196 34.2425 133.221 37.6455 135.696 41.2605C138.171 44.8765 140.196 48.5135 140.196 49.3445C140.196 51.0935 143.326 50.8215 143.926 49.0205C144.143 48.3665 143.417 46.9285 142.312 45.8235C141.207 44.7185 139.614 42.5525 138.773 41.0105C137.133 38.0065 132.648 32.7075 131.744 32.7075C131.443 32.7075 131.196 33.1535 131.196 33.6975ZM105.182 35.9575C105.175 36.6455 104.897 38.2195 104.566 39.4575C103.808 42.2845 106.019 42.4815 109.24 39.8725L111.506 38.0385L109.128 36.3725C106.29 34.3845 105.201 34.2705 105.182 35.9575ZM50.2516 37.1405C49.2926 38.2965 49.5645 38.9035 51.6595 40.2765C54.7515 42.3015 55.6646 41.7135 54.7966 38.2545C54.0886 35.4335 52.0776 34.9405 50.2516 37.1405ZM27.1636 43.2515C24.6246 46.6875 23.1875 49.6335 23.3815 51.0015C23.6395 52.8165 24.5365 52.0045 28.4455 46.4095C31.0575 42.6705 33.1955 39.1835 33.1955 38.6595C33.1955 36.4005 30.9766 38.0885 27.1636 43.2515ZM127.196 38.5685C127.196 40.3325 134.674 50.7075 135.945 50.7075C136.999 50.7075 137.027 50.2525 136.083 48.4575C132.311 41.2845 127.196 35.5925 127.196 38.5685ZM43.6235 42.7865C41.9975 44.5845 42.0295 44.9375 44.2475 49.6105C46.0145 53.3315 47.2125 54.6265 49.1415 54.8995C54.1975 55.6155 55.1955 54.8695 55.1955 50.3695C55.1955 46.3715 54.9676 46.0555 50.2676 43.5345C45.4466 40.9485 45.3025 40.9325 43.6235 42.7865ZM109.446 43.8325C104.504 46.6945 104.196 47.1055 104.196 50.8445V54.8175L108.758 54.5125C113.066 54.2245 113.467 53.9405 115.946 49.4225C118.542 44.6905 118.549 44.6165 116.633 42.7145C114.721 40.8165 114.628 40.8305 109.446 43.8325ZM31.9455 47.0645C28.8575 51.9515 28.6555 52.7105 30.4455 52.6995C31.7055 52.6925 36.1955 45.7115 36.1955 43.7595C36.1955 41.6085 34.6165 42.8365 31.9455 47.0645ZM84.8345 44.8125C83.2935 47.0125 83.2885 47.3025 84.7735 48.3885C86.6115 49.7315 89.1955 49.0905 89.1955 47.2915C89.1955 46.6305 88.5916 45.2635 87.8536 44.2545C86.5726 42.5025 86.4345 42.5285 84.8345 44.8125ZM124.196 44.2215C124.196 46.3915 128.463 52.6805 129.946 52.6955C131.658 52.7125 131.579 52.4235 128.453 47.2485C125.636 42.5835 124.196 41.5595 124.196 44.2215ZM71.6985 45.6995C70.7395 48.7195 71.8916 49.8035 74.6996 48.5235C77.3156 47.3315 77.1825 46.3065 74.2065 44.7135C72.7045 43.9095 72.2035 44.1065 71.6985 45.6995ZM36.7525 50.6445C34.5185 53.1135 35.5006 54.7075 39.2546 54.7075C42.6006 54.7075 42.6045 54.6995 41.0345 51.2545C39.6425 48.1975 39.0435 48.1125 36.7525 50.6445ZM59.1955 51.7135C59.1955 54.0915 59.5945 54.7755 60.8385 54.5305C62.5325 54.1975 64.9856 51.1325 64.1606 50.3795C63.9046 50.1465 62.6825 49.6445 61.4455 49.2645C59.4425 48.6485 59.1955 48.9185 59.1955 51.7135ZM97.8885 49.4675C95.3785 50.0345 96.1926 53.1325 98.9556 53.5275C100.639 53.7675 101.196 53.3465 101.196 51.8365C101.196 49.4865 100.383 48.9045 97.8885 49.4675ZM119.231 50.6415C117.763 53.3845 117.809 53.4435 121.757 53.9045C126.129 54.4145 126.908 53.4195 124.232 50.7435C121.691 48.2025 120.549 48.1795 119.231 50.6415ZM148.532 53.2745C148.201 54.1365 148.44 55.3515 149.063 55.9745C149.686 56.5975 150.199 58.0295 150.202 59.1575C150.206 60.2845 150.881 62.4965 151.702 64.0715C152.524 65.6475 153.196 69.1345 153.196 71.8215C153.196 75.6385 153.547 76.7075 154.8 76.7075C156.201 76.7075 156.313 75.6625 155.681 68.4575C155.283 63.9195 154.602 59.9815 154.168 59.7055C153.734 59.4285 153.063 57.5165 152.676 55.4555C151.951 51.5865 149.645 50.3735 148.532 53.2745ZM7.34953 56.4575C4.32853 66.1695 3.15954 77.7075 5.19554 77.7075C5.74554 77.7075 6.21151 76.4695 6.23051 74.9575C6.24951 73.4455 6.93254 69.2825 7.74754 65.7075C10.2205 54.8565 10.5076 52.7075 9.48656 52.7075C8.95256 52.7075 7.99053 54.3955 7.34953 56.4575ZM69.6935 55.2785C59.6275 59.9805 54.1685 68.6995 54.2295 79.9775C54.2715 87.6565 56.2475 92.0815 62.5895 98.6995C68.0085 104.354 72.2135 105.934 81.8755 105.949C88.3095 105.958 94.1005 103.491 97.0025 99.5035C97.7205 98.5155 98.9286 97.7075 99.6846 97.7075C100.442 97.7075 101.378 96.6955 101.766 95.4575C102.154 94.2195 103.309 92.1345 104.334 90.8225C107.019 87.3845 106.918 75.5565 104.147 69.0945C98.5095 55.9425 82.2405 49.4185 69.6935 55.2785ZM129.881 56.0855C129.57 56.8975 129.997 58.1275 130.832 58.8205C132.062 59.8405 132.52 59.8075 133.256 58.6435C133.755 57.8535 134.021 56.7575 133.847 56.2075C133.33 54.5765 130.494 54.4885 129.881 56.0855ZM143.196 55.5855C143.196 56.0685 143.878 58.0955 144.712 60.0905C145.545 62.0855 146.192 64.9525 146.15 66.4625C146.031 70.6955 147.596 76.0075 149.111 76.5125C150.204 76.8765 150.341 75.8975 149.8 71.5875C149.428 68.6285 149.124 65.3075 149.124 64.2075C149.124 63.1075 148.672 60.5205 148.121 58.4575C147.395 55.7395 146.579 54.7075 145.157 54.7075C144.079 54.7075 143.196 55.1025 143.196 55.5855ZM125.196 56.7075C125.196 57.2575 122.751 57.7075 119.763 57.7075C114.012 57.7075 114.194 57.5455 112.785 63.8975C112.327 65.9615 112.707 66.9515 114.414 68.1475C117.893 70.5845 119.806 70.0475 124.845 65.2195C129.143 61.1015 129.434 60.5255 128.384 58.2195C127.254 55.7405 125.196 54.7645 125.196 56.7075ZM12.4106 60.4575C10.6566 66.4315 9.76754 76.7075 11.0055 76.7075C11.5925 76.7075 12.3605 74.5705 12.7115 71.9575C13.0625 69.3445 13.9345 65.0895 14.6495 62.5015C15.8755 58.0675 15.7665 56.7075 14.1875 56.7075C13.8155 56.7075 13.0166 58.3955 12.4106 60.4575ZM31.8025 59.2895C30.7755 61.9645 31.0516 62.4555 35.7316 66.2905C39.9916 69.7805 40.4326 69.9245 42.9816 68.6485C47.9996 66.1365 48.1636 65.8625 46.7106 62.3965C45.3016 59.0355 43.0055 58.0515 36.0525 57.8255C33.5735 57.7455 32.2155 58.2125 31.8025 59.2895ZM49.1955 59.1425C49.1955 59.3815 49.6566 60.7905 50.2206 62.2745C51.2146 64.8885 51.3076 64.9165 53.2206 63.1845C56.1276 60.5535 55.7055 58.7075 52.1955 58.7075C50.5455 58.7075 49.1955 58.9035 49.1955 59.1425ZM104.196 59.5185C104.196 60.3265 107.946 64.7075 108.637 64.7075C108.837 64.7075 109.471 63.3575 110.046 61.7075C111.076 58.7525 111.041 58.7075 107.644 58.7075C105.748 58.7075 104.196 59.0725 104.196 59.5185ZM138.944 59.2925C138.623 59.6145 138.819 61.1945 139.38 62.8055C139.941 64.4155 140.134 66.4275 139.808 67.2755C139.221 68.8055 141.563 75.7075 142.67 75.7075C142.986 75.7075 143.701 74.5095 144.258 73.0455C145.011 71.0645 144.896 69.5925 143.81 67.2955C143.007 65.5965 142.042 62.9695 141.665 61.4575C140.998 58.7825 140.139 58.0985 138.944 59.2925ZM17.1896 66.7405C16.3046 71.4305 16.1955 74.1075 16.8625 74.7745C17.5285 75.4405 18.2795 73.8465 19.1145 69.9905C19.8035 66.8105 20.6025 63.1955 20.8895 61.9575C21.2465 60.4195 20.9545 59.7075 19.9645 59.7075C18.9635 59.7075 18.1066 61.8785 17.1896 66.7405ZM133.196 63.7235C133.196 67.2175 135.629 73.7075 136.939 73.7075C138.691 73.7075 138.529 68.2525 136.67 64.6575C134.91 61.2545 133.196 60.7935 133.196 63.7235ZM22.9165 68.4575C22.6195 71.0705 22.5685 73.4025 22.8035 73.6405C23.7515 74.6065 25.1326 71.9635 25.7726 67.9575C26.3166 64.5465 26.1555 63.7075 24.9535 63.7075C23.9085 63.7075 23.2925 65.1455 22.9165 68.4575ZM29.0455 68.2075C28.9635 69.0325 28.8505 70.2705 28.7955 70.9575C28.7395 71.6615 29.5685 72.0775 30.6955 71.9095C35.1485 71.2475 35.5006 70.7355 32.9056 68.6935C29.8796 66.3135 29.2425 66.2335 29.0455 68.2075ZM126.839 68.2075C126.014 69.0325 124.857 69.7075 124.267 69.7075C123.678 69.7075 123.196 70.1575 123.196 70.7075C123.196 71.2575 124.284 71.7075 125.614 71.7075C126.944 71.7075 128.744 71.9805 129.614 72.3145C130.847 72.7875 131.196 72.2365 131.196 69.8145C131.196 66.3805 129.347 65.6995 126.839 68.2075ZM46.4455 70.7855C43.7095 71.8285 43.6145 72.8715 46.0525 75.0775C47.7235 76.5895 48.0376 76.6035 49.1946 75.2085C51.2186 72.7695 49.3075 69.6945 46.4455 70.7855ZM109.505 71.3435C108.759 73.2885 110.319 76.0905 112.375 76.4965C113.18 76.6555 114.334 75.6995 114.939 74.3715C115.906 72.2495 115.74 71.8205 113.571 70.8325C110.389 69.3825 110.251 69.4005 109.505 71.3435ZM119.635 74.5075C118.568 75.4985 116.908 76.6095 115.946 76.9765C112.749 78.1975 114.288 81.7905 119.446 85.1475C120.959 86.1325 122.196 86.5065 122.196 85.9805C122.196 85.4545 124.109 84.4565 126.446 83.7625C134.86 81.2645 135.496 78.2505 128.304 74.9515C122.402 72.2445 122.089 72.2285 119.635 74.5075ZM33.6955 75.1115C29.1275 76.1155 28.6696 76.4765 28.3956 79.2855C28.1216 82.0855 28.4455 82.4655 32.0115 83.5345C37.8795 85.2925 40.5985 84.9725 43.1855 82.2175C45.4925 79.7625 45.4986 79.6995 43.6216 77.6255C40.6426 74.3335 39.0585 73.9325 33.6955 75.1115ZM134.196 78.0015C134.196 79.7925 136.983 82.2535 137.935 81.3025C138.769 80.4675 137.019 77.4815 135.375 76.9335C134.726 76.7175 134.196 77.1985 134.196 78.0015ZM4.21953 85.9575C4.26553 93.8775 7.75051 106.708 9.85551 106.708C11.5525 106.708 11.5395 105.777 9.78453 101.576C9.00853 99.7185 7.80556 94.4885 7.11156 89.9535C5.76356 81.1425 4.17953 78.9555 4.21953 85.9575ZM153.196 86.4975C153.196 89.1315 152.521 93.8785 151.696 97.0465C150.871 100.214 150.196 103.459 150.196 104.257C150.196 106.801 152.135 105.814 152.746 102.958C153.07 101.446 153.752 99.1775 154.262 97.9175C154.772 96.6585 155.481 92.4955 155.836 88.6675C156.399 82.6145 156.269 81.7075 154.84 81.7075C153.544 81.7075 153.196 82.7205 153.196 86.4975ZM10.6705 89.3215C11.4845 96.9165 13.3305 102.92 15.0265 103.485C16.5755 104.001 16.5016 102.014 14.7706 96.6355C13.9866 94.2005 13.0585 90.0705 12.7085 87.4575C11.6935 79.8725 9.84052 81.5675 10.6705 89.3215ZM110.595 85.2545C109.789 88.4635 110.309 88.9685 113.578 88.1475C116.619 87.3845 116.92 85.9775 114.446 84.0995C111.94 82.1975 111.315 82.3845 110.595 85.2545ZM147.789 83.9575C147.6 84.6455 146.915 88.3575 146.267 92.2075C145.62 96.0575 145.001 99.6575 144.893 100.208C144.785 100.758 145.146 101.433 145.696 101.708C146.807 102.264 149.945 91.0375 150.098 85.9575C150.192 82.8365 148.501 81.3715 147.789 83.9575ZM16.1955 85.3425C16.1955 90.0455 18.6655 99.7075 19.8685 99.7075C21.5545 99.7075 21.5516 99.6195 19.5256 90.9575C17.9766 84.3335 16.1955 81.3305 16.1955 85.3425ZM45.2535 85.1375C44.3015 86.2845 44.4976 86.7985 46.2386 87.7305C48.7866 89.0945 50.5716 87.8515 49.6216 85.3745C48.8366 83.3295 46.8435 83.2215 45.2535 85.1375ZM141.779 84.9575C141.128 87.2545 139.196 96.8475 139.196 97.7835C139.196 99.6065 141.263 98.6615 142.096 96.4575C143.691 92.2425 144.469 83.7075 143.258 83.7075C142.64 83.7075 141.974 84.2705 141.779 84.9575ZM22.7076 88.4575C23.8336 95.4605 24.2326 96.7075 25.3436 96.7075C26.4156 96.7075 25.7825 87.4665 24.5765 85.5145C23.2395 83.3525 22.1606 85.0515 22.7076 88.4575ZM135.753 85.9575C135.543 86.6455 134.888 88.7215 134.296 90.5725C133.255 93.8285 133.53 95.7075 135.048 95.7075C135.733 95.7075 138.196 87.8725 138.196 85.6935C138.196 84.2655 136.202 84.4815 135.753 85.9575ZM28.5885 88.2895C28.9225 89.1595 29.1955 90.5095 29.1955 91.2895C29.1955 93.2475 30.5495 93.0635 33.3345 90.7275C35.3495 89.0385 35.4755 88.6005 34.1955 87.7435C33.3705 87.1905 31.6345 86.7315 30.3385 86.7225C28.5975 86.7115 28.1405 87.1205 28.5885 88.2895ZM125.602 87.8595C124.857 89.0655 127.718 91.7075 129.771 91.7075C130.426 91.7075 131.178 90.5825 131.441 89.2075C131.859 87.0215 131.566 86.7075 129.116 86.7075C127.575 86.7075 125.994 87.2255 125.602 87.8595ZM114.951 90.5535C110.761 92.4045 110.317 93.8285 113.071 96.5825C114.102 97.6135 115.115 98.9215 115.321 99.4885C115.527 100.057 118.275 100.839 121.428 101.227C127.061 101.922 127.178 101.885 128.237 99.1005C129.205 96.5535 129.032 96.0645 126.513 94.2375C124.973 93.1215 122.922 91.4195 121.955 90.4575C119.891 88.4035 119.816 88.4045 114.951 90.5535ZM35.8595 93.3415C30.6535 97.3975 30.8105 97.1195 32.2305 99.7735C33.0595 101.322 34.3506 101.708 38.7056 101.708C43.7166 101.708 44.2645 101.475 45.6695 98.7575C48.0505 94.1535 47.6206 92.0515 44.0466 90.8055C42.3146 90.2015 40.8136 89.7075 40.7106 89.7075C40.6076 89.7075 38.4245 91.3425 35.8595 93.3415ZM107.196 94.5525C107.196 95.1095 106.477 96.2835 105.599 97.1615C104.72 98.0405 104.245 99.3925 104.542 100.167C105.513 102.699 110.31 99.7125 109.974 96.7845C109.708 94.4695 107.196 92.4505 107.196 94.5525ZM50.2966 96.9135C49.1846 99.8585 49.7346 100.708 52.7546 100.708C55.8326 100.708 56.1246 97.2745 53.1796 95.6985C51.4825 94.7905 51.0266 94.9825 50.2966 96.9135ZM44.3205 108.958C41.3205 114.137 41.3056 114.234 43.1996 116.142C45.0976 118.055 45.1765 118.049 50.0975 115.642C53.7615 113.85 55.2415 112.489 55.7095 110.48C56.8315 105.66 55.5356 103.708 51.2106 103.708C47.6186 103.708 47.1565 104.06 44.3205 108.958ZM104.196 107.717C104.196 111.456 104.55 111.954 109.446 115.117C114.252 118.222 114.844 118.377 116.446 116.953C118.771 114.887 118.665 113.799 115.611 108.334C113.144 103.922 112.821 103.708 108.611 103.708H104.196V107.717ZM118.196 104.642C118.196 106.213 120.453 110.708 121.242 110.708C122.359 110.708 125.271 105.867 124.435 105.398C122.458 104.291 118.196 103.774 118.196 104.642ZM36.4606 105.523C35.5046 106.13 35.5746 106.804 36.7676 108.507C37.6156 109.718 38.6615 110.708 39.0915 110.708C39.7765 110.708 42.1955 106.385 42.1955 105.161C42.1955 104.406 37.7806 104.684 36.4606 105.523ZM59.8625 105.375C59.4955 105.741 59.1955 106.866 59.1955 107.875C59.1955 109.794 60.4305 110.065 63.5685 108.832C65.3275 108.14 65.3386 107.994 63.7466 106.402C61.9276 104.583 60.9205 104.317 59.8625 105.375ZM95.6955 106.708C93.9405 108.648 93.9486 108.708 95.9816 108.708C97.1346 108.708 98.3606 109.165 98.7056 109.724C99.7086 111.348 101.196 109.81 101.196 107.149C101.196 104.088 98.2785 103.854 95.6955 106.708ZM126.319 110.181C124.517 112.851 123.709 114.907 124.315 115.281C124.873 115.626 125.43 115.751 125.553 115.558C125.676 115.366 126.996 113.55 128.486 111.524C129.977 109.498 131.196 107.36 131.196 106.774C131.196 104.507 129.213 105.893 126.319 110.181ZM29.1955 107.476C29.1955 108.836 34.2346 115.708 35.2316 115.708C36.6226 115.708 36.4575 115.064 33.9455 110.664C31.9625 107.191 29.1955 105.334 29.1955 107.476ZM134.689 107.996C134.135 108.663 133.129 110.333 132.453 111.708C131.777 113.083 130.236 115.438 129.027 116.942C126.603 119.958 127.167 121.798 129.843 119.601C132.059 117.779 137.196 109.683 137.196 108.011C137.196 106.395 136.025 106.388 134.689 107.996ZM23.1955 108.728C23.1955 109.906 27.8986 117.554 29.7806 119.436C31.1486 120.804 33.5785 121.195 33.0285 119.958C32.8455 119.545 30.9445 116.621 28.8035 113.458C25.1385 108.042 23.1955 106.403 23.1955 108.728ZM140.434 110.373C139.203 112.102 138.196 113.851 138.196 114.259C138.196 114.668 136.621 116.924 134.696 119.273C131.128 123.627 130.2 126.189 132.446 125.48C134.549 124.817 143.416 111.09 143.032 109.093C142.728 107.516 142.328 107.714 140.434 110.373ZM17.1955 110.101C17.1955 112.239 26.4355 125.708 27.9015 125.708C29.8095 125.708 29.4856 124.216 26.8876 121.035C25.6186 119.48 23.2556 116.071 21.6376 113.46C18.6646 108.662 17.1955 107.551 17.1955 110.101ZM84.1875 109.713C82.9965 110.449 82.9926 110.96 84.1606 113.143C84.9156 114.554 86.0846 115.708 86.7576 115.708C87.9166 115.708 89.1955 113.586 89.1955 111.661C89.1955 110.156 85.6825 108.789 84.1875 109.713ZM147.527 109.958C147.024 110.646 145.957 112.549 145.155 114.188C144.352 115.826 141.558 120.013 138.946 123.491C133.704 130.469 133.592 130.708 135.577 130.708C138.035 130.708 147.876 116.559 148.868 111.6C149.485 108.512 149.01 107.93 147.527 109.958ZM70.1955 111.279C70.1955 112.144 70.8905 113.546 71.7395 114.395C73.1315 115.787 73.4755 115.764 75.2395 114.168C78.2845 111.413 77.6945 109.708 73.6955 109.708C71.1805 109.708 70.1955 110.15 70.1955 111.279ZM11.1955 111.938C11.1955 113.525 17.8955 124.388 21.0765 127.958C24.6945 132.019 27.1505 131.572 23.8235 127.458C22.3775 125.67 19.3435 121.17 17.0815 117.458C13.1815 111.059 11.1955 109.197 11.1955 111.938ZM90.1275 118.919L93.7286 123.313C98.4686 129.098 103.117 129.041 102.4 123.208C101.455 115.514 101.139 114.889 97.2156 112.948L93.2925 111.007L90.1275 118.919ZM62.5275 113.164C59.6545 114.414 59.2936 115.077 58.6426 120.289C58.0266 125.213 58.1855 126.228 59.7505 127.372C62.3625 129.282 62.5585 129.191 66.6965 124.141L70.4385 119.574L68.6655 115.641C66.6705 111.217 66.8435 111.287 62.5275 113.164ZM76.9725 117.587L74.2715 120.448L75.8725 126.078C77.2225 130.823 77.8356 131.708 79.7756 131.708C82.6026 131.708 83.0846 130.963 84.6716 124.136C86.0376 118.26 85.4126 116.416 81.6846 115.317C80.2756 114.902 78.8645 115.582 76.9725 117.587ZM51.9455 118.489C48.5315 120.138 48.4606 121.416 51.6996 122.892C54.7746 124.293 55.4295 123.728 55.0165 120.031C54.7075 117.266 54.5955 117.21 51.9455 118.489ZM105.818 120.458C106.68 124.053 106.681 124.054 109.11 122.754C111.861 121.282 111.742 120.278 108.649 118.869C105.163 117.28 105.068 117.333 105.818 120.458ZM111.446 125.274C107.286 127.767 106.551 128.73 107.831 130.009C108.711 130.89 116.148 125.496 116.175 123.958C116.202 122.356 116.413 122.297 111.446 125.274ZM43.1955 124.16C43.1955 124.713 51.8295 130.708 52.6255 130.708C54.4165 130.708 52.6786 127.889 49.6976 125.958C46.5596 123.926 43.1955 122.995 43.1955 124.16ZM87.8255 125.958C86.7215 130.078 87.0695 130.856 89.8685 130.524C93.2715 130.122 93.7435 128.646 91.3515 125.888C88.9825 123.157 88.5745 123.165 87.8255 125.958ZM68.8506 126.537C66.3766 129.27 66.8405 130.708 70.1955 130.708C73.3765 130.708 73.5125 130.493 72.5655 126.958C71.8345 124.23 71.0216 124.138 68.8506 126.537ZM114.437 130.475C110.994 132.892 108.438 135.29 108.756 135.804C109.836 137.553 121.87 129.053 121.094 127.089C120.875 126.535 117.879 128.059 114.437 130.475ZM38.1955 127.279C38.1955 128.716 49.3815 136.708 51.3915 136.708C53.8625 136.708 51.3436 133.732 46.1006 130.458C40.3886 126.891 38.1955 126.009 38.1955 127.279ZM33.7775 130.575C32.7655 132.213 46.9936 142.708 50.2256 142.708C52.5966 142.708 50.7805 140.611 45.9455 137.764C43.0575 136.064 39.2755 133.531 37.5395 132.135C35.7495 130.696 34.1205 130.02 33.7775 130.575ZM117.383 135.441C112.519 138.685 109.442 141.354 109.963 141.875C110.981 142.893 113.594 141.665 120.254 137.041C131.174 129.459 128.546 127.994 117.383 135.441ZM64.5965 133.868C63.6705 135.367 64.7075 135.899 69.6465 136.455C72.6235 136.791 74.1955 136.584 74.1955 135.857C74.1955 134.862 73.0505 134.449 66.9465 133.242C65.9845 133.051 64.9265 133.333 64.5965 133.868ZM90.7126 133.847C85.2866 135.11 83.8335 136.736 88.2455 136.608C92.7935 136.477 96.3095 135.444 96.3295 134.233C96.3525 132.861 95.2696 132.786 90.7126 133.847ZM28.1955 134.543C28.1955 136.794 45.6345 148.708 48.9296 148.708C51.1976 148.708 50.2635 146.684 47.5135 145.639C46.0375 145.078 41.3275 142.164 37.0455 139.163C29.0375 133.553 28.1955 133.113 28.1955 134.543ZM124.696 137.814C121.946 139.983 117.783 142.726 115.446 143.91C113.109 145.094 111.196 146.684 111.196 147.444C111.196 148.204 111.533 148.666 111.946 148.47C112.359 148.274 114.046 147.479 115.696 146.704C119.876 144.74 132.196 135.713 132.196 134.613C132.196 132.832 129.617 133.933 124.696 137.814ZM60.1955 139.578C60.1955 140.414 65.1055 141.948 71.9455 143.249C74.3645 143.709 75.1955 143.507 75.1955 142.46C75.1955 141.522 73.0776 140.664 68.8306 139.881C61.2156 138.478 60.1955 138.442 60.1955 139.578ZM89.9175 140.019C83.7385 141.111 82.4645 143.402 88.2945 142.937C92.9255 142.568 100.129 140.626 100.781 139.571C101.436 138.511 97.5485 138.671 89.9175 140.019ZM57.4045 144.853C58.2255 147.352 75.1155 150.368 76.1955 148.208C76.4795 147.64 73.8855 146.736 70.1955 146.117C66.6205 145.517 62.1796 144.682 60.3276 144.261C57.7036 143.666 57.0575 143.797 57.4045 144.853ZM100.071 144.167C99.8175 144.419 96.2555 145.136 92.1535 145.76C84.9405 146.858 82.1496 147.995 83.4576 149.303C84.8956 150.742 104.196 146.278 104.196 144.507C104.196 143.662 100.851 143.386 100.071 144.167ZM54.1955 149.953C54.1955 152.833 76.2085 156.945 76.9765 154.208C77.1305 153.658 74.6555 152.904 71.4765 152.533C65.4015 151.823 58.8925 150.433 55.9455 149.217C54.7485 148.722 54.1955 148.955 54.1955 149.953ZM99.6955 150.355C96.9455 151.125 91.8835 152.034 88.4455 152.376C84.1585 152.802 82.1955 153.423 82.1955 154.353C82.1955 155.263 83.4265 155.688 85.9455 155.647C91.2855 155.561 106.484 151.447 106.962 149.958C107.444 148.456 106.252 148.521 99.6955 150.355Z" fill="#B2F5EA"/>
</svg>
