<svg width="170" height="170" viewBox="0 0 170 170" fill="none" xmlns="http://www.w3.org/2000/svg">
<path fill-rule="evenodd" clip-rule="evenodd" d="M83.7693 0.603683C83.3903 0.981683 83.0353 9.65368 82.9783 19.8747L82.8753 38.4577L81.5323 28.5947C80.7933 23.1697 80.0523 17.1297 79.8853 15.1717C79.7183 13.2137 78.9483 11.4037 78.1743 11.1497C76.9983 10.7627 76.8803 12.3077 77.4573 20.5717C77.8363 26.0087 78.4153 32.2577 78.7423 34.4577C79.1243 37.0247 78.9933 38.0997 78.3773 37.4577C77.8503 36.9077 76.4023 30.8327 75.1613 23.9577C72.1593 7.32869 70.6923 1.66168 69.2663 1.18568C67.5023 0.597684 67.7913 5.3837 70.1943 16.5977C72.9873 29.6257 73.9633 35.0327 73.9583 37.4577C73.9543 39.8277 69.4803 26.5557 67.9513 19.6387C66.9743 15.2207 64.8983 12.8067 63.3803 14.3247C63.0423 14.6627 63.7693 18.2057 64.9963 22.1987C66.2233 26.1907 67.8833 31.9327 68.6863 34.9577C69.4893 37.9827 70.4033 41.3577 70.7173 42.4577L71.2883 44.4577L69.7163 42.4577C68.8523 41.3577 68.1303 39.9077 68.1133 39.2347C68.0953 38.5627 67.0053 35.6377 65.6903 32.7347C64.3753 29.8327 61.3583 22.6207 58.9873 16.7077C56.6113 10.7837 54.0933 5.95769 53.3783 5.95769C51.2063 5.95769 51.8603 8.49669 57.4813 21.8977C64.9883 39.7937 65.4803 43.7457 58.5153 30.2077C55.3323 24.0207 52.1323 18.9577 51.4043 18.9577C49.4343 18.9577 49.7963 20.8537 52.9323 26.9577C54.4863 29.9827 57.4503 35.7497 59.5203 39.7727C61.5903 43.7967 63.1093 47.2627 62.8963 47.4767C62.6823 47.6897 57.4443 40.2357 51.2543 30.9107C41.4633 16.1597 37.0813 11.2357 37.0813 14.9827C37.0813 16.1757 54.0823 42.1197 55.5413 43.1537C56.0813 43.5357 56.2383 44.1337 55.8903 44.4817C55.5423 44.8297 51.9553 41.0547 47.9193 36.0927C40.9673 27.5447 38.0813 25.2617 38.0813 28.3117C38.0813 29.0557 42.1313 34.6487 47.0813 40.7397C52.0313 46.8317 56.0813 52.1507 56.0813 52.5607C56.0813 52.9717 49.5403 46.8157 41.5473 38.8827C33.5533 30.9487 26.6193 24.3217 26.1383 24.1547C25.6583 23.9887 24.9413 24.3747 24.5463 25.0137C24.1083 25.7237 28.6363 30.9947 36.1903 38.5667C48.2493 50.6547 50.9433 54.3897 42.6843 47.5697C40.4273 45.7057 37.4563 43.1787 36.0813 41.9537C31.5233 37.8937 29.0493 36.5897 27.9633 37.6757C27.2773 38.3617 28.8313 40.2707 32.7653 43.5737C35.9643 46.2597 38.8063 48.6837 39.0813 48.9597C39.3563 49.2357 41.3813 51.0117 43.5813 52.9067C49.8943 58.3457 45.3533 55.8507 30.0753 45.4887C17.2483 36.7887 14.0813 35.3037 14.0813 37.9887C14.0813 38.4907 19.5943 42.5767 26.3313 47.0697C40.0033 56.1857 43.7703 58.9607 42.4663 58.9517C41.9793 58.9477 40.4563 58.3537 39.0813 57.6307C35.4153 55.7027 24.8523 49.8077 22.8763 48.5867C21.9393 48.0077 20.8303 47.8757 20.4123 48.2937C18.9763 49.7297 21.5933 52.0917 29.0813 56.1207C33.2063 58.3397 39.0073 61.4607 41.9723 63.0567C50.9353 67.8797 45.9213 66.3587 26.8183 58.4577C16.8443 54.3327 8.29034 50.9577 7.80934 50.9577C7.32834 50.9577 7.08031 51.6657 7.25831 52.5307C7.57631 54.0807 31.4953 64.9577 34.5853 64.9577C35.4083 64.9577 36.0813 65.4077 36.0813 65.9577C36.0813 66.5077 36.8313 66.9577 37.7483 66.9577C38.6643 66.9577 39.1413 67.2307 38.8073 67.5647C38.2973 68.0747 30.0103 65.8557 17.8533 61.9527C16.1193 61.3957 14.8943 61.4517 14.4903 62.1047C13.3623 63.9297 13.3043 63.9067 37.5813 71.6437C43.0273 73.3787 46.3343 75.5947 42.0813 74.6577C40.7063 74.3547 35.0813 73.1707 29.5813 72.0267C24.0813 70.8827 16.5923 69.2737 12.9383 68.4517C9.28431 67.6297 5.34731 66.9577 4.18831 66.9577C1.09431 66.9577 1.61831 69.6427 4.83131 70.2527C6.34431 70.5397 11.8563 71.6797 17.0813 72.7857C22.3063 73.8917 28.4913 75.0967 30.8263 75.4637C39.4113 76.8147 35.5543 77.4327 23.9643 76.5637C12.3173 75.6907 9.71133 75.9877 11.6873 77.9637C12.7363 79.0127 38.1713 81.9577 46.1883 81.9577C51.3663 81.9577 52.7843 80.4237 48.5813 79.3687C45.0763 78.4887 45.0153 74.5207 48.5163 75.1897C52.6783 75.9857 53.7753 74.3557 50.4653 72.2947C48.6203 71.1467 47.6483 69.8017 47.8713 68.7077C48.2953 66.6267 48.5203 66.5907 51.0703 68.1827C52.6283 69.1557 53.2933 69.1447 54.3063 68.1287C55.3403 67.0917 55.1413 66.5167 53.2533 65.0907C51.2323 63.5637 51.1223 63.1687 52.4143 62.0957C53.4233 61.2597 54.1123 61.1987 54.5513 61.9087C55.2593 63.0537 59.0813 63.3727 59.0813 62.2867C59.0813 61.9177 58.3953 60.8577 57.5573 59.9307C56.7193 59.0047 56.3173 57.5067 56.6643 56.6027C57.4483 54.5597 58.4703 54.5167 60.0813 56.4577C60.7663 57.2827 61.7213 57.9577 62.2033 57.9577C63.4993 57.9577 63.2703 54.5467 61.8813 53.1577C60.9483 52.2247 60.9483 51.9577 61.8813 51.9577C62.5413 51.9577 63.0933 51.1697 63.1083 50.2077C63.1283 48.9287 63.9183 49.4007 66.0403 51.9577C68.5403 54.9687 69.0413 55.2117 69.6253 53.6947C69.9993 52.7257 69.7403 51.2517 69.0503 50.4207C67.6193 48.6957 67.7593 48.4587 70.7563 47.5387C72.5063 47.0007 72.9943 47.3177 73.2563 49.1637C73.7283 52.4917 76.6643 52.1747 76.2773 48.8387C76.0503 46.8917 76.4993 46.0817 78.0273 45.6817C79.6793 45.2497 80.0813 45.6157 80.0813 47.5517C80.0813 49.0237 80.6633 49.9577 81.5813 49.9577C82.5143 49.9577 83.0813 49.0137 83.0813 47.4577C83.0813 45.6247 83.6143 44.9577 85.0813 44.9577C86.5353 44.9577 87.0813 45.6247 87.0813 47.3987C87.0813 51.0067 88.9833 51.5367 90.1303 48.2467C90.7893 46.3557 91.8213 45.3867 93.1753 45.3867C94.9493 45.3867 95.1413 45.8267 94.6073 48.6717C94.1363 51.1817 94.3393 51.9577 95.4683 51.9577C96.2813 51.9577 97.2323 51.0577 97.5813 49.9577C97.9303 48.8577 99.0853 47.9577 100.148 47.9577C102.3 47.9577 102.579 49.1597 101.078 51.9627C99.5023 54.9077 102.06 55.7017 104.283 52.9567C105.73 51.1687 106.432 50.9087 107.346 51.8227C108.259 52.7357 108.231 53.4877 107.224 55.1007C106.237 56.6797 106.2 57.4717 107.07 58.3257C107.932 59.1717 108.71 58.8617 110.152 57.0967C111.213 55.7987 112.081 55.2357 112.081 55.8467C112.081 56.4577 112.756 56.9577 113.581 56.9577C115.676 56.9577 115.45 58.1967 112.968 60.3227C110.259 62.6417 111.851 64.7427 114.882 62.8497C116.547 61.8097 117.221 61.8287 118.573 62.9517C120.082 64.2037 119.995 64.4467 117.593 65.7057C113.177 68.0197 115.561 70.4187 120.331 68.4617C122.891 67.4117 122.66 71.5777 120.081 72.9577C117.137 74.5337 117.646 75.9577 121.154 75.9577C123.542 75.9577 124.153 76.3487 123.894 77.7077C123.711 78.6697 122.527 79.6047 121.263 79.7847C118.585 80.1657 118.865 82.2897 121.664 82.8237C123.525 83.1787 125.034 84.6797 125.066 86.2077C125.074 86.6207 123.731 86.9577 122.081 86.9577C118.515 86.9577 117.88 89.6477 121.331 90.1377C122.773 90.3427 123.695 91.2617 123.899 92.6967C124.184 94.7027 123.899 94.8717 121.149 94.3217C118.775 93.8467 118.081 94.0607 118.081 95.2657C118.081 96.1217 118.981 97.1087 120.081 97.4577C121.181 97.8067 122.081 98.9617 122.081 100.025C122.081 102.177 120.879 102.456 118.076 100.955C115.195 99.4127 114.499 101.709 117.03 104.404C118.931 106.428 118.995 106.777 117.563 107.327C116.668 107.67 115.096 107.501 114.069 106.952C111.546 105.601 110.399 107.546 112.407 109.771C113.668 111.17 113.707 111.759 112.635 113.221C111.42 114.877 111.249 114.846 109.807 112.721C108.599 110.94 108.005 110.715 107.019 111.666C106.019 112.629 106.017 113.176 107.01 114.373C108.009 115.576 107.974 116.273 106.831 117.904C105.421 119.918 105.395 119.914 104.075 117.447C102.152 113.853 99.6673 114.14 100.414 117.871C100.796 119.784 100.501 121.194 99.5553 121.979C98.3813 122.954 97.9313 122.693 97.1223 120.567C95.7843 117.046 94.0813 117.265 94.0813 120.958C94.0813 123.291 93.6373 123.958 92.0813 123.958C90.6143 123.958 90.0813 123.291 90.0813 121.458C90.0813 119.902 89.5143 118.958 88.5813 118.958C87.6673 118.958 87.0813 119.889 87.0813 121.341C87.0813 122.884 86.3753 123.909 85.0813 124.248C83.4203 124.682 83.0813 124.278 83.0813 121.864C83.0813 118.21 80.3843 117.905 79.4923 121.458C79.1123 122.972 78.1513 123.958 77.0563 123.958C76.0613 123.958 74.9803 124.521 74.6533 125.208C74.3263 125.896 74.3283 125.333 74.6583 123.958C75.6753 119.71 75.6263 117.676 74.4963 117.281C73.9003 117.072 72.9703 117.892 72.4303 119.102C71.8903 120.312 70.5173 121.371 69.3783 121.455C67.5153 121.592 67.4093 121.316 68.3183 118.707C69.7383 114.636 67.9123 113.04 65.6993 116.418C64.3373 118.497 63.7683 118.744 62.6813 117.729C61.6853 116.799 61.6073 115.898 62.3743 114.214C63.7333 111.231 62.5713 110.205 60.2323 112.322C59.1843 113.27 57.6513 113.73 56.7263 113.375C54.6833 112.591 54.6403 111.569 56.5813 109.958C58.1353 108.668 58.6483 105.946 57.3313 105.973C56.9183 105.982 55.9473 106.39 55.1723 106.881C53.4793 107.952 51.0813 107.197 51.0813 105.592C51.0813 104.958 51.9983 103.866 53.1203 103.166C55.7533 101.521 54.5863 99.6137 51.4303 100.407C49.8863 100.794 48.4383 100.457 47.4653 99.4847C45.8403 97.8597 45.7713 97.9217 50.9143 96.3617C53.2263 95.6597 51.4893 93.4447 48.8483 93.7267C47.0463 93.9187 46.1773 93.4337 45.8113 92.0327C45.4113 90.5047 45.8663 90.0017 47.8623 89.7637C51.6763 89.3087 51.9293 86.9577 48.1643 86.9577C45.7483 86.9577 45.0813 86.5257 45.0813 84.9577C45.0813 83.0187 44.4143 82.9577 23.1403 82.9577C2.43933 82.9577 -1.73172 83.4777 0.564283 85.7747C0.940283 86.1497 8.07332 86.3387 16.4143 86.1937C24.7563 86.0477 32.9313 86.3467 34.5813 86.8577L37.5813 87.7857L34.3673 87.8717C32.5993 87.9187 26.6373 88.4717 21.1173 89.0987C13.4893 89.9667 11.0813 90.5917 11.0813 91.7047C11.0813 92.9327 12.5793 93.0647 20.3313 92.5227C25.4183 92.1667 31.3813 91.6227 33.5813 91.3137C36.1973 90.9467 37.2353 91.0907 36.5813 91.7307C36.0313 92.2687 29.9563 93.6707 23.0813 94.8457C6.74231 97.6377 2.08131 98.9127 2.08131 100.588C2.08131 102.423 2.31233 102.402 19.9163 98.9577C41.2803 94.7787 42.8243 95.2687 24.5813 100.439C15.7963 102.928 14.0813 103.745 14.0813 105.437C14.0813 107.366 14.2743 107.352 22.0813 104.845C27.8243 103.001 30.6653 102.196 41.0813 99.4647C43.4903 98.8337 43.5103 98.8667 41.6403 100.384C40.5723 101.25 39.1223 101.958 38.4173 101.958C37.7123 101.958 34.7613 103.027 31.8583 104.334C28.9563 105.641 22.3063 108.433 17.0813 110.54C11.8563 112.646 7.2623 114.836 6.8733 115.406C4.8533 118.358 9.09129 117.522 21.2723 112.565C39.4823 105.156 42.8503 104.708 29.8313 111.428C23.1363 114.883 19.0813 117.564 19.0813 118.534C19.0813 120.71 21.4023 119.868 34.9343 112.779C41.1793 109.508 46.4653 107.009 46.6833 107.226C47.2133 107.757 38.5243 113.958 37.2513 113.958C36.6993 113.958 36.0983 114.295 35.9143 114.708C35.7313 115.121 30.7653 118.608 24.8783 122.458C14.9143 128.975 12.8183 131.059 14.9193 132.358C15.3803 132.643 22.2423 128.578 30.1693 123.326C47.7343 111.686 46.8913 112.193 45.1543 114.331C44.3703 115.298 39.9823 119.057 35.4043 122.685C27.0293 129.322 26.2153 130.305 28.1193 131.481C29.0203 132.039 39.0473 124.665 45.8513 118.442C47.0993 117.3 49.5743 115.541 51.3513 114.532C53.1273 113.524 47.6863 119.497 39.2583 127.806C25.4153 141.454 22.7833 144.958 26.3763 144.958C27.0233 144.958 33.0713 139.452 39.8173 132.723C46.5623 125.994 52.0813 120.813 52.0813 121.21C52.0813 121.852 43.5343 132.32 38.8643 137.397C37.8833 138.463 37.0813 139.925 37.0813 140.647C37.0813 143.622 40.1583 141.544 45.8783 134.708C54.2783 124.669 57.0813 121.549 57.0813 122.236C57.0813 122.857 46.1333 139.198 40.4303 147.092C37.0743 151.735 36.3003 154.357 37.9783 155.394C38.4713 155.699 43.2873 149.396 48.6793 141.388C54.0723 133.379 58.8783 126.584 59.3593 126.286C60.2543 125.733 50.5913 144.408 48.7703 146.75C47.6003 148.256 49.3133 150.551 50.8823 149.581C51.4193 149.249 54.8963 143.337 58.6103 136.442C62.3233 129.546 65.5593 124.103 65.8023 124.345C66.0443 124.587 63.9303 130.337 61.1043 137.122C54.0873 153.968 53.1303 156.192 52.0333 158.194C50.6753 160.672 50.8573 162.958 52.4123 162.958C53.1443 162.958 54.2233 161.946 54.8093 160.708C57.8613 154.261 60.9423 147.018 62.1463 143.458C62.8903 141.258 63.8883 138.921 64.3643 138.265C64.8413 137.609 66.0973 134.909 67.1573 132.265L69.0833 127.458L68.4373 131.389C68.0813 133.551 66.7553 137.963 65.4893 141.193C62.4983 148.824 61.2833 156.391 63.1473 155.769C63.8803 155.525 66.6093 148.83 69.2123 140.892C75.2143 122.586 75.4973 125.069 70.2473 149.958C66.9433 165.619 66.6973 167.958 68.3583 167.958C69.9003 167.958 71.4753 162.235 74.6243 145.188C76.4393 135.364 78.9573 130.736 77.6913 139.552C77.3033 142.25 76.7173 147.496 76.3893 151.208C75.8823 156.934 76.0303 157.958 77.3643 157.958C78.5423 157.958 79.0883 156.516 79.5403 152.208C79.8723 149.045 80.7523 141.733 81.4963 135.958L82.8483 125.458L82.9643 147.708C83.0773 169.252 83.1443 169.958 85.0813 169.958C87.0113 169.958 87.0863 169.246 87.2173 149.708C87.3363 132.024 87.4623 130.535 88.2083 137.958C88.9643 145.475 89.7383 154.032 89.9943 157.708C90.0913 159.101 92.6783 159.419 93.4713 158.135C93.7513 157.683 93.3423 151.945 92.5623 145.385C91.7823 138.825 91.1433 132.783 91.1433 131.958C91.1413 128.478 92.8093 133.697 94.0203 140.958C96.4313 155.417 97.3063 159.468 98.2783 160.667C98.8173 161.332 98.9493 163.282 98.5723 164.999C97.9443 167.859 98.0843 168.095 100.233 167.79C103.115 167.382 103.024 165.242 99.4904 150.216C96.1524 136.026 96.5343 132.172 100.159 143.458C101.749 148.408 103.057 153.246 103.066 154.208C103.075 155.286 103.849 155.958 105.081 155.958C107.254 155.958 107.592 154.344 106.172 150.755C105.671 149.492 104.497 145.758 103.563 142.458C102.628 139.158 101.237 134.53 100.472 132.173C99.7073 129.816 99.1204 126.891 99.1674 125.673C99.2484 123.596 99.3013 123.613 100.028 125.958C100.454 127.333 101.718 130.483 102.836 132.958C105.41 138.656 111.49 154.284 113.049 159.208C113.897 161.887 114.804 162.958 116.226 162.958C118.708 162.958 118.621 162.633 111.451 145.088C108.446 137.735 106.182 131.524 106.42 131.286C106.966 130.74 109.836 135.527 114.167 144.208C117.271 150.432 120.081 152.961 120.081 149.531C120.081 148.746 116.886 141.883 112.982 134.281C106.419 121.502 106.318 119.694 112.713 129.458C114.153 131.658 117.002 135.933 119.044 138.958C121.085 141.983 124.478 147.045 126.584 150.208C128.69 153.371 130.762 155.958 131.188 155.958C133.79 155.958 132.208 152.454 124.124 140.305C119.131 132.801 115.259 126.446 115.522 126.184C116.002 125.704 117.124 126.945 125.183 136.878C129.908 142.701 132.081 144.135 132.081 141.43C132.081 139.795 127.106 133.235 120.349 125.958C118.561 124.033 117.094 122.153 117.09 121.779C117.085 121.406 116.302 120.321 115.349 119.369C114.396 118.416 114.162 117.821 114.829 118.047C115.495 118.273 122.11 124.474 129.528 131.828C139.667 141.878 143.444 145.033 144.741 144.535C146.119 144.006 143.858 141.258 133.538 130.915C126.428 123.789 121.053 117.968 121.595 117.98C122.137 117.992 126.618 121.367 131.552 125.48C136.486 129.593 140.874 132.958 141.302 132.958C141.731 132.958 142.055 132.17 142.023 131.208C141.992 130.246 137.448 125.746 131.927 121.208C122.094 113.128 119.722 110.018 127.922 115.958C130.2 117.608 132.48 118.958 132.989 118.958C133.498 118.958 134.064 119.296 134.248 119.709C134.431 120.122 138.786 123.304 143.925 126.78C150.097 130.955 153.831 132.88 154.925 132.452C156.317 131.907 156.103 131.408 153.581 129.318C151.931 127.95 148.106 125.237 145.081 123.289C121.884 108.351 121.02 106.099 143.361 118.808C145.441 119.99 147.777 120.958 148.552 120.958C152.582 120.958 149.794 118.553 138.072 111.915C130.95 107.882 125.291 104.415 125.496 104.21C125.86 103.846 141.726 110.166 155.422 116.131C159.184 117.769 162.543 118.829 162.886 118.486C164.558 116.815 160.215 114.237 145.081 107.917C136.006 104.127 129.107 101.011 129.749 100.992C130.392 100.973 135.99 102.548 142.19 104.492C153.322 107.982 158.079 108.386 155.009 105.58C154.223 104.862 149.531 103.047 144.581 101.546C139.631 100.045 133.106 97.9627 130.081 96.9197C125.067 95.1907 124.935 95.0727 128.581 95.5887C130.781 95.8997 139.106 97.4357 147.081 99.0007C165.786 102.672 167.581 102.845 167.581 100.975C167.581 100.038 166.109 99.2137 163.581 98.7347C151.359 96.4237 147.815 95.7087 140.081 93.9947C133.067 92.4397 132.296 92.0967 135.672 92.0337C137.922 91.9917 143.442 92.4527 147.939 93.0577C156.892 94.2627 160.035 93.8127 158.19 91.5887C157.532 90.7957 153.891 89.9827 149.327 89.6087C131.524 88.1507 127.949 87.6567 129.254 86.8347C129.984 86.3747 139.032 86.0067 149.361 86.0187C159.69 86.0297 168.585 85.7647 169.127 85.4287C172.092 83.5967 166.997 82.9447 148.772 82.8217L128.581 82.6857L143.081 81.2367C151.056 80.4407 158.009 79.3767 158.531 78.8737C160.64 76.8407 157.333 76.1837 149.081 76.9957C139.342 77.9537 132.537 78.1687 133.209 77.4957C133.463 77.2427 137.251 76.3767 141.626 75.5737C168.615 70.6177 168.081 70.7527 168.081 68.8987C168.081 67.7027 164.158 67.6947 158.774 68.8817C150.033 70.8087 135.002 73.2117 134.546 72.7567C134.056 72.2657 136.43 71.4647 148.831 67.9357C153.572 66.5867 156.081 65.3687 156.081 64.4157C156.081 63.6137 155.653 62.9577 155.13 62.9577C154.176 62.9577 146.927 64.8977 137.581 67.6537C130.8 69.6537 125.786 70.9097 124.581 70.9097C123.379 70.9107 133.412 66.5997 141.081 63.8217C158.57 57.4847 170.407 50.5487 160.586 52.3907C158.523 52.7777 156.103 53.4917 155.208 53.9777C152.838 55.2647 135.798 62.3327 132.081 63.5707C129.293 64.4997 135.358 60.4827 142.934 56.3827C150.302 52.3957 152.849 49.9577 149.644 49.9577C148.763 49.9577 141.863 53.1357 134.311 57.0207C117.998 65.4127 119.219 63.9947 140.35 50.0087C154.43 40.6887 158.59 36.8887 153.779 37.7397C152.902 37.8947 146.468 41.8387 139.481 46.5047C132.495 51.1707 126.522 54.7317 126.209 54.4187C125.895 54.1057 126.132 53.5357 126.734 53.1537C128.13 52.2667 135.492 46.3147 139.782 42.6037C146.445 36.8407 142.018 36.0347 135.145 41.7597C132.635 43.8517 127.206 48.1887 123.081 51.3987C116.285 56.6877 116.979 55.8237 130.474 42.1907C141.992 30.5557 145.212 26.7417 144.681 25.3587C144.121 23.8977 141.415 26.1237 129.906 37.5137C115.84 51.4357 113.799 52.8817 121.501 43.4727C123.745 40.7317 126.256 37.6577 127.081 36.6427C127.906 35.6277 129.594 33.6857 130.831 32.3257C133.259 29.6587 133.607 28.4007 132.162 27.5077C131.043 26.8157 130.343 27.5017 121.646 37.8077C117.863 42.2907 114.577 45.9577 114.343 45.9577C113.695 45.9577 117.709 39.5817 125.78 27.7917C133.125 17.0607 133.85 15.5517 132.161 14.5067C131.379 14.0237 117.081 33.0347 117.081 34.5587C117.081 35.0597 112.711 41.2777 110.827 43.4577C109.113 45.4397 111.515 40.3067 116.757 30.7847C119.685 25.4647 122.081 20.8517 122.081 20.5347C122.081 20.2177 121.17 19.9577 120.056 19.9577C118.823 19.9577 117.664 20.9237 117.091 22.4307C116.574 23.7907 114.031 28.6287 111.44 33.1807C108.85 37.7327 106.137 42.5827 105.412 43.9577C100.856 52.5957 111.168 25.2857 117.758 11.2577C119.184 8.22267 118.926 5.95769 117.156 5.95769C116.313 5.95769 113.013 13.0637 106.586 28.7247C104.494 33.8217 102.576 37.7857 102.324 37.5337C102.072 37.2827 103.03 33.3367 104.452 28.7667C108.176 16.8027 108.644 13.9577 106.888 13.9577C105.917 13.9577 104.2 17.9617 101.634 26.2077C97.1743 40.5467 96.1583 43.3737 95.6543 42.8467C95.4503 42.6327 95.9163 39.3077 96.6903 35.4577C102.839 4.87369 103.191 2.66769 102.093 1.56969C100.731 0.207686 99.4833 4.1307 96.4733 19.2397C93.6753 33.2847 91.5733 39.1887 92.4783 30.4577C94.3723 12.1977 94.3903 10.9577 92.7713 10.9577C91.6733 10.9577 91.0523 12.2297 90.6983 15.2077C90.4193 17.5447 89.7163 23.2827 89.1353 27.9577C88.5543 32.6327 87.9803 38.2577 87.8593 40.4577C87.7393 42.6577 87.4023 34.5947 87.1113 22.5397C86.6123 1.91869 86.0623 -1.69032 83.7693 0.603683ZM80.7693 54.6037C80.3903 54.9817 80.0453 56.4537 80.0023 57.8747L79.9233 60.4577L78.9193 57.7077C78.3663 56.1957 77.2373 54.9577 76.4103 54.9577C75.2033 54.9577 75.0363 55.7987 75.5643 59.2077L76.2223 63.4577L74.1663 60.2077C70.7363 54.7857 67.8563 56.4137 71.1873 61.8907C73.8153 66.2127 73.0063 66.8457 69.7703 62.9997C68.3623 61.3267 66.7313 59.9577 66.1463 59.9577C64.8003 59.9577 64.7433 63.6307 66.0763 64.4547C66.6233 64.7927 67.5903 66.0407 68.2263 67.2287C69.2393 69.1217 68.9833 69.0527 66.1553 66.6737C64.3803 65.1797 62.5393 63.9577 62.0633 63.9577C59.9553 63.9577 60.2593 66.0447 62.7273 68.5127L65.4123 71.1977L62.9963 70.4407C61.6683 70.0237 60.0643 69.4897 59.4323 69.2527C58.8003 69.0157 58.0013 69.2777 57.6563 69.8357C57.3113 70.3937 58.7283 72.0057 60.8053 73.4177L64.5813 75.9857L59.6963 75.3177C55.8543 74.7917 54.9063 74.9337 55.2573 75.9847C55.5013 76.7187 57.1053 77.8007 58.8203 78.3887C63.6873 80.0577 64.0373 81.2617 59.4343 80.5017C56.6543 80.0427 55.0453 80.2067 54.5563 80.9987C53.5153 82.6817 55.9333 83.9067 60.5813 84.0517L64.5813 84.1767L60.3163 85.0177C52.4843 86.5617 51.6233 88.9047 58.8313 89.0597C63.3863 89.1587 63.4443 89.1947 60.2383 89.9527C56.3053 90.8827 54.5813 92.3397 55.5523 93.9117C56.1813 94.9277 57.7263 94.7557 61.8313 93.2137C64.5493 92.1917 62.8903 94.7947 60.0813 95.9577C58.4313 96.6407 57.0813 97.5687 57.0813 98.0197C57.0813 99.8027 59.2603 100.015 62.2473 98.5247C66.7463 96.2807 66.8793 96.5387 63.1903 100.345C59.2753 104.384 60.6873 106.365 65.1363 103.076C69.2033 100.069 69.5783 100.44 66.5223 104.447C64.2313 107.45 64.0853 108.022 65.4733 108.555C66.4763 108.94 67.8733 108.282 69.1673 106.816C70.9833 104.759 71.1593 104.713 70.5513 106.458C68.8673 111.29 68.8593 111.958 70.4863 111.958C71.3873 111.958 72.6363 110.833 73.2633 109.458C73.8893 108.083 74.8103 106.958 75.3093 106.958C76.1133 106.958 75.7993 108.817 74.3373 112.708C74.0613 113.443 74.6763 113.958 75.8293 113.958C77.1633 113.958 78.1263 112.916 78.8343 110.708L79.8773 107.458L79.9793 111.708C80.1333 118.117 84.0813 117.124 84.0813 110.676C84.0813 107.857 85.8073 109.676 86.2463 112.958C86.7743 116.902 89.6543 116.185 89.2563 112.208C88.8683 108.339 89.7563 107.974 91.0813 111.458C92.2433 114.514 95.5033 114.971 94.6483 111.958C94.3363 110.858 93.8263 109.058 93.5143 107.958C92.6623 104.957 93.6593 105.54 96.0813 109.458C99.6523 115.236 101.746 113.078 98.5553 106.908C96.7003 103.321 98.2043 102.971 100.489 106.458C102.207 109.08 105.081 109.856 105.081 107.698C105.081 107.005 103.938 105.205 102.541 103.698C99.5373 100.459 100.689 100.075 104.476 103.054C106.013 104.263 107.829 104.885 108.769 104.524C110.15 103.994 109.955 103.427 107.49 100.807L104.581 97.7157L107.781 99.3367C111.794 101.37 112.081 101.36 112.081 99.1847C112.081 98.1847 110.554 96.5907 108.575 95.5247C104.221 93.1797 104.533 92.6697 109.407 94.1657C112.201 95.0227 113.416 95.0227 114.275 94.1637C115.134 93.3047 114.318 92.5167 111 90.9997L106.581 88.9807L110.99 89.2187C116.934 89.5407 117.492 87.4417 111.896 85.8157L107.581 84.5607L111.503 84.0097C116.753 83.2707 117.312 81.1967 112.393 80.7047L108.581 80.3237L111.831 78.9217C116.743 76.8027 116.122 74.6267 110.831 75.4167L106.581 76.0517L109.307 74.2877C110.807 73.3167 112.255 71.9457 112.526 71.2407C113.127 69.6747 109.761 69.5237 107.015 70.9927C104.272 72.4607 104.617 71.1107 107.581 68.7787C112.1 65.2247 109.494 63.3307 104.546 66.5727C101.889 68.3137 101.109 67.0087 103.581 64.9577C105.223 63.5957 105.639 59.9577 104.154 59.9577C103.643 59.9577 102.293 61.1437 101.154 62.5927C98.9213 65.4317 98.4953 64.6287 100.056 60.5227C101.574 56.5297 97.8733 57.1217 95.7733 61.2077L94.1033 64.4577L94.7253 59.5797C95.2213 55.6887 95.0673 54.7917 93.9643 55.1457C93.2033 55.3897 92.1503 57.0217 91.6243 58.7737C90.3243 63.0997 89.0923 62.7917 89.3613 58.2077C89.5233 55.4437 89.1873 54.4577 88.0813 54.4577C87.0633 54.4577 86.4543 55.7437 86.1873 58.4577L85.7933 62.4577L84.6133 58.5167C83.4493 54.6257 82.1093 53.2627 80.7693 54.6037ZM77.8373 73.7127C72.1483 77.2397 70.3463 88.2777 74.6773 93.0637C81.8883 101.033 95.7443 97.6037 97.6623 87.3757C98.5673 82.5527 95.8913 75.8677 92.1763 73.6727C88.4823 71.4907 81.3883 71.5107 77.8373 73.7127Z" fill="#B2F5EA"/>
</svg>
