<svg width="160" height="159" viewBox="0 0 160 159" fill="none" xmlns="http://www.w3.org/2000/svg">
<path fill-rule="evenodd" clip-rule="evenodd" d="M69.695 0.558122C51.671 2.60512 36.251 10.5581 21.655 25.3351C15.367 31.7011 13.164 34.8441 9.22601 43.0721C-0.846995 64.1161 -2.28401 83.6661 4.68099 104.894C11.757 126.464 29.734 145.256 51.17 153.491C69.274 160.446 93.187 160.161 110.65 152.783C128.185 145.374 144.91 129.477 151.901 113.572C157.568 100.679 159.197 93.0421 159.183 79.4281C159.159 55.7471 152.029 39.0291 134.726 22.0721C117.869 5.55413 94.316 -2.23788 69.695 0.558122ZM67.816 4.37712C67.542 4.82012 70.278 6.68512 73.895 8.52312L80.473 11.8641L86.884 8.70314C90.409 6.96414 93.02 5.09911 92.686 4.55711C91.957 3.37811 68.538 3.20912 67.816 4.37712ZM50.33 9.35414C46.83 10.8491 43.936 12.5221 43.901 13.0721C43.865 13.6221 46.897 14.6271 50.638 15.3051C54.379 15.9831 59.901 17.6641 62.909 19.0411C68.893 21.7811 70.001 21.5861 74.195 17.0551L76.695 14.3541L74.268 12.7131C71.424 10.7891 60.368 6.59813 58.195 6.62013C57.37 6.62913 53.831 7.85914 50.33 9.35414ZM94.624 8.86214C91.835 10.0781 88.289 11.9081 86.744 12.9301L83.934 14.7891L86.815 17.1941C91.964 21.4931 92.39 21.5571 98.177 18.8981C101.169 17.5231 106.334 15.9351 109.656 15.3681C112.977 14.8021 116.071 13.9921 116.531 13.5691C117.595 12.5901 107.005 7.53512 102.837 7.03212C101.021 6.81312 97.555 7.58514 94.624 8.86214ZM33.695 19.0661C27.855 23.6841 24.195 27.0141 24.195 27.7081C24.195 28.1371 28.582 28.2491 33.945 27.9571C43.201 27.4531 50.005 28.5631 58.195 31.9131C59.791 32.5661 64.695 26.9171 64.695 24.4261C64.695 20.3381 37.937 15.7111 33.695 19.0661ZM75.945 20.0561C74.433 21.3871 73.195 22.9311 73.195 23.4881C73.195 24.0451 74.828 25.6091 76.823 26.9651L80.451 29.4311L84.323 26.8681C86.453 25.4591 88.195 23.9901 88.195 23.6041C88.195 22.2321 82.183 17.5731 80.454 17.6041C79.486 17.6211 77.457 18.7241 75.945 20.0561ZM110.695 18.2731C104.529 19.7181 95.166 23.4791 95.237 24.4831C95.26 24.8071 96.795 26.7881 98.648 28.8861C101.421 32.0241 102.343 32.5191 103.856 31.6801C110.245 28.1351 124.989 26.5051 132.135 28.5551C134.02 29.0951 135.817 29.2831 136.128 28.9721C136.44 28.6611 134.096 25.9681 130.921 22.9891C125.159 17.5831 125.135 17.5721 118.921 17.6881C115.497 17.7521 111.795 18.0151 110.695 18.2731ZM65.945 30.0191C64.433 31.9141 63.195 33.6531 63.195 33.8831C63.195 35.0351 71.369 39.7731 71.998 38.9841C72.398 38.4821 73.835 36.8071 75.191 35.2611L77.657 32.4511L74.291 29.5111C72.439 27.8951 70.422 26.5721 69.809 26.5721C69.197 26.5721 67.457 28.1231 65.945 30.0191ZM87.445 28.6871C83.464 31.2371 83.403 32.3941 87.033 36.5521L89.871 39.8021L93.521 37.4371C95.528 36.1361 97.176 34.3691 97.183 33.5091C97.194 32.1341 92.313 26.5441 91.14 26.5891C90.895 26.5981 89.233 27.5421 87.445 28.6871ZM116.195 31.6601C109.774 33.0141 104.192 34.7941 104.211 35.4821C104.267 37.4881 109.091 44.0121 110.281 43.6911C120.699 40.8821 129.845 41.4141 138.164 45.3131C141.206 46.7391 143.929 48.1681 144.216 48.4891C144.502 48.8101 146.406 50.6151 148.447 52.5001L152.157 55.9281L151.259 52.7951C149.811 47.7471 144.048 37.6011 141.481 35.5821C137.336 32.3221 123.349 30.1531 116.195 31.6601ZM29.195 32.2181C21.701 33.1821 17.569 36.0831 13.318 43.3611C11.124 47.1181 9.043 51.5161 8.695 53.1321L8.062 56.0721L11.379 52.4971C14.939 48.6601 19.376 45.5721 21.331 45.5721C21.995 45.5721 23.282 44.8981 24.193 44.0741C25.183 43.1781 28.83 42.3361 33.272 41.9801C39.839 41.4531 43.28 41.8551 50.695 44.0201C52.26 44.4771 53.076 43.8301 54.445 41.0471C56.89 36.0771 56.661 34.9381 52.945 33.5791C49.465 32.3071 34.964 31.4761 29.195 32.2181ZM76.356 39.0211L74.017 42.4561L76.856 46.0141C78.417 47.9711 80 49.5721 80.372 49.5721C80.745 49.5721 82.403 47.9291 84.058 45.9221L87.067 42.2711L84.512 38.9221C81.276 34.6781 79.296 34.7021 76.356 39.0211ZM59.509 38.8221C55.775 44.6291 55.375 47.1771 58.063 48.0301C59.091 48.3561 60.737 49.5141 61.723 50.6031C63.491 52.5561 63.545 52.5321 65.824 48.8271C68.934 43.7691 68.77 42.4601 64.697 39.8221C60.646 37.1981 60.564 37.1821 59.509 38.8221ZM95.457 40.1461L92.219 42.6981L94.33 46.8851C95.491 49.1881 96.569 51.2181 96.726 51.3971C97.201 51.9371 105.195 46.3681 105.195 45.4961C105.195 43.8431 100.957 37.5721 99.846 37.5831C99.213 37.5891 97.238 38.7431 95.457 40.1461ZM29.195 46.4701C18.368 50.3311 9.79299 57.6771 6.12499 66.2351C4.69699 69.5671 4.195 73.0681 4.195 79.6961C4.195 87.7511 4.50499 89.2501 7.272 94.5661C12.777 105.144 23.849 112.535 35.473 113.391C41.342 113.823 50.195 112.04 50.195 110.426C50.195 109.939 49.64 107.762 48.962 105.589L47.728 101.637L40.485 102.249C34.906 102.721 32.206 102.466 28.737 101.141C23.166 99.0141 16.611 91.8311 15.092 86.1901C12.395 76.1731 16.439 65.1591 25.031 59.1201C28.863 56.4271 30.085 56.1111 36.507 56.1581C40.46 56.1861 44.542 56.4031 45.578 56.6411C47.038 56.9751 47.817 56.1081 49.053 52.7701C50.979 47.5681 50.47 47.0671 42.291 46.1091C39.213 45.7481 36.02 45.3211 35.195 45.1591C34.37 44.9971 31.67 45.5871 29.195 46.4701ZM86.38 49.0141C82.821 53.0681 82.468 55.0891 84.752 58.3491C86.972 61.5191 90.398 61.1911 92.516 57.6061C94.217 54.7251 94.2 54.5071 91.917 50.0131L89.565 45.3861L86.38 49.0141ZM113.093 46.6851L110.491 47.6401L113.475 56.7011L119.869 56.0161C125.737 55.3881 126.777 55.5871 132.48 58.4341C136.544 60.4631 139.627 62.8691 141.388 65.3851C149.937 77.6011 145.786 94.2351 132.594 100.621C128.679 102.516 126.915 102.764 120.694 102.293L113.39 101.741L112.292 106.099C111.689 108.496 111.195 110.664 111.195 110.917C111.195 112.076 118.051 113.572 123.366 113.572C130.261 113.572 139.579 109.808 145.455 104.649C151.034 99.7501 155.563 89.7481 156.042 81.2661C156.273 77.1851 155.894 72.6281 155.122 70.2001C151.682 59.3791 141.466 48.9991 132.002 46.7081C126.428 45.3591 116.739 45.3471 113.093 46.6851ZM69.184 49.8221C68.094 51.6101 67.201 53.7591 67.199 54.5991C67.192 57.2511 70.216 60.5721 72.637 60.5721C74.873 60.5721 78.195 56.9671 78.195 54.5401C78.195 53.0671 73.196 46.5721 72.062 46.5721C71.569 46.5721 70.274 48.0341 69.184 49.8221ZM52.26 54.2171C50.496 60.1911 51.564 62.0721 56.721 62.0721C60.048 62.0721 60.652 61.7001 61.512 59.1211C62.413 56.4191 62.174 55.8931 58.679 52.8711C56.579 51.0571 54.585 49.5721 54.247 49.5721C53.908 49.5721 53.014 51.6621 52.26 54.2171ZM102.298 52.4451C99.365 54.8761 99 55.6581 99.627 58.1571C100.841 62.9921 105.428 64.1821 108.741 60.5211C110.451 58.6321 110.483 58.1431 109.146 54.3441C108.348 52.0751 107.245 50.0861 106.695 49.9241C106.145 49.7621 104.166 50.8971 102.298 52.4451ZM28.03 62.0941C22.644 64.8991 19.866 68.3671 18.277 74.2691C15.87 83.2051 20.459 92.9141 29.171 97.3221C36.574 101.067 46.195 99.9061 46.195 95.2681C46.195 93.4141 45.105 92.4041 41.071 90.5141C28.399 84.5791 28.095 75.4781 40.334 68.4331C48.927 63.4871 47.99 59.5371 38.245 59.6191C34.385 59.6511 31.275 60.4051 28.03 62.0941ZM115.862 60.2391C115.495 60.6051 115.208 61.8431 115.225 62.9891C115.246 64.4641 116.944 66.0391 121.048 68.3881C133.268 75.3821 132.75 83.5851 119.624 90.9251C116.827 92.4891 115.606 93.8871 115.385 95.7771C115.099 98.2331 115.424 98.4841 119.735 99.1301C128.387 100.428 136.262 96.2811 140.345 88.2791C143.161 82.7581 142.613 73.6091 139.154 68.3891C135.192 62.4111 129.881 59.5721 122.661 59.5721C119.288 59.5721 116.228 59.8721 115.862 60.2391ZM62.251 72.1251C61.288 78.0971 61.292 81.1331 62.274 86.6251C63.37 92.7591 63.775 93.5721 65.733 93.5721C69.767 93.5721 70.695 91.0481 70.695 80.0801C70.695 68.7221 69.348 64.5721 65.663 64.5721C63.706 64.5721 63.338 65.3871 62.251 72.1251ZM77.017 67.2561C75.347 71.2461 75.38 87.3251 77.066 91.3221C79.091 96.1201 82.743 95.8621 84.142 90.8221C85.289 86.6941 85.395 71.5211 84.306 67.5721C83.248 63.7381 78.574 63.5351 77.017 67.2561ZM91.106 67.7691C89.313 72.0781 89.288 86.1071 91.066 90.3221C92.073 92.7071 93.077 93.5721 94.841 93.5721C98.22 93.5721 99.214 90.2261 99.095 79.2571C98.967 67.4431 98.328 65.1561 95.049 64.7691C92.961 64.5231 92.224 65.0841 91.106 67.7691ZM105.136 70.8941C102.88 75.8621 102.661 82.3591 104.593 86.9821C106.358 91.2061 107.392 91.8281 110.611 90.6041C113.148 89.6391 113.195 89.4441 113.18 79.8471C113.171 74.4711 112.834 69.5831 112.43 68.9841C112.026 68.3861 110.646 67.6311 109.364 67.3071C107.374 66.8031 106.754 67.3291 105.136 70.8941ZM49.445 68.2341C48.558 68.5921 48.195 71.7511 48.195 79.1201C48.195 88.6161 48.373 89.5971 50.278 90.6171C53.116 92.1351 55.331 90.0211 57.069 84.1341C58.47 79.3891 58.111 76.3341 55.504 70.8221C54.057 67.7631 52.384 67.0481 49.445 68.2341ZM39.488 72.8191C33.687 76.9201 33.432 81.2531 38.747 85.4341C43.938 89.5181 44.89 88.5681 44.787 79.4051C44.736 74.8821 44.245 71.0881 43.685 70.9021C43.13 70.7171 41.241 71.5801 39.488 72.8191ZM116.695 79.1181V87.6631L119.174 87.0411C121.828 86.3751 127.195 81.0001 127.195 79.0081C127.195 77.4861 119.612 70.5721 117.942 70.5721C117.043 70.5721 116.695 72.9581 116.695 79.1181ZM52.786 97.4711C51.11 99.3231 51.05 99.9841 52.189 104.051C52.885 106.537 53.971 108.572 54.602 108.572C55.233 108.572 57.212 107.236 58.999 105.604C61.694 103.142 62.135 102.161 61.581 99.8541C60.747 96.3801 61.077 96.6981 57.599 96.0031C55.388 95.5611 54.182 95.9291 52.786 97.4711ZM101.398 96.8281C100.825 97.5181 100.063 99.2511 99.704 100.679C99.175 102.786 99.645 103.773 102.201 105.923C106.316 109.386 107.543 109.265 108.994 105.251C110.657 100.652 110.524 99.6671 107.945 97.5161C105.313 95.3201 102.863 95.0621 101.398 96.8281ZM69.165 99.8221C66.803 102.344 67.015 105.841 69.784 110.068C71.869 113.25 72.265 113.21 74.695 109.572C75.795 107.925 77.032 106.576 77.445 106.575C78.599 106.57 78.335 103.796 76.945 101.308C74.495 96.9261 72.276 96.5011 69.165 99.8221ZM84.752 99.7951C82.439 103.097 82.841 105.686 86.321 109.908L89.446 113.7L94.507 103.82L92.283 100.696C89.668 97.0231 86.923 96.6951 84.752 99.7951ZM147.263 107.075C144.306 110.053 140.604 112.412 136.141 114.163C130.31 116.451 128.375 116.732 121.073 116.351C116.465 116.11 111.938 115.575 111.013 115.162C109.741 114.593 108.665 115.415 106.603 118.531C104.755 121.324 104.204 122.981 104.892 123.669C106.437 125.214 117.064 127.501 122.695 127.501C128.674 127.501 138.432 125.302 141.566 123.249C144.316 121.446 153.912 102.472 152.012 102.592C151.838 102.603 149.701 104.621 147.263 107.075ZM8.812 106.226C9.451 108.81 13.253 116.489 16.341 121.434C17.91 123.947 25.9 126.541 34.305 127.268C40.599 127.811 48.292 126.713 54.385 124.4L57.075 123.379L54.92 118.943C52.886 114.755 52.596 114.551 49.73 115.29C48.061 115.72 42.42 116.072 37.195 116.072C26.254 116.072 21.104 114.23 12.902 107.382L8.109 103.38L8.812 106.226ZM61.684 108.242C60.59 109.063 58.832 110.356 57.776 111.116C55.905 112.462 55.903 112.598 57.678 116.534C59.799 121.237 61.83 121.65 65.847 118.195L68.61 115.818L66.729 111.647C64.428 106.544 64.174 106.373 61.684 108.242ZM94.656 111.322C93.606 113.385 92.597 115.375 92.413 115.746C92.229 116.117 93.763 117.566 95.822 118.965C98.727 120.939 99.876 121.252 100.947 120.363C102.245 119.286 105.195 114.282 105.195 113.158C105.195 112.559 98.011 107.572 97.148 107.572C96.828 107.572 95.706 109.26 94.656 111.322ZM79.194 109.322C79.193 109.735 78.068 111.379 76.694 112.978C75.319 114.576 74.196 116.151 74.197 116.478C74.199 116.804 75.564 118.647 77.231 120.572L80.263 124.072L87.258 116.533L84.059 112.552C81.064 108.826 79.197 107.586 79.194 109.322ZM66.982 121.439C64.94 122.887 63.253 124.402 63.232 124.806C63.212 125.21 64.526 127.01 66.154 128.806L69.112 132.072L72.861 129.95C74.923 128.783 76.723 127.433 76.862 126.95C77.001 126.467 75.67 124.437 73.905 122.439L70.695 118.807L66.982 121.439ZM86.882 122.377C85.404 123.919 84.195 125.696 84.195 126.326C84.195 126.955 85.823 128.712 87.814 130.23L91.432 132.99L94.314 129.765C95.898 127.992 97.192 125.985 97.188 125.306C97.182 124.225 91.407 119.572 90.07 119.572C89.795 119.572 88.36 120.834 86.882 122.377ZM52.195 128.757C47.633 130.371 44.688 130.64 34.932 130.332L23.17 129.962L26.932 133.83C29.002 135.957 32.189 138.626 34.014 139.759C37.082 141.665 37.952 141.741 45.514 140.762C53.901 139.676 65.195 136.013 65.195 134.38C65.195 132.935 59.804 126.559 58.695 126.692C58.145 126.758 55.22 127.687 52.195 128.757ZM98.389 130.285C96.646 132.368 95.215 134.297 95.209 134.572C95.203 134.847 97.705 136.094 100.769 137.342C106.859 139.824 120.235 142.054 123.586 141.147C124.746 140.833 128.359 138.181 131.616 135.253L137.536 129.93L126.116 130.366C115.332 130.777 110.434 130.088 103.127 127.132C102.074 126.706 100.518 127.741 98.389 130.285ZM76.458 131.884C74.678 133.087 73.221 134.747 73.22 135.572C73.22 136.951 79.164 141.575 80.931 141.57C81.351 141.568 83.263 140.227 85.18 138.589L88.665 135.61L85.18 132.632C81.038 129.092 80.64 129.058 76.458 131.884ZM66.117 138.556C63.335 140.183 55.087 142.716 48.294 144.03L41.695 145.306L48.671 148.639C52.508 150.472 57.008 151.971 58.671 151.969C61.953 151.966 76.195 145.822 76.195 144.41C76.195 143.258 69.968 137.63 68.695 137.632C68.145 137.632 66.985 138.048 66.117 138.556ZM87.814 140.886L83.932 144.17L86.323 145.736C88.615 147.238 95.804 150.613 99.417 151.882C101.892 152.752 115.185 148.015 116.573 145.769C116.868 145.292 114.182 144.363 110.605 143.703C107.027 143.044 101.591 141.395 98.523 140.038C95.456 138.682 92.665 137.579 92.321 137.587C91.977 137.595 89.948 139.08 87.814 140.886ZM73.906 149.946C70.266 151.665 67.268 153.353 67.242 153.697C67.161 154.77 73.128 155.573 81.07 155.558C88.769 155.545 93.197 154.868 93.193 153.705C93.192 153.357 90.341 151.665 86.857 149.946L80.523 146.821L73.906 149.946Z" fill="#c49354"/>
</svg>
