<svg width="159" height="160" viewBox="0 0 159 160" fill="none" xmlns="http://www.w3.org/2000/svg">
<path fill-rule="evenodd" clip-rule="evenodd" d="M56.5 0.736C55.675 1.054 53.425 2.297 51.5 3.498C49.575 4.699 45.75 6.929 43 8.453C20.233 21.067 20.944 20.443 12.746 35C11.662 36.925 8.351 42.55 5.388 47.5L0 56.5V102.5L8.75 117.418C13.563 125.623 17.5 132.641 17.5 133.014C17.5 134.019 24.455 141 25.455 141C25.927 141 30.743 143.627 36.157 146.838C41.571 150.048 48.642 154.142 51.872 155.936L57.744 159.196L101.912 158.918L106.956 155.808C112.189 152.581 113.949 151.569 124 146.006C134.794 140.031 137.45 138.039 139.992 134.012C141.372 131.827 142.5 129.841 142.5 129.599C142.5 129.357 144.75 125.531 147.5 121.097C150.25 116.663 152.5 112.809 152.5 112.533C152.5 112.256 153.85 109.836 155.5 107.154L158.5 102.279L158.485 85.889C158.471 70.802 157.549 63.996 156.066 68.028C155.768 68.838 155.407 75.051 155.262 81.835L155 94.171L149.21 87.613C143.475 81.118 143.435 81.029 144.988 78.278C150.83 67.928 155.167 62.843 156.421 64.873C157.042 65.876 157.366 65.793 157.861 64.502C159.248 60.886 157.956 54.69 155.463 53C155.057 52.725 154.021 50.925 153.16 49C151.608 45.527 148.811 40.502 141.472 28C139.373 24.425 136.609 20.863 135.328 20.085C132.323 18.259 115.925 8.755 107.281 3.829L100.561 0L79.281 0.0790024C67.576 0.122002 57.325 0.418 56.5 0.736ZM64.5 3.59C64.5 4.374 67.851 7.122 74.234 11.572L79.468 15.222L86.484 9.871C90.343 6.928 93.5 4.178 93.5 3.76C93.5 3.342 86.975 3 79 3C71.025 3 64.5 3.265 64.5 3.59ZM58.5 5.288C58.5 5.446 56.931 9.352 55.013 13.968C53.096 18.584 51.712 22.545 51.939 22.772C52.165 22.998 53.846 22.718 55.675 22.149C57.504 21.58 62.15 20.353 66 19.423C69.85 18.493 73.358 17.412 73.795 17.021C74.232 16.63 71.209 13.765 67.077 10.655C60.275 5.536 58.5 4.425 58.5 5.288ZM91.855 10.293C88.085 13.205 85.078 16.017 85.173 16.543C85.269 17.069 88.419 18.289 92.173 19.254C95.928 20.218 100.496 21.497 102.325 22.095C104.154 22.694 105.86 22.973 106.117 22.717C106.827 22.006 100.091 5 99.099 5C98.885 5 95.625 7.382 91.855 10.293ZM41.012 13.486C34.969 17.029 29.887 20.34 29.719 20.844C29.551 21.348 31.458 22.039 33.957 22.38C48.366 24.346 46.821 24.563 48.616 20.32C49.505 18.219 50.833 14.813 51.567 12.75C52.301 10.688 53.261 9 53.701 9C54.14 9 54.5 8.55 54.5 8C54.5 6.05 51.872 7.119 41.012 13.486ZM104.667 7.828C104.85 8.283 106.349 12.126 107.997 16.369L110.994 24.082L116.497 23.49C126.066 22.46 129.501 21.844 129.466 21.162C129.429 20.462 106.191 7 105.019 7C104.642 7 104.483 7.372 104.667 7.828ZM69.5 21.906C68.675 22.371 64.513 23.594 60.251 24.625C55.989 25.656 52.502 26.779 52.501 27.121C52.499 28.18 67.5 42.482 68.953 42.806C70.271 43.101 71.243 40.531 74.48 28.187C75.102 25.816 75.859 23.228 76.162 22.437C76.564 21.391 75.937 21.008 73.857 21.03C72.286 21.047 70.325 21.441 69.5 21.906ZM82.39 23.142C82.91 24.439 84.356 29.325 85.603 34C86.85 38.675 88.142 42.832 88.474 43.238C89.144 44.06 105.5 28.841 105.5 27.396C105.5 26.393 91.223 22.095 85.222 21.291C81.585 20.803 81.48 20.872 82.39 23.142ZM24.943 31.21C25.32 34.669 25.95 39.049 26.343 40.942L27.058 44.384L34.779 36.812C39.026 32.648 42.5 28.745 42.5 28.139C42.5 26.83 40.31 26.326 31.129 25.521L24.258 24.92L24.943 31.21ZM123.254 25.972C119.543 26.35 116.192 26.975 115.807 27.36C115.422 27.745 118.659 31.633 123 36C127.341 40.367 131.142 43.694 131.447 43.394C131.751 43.093 132.462 38.832 133.028 33.924C134.202 23.731 135.43 24.73 123.254 25.972ZM77.564 29.721C76.995 31.8 75.884 35.823 75.095 38.663C74.305 41.503 73.924 44.09 74.246 44.413C74.569 44.736 77.008 45 79.667 45C85.13 45 85.327 44.585 83.091 37.785C82.316 35.428 81.382 32.043 81.014 30.261C80.05 25.587 78.75 25.384 77.564 29.721ZM137.173 29.719C136.879 30.196 136.326 34.433 135.944 39.134L135.251 47.683L139.125 49.364C141.256 50.288 144.35 51.901 146 52.949C151.156 56.223 155.448 54.989 151.702 51.31C150.688 50.314 147.671 45.675 144.996 41C138.626 29.865 137.81 28.689 137.173 29.719ZM13.078 41.328C9.46 47.559 6.5 52.989 6.5 53.396C6.5 54.366 9.587 53.446 17.31 50.175L23.619 47.503L23.018 42.501C21.817 32.515 21.309 30 20.49 30C20.032 30 16.696 35.098 13.078 41.328ZM37.23 39.25C32.956 43.673 29.663 47.497 29.913 47.746C30.561 48.394 50.321 53 52.451 53C54.097 53 54.054 52.475 51.863 45.785C50.563 41.817 49.5 38.013 49.5 37.332C49.5 35.162 47.219 30.996 46.089 31.104C45.49 31.161 41.503 34.826 37.23 39.25ZM109.522 35.25C108.942 37.588 107.631 42.425 106.609 46C105.285 50.629 105.083 52.581 105.906 52.781C107.26 53.11 127.366 48.468 128.201 47.633C128.872 46.962 112.844 31 111.499 31C110.992 31 110.102 32.912 109.522 35.25ZM98.208 39.987L91.417 46.783L96.084 49.391C98.652 50.826 100.866 52 101.005 52C102.131 52 106.051 36.078 105.379 34.232C105.17 33.659 101.944 36.249 98.208 39.987ZM52.778 36.119C53.822 40.542 56.689 50.495 57.122 51.197C57.639 52.034 66.38 47.836 66.451 46.716C66.506 45.833 54.849 34.708 53.25 34.119C52.631 33.891 52.442 34.692 52.778 36.119ZM74.818 49.082C74.041 49.859 74.463 52.967 76.312 60.082C78.841 69.814 79.906 71.74 80.827 68.25C81.081 67.287 82.329 62.759 83.6 58.186C85.588 51.032 85.707 49.743 84.455 48.951C82.446 47.68 76.134 47.766 74.818 49.082ZM64.078 52.266C61.921 53.495 60.001 54.971 59.812 55.546C59.445 56.666 74.408 72.425 75.142 71.691C76.007 70.827 70.227 50 69.127 50.016C68.507 50.025 66.235 51.038 64.078 52.266ZM87.608 56.25C86.909 59.137 85.653 63.667 84.817 66.315C83.981 68.963 83.519 71.353 83.792 71.625C84.272 72.105 98.727 57.636 99.268 56.133C99.602 55.21 92.25 51 90.303 51C89.412 51 88.402 52.967 87.608 56.25ZM18 53.408C10.171 56.963 7.621 58 6.706 58C5.074 58 4.491 60.847 5.843 62.221C6.534 62.924 9.004 66.088 11.332 69.25C13.659 72.412 15.924 75 16.364 75C16.805 75 17.639 72.637 18.218 69.75C18.797 66.863 19.997 61.891 20.885 58.701C23.068 50.862 23.175 51.058 18 53.408ZM32.5 52.891C32.5 53.989 44.967 66 46.108 66C46.688 66 47.781 64.762 48.538 63.25C49.295 61.738 50.499 59.786 51.215 58.913C52.346 57.532 52.026 57.181 48.758 56.22C41.412 54.058 32.5 52.233 32.5 52.891ZM117.5 54.097C113.375 55.1 108.974 56.175 107.719 56.487L105.439 57.053L107.969 60.371C109.361 62.196 110.5 64.209 110.5 64.844C110.5 67.387 113.366 65.689 119.473 59.527C123.001 55.967 125.688 52.879 125.444 52.664C125.2 52.449 121.625 53.093 117.5 54.097ZM136.003 53.75C136.398 54.713 136.964 57.525 137.261 60C137.559 62.475 138.437 65.476 139.213 66.67C139.99 67.863 140.543 69.438 140.444 70.17C140.032 73.201 140.585 75 141.927 75C143.607 75 149.627 68.015 148.925 66.879C148.661 66.451 149.807 65.094 151.472 63.862C153.137 62.631 154.5 61.085 154.5 60.427C154.5 58.786 150.106 56.042 146.757 55.592C145.24 55.388 142.327 54.497 140.282 53.611C135.593 51.579 135.12 51.594 136.003 53.75ZM23.605 61.75C22.34 66.563 21.065 71.787 20.773 73.36L20.241 76.22L24.582 75.486C26.97 75.083 29.615 74.385 30.462 73.935C31.308 73.485 34.619 72.344 37.82 71.4L43.64 69.682L35.342 61.341C30.778 56.754 26.788 53 26.475 53C26.161 53 24.87 56.938 23.605 61.75ZM123.005 61.058C114.011 70.192 113.937 69.749 125 73.094C128.85 74.257 133.23 75.586 134.733 76.047C139.79 77.596 140.02 73.871 135.509 63.5C134.552 61.299 133.447 58.037 133.055 56.25C132.662 54.462 132.026 53 131.64 53C131.255 53 127.369 56.626 123.005 61.058ZM52.478 63.696C50.84 66.278 49.5 68.719 49.5 69.118C49.5 69.864 52.588 70.978 60.5 73.087C66.961 74.81 72.5 75.809 72.5 75.251C72.5 74.38 57.172 59 56.305 59C55.838 59 54.116 61.113 52.478 63.696ZM94.304 66.801C86.877 74.107 86.272 74.971 88.572 74.985C89.986 74.993 93.136 74.378 95.572 73.617C98.007 72.857 101.912 71.66 104.25 70.957C106.588 70.255 108.498 69.189 108.496 68.59C108.493 67.99 107.168 65.505 105.55 63.066L102.609 58.633L94.304 66.801ZM2.5 79.531C2.5 87.489 2.863 94 3.307 94C3.752 94 5.525 92.088 7.248 89.75C8.971 87.412 11.332 84.28 12.496 82.788C14.803 79.831 14.331 77.859 10.288 73.563C9.22 72.428 7.617 70.277 6.726 68.781C3.101 62.699 2.5 64.227 2.5 79.531ZM40 74.571C37.8 75.16 35.325 75.929 34.5 76.278C33.675 76.628 31.425 77.299 29.5 77.771C27.575 78.242 26.202 79.049 26.449 79.564C26.984 80.678 43.354 85.479 44.094 84.739C44.376 84.457 44.47 81.813 44.303 78.863L44 73.5L40 74.571ZM48.006 76.971C47.64 78.637 47.643 81.377 48.013 83.059C48.634 85.885 48.926 86.067 51.842 85.443C53.579 85.072 56.8 84.186 59 83.475C61.2 82.764 64.457 81.882 66.239 81.514C71.069 80.518 71.085 79.222 66.28 78.046C63.926 77.47 60.65 76.592 59 76.094C57.35 75.597 54.351 74.909 52.336 74.566C48.879 73.977 48.634 74.113 48.006 76.971ZM104 74.649C99.247 75.641 88.394 79.228 88.83 79.663C89.358 80.192 103.425 83.963 107.75 84.736C110.482 85.224 110.5 85.19 110.5 79.613C110.5 73.602 110.182 73.36 104 74.649ZM113.5 79.5C113.5 83.226 113.903 85.004 114.75 85.013C117.605 85.042 132.466 80.428 132.193 79.597C131.9 78.699 117.301 74 114.806 74C113.89 74 113.5 75.641 113.5 79.5ZM20.768 85.75C21.787 91.412 25.561 104.461 26.43 105.33C26.967 105.867 30.593 102.848 35.379 97.879C39.804 93.284 43.104 89.224 42.712 88.857C41.971 88.163 23.095 83 21.297 83C20.727 83 20.492 84.218 20.768 85.75ZM86.5 83.873C86.5 85.199 102.31 100.235 103.146 99.705C103.616 99.407 105.125 97.07 106.5 94.512C108.955 89.944 108.965 89.835 107.059 88.43C105.991 87.644 104.191 86.992 103.059 86.983C101.926 86.973 97.738 86.118 93.75 85.083C89.762 84.047 86.5 83.503 86.5 83.873ZM127 85.511C117.041 88.335 115.34 89.026 115.708 90.099C116.164 91.429 130.716 106 131.588 106C132.459 106 132.596 105.6 135.458 94.768C137.812 85.857 138.009 82.95 136.25 83.121C135.563 83.188 131.4 84.264 127 85.511ZM60 86.647C55.05 88.004 50.636 89.475 50.19 89.917C49.252 90.847 54.499 100 55.969 100C57.127 100 71.5 85.91 71.5 84.775C71.5 83.657 70.047 83.893 60 86.647ZM13.966 86.288C10.061 90.866 4.601 99.492 5.234 100.082C6.588 101.343 21.586 107.248 22.108 106.725C22.385 106.448 21.462 102.253 20.056 97.404C18.65 92.554 17.5 87.78 17.5 86.793C17.5 84.758 15.514 84.474 13.966 86.288ZM140.914 87.75C140.386 90.078 137.86 98.902 135.904 105.25C135.515 106.515 135.922 107 137.374 107C138.478 107 139.624 106.608 139.92 106.13C140.216 105.651 143.177 104.243 146.5 103C149.823 101.757 152.797 100.329 153.107 99.826C153.678 98.903 151.776 95.451 149.286 92.89C148.542 92.126 146.906 90.037 145.649 88.25C142.857 84.28 141.729 84.161 140.914 87.75ZM67.027 94.973C58.441 103.609 58.322 104.268 64.759 107.479C68.82 109.505 69.094 109.444 70.269 106.25C71.986 101.587 75.635 87.801 75.254 87.42C75.056 87.222 71.353 90.621 67.027 94.973ZM83.5 88.465C83.5 89.271 84.135 91.858 84.911 94.215C85.686 96.572 86.609 100.309 86.96 102.52C88.059 109.444 88.787 109.881 94.241 106.89C96.858 105.454 99 103.805 99 103.223C99 102.253 84.8 87 83.897 87C83.678 87 83.5 87.659 83.5 88.465ZM76.688 96.274C75.444 100.798 74.331 105.85 74.214 107.5C74.01 110.353 74.208 110.515 78.237 110.807C85.41 111.326 85.592 110.876 82.802 99.5C81.454 94 80.035 89.173 79.649 88.774C79.264 88.375 77.931 91.75 76.688 96.274ZM44.5 92.786C44.5 93.219 41.807 96.256 38.516 99.536C32.074 105.956 31.214 107.569 34.75 106.6C47.2 103.189 50.674 102.16 51.068 101.765C51.747 101.086 46.487 92 45.415 92C44.912 92 44.5 92.354 44.5 92.786ZM110.806 93.75C110.459 94.713 109.292 96.772 108.214 98.327C107.118 99.908 106.639 101.516 107.127 101.977C108.118 102.91 125.474 107.359 126.015 106.818C126.385 106.449 112.576 92 111.853 92C111.624 92 111.153 92.787 110.806 93.75ZM6.511 105.75C6.517 106.162 8.992 110.713 12.011 115.863C15.03 121.012 17.5 125.555 17.5 125.958C17.5 126.36 18.338 127.449 19.363 128.376C21.16 130.003 21.265 129.756 22.354 121.322C22.974 116.515 23.146 112.246 22.735 111.835C22.065 111.165 7.748 105 6.862 105C6.663 105 6.505 105.338 6.511 105.75ZM142.75 108.271L135.5 111.375L135.574 115.938C135.676 122.19 136.828 129.03 137.822 129.287C138.274 129.404 139.888 127.25 141.408 124.5C142.928 121.75 146.045 116.417 148.336 112.648C150.626 108.879 152.5 105.617 152.5 105.398C152.5 104.485 149.585 105.344 142.75 108.271ZM46 107.029C44.35 107.482 40.497 108.483 37.437 109.252C34.378 110.021 31.304 111.003 30.605 111.435C29.712 111.987 31.806 114.707 37.668 120.61C42.25 125.224 46.265 129 46.589 129C47.475 129 52.5 110.334 52.5 107.044C52.5 105.848 50.318 105.843 46 107.029ZM105.744 108.18C107.498 116.263 111.102 128.99 111.638 128.995C112.387 129.001 127.86 113.257 128.296 112.046C128.459 111.592 126.209 110.688 123.296 110.035C120.383 109.383 116.875 108.467 115.5 108C114.125 107.533 111.254 106.861 109.12 106.506C105.453 105.896 105.268 105.988 105.744 108.18ZM56.177 107.75C55.934 108.162 55.433 110.075 55.064 112C54.695 113.925 53.884 117.629 53.262 120.232C52.64 122.835 52.401 125.235 52.731 125.565C53.062 125.895 56.391 123.224 60.13 119.63C63.868 116.035 66.719 112.942 66.464 112.755C64.522 111.338 57.45 107 57.08 107C56.826 107 56.419 107.338 56.177 107.75ZM96.555 109.531C94.66 110.869 92.635 112.123 92.055 112.318C90.982 112.678 104.322 125.909 105.817 125.968C106.267 125.986 106.418 125.213 106.153 124.25C105.888 123.287 105.132 120.025 104.473 117C103.003 110.251 101.788 106.984 100.771 107.049C100.347 107.076 98.45 108.193 96.555 109.531ZM74.125 114.798C73.683 115.513 78.173 132.998 79.016 133.847C79.206 134.038 79.893 132.238 80.543 129.847C81.193 127.456 82.096 124.375 82.55 123C83.004 121.625 83.664 119.037 84.017 117.25L84.659 114H79.638C76.877 114 74.396 114.359 74.125 114.798ZM26.5 115.753C26.5 116.359 26.02 120.309 25.432 124.53C24.845 128.752 24.58 132.765 24.842 133.449C25.218 134.429 27.124 134.449 33.878 133.543C38.586 132.912 42.681 132.152 42.978 131.855C43.275 131.558 40.868 128.657 37.629 125.408C28.723 116.474 26.5 114.546 26.5 115.753ZM123 123C118.659 127.367 115.407 131.241 115.775 131.609C116.58 132.413 133.287 134.572 133.832 133.942C134.355 133.337 132.137 116.281 131.447 115.604C131.142 115.305 127.341 118.633 123 123ZM60.665 123.842C56.174 128.155 52.5 131.913 52.5 132.194C52.5 132.474 55.537 133.486 59.25 134.444C62.963 135.401 68.167 136.864 70.815 137.694C73.463 138.524 75.853 138.981 76.126 138.708C76.399 138.435 75.714 135.126 74.604 131.356C73.494 127.585 72.099 122.588 71.504 120.25C70.91 117.912 70.064 116 69.626 116C69.188 116 65.155 119.529 60.665 123.842ZM87.989 117.187C87.715 117.909 86.42 122.325 85.111 127C83.802 131.675 82.406 136.287 82.009 137.25C81.128 139.383 82.091 139.44 87.715 137.591C90.072 136.816 93.575 135.879 95.5 135.509C100.056 134.633 105.502 132.747 105.493 132.049C105.484 131.362 91.453 117.605 89.743 116.607C89.037 116.195 88.268 116.449 87.989 117.187ZM38.15 136.133C34.382 136.617 30.681 137.359 29.926 137.781C28.994 138.303 32.601 140.87 41.18 145.788C48.124 149.77 53.959 152.874 54.146 152.687C54.333 152.5 53.365 150.021 51.993 147.178C50.622 144.336 49.5 141.542 49.5 140.97C49.5 139.588 46.442 134.966 45.635 135.126C45.286 135.196 41.917 135.649 38.15 136.133ZM110.816 136.688C110.448 137.684 108.908 141.425 107.394 145C105.879 148.575 105.031 151.641 105.508 151.813C106.574 152.197 129.5 138.846 129.5 137.842C129.5 137.446 127.363 136.853 124.75 136.524C110.995 134.79 111.519 134.784 110.816 136.688ZM51.5 136.482C51.5 136.876 52.122 138.616 52.881 140.349C53.641 142.082 55.149 145.75 56.232 148.5C57.499 151.718 58.763 153.455 59.778 153.373C61.924 153.201 73.635 143.904 73.231 142.694C73.054 142.161 69.104 140.695 64.454 139.435C59.804 138.175 54.988 136.835 53.75 136.456C52.512 136.077 51.5 136.089 51.5 136.482ZM103.081 136.868C102.786 137.346 100.303 138.034 97.564 138.397C94.824 138.761 92.312 139.495 91.982 140.029C91.652 140.563 90.085 141 88.5 141C86.915 141 85.338 141.453 84.995 142.008C84.261 143.196 85.065 144.001 93.135 150.147L99.237 154.794L101.293 150.147C104.573 142.735 106.5 137.825 106.5 136.878C106.5 135.742 103.782 135.735 103.081 136.868ZM72.45 149.114C68.902 151.859 65.572 154.531 65.05 155.052C64.451 155.649 69.538 156 78.8 156C86.885 156 93.487 155.663 93.471 155.25C93.446 154.615 83.61 146.972 80.037 144.812C79.411 144.434 75.997 146.37 72.45 149.114Z" fill="#c49354"/>
</svg>
