<svg width="161" height="159" viewBox="0 0 161 159" fill="none" xmlns="http://www.w3.org/2000/svg">
<path fill-rule="evenodd" clip-rule="evenodd" d="M74.4998 0.594208C73.6748 0.882208 71.2448 1.99921 69.0988 3.07721C66.2498 4.50921 64.1707 4.86321 61.3857 4.39321C55.1897 3.34621 47.0607 6.26121 42.1597 11.2872C39.8717 13.6332 35.3147 16.7782 32.0337 18.2762C28.7517 19.7742 25.2048 21.9252 24.1508 23.0562C21.4658 25.9382 17.4998 33.6362 17.4998 35.9652C17.4998 37.0362 17.1628 37.9192 16.7498 37.9282C15.0198 37.9652 9.50175 43.8472 7.38275 47.9132C5.72475 51.0922 5.04375 54.2362 4.90075 59.3542C4.77275 63.9572 3.97274 68.0932 2.60174 71.2452C-0.0582579 77.3612 -0.0472326 81.0472 2.65277 87.9262C3.95977 91.2552 4.87475 96.0002 4.98175 99.9922C5.19375 107.971 8.04878 114.481 13.3868 119.159C15.6878 121.176 17.6407 124.121 18.5267 126.912C20.4677 133.024 27.8178 140.374 32.9498 141.337C35.6368 141.841 38.0257 143.358 40.8957 146.384C46.8367 152.647 51.9737 154.912 60.2377 154.912C64.9417 154.912 67.7818 155.421 69.3998 156.554C70.7598 157.507 74.5608 158.398 78.4518 158.676C83.9818 159.072 86.0228 158.758 90.0798 156.888C93.6488 155.242 96.5587 154.676 100.679 154.824C107.96 155.086 115.233 152.057 120.007 146.773C122.18 144.367 125.561 142.113 128.831 140.889C131.746 139.799 135.29 137.67 136.706 136.159C139.515 133.161 143.5 125.806 143.5 123.619C143.5 122.865 145.248 120.709 147.385 118.83C153.28 113.645 155.5 108.686 155.5 100.708C155.5 95.9312 156.078 92.8642 157.49 90.1562C158.584 88.0562 159.767 84.2462 160.117 81.6892C160.676 77.6142 160.327 76.2622 157.289 70.7262C154.388 65.4402 153.977 63.9562 154.763 61.6082C155.28 60.0662 155.357 57.1412 154.934 55.1082C154.512 53.0752 154.269 50.8132 154.395 50.0822C154.714 48.2312 151.874 44.0552 147.478 39.9122C145.436 37.9872 143.432 35.2872 143.025 33.9122C141.157 27.5972 136.396 22.0162 130.261 18.9502C126.917 17.2792 123.69 15.9002 123.09 15.8842C122.491 15.8692 120.875 14.3252 119.5 12.4532C115.703 7.28221 109.337 4.45221 100.996 4.22521C96.4317 4.10121 92.4257 3.32421 89.4957 1.99521C85.2787 0.0832088 77.9308 -0.603792 74.4998 0.594208ZM75.6567 3.92321C70.1217 5.20621 69.9448 6.39721 74.8618 9.27821C77.3338 10.7272 79.6458 11.9122 79.9998 11.9122C80.3538 11.9122 82.6697 10.7242 85.1467 9.27321C88.8167 7.12221 89.4048 6.40521 88.3248 5.39621C86.5588 3.74621 79.8077 2.96121 75.6567 3.92321ZM51.1838 9.36121C47.5148 10.6692 43.4998 13.5382 43.4998 14.8522C43.4998 15.1982 45.9968 15.9392 49.0488 16.4982L54.5978 17.5152L61.4968 7.91221L58.2477 7.95621C56.4617 7.98021 53.2828 8.61221 51.1838 9.36121ZM99.4998 8.27421C99.4998 8.47421 100.821 10.2992 102.435 12.3312C104.05 14.3622 105.512 16.4132 105.685 16.8882C105.858 17.3622 108.621 17.2222 111.824 16.5762L117.649 15.4002L115.324 13.2232C111.715 9.84121 107.353 7.92521 103.25 7.91821C101.188 7.91521 99.4998 8.07521 99.4998 8.27421ZM62.1197 13.3302C58.3357 17.9492 57.6328 19.9122 59.7648 19.9122C60.4598 19.9122 62.8007 20.8622 64.9667 22.0222L68.9037 24.1332L72.7018 20.0612C74.7908 17.8222 76.4998 15.6312 76.4998 15.1932C76.4998 14.3282 67.9468 8.91221 66.5798 8.91221C66.1178 8.91221 64.1117 10.9002 62.1197 13.3302ZM89.9918 10.2602C88.8868 10.8942 86.9208 12.1672 85.6218 13.0902L83.2607 14.7682L85.2728 17.5902C86.3788 19.1422 88.2347 21.2712 89.3967 22.3222C91.4837 24.2082 91.5778 24.1982 97.0198 21.5342C102.153 19.0202 102.449 18.6852 101.351 16.6332C99.6337 13.4252 94.8668 8.89621 93.3268 9.01021C92.5968 9.06421 91.0958 9.62621 89.9918 10.2602ZM77.4247 20.1942C76.5587 20.8642 75.0877 22.5832 74.1567 24.0142C72.4747 26.5982 72.4898 26.6332 76.3998 29.3432C80.6588 32.2942 82.2348 32.0732 85.9158 28.0052C87.9638 25.7422 87.9917 25.8132 82.8207 20.1932C81.3587 18.6042 79.4807 18.6042 77.4247 20.1942ZM38.6667 22.4452C38.0317 23.8372 37.2278 26.7622 36.8788 28.9452L36.2438 32.9122H49.2258L50.9908 27.3002C53.1008 20.5922 52.5718 19.9502 44.9108 19.9272C40.4278 19.9142 39.6837 20.2142 38.6667 22.4452ZM109.25 20.6012C107.137 21.1542 107.146 21.0052 108.994 24.5482C109.815 26.1232 110.49 28.1092 110.494 28.9622C110.505 31.6982 112.267 32.4202 118.062 32.0632L123.729 31.7142L123.203 28.5632C122.913 26.8302 122.197 24.1742 121.613 22.6622C120.648 20.1672 120.106 19.9232 115.775 20.0282C113.149 20.0922 110.213 20.3502 109.25 20.6012ZM29.2687 23.4732C25.9327 25.6582 20.6848 33.4302 21.7958 34.5412C22.1518 34.8972 31.2238 32.9682 32.3168 32.3042C32.4908 32.1982 33.2197 29.5912 33.9357 26.5122C35.4317 20.0752 34.9427 19.7572 29.2687 23.4732ZM125.008 22.6622C125.405 23.6252 126.089 25.9102 126.528 27.7412C126.966 29.5722 127.477 31.2122 127.663 31.3852C128.313 31.9912 139.5 34.5992 139.5 34.1442C139.5 32.1322 134.431 25.4702 131.347 23.4302C126.804 20.4232 123.941 20.0762 125.008 22.6622ZM56.0337 23.8572C55.7127 24.3762 54.7967 26.6542 53.9977 28.9172L52.5458 33.0332L55.9908 34.4732C61.1388 36.6242 62.2667 36.2892 64.4797 31.9522C65.5907 29.7742 66.4998 27.7582 66.4998 27.4722C66.4998 26.8072 58.8978 22.9122 57.5988 22.9122C57.0588 22.9122 56.3547 23.3372 56.0337 23.8572ZM97.9998 24.7532C93.8558 27.0442 93.4417 27.8992 95.0067 30.9262C97.2857 35.3332 98.5317 35.8922 103.262 34.6302C108 33.3652 108.434 32.0832 106.051 26.3802C104.431 22.5032 102.702 22.1542 97.9998 24.7532ZM66.5317 35.0152C63.8577 39.3602 63.0657 40.0112 61.1957 39.4012C59.9877 39.0072 57.3757 38.4702 55.3907 38.2072L51.7817 37.7292L51.1207 42.7152C50.3427 48.5762 49.4618 49.4562 43.6288 50.1982C41.2248 50.5042 38.8578 51.1542 38.3688 51.6432C37.8518 52.1602 38.1057 54.5922 38.9797 57.4722C39.8037 60.1892 40.4828 62.7242 40.4888 63.1042C40.4948 63.4852 38.2978 65.0352 35.6058 66.5482C30.1578 69.6102 30.0808 70.3742 34.6788 75.7092C37.7668 79.2912 37.7128 79.6442 33.1418 85.7622C31.7658 87.6042 30.8607 89.6292 31.1307 90.2622C31.4007 90.8942 33.5067 92.3552 35.8107 93.5092C39.7927 95.5022 39.9818 95.7982 39.6348 99.5092C38.7678 108.783 38.5598 108.296 43.6998 109.046C46.2848 109.423 48.8408 110.004 49.3798 110.338C49.9188 110.671 50.6677 113.411 51.0447 116.428C51.8177 122.615 52.6858 123.005 59.9308 120.424C64.3068 118.865 64.5447 119.017 68.1777 125.662C69.1547 127.45 70.4458 128.912 71.0468 128.912C71.6478 128.912 74.0127 127.308 76.3027 125.348L80.4667 121.785L83.9827 124.467C85.9167 125.942 87.4998 127.546 87.4998 128.031C87.4998 128.515 88.2878 128.909 89.2498 128.906C90.8018 128.9 92.8648 126.39 95.9868 120.708C97.1458 118.599 98.3918 118.5 103.713 120.094C108.213 121.442 109.458 120.487 109.485 115.662C109.508 111.462 112.702 108.912 117.941 108.912C120.384 108.912 122.579 108.574 122.821 108.162C123.062 107.75 122.658 105.162 121.924 102.412C120.082 95.5172 120.034 95.6872 124.563 93.1002C126.789 91.8292 128.843 90.1832 129.127 89.4412C129.412 88.7002 128.27 86.1972 126.59 83.8782C124.911 81.5592 123.834 79.1562 124.197 78.5372C124.561 77.9182 125.836 76.0622 127.032 74.4122C130.793 69.2202 130.786 69.1862 125.446 66.2292C119.931 63.1762 120.054 63.6122 122.047 54.2282C122.701 51.1512 122.595 51.0242 118.862 50.4212C110.31 49.0392 110.698 49.3452 109.955 43.3982C109.576 40.3662 108.898 37.6582 108.447 37.3792C107.626 36.8722 101.426 38.0892 98.3728 39.3562C97.1598 39.8602 95.9477 38.7362 93.6177 34.9492C90.5047 29.8892 90.4768 29.8732 87.6718 31.3232C86.1218 32.1242 84.2697 33.4852 83.5547 34.3462C81.6707 36.6162 79.5128 36.2442 75.0718 32.8842C72.9108 31.2492 70.8118 29.9122 70.4078 29.9122C70.0028 29.9122 68.2587 32.2082 66.5317 35.0152ZM36.9998 47.4122L40.9998 47.0632C46.0798 46.6212 47.1038 45.7422 47.8428 41.1872C48.5728 36.6882 47.6378 35.9482 41.1998 35.9272L36.3998 35.9122L36.9998 47.4122ZM112.753 40.4612C113.035 42.9642 113.525 45.2712 113.843 45.5882C114.161 45.9062 116.27 46.5042 118.531 46.9182C122.295 47.6062 122.72 47.4632 123.571 45.2262C124.082 43.8822 124.5 41.2362 124.5 39.3472V35.9122H112.24L112.753 40.4612ZM127.5 42.2932V48.6752L132.25 50.0002C134.862 50.7292 137.517 51.4812 138.149 51.6722C139.5 52.0812 140.988 43.0262 140.054 40.0812C139.651 38.8132 137.897 37.7462 135.025 37.0232C127.522 35.1332 127.5 35.1492 127.5 42.2932ZM24.9998 37.6362C21.4718 38.5032 20.4998 40.0532 20.5148 44.7842C20.5388 51.9432 21.2848 52.5052 27.6298 50.1382C31.1768 48.8152 32.9717 47.5882 32.9167 46.5232C32.8707 45.6372 32.7577 43.1122 32.6667 40.9122C32.5127 37.2242 32.2848 36.9212 29.7498 37.0282C28.2368 37.0922 26.0998 37.3652 24.9998 37.6362ZM12.7687 45.8532C9.85373 49.5502 8.49975 53.2372 8.49975 57.4752V60.9092L13.4617 57.3442C17.9847 54.0942 18.3767 53.4982 17.8957 50.5962C16.4167 41.6712 16.2137 41.4832 12.7687 45.8532ZM143.598 46.0612C141.746 51.3752 142.294 53.2932 146.979 57.8912C149.443 60.3092 151.629 62.0902 151.838 61.8502C152.047 61.6092 152.492 59.3172 152.827 56.7572C153.295 53.1782 153.096 51.9712 151.968 51.5382C151.161 51.2282 150.5 50.4922 150.5 49.9032C150.5 48.5682 146.381 42.9122 145.41 42.9122C145.017 42.9122 144.202 44.3292 143.598 46.0612ZM27.6768 53.9182C23.0118 56.0352 22.8927 56.7562 26.1517 63.1622C27.7977 66.3972 28.2817 66.4682 32.9947 64.1622C36.8067 62.2972 37.0218 61.0232 34.5978 54.6622C33.3568 51.4062 33.2398 51.3932 27.6768 53.9182ZM125.484 54.4542C123.56 59.5142 124.231 61.7342 128.313 63.8162C130.41 64.8862 132.609 65.4582 133.2 65.0872C134.082 64.5332 137.5 57.5602 137.5 56.3162C137.5 55.6932 132.088 53.2142 129.234 52.5292C126.886 51.9662 126.319 52.2572 125.484 54.4542ZM13.4637 61.8612L8.99975 65.8112L11.9648 71.3612C13.5958 74.4142 15.1708 76.9102 15.4648 76.9082C16.5268 76.9012 24.4998 69.6392 24.4998 68.6792C24.4998 66.7072 19.9827 57.9122 18.9697 57.9122C18.3957 57.9122 15.9187 59.6892 13.4637 61.8612ZM138.25 62.3282C135.343 66.9202 134.722 69.9122 136.677 69.9122C137.325 69.9122 139.069 71.3682 140.555 73.1472C143.106 76.2022 143.4 76.3032 145.877 74.9782C148.091 73.7932 150.468 69.0302 150.494 65.7252C150.503 64.6672 143.131 57.9262 142 57.9572C141.45 57.9722 139.763 59.9392 138.25 62.3282ZM5.55578 71.8072C4.03278 74.6532 3.98173 81.8142 5.45373 86.2712C6.61373 89.7892 8.49975 91.2512 8.49975 88.6342C8.49975 87.9312 9.57375 85.7932 10.8878 83.8842L13.2748 80.4122L10.7228 75.9122C7.19578 69.6922 6.83878 69.4092 5.55578 71.8072ZM151.234 71.1622C150.97 71.8502 150.773 72.6372 150.796 72.9122C150.819 73.1872 150.208 74.5372 149.438 75.9122C147.252 79.8152 147.533 81.4722 151.075 85.5712L154.37 89.3842L155.435 86.5832C156.84 82.8872 156.791 75.6452 155.339 72.4592C154.105 69.7492 152.028 69.0932 151.234 71.1622ZM131.047 74.8442C128.124 79.0622 128.209 80.7992 131.534 84.7802C133.237 86.8192 133.754 86.9642 135.256 85.8302C140.219 82.0812 142.311 79.5772 141.759 78.0472C141.173 76.4262 135.566 71.0312 134.386 70.9532C134.048 70.9302 132.546 72.6812 131.047 74.8442ZM17.9998 80.1052L21.9167 83.5082C24.0707 85.3802 26.3207 86.9092 26.9167 86.9052C28.0917 86.8982 32.5168 80.8812 32.4728 79.3502C32.4578 78.8342 31.2108 76.9242 29.7018 75.1042L26.9578 71.7972L17.9998 80.1052ZM140.224 86.2002L135.449 90.4122L138.224 95.6542C139.751 98.5362 141.544 100.899 142.208 100.904C142.872 100.908 145.228 99.1882 147.444 97.0802L151.471 93.2492L149.803 88.8302C148.037 84.1542 146.661 81.8872 145.628 81.9502C145.282 81.9722 142.851 83.8842 140.224 86.2002ZM12.1268 88.6452L9.26776 93.3782L13.5118 97.1452C15.8468 99.2172 18.2678 100.912 18.8928 100.912C19.5168 100.912 21.1207 98.6102 22.4567 95.7962L24.8848 90.6802L21.0817 87.2962C18.9907 85.4352 16.7628 83.9122 16.1318 83.9122C15.5018 83.9122 13.6988 86.0422 12.1268 88.6452ZM127.763 95.2282C125.983 96.4292 124.52 98.0552 124.513 98.8412C124.49 101.307 126.855 106.912 127.917 106.912C130.193 106.912 137.499 103.563 137.484 102.526C137.459 100.855 133.148 93.6062 132 93.3062C131.45 93.1622 129.543 94.0272 127.763 95.2282ZM25.1307 98.4642C24.1027 100.963 23.4277 103.164 23.6307 103.355C24.4387 104.115 31.8237 106.912 33.0237 106.912C34.3307 106.912 36.5197 101.902 36.4747 99.0132C36.4517 97.4672 30.6797 93.9082 28.2087 93.9162C27.5437 93.9182 26.1587 95.9642 25.1307 98.4642ZM8.81677 103.942C9.36277 108.55 13.7678 116.832 15.7048 116.891C16.0918 116.902 16.6808 115.225 17.0118 113.162C17.3438 111.1 17.8028 108.478 18.0328 107.337C18.3458 105.781 17.3247 104.468 13.9457 102.087C11.4677 100.341 9.16675 98.9122 8.83075 98.9122C8.49575 98.9122 8.48877 101.175 8.81677 103.942ZM146.791 102.154C142.679 105.163 142.596 105.338 143.171 109.823C143.975 116.098 144.977 116.829 147.992 113.341C150.578 110.351 152.484 105.193 152.494 101.162C152.502 98.2992 151.923 98.3992 146.791 102.154ZM20.9678 110.229C20.6258 112.054 20.4927 115.091 20.6727 116.979C20.9767 120.174 21.3778 120.533 26.4528 122.159C29.4528 123.119 32.2897 123.522 32.7577 123.054C33.2257 122.586 33.4718 119.563 33.3038 116.336C33.0028 110.516 32.9697 110.459 29.3317 109.44C27.3137 108.875 25.3267 108.074 24.9147 107.662C23.2497 105.994 21.5558 107.096 20.9678 110.229ZM136.085 107.662C135.673 108.074 133.686 108.874 131.668 109.44C128.087 110.443 127.993 110.594 127.693 115.832C127.524 118.783 127.751 121.563 128.198 122.01C129.226 123.038 137.542 121.071 139.376 119.367C140.405 118.411 140.576 116.676 140.054 112.5C139.397 107.243 138.092 105.651 136.085 107.662ZM37.1597 114.05C36.8117 115.349 36.5207 118.122 36.5137 120.212L36.4998 124.012L47.9998 123.412L47.7037 118.916C47.3457 113.47 46.8418 112.902 41.7668 112.221C38.2198 111.745 37.7237 111.942 37.1597 114.05ZM115.805 112.923C113.39 113.895 111.541 120.353 113.201 122.013C113.725 122.537 116.481 123.241 119.327 123.578L124.5 124.191V111.912L121.25 111.975C119.463 112.01 117.012 112.437 115.805 112.923ZM55.6218 124.991C53.5748 125.81 53.3218 126.427 53.8068 129.416C54.1168 131.326 54.9767 133.756 55.7187 134.815C57.0477 136.711 57.1377 136.71 61.7837 134.698C66.9167 132.476 67.3918 131.23 64.7838 126.816C62.9618 123.73 60.1628 123.173 55.6218 124.991ZM96.7128 127.729L94.7228 131.545L97.6937 134.113C101.639 137.525 103.91 136.745 106.004 131.261C106.944 128.802 107.552 126.654 107.356 126.487C107.16 126.32 106.017 125.672 104.816 125.047C100.887 123.005 98.8178 123.69 96.7128 127.729ZM135.5 124.912C134.675 125.445 132.771 125.888 131.269 125.897C129.108 125.909 128.413 126.486 127.936 128.662C127.605 130.174 126.92 132.722 126.413 134.324C125.906 135.926 125.702 137.447 125.96 137.705C126.976 138.721 133.586 134.662 135.86 131.626C140.313 125.681 140.112 121.932 135.5 124.912ZM21.4998 125.726C21.4998 129.013 33.5698 140.175 35.2778 138.468C35.4958 138.249 35.1628 135.606 34.5378 132.593C33.4478 127.347 33.2448 127.088 29.6998 126.446C27.6648 126.077 24.9868 125.532 23.7498 125.235C22.5128 124.938 21.4998 125.159 21.4998 125.726ZM111.979 127.228C109.035 135.78 108.807 136.92 109.874 137.762C111.497 139.043 117.951 140.06 119.846 139.333C121.347 138.757 125.382 128.394 124.429 127.562C124.193 127.356 121.387 126.931 118.193 126.616C114.17 126.22 112.261 126.408 111.979 127.228ZM37.2418 127.503C36.4128 128.333 39.1277 136.969 40.7187 138.559C42.3567 140.197 52.4998 139.243 52.4998 137.451C52.4998 136.8 51.7828 134.163 50.9058 131.59L49.3118 126.912H43.5728C40.4157 126.912 37.5668 127.178 37.2418 127.503ZM76.2498 129.67C72.5948 131.936 72.7798 133.497 77.1968 137.663L80.8937 141.15L84.1968 137.545C86.0138 135.563 87.4967 133.597 87.4927 133.177C87.4847 132.236 81.2327 127.902 79.9377 127.939C79.4217 127.953 77.7628 128.732 76.2498 129.67ZM64.1998 137.326C61.5598 138.62 59.1338 139.944 58.8088 140.27C57.8668 141.211 65.4648 149.912 67.2288 149.912C69.0998 149.912 77.5127 145.154 77.4717 144.12C77.4387 143.295 70.0867 134.897 69.4377 134.943C69.1967 134.96 66.8398 136.033 64.1998 137.326ZM88.2498 139.371C86.7368 141.195 85.4998 143.329 85.4998 144.115C85.4998 145.918 93.1128 150.275 94.9988 149.551C95.7728 149.254 97.6478 147.135 99.1648 144.842L101.924 140.673L99.1558 138.293C95.2778 134.956 91.6118 135.319 88.2498 139.371ZM48.5447 142.345L43.0898 143.503L46.4687 146.732C48.3277 148.508 50.7818 150.146 51.9238 150.371C57.6038 151.491 60.3137 151.765 60.8107 151.267C61.2667 150.812 54.6338 140.628 54.1558 141.05C54.0698 141.126 51.5447 141.709 48.5447 142.345ZM102.917 146.412L99.5858 150.412L103.487 150.717C107.359 151.019 112.276 149.183 115.75 146.136C118.532 143.697 117.869 143.12 111.874 142.755C106.373 142.42 106.173 142.501 102.917 146.412ZM75.7787 149.748C73.4577 151.213 71.5447 152.677 71.5287 153.001C71.4687 154.22 76.7407 155.912 80.5967 155.912C85.0137 155.912 90.9028 153.373 89.9738 151.869C89.6478 151.343 88.8457 150.902 88.1907 150.89C87.5357 150.878 85.8748 149.988 84.4998 148.912C81.3608 146.457 80.9287 146.498 75.7787 149.748Z" fill="#c49354"/>
</svg>
