<svg width="159" height="159" viewBox="0 0 159 159" fill="none" xmlns="http://www.w3.org/2000/svg">
<path fill-rule="evenodd" clip-rule="evenodd" d="M64 1.35094C33.477 8.09894 11.648 28.1239 2.39595 57.8659C0.422952 64.2079 0.0609351 67.5269 0.0529351 79.3659C0.0439351 91.9439 0.32797 94.2699 2.85097 102.273C7.54297 117.151 15.354 129.191 26.976 139.458C34.018 145.679 34.99 146.319 44.5 150.995C55.23 156.271 61.939 157.924 75 158.513C89.729 159.178 101.113 157.347 111.291 152.677C129.599 144.277 144.937 128.798 152.453 111.137C159.374 94.8729 160.787 74.5869 156.12 58.4889C153.541 49.5929 147.061 36.2649 142.849 31.1939C132.173 18.3389 119.125 8.84795 106.056 4.42995C92.931 -0.0080533 75.814 -1.26006 64 1.35094ZM72.25 3.54295C69.859 3.82595 68.5 4.50794 68.5 5.42594C68.5 6.55094 70.195 6.87694 76.25 6.91394C80.513 6.94094 87.439 7.20194 91.642 7.49394C95.902 7.79094 99.5369 7.61495 99.8569 7.09695C101.074 5.12795 80.857 2.52495 72.25 3.54295ZM69.8939 14.0849C70.2479 15.8549 70.8669 17.6029 71.2689 17.9699C72.9009 19.4569 87.5169 26.8659 88.8189 26.8659C89.5899 26.8659 91.781 25.4029 93.689 23.6159C95.596 21.8289 98.9729 18.7349 101.191 16.7429C103.41 14.7499 105.539 12.6119 105.922 11.9929C106.429 11.1719 101.535 10.8659 87.934 10.8659H69.25L69.8939 14.0849ZM107.081 22.4319C102.088 31.4069 101.413 33.1969 102.601 34.3199C103.371 35.0469 109.85 38.677 117 42.386C124.15 46.095 132.925 50.714 136.5 52.649C140.075 54.585 143.675 56.5319 144.5 56.9769C145.325 57.4209 147.52 58.5189 149.379 59.4169L152.757 61.0499L152.054 57.3039C149.938 46.0209 137.317 27.7679 125.358 18.6929C121.463 15.7379 114.852 11.8659 113.699 11.8659C113.293 11.8659 110.315 16.6209 107.081 22.4319ZM35 17.5419C26.762 23.5149 18.459 32.451 13.81 40.345C11.75 43.843 9.45795 49.1579 9.84395 49.5429C10.048 49.7469 12.8639 46.8649 16.1019 43.1399C19.3409 39.4139 22.442 35.881 22.995 35.287C23.548 34.694 26.9969 30.869 30.6599 26.787C43.0409 12.992 43.953 11.0489 35 17.5419ZM57.171 17.6769C55.785 19.2079 55.7179 19.9849 56.7379 22.6869C58.2379 26.6589 59.827 26.284 60.549 21.787C61.483 15.973 60.165 14.3689 57.171 17.6769ZM43.8629 20.6159C42.9369 22.1279 41.1859 24.9409 39.9719 26.8659C32.2659 39.0789 24.2529 52.9519 24.6649 53.3649C24.9319 53.6319 27.4259 50.816 30.2069 47.108C32.9869 43.4 37.5259 37.4409 40.292 33.8659C44.053 29.0069 45.5 26.1669 46.025 22.6159C46.826 17.1969 46.2699 16.6829 43.8629 20.6159ZM64.0759 21.1159C62.5899 26.2509 61.549 33.8549 62.114 35.4459C64.207 41.3459 66.7489 45.9499 67.7329 45.6219C70.4939 44.7009 70.8959 41.9629 69.6339 32.6849C68.9369 27.5599 68.141 22.5789 67.866 21.6159C67.291 19.6059 64.6149 19.2529 64.0759 21.1159ZM98.1729 24.1559C93.0659 28.8449 92.4749 30.3649 95.4539 31.1439C97.4709 31.6709 98.4239 30.6219 102.464 23.4299C105.109 18.7209 103.864 18.9319 98.1729 24.1559ZM72.043 26.6159C72.465 28.6789 73.077 32.1659 73.405 34.3659C73.732 36.5659 74.5129 38.3659 75.1389 38.3659C76.9469 38.3659 85.6919 30.651 84.8029 29.841C83.6409 28.783 72.7309 22.8659 71.9429 22.8659C71.5769 22.8659 71.622 24.5539 72.043 26.6159ZM49.786 27.0829C49.228 27.7889 48.505 31.5159 48.179 35.3659C47.853 39.2159 47.08 47.2409 46.461 53.1999C45.841 59.1589 45.554 64.2529 45.822 64.5209C46.09 64.7889 47.722 63.7389 49.45 62.1869C52.142 59.7689 52.8749 57.9929 54.5789 49.7509C56.5339 40.2929 56.5359 40.0229 54.6959 33.3049C52.7849 26.3289 51.584 24.8079 49.786 27.0829ZM28.401 34.63C24.576 38.798 17.3509 46.9859 9.75093 55.7679C8.51393 57.1969 7.50193 58.8499 7.50093 59.4419C7.49993 60.6509 12.2929 65.4409 12.8499 64.7869C13.2119 64.3619 28.473 39.2979 31.797 33.6689C34.567 28.9779 33.247 29.351 28.401 34.63ZM82.2579 37.675C75.5209 43.361 75.5149 43.3699 75.9619 47.8659C76.4969 53.2559 78.2199 61.604 79.0869 63.007C79.4299 63.562 80.2689 62.9689 80.9509 61.6899C81.6339 60.4119 85.186 54.044 88.846 47.539C92.506 41.034 95.5 35.533 95.5 35.315C95.5 34.909 89.8439 31.818 89.2999 31.925C89.1349 31.958 85.966 34.545 82.2579 37.675ZM38.719 41.6159C35.891 45.3289 31.523 51.0659 29.013 54.3659C26.502 57.6659 23.891 61.0409 23.21 61.8659C19.979 65.7789 17.375 69.9829 17.672 70.8039C18.228 72.3439 26.556 80.8659 27.504 80.8659C27.995 80.8659 29.658 79.6949 31.198 78.2629C32.739 76.8309 35.685 74.135 37.745 72.27C41.362 68.997 41.5219 68.5639 42.4379 59.6229C43.9849 44.5179 44.6979 34.8659 44.2659 34.8659C44.0429 34.8659 41.547 37.9029 38.719 41.6159ZM97.5 38.7269C97.5 39.2009 93.675 46.252 89 54.395C84.325 62.539 80.5 70.0259 80.5 71.0339C80.5 73.3159 82.6309 73.3689 95.4559 71.4039C100.705 70.5999 113.55 68.7769 124 67.3529C147.308 64.1769 148.913 63.873 147.849 62.839C147.382 62.386 142.95 59.9059 138 57.3299C109.193 42.3349 103.91 39.5249 103.05 38.7369C101.822 37.6109 97.5 37.6039 97.5 38.7269ZM69.5009 49.3649C68.1479 50.9949 68.5809 52.4949 73.2559 62.3659C75.0939 66.2469 75.5139 66.6949 75.1309 64.3659C72.2899 47.1039 72.0059 46.3469 69.5009 49.3649ZM66.117 59.6159C66.954 62.2289 67.875 65.2659 68.164 66.3659C69.856 72.7979 70.808 74.8659 72.078 74.8659C72.86 74.8659 73.5009 74.3039 73.5029 73.6159C73.5059 72.4549 69.6209 62.2619 67.2139 57.1159C65.3139 53.0529 64.563 54.7639 66.117 59.6159ZM58.159 59.298C55.607 61.85 54.2389 65.6539 53.1439 73.2399L52.585 77.1149L58.793 76.4219C62.207 76.0409 65.376 75.3619 65.835 74.9129C66.682 74.0839 62.955 59.0539 61.526 57.5389C61.097 57.0839 59.581 57.875 58.159 59.298ZM3.57393 70.3089C2.02693 79.8979 2.92996 81.4279 6.62996 75.4829C10.115 69.8829 10.2129 67.8849 7.14394 65.0009L4.78694 62.7869L3.57393 70.3089ZM46.573 69.5009C43.876 72.9289 43.7629 77.8659 46.3809 77.8659C47.7729 77.8659 48.5539 76.709 49.3809 73.423C51.2459 66.016 50.325 64.7299 46.573 69.5009ZM135.5 71.5219C133.025 72.3249 128.3 73.6149 125 74.3899C121.7 75.1639 116.525 76.4469 113.5 77.2389C103.013 79.9879 83.999 84.8609 83.75 84.8629C83.138 84.8699 83.5859 88.055 84.4199 89.63C84.9269 90.585 86.5769 94.423 88.0889 98.158C89.6119 101.925 91.333 104.76 91.952 104.523C93.925 103.766 141.431 71.7869 142.035 70.8089C142.811 69.5539 140.943 69.7579 135.5 71.5219ZM153.861 71.9559C153.235 72.7319 150.924 76.7409 148.725 80.8659C146.525 84.9909 137.472 101.6 128.606 117.775C119.74 133.95 112.657 147.356 112.867 147.566C113.388 148.088 120.137 144.145 125 140.476C144.308 125.912 156.055 102.148 155.289 79.201C155.066 72.539 154.738 70.8709 153.861 71.9559ZM104.5 73.5159C80.083 77.0819 79.0309 77.3909 81.4249 80.2759C82.6179 81.7129 82.87 81.6669 102.5 76.4799C120.796 71.6459 121.178 71.0799 104.5 73.5159ZM144 74.1749C142.9 74.8299 141.775 75.5949 141.5 75.8759C141.225 76.1559 130.35 83.4509 117.334 92.0849C104.318 100.72 93.424 108.181 93.124 108.665C92.485 109.699 102.975 135.21 104.18 135.552C105.13 135.821 104.426 136.819 128.808 100.616C139.087 85.3539 147.16 72.8919 146.748 72.9249C146.337 72.9569 145.1 73.5199 144 74.1749ZM10.7139 78.048C6.84695 83.079 6.68793 84.2869 10.0009 83.4549C11.3759 83.1099 14.5259 82.5499 17.0009 82.2109C19.4749 81.8719 21.5 81.2939 21.5 80.9259C21.5 80.1729 15.172 73.8659 14.416 73.8659C14.148 73.8659 12.4819 75.748 10.7139 78.048ZM38.155 76.6949C35.983 79.0949 36.067 79.8659 38.5 79.8659C39.967 79.8659 40.5 79.1989 40.5 77.3659C40.5 74.3789 40.302 74.3229 38.155 76.6949ZM59.1569 79.9309C55.3929 80.3639 52.091 80.9409 51.82 81.2129C50.882 82.1509 49.71 88.8779 50.409 89.3099C50.794 89.5479 54.91 88.7439 59.555 87.5239C67.685 85.3879 68 85.1969 68 82.4189C68 78.9679 67.8599 78.9289 59.1569 79.9309ZM73.8449 81.4089C73.5189 82.2579 73.4689 83.1679 73.7329 83.4329C74.6239 84.3239 77.5 82.6639 77.5 81.2589C77.5 79.3669 74.5829 79.4859 73.8449 81.4089ZM44.167 82.533C43.8 82.899 43.5 85.2459 43.5 87.7469C43.5 91.6479 43.695 92.0869 44.875 90.8299C46.81 88.7679 47.757 81.8659 46.104 81.8659C45.405 81.8659 44.533 82.166 44.167 82.533ZM33.25 83.5649C31.737 83.8039 30.5 84.328 30.5 84.729C30.5 86.059 38.26 93.0639 38.783 92.2069C39.065 91.7439 39.454 89.5659 39.648 87.3659C40.03 83.0299 39.319 82.6079 33.25 83.5649ZM17 85.9909C14.8 86.4089 11.114 86.7769 8.80898 86.8079C6.50398 86.8399 4.37093 87.266 4.06893 87.755C3.45793 88.744 4.92098 97.621 5.84798 98.548C6.17198 98.872 7.46395 98.4239 8.71895 97.5519C12.508 94.9179 22.013 86.0389 21.489 85.6209C21.22 85.4059 19.2 85.5729 17 85.9909ZM19.5 92.8929C15.925 96.1739 13.612 98.8609 14.359 98.8629C17.642 98.8709 32.5 94.3579 32.5 93.3519C32.5 92.2929 27.379 86.8329 26.445 86.8959C26.2 86.9129 23.075 89.6119 19.5 92.8929ZM74.5 87.7429C74.5 88.2259 75.847 92.8389 77.494 97.9929C79.141 103.148 80.491 108.153 80.494 109.116C80.5 110.878 81.9849 111.509 82.8449 110.116C83.0999 109.704 82.692 105.991 81.939 101.866C81.186 97.7409 80.3089 92.6789 79.9899 90.6159C79.5009 87.4589 79.021 86.8659 76.955 86.8659C75.605 86.8659 74.5 87.2609 74.5 87.7429ZM67.505 92.5429C66.252 94.6459 64.0869 98.3909 62.6939 100.866C61.3009 103.341 59.3389 106.716 58.3339 108.366C57.3299 110.016 56.507 111.816 56.507 112.366C56.507 113.987 63.628 121.866 65.093 121.866C66.307 121.866 78.5 114.041 78.5 113.262C78.5 113.083 77.8879 111.008 77.1409 108.651C76.3929 106.294 74.9689 101.441 73.9769 97.8659C71.4269 88.6829 70.339 87.7879 67.505 92.5429ZM59.5 91.0189C49.4 93.4979 48.7599 93.8149 48.1939 96.6189C47.8899 98.1299 47.372 100.059 47.044 100.906C46.414 102.533 51.35 108.866 53.247 108.866C53.835 108.866 55.934 105.923 57.911 102.327C59.888 98.7299 62.203 94.7219 63.057 93.4189C64.962 90.5119 64.056 89.8999 59.5 91.0189ZM23.25 100.216C16.788 101.924 11.5 103.612 11.5 103.967C11.5 104.931 35.6189 119.08 36.2269 118.472C36.5149 118.184 37.2039 113.886 37.7589 108.92C38.5389 101.931 38.4829 99.5499 37.5109 98.3789C36.8199 97.5469 35.9729 96.9209 35.6279 96.9879C35.2819 97.0549 29.712 98.508 23.25 100.216ZM129.708 105.616C118.634 121.414 106.503 140.255 106.515 141.639C106.534 143.71 108.174 146.525 108.925 145.775C109.523 145.176 127.481 112.783 130.559 106.751C132.869 102.222 132.465 101.683 129.708 105.616ZM9.21395 109.616C12.5139 118.483 22.8389 132.209 30.7459 138.24L34.304 140.954L35.4849 133.957C36.1339 130.109 36.5149 126.152 36.3319 125.163C36.0429 123.596 11.466 107.866 9.30696 107.866C8.89796 107.866 8.85595 108.653 9.21395 109.616ZM44.7169 112.219C44.0799 114.5 43.27 118.054 42.918 120.116C42.368 123.337 42.5399 123.865 44.1389 123.858C45.3539 123.852 46.939 122.075 48.706 118.737C51.3 113.835 51.341 113.529 49.706 111.288C47.003 107.585 45.9569 107.78 44.7169 112.219ZM87.872 115.616C88.216 117.679 89.393 124.316 90.486 130.366C91.579 136.416 92.479 142.349 92.487 143.551C92.494 144.753 92.9689 146.969 93.5419 148.476L94.583 151.215L101.746 140.58L97.531 130.473C95.213 124.914 92.5859 118.454 91.6929 116.116C89.5909 110.617 86.978 110.275 87.872 115.616ZM51.205 121.469C49.072 125 48.6879 126.387 49.5529 127.43C51.7919 130.128 54.49 130.111 58.075 127.377L61.555 124.723L58.443 120.794C56.732 118.634 55.029 116.866 54.659 116.866C54.288 116.866 52.734 118.937 51.205 121.469ZM76.3209 119.172C75.5949 119.89 73.538 121.338 71.75 122.388C67.79 124.714 67.725 125.649 71.25 129.547C72.763 131.219 76.885 135.8 80.411 139.727C83.937 143.653 87.1549 146.866 87.5609 146.866C88.3139 146.866 86.514 139.547 82.335 125.616C80.027 117.919 78.8569 116.666 76.3209 119.172ZM61.25 129.438C59.737 130.259 58.5 131.302 58.5 131.756C58.5 132.608 67.6819 138.562 75.3599 142.689C80.3089 145.349 80.001 144.343 73.88 137.866C71.541 135.391 68.5719 132.128 67.2819 130.616C64.5749 127.442 64.835 127.493 61.25 129.438ZM44.62 133.145C43.517 134.888 42.7819 136.482 42.9879 136.687C43.6899 137.39 49.5 133.438 49.5 132.257C49.5 129.561 46.55 130.097 44.62 133.145ZM47 138.972C43.7 141.201 40.6079 143.403 40.1279 143.867C39.6459 144.333 41.528 145.86 44.349 147.289C55.351 152.865 67.809 155.844 80 155.815L89 155.794L86 153.335C84.35 151.983 82.69 150.874 82.31 150.871C81.931 150.868 77.291 148.166 72 144.866C66.709 141.566 62.1399 138.866 61.8469 138.866C61.5549 138.866 60.171 137.966 58.773 136.866C55.247 134.092 53.859 134.34 47 138.972ZM100.568 148.77C98.0359 152.326 98.002 152.866 100.309 152.866C103.362 152.866 105.533 150.605 104.868 148.116C104.069 145.125 103.054 145.279 100.568 148.77Z" fill="#c49354"/>
</svg>
