<svg width="182" height="181" viewBox="0 0 182 181" fill="none" xmlns="http://www.w3.org/2000/svg">
<path fill-rule="evenodd" clip-rule="evenodd" d="M90.207 0.750917C89.945 1.19292 89.433 3.57892 89.069 6.05392C87.242 18.4809 86.709 19.6209 81.684 21.8719C78.837 23.1459 75.287 23.8929 72.634 23.7749C68.342 23.5849 68.184 23.4499 63.288 15.8179C58.536 8.40992 55.46 6.02492 55.534 9.80392C55.553 10.7669 56.404 15.0809 57.426 19.3919L59.284 27.2299L56.416 30.4969C54.838 32.2939 51.513 34.5409 49.026 35.4909L44.504 37.2179L37.443 32.0819C33.56 29.2569 29.779 26.7149 29.042 26.4319C26.48 25.4479 26.545 27.8409 29.185 31.6849C30.647 33.8129 33.132 37.4439 34.708 39.7539L37.574 43.9529L35.937 48.7539C34.927 51.7149 32.963 54.6749 30.81 56.4809L27.321 59.4069L18.574 57.7309C8.09799 55.7219 7.50002 55.6999 7.50002 57.3059C7.50002 57.9949 11.042 60.7149 15.37 63.3509C22.988 67.9899 23.26 68.2879 23.857 72.6389C24.32 76.0229 23.975 78.1919 22.46 81.4149L20.448 85.6969L10.966 87.4829C5.75202 88.4649 1.25105 89.6479 0.965048 90.1109C0.146048 91.4359 3.38102 92.6339 11.5 94.0129C15.625 94.7129 19.588 95.7609 20.308 96.3409C24.012 99.3269 25.933 111.536 23.123 114.233C22.365 114.959 18.781 117.354 15.158 119.554C10.888 122.147 8.55903 124.211 8.53603 125.421C8.50803 126.861 9.00605 127.155 10.715 126.708C11.933 126.389 16.351 125.39 20.533 124.486L28.136 122.843L31.461 126.168C34.455 129.163 37.5 134.56 37.5 136.873C37.5 137.358 34.99 141.253 31.923 145.528C25.627 154.303 25.716 156.921 32.177 152.968C34.28 151.682 36.551 150.094 37.223 149.439C40.087 146.656 45.726 143.801 46.354 144.818C46.712 145.397 48.691 146.187 50.752 146.574C52.814 146.96 54.5 147.615 54.5 148.029C54.5 148.443 55.712 149.993 57.194 151.475L59.887 154.169L58.569 161.361C56.03 175.208 56.064 174.285 58.097 173.893C59.116 173.697 60.411 172.631 60.975 171.524C61.539 170.418 63.013 168.102 64.25 166.379C65.487 164.655 66.5 162.822 66.5 162.305C66.5 158.02 76.921 156.6 82.82 160.08C86.408 162.197 87.323 164.427 89.17 175.554C89.734 178.953 90.479 180.554 91.494 180.554C92.604 180.554 93.3851 178.142 94.5301 171.181L96.071 161.807L100.536 159.547C104.03 157.778 106.087 157.397 110 157.796L115 158.305L120 166.179C127.429 177.877 129.055 176.847 125.49 162.7C124.402 158.38 123.818 154.348 124.193 153.741C127.104 149.031 133.171 145.054 137.444 145.054C138.379 145.054 142.41 147.304 146.402 150.054C157.526 157.717 158.325 156.56 150.087 144.724C144.916 137.295 144.737 136.827 146.081 134.251C146.855 132.767 147.529 130.879 147.578 130.054C147.628 129.229 149.354 127.109 151.413 125.343L155.157 122.132L164.79 123.798C178.668 126.198 178.99 125.043 166.541 117.517C158.502 112.657 158.5 112.655 158.5 108.389C158.5 104.405 160.962 97.3159 162.82 95.9519C163.271 95.6199 166.871 94.7989 170.82 94.1259C180.477 92.4799 181.5 92.1399 181.5 90.5709C181.5 89.6509 178.371 88.6539 171.68 87.4389L161.86 85.6559L160.18 81.5949C159.256 79.3609 158.5 75.4229 158.5 72.8439C158.5 67.6809 159.708 66.3659 169.75 60.5939C174.133 58.0749 175.624 55.8669 173.731 54.6969C173.308 54.4359 168.921 55.2439 163.981 56.4919L155 58.7629L151.856 56.1589C147.261 52.3509 143.918 43.1499 146.541 41.5289C147.113 41.1749 148.758 39.0209 150.197 36.7419C151.636 34.4629 153.417 31.9939 154.156 31.2549C155.977 29.4339 155.936 25.6729 154.103 26.3759C153.335 26.6709 149.508 29.1939 145.599 31.9829C138.645 36.9449 136.163 37.9359 135.08 36.1829C134.784 35.7039 133.283 35.0609 131.744 34.7529C130.127 34.4289 127.618 32.5399 125.798 30.2749L122.649 26.3569L124.549 17.9549C126.846 7.79692 126.884 7.05392 125.1 7.05392C124.33 7.05392 121.447 10.6029 118.693 14.9399C113.853 22.5649 113.543 22.8399 109.343 23.2509C106.361 23.5419 103.565 23.0309 100.42 21.6179L95.84 19.5609L94.42 10.1339C93.158 1.75592 91.63 -1.64708 90.207 0.750917ZM89.167 23.7209C87.912 24.9749 88.498 29.8389 89.971 30.4049C91.427 30.9629 94.5 28.6969 94.5 27.0639C94.5 23.8309 91.154 21.7329 89.167 23.7209ZM63.884 29.4959C62.794 32.3369 63.976 34.5489 66.759 34.8699C68.757 35.1009 69.5 34.7439 69.5 33.5549C69.5 29.2599 65.174 26.1339 63.884 29.4959ZM100.239 29.3039C98.825 30.3789 98.7571 31.1479 99.7541 34.8039C100.392 37.1419 101.254 39.0539 101.671 39.0539C102.087 39.0539 103.558 37.3899 104.94 35.3569C107.278 31.9159 107.339 31.5339 105.821 29.8569C103.9 27.7339 102.487 27.5939 100.239 29.3039ZM113.54 29.5059C111.779 31.6279 112.683 34.5059 115.225 34.8689C116.874 35.1049 117.588 34.5519 118.059 32.6759C119.125 28.4279 116.16 26.3489 113.54 29.5059ZM76.54 30.5059C74.993 32.3699 75.889 35.1319 78.987 38.0409L81.439 40.3449L82.469 37.6339C83.965 33.7009 83.7341 30.3579 81.9181 29.6609C79.4071 28.6969 77.836 28.9439 76.54 30.5059ZM54.67 39.5799C54.013 41.0229 53.668 42.5079 53.904 42.8789C54.553 43.8979 61.458 47.4359 61.879 46.9649C62.08 46.7389 61.965 44.5289 61.623 42.0539C61.084 38.1629 60.653 37.5139 58.433 37.2549C56.479 37.0279 55.58 37.5829 54.67 39.5799ZM87.163 39.6379C85.012 42.5929 85.445 44.3169 88.912 46.5879C91.297 48.1509 91.593 48.1239 94.466 46.0779C98.092 43.4959 98.108 43.3159 95.016 39.8039C92.023 36.4039 89.557 36.3519 87.163 39.6379ZM120.221 41.8039C119.924 44.4169 119.832 46.7079 120.015 46.8949C120.595 47.4879 123.912 46.0889 126.303 44.2429C128.278 42.7189 128.46 42.0779 127.578 39.7589C126.787 37.6789 125.881 37.0539 123.655 37.0539C120.944 37.0539 120.726 37.3549 120.221 41.8039ZM69.766 41.3869C68.076 44.0179 66.771 49.1029 67.646 49.6449C68.152 49.9569 69.8941 50.5929 71.5171 51.0589C74.0941 51.7979 74.726 51.5459 76.485 49.0749C77.593 47.5189 78.5 45.5949 78.5 44.8009C78.5 42.8149 70.785 39.7999 69.766 41.3869ZM107.25 42.1769C105.188 43.2179 103.5 44.2219 103.5 44.4079C103.5 44.5939 104.228 46.2059 105.118 47.9899C106.618 50.9979 106.999 51.1839 110.368 50.5649C112.365 50.1989 114.398 49.5129 114.883 49.0429C115.865 48.0919 113.293 40.7479 111.878 40.4619C111.395 40.3649 109.313 41.1359 107.25 42.1769ZM42.941 43.1489C42.569 43.7519 42.854 45.3469 43.575 46.6939C45.13 49.5999 48.789 49.5529 49.349 46.6199C49.95 43.4649 44.553 40.5419 42.941 43.1489ZM134.125 43.5379C132.066 45.0969 132.51 47.7369 134.99 48.6889C137.129 49.5099 139.5 47.2719 139.5 44.4319C139.5 41.6919 137.091 41.2909 134.125 43.5379ZM81.216 51.1799C79.936 54.2849 79.977 54.6129 81.737 55.2989C83.669 56.0519 87.5 54.6519 87.5 53.1929C87.5 52.7579 86.399 51.3679 85.053 50.1039L82.607 47.8059L81.216 51.1799ZM96.424 50.6349C94.049 53.1629 94.04 53.2439 95.941 54.6349C100.009 57.6089 102.99 55.7589 101.414 51.2379C100.071 47.3839 99.538 47.3199 96.424 50.6349ZM123.25 51.7609C120.911 52.1229 120.502 52.6629 120.515 55.3699C120.536 59.7459 121.434 60.7969 125.5 61.2039L129 61.5539V56.5679C129 51.2409 128.625 50.9269 123.25 51.7609ZM51.93 53.3769C51.627 54.1649 51.778 56.3269 52.264 58.1819C53.103 61.3779 53.354 61.5359 57.075 61.2049C59.234 61.0129 61.08 60.7839 61.177 60.6949C61.274 60.6059 61.499 58.7379 61.677 56.5439L62 52.5539L57.24 52.2489C53.816 52.0289 52.325 52.3459 51.93 53.3769ZM137.038 56.9299C135.756 58.9229 134.998 60.8489 135.354 61.2099C135.709 61.5709 137.8 61.5649 140 61.1979C143.573 60.6019 144.032 60.1989 144.304 57.4189C144.564 54.7519 144.234 54.2359 141.989 53.8069C139.819 53.3919 138.969 53.9279 137.038 56.9299ZM38.475 55.5839C37.505 56.7529 37.471 57.6949 38.332 59.5839C39.29 61.6879 40.137 62.0539 44.043 62.0539H48.628L46.38 58.0539C43.962 53.7519 40.812 52.7679 38.475 55.5839ZM66.5 58.0539C66.5 61.3379 66.845 62.0539 68.429 62.0539C70.421 62.0539 73.5 59.5979 73.5 58.0079C73.5 57.1919 68.381 54.0539 67.05 54.0539C66.747 54.0539 66.5 55.8539 66.5 58.0539ZM111.73 55.8789C108.013 57.6489 108.023 58.9129 111.773 61.0269C115.014 62.8539 115.72 62.2089 115.316 57.7889L115 54.3229L111.73 55.8789ZM79.012 62.4039C73.507 64.7769 64.778 73.1489 63.807 76.9869C63.468 78.3259 62.588 80.5759 61.852 81.9869C61.115 83.3989 60.51 87.3109 60.506 90.6799C60.494 102.78 68.644 114.901 79.515 118.948C86.554 121.569 96.916 121.924 101.231 119.693C102.974 118.792 105.04 118.054 105.822 118.054C107.444 118.054 118.488 107.107 118.495 105.492C118.498 104.908 119.314 102.658 120.31 100.492C122.945 94.7589 122.476 85.0399 119.226 78.0239C112.297 63.0659 93.98 55.9509 79.012 62.4039ZM147.67 64.8039C146.469 67.1399 147.261 69.0539 149.428 69.0539C151.638 69.0539 154.919 65.5409 154.039 64.1169C152.99 62.4199 148.656 62.8879 147.67 64.8039ZM28.671 66.2349C28.928 68.0489 29.725 68.6239 32.329 68.8729C35.31 69.1589 35.623 68.9499 35.329 66.8729C35.072 65.0589 34.275 64.4839 31.671 64.2349C28.69 63.9489 28.377 64.1579 28.671 66.2349ZM55.962 68.8039C56.834 72.3319 57.783 73.2659 59.734 72.5179C61.385 71.8839 62.762 68.2869 61.893 66.8799C61.612 66.4259 60.01 66.0539 58.333 66.0539C55.508 66.0539 55.333 66.2569 55.962 68.8039ZM120.5 68.3539C120.5 73.0919 124.491 74.5639 126.339 70.5069C128.104 66.6349 127.798 66.0539 124 66.0539C121.014 66.0539 120.5 66.3919 120.5 68.3539ZM131.487 70.1039C130.872 72.3879 130.511 74.3779 130.684 74.5279C131.608 75.3239 137.72 78.1539 137.919 77.8779C138.048 77.6999 139.153 75.8899 140.376 73.8549L142.6 70.1569L139.8 68.7319C133.408 65.4789 132.7 65.5959 131.487 70.1039ZM43.303 68.5979C40.867 69.9209 40.706 70.3449 41.631 72.9999C43.212 77.5339 44.889 78.4919 48.47 76.9069C51.552 75.5429 52.087 73.8469 50.87 69.3039C50.164 66.6709 47.338 66.4079 43.303 68.5979ZM147.444 75.7829C144.708 77.6739 142.5 79.7009 142.5 80.3229C142.5 80.5489 144.353 81.3449 146.618 82.0929C150.395 83.3389 150.85 83.2949 152.118 81.5619C153.959 79.0439 153.86 77.6899 151.694 75.7289C150.021 74.2149 149.707 74.2189 147.444 75.7829ZM30.014 76.6829C29.118 77.5789 28.636 78.9659 28.942 79.7649C29.249 80.5639 29.5 81.6309 29.5 82.1359C29.5 83.4789 33.789 83.2559 37.434 81.7239L40.598 80.3939L36.745 77.7239C32.215 74.5839 32.126 74.5709 30.014 76.6829ZM51.546 80.6769L48.112 82.1209L50.749 84.7569C52.969 86.9769 53.632 87.1899 54.943 86.1019C56.552 84.7659 57.08 80.5299 55.74 79.7019C55.322 79.4439 53.435 79.8829 51.546 80.6769ZM126.515 82.1789C126.524 83.4849 126.96 85.2289 127.484 86.0539C128.29 87.3209 128.862 87.1309 131.166 84.8339C134.259 81.7509 134.116 81.3269 129.677 80.4389C126.819 79.8679 126.502 80.0419 126.515 82.1789ZM136.597 87.1359C134.19 90.3929 134.425 92.7709 137.421 95.4829C139.195 97.0879 139.481 97.0099 142.938 93.9739L146.584 90.7729L144.292 88.3219C140.277 84.0279 139.036 83.8369 136.597 87.1359ZM39.391 88.1659L36.217 91.4119L39.374 94.2329C41.111 95.7849 42.944 97.0539 43.448 97.0539C43.952 97.0539 45.365 95.6479 46.588 93.9299C48.677 90.9959 48.716 90.6459 47.225 88.1799C44.97 84.4509 43.025 84.4479 39.391 88.1659ZM23.88 89.5059C23.095 91.5509 24.067 92.7379 26.979 93.2949C30.196 93.9099 32.278 91.6969 30.5 89.5539C28.91 87.6379 24.609 87.6069 23.88 89.5059ZM152.056 88.9639C150.869 90.8839 152.77 93.0539 155.638 93.0539C158.88 93.0539 160.667 90.4069 158.396 88.9679C156.568 87.8109 152.77 87.8079 152.056 88.9639ZM51.492 96.5629C48.956 99.2619 48.951 99.2369 52.271 100.965C55.084 102.429 56.5 101.643 56.5 98.6169C56.5 94.6649 54.172 93.7099 51.492 96.5629ZM127.107 95.6359C126.359 97.5859 126.306 102.054 127.032 102.054C127.325 102.054 129.137 101.397 131.06 100.593L134.555 99.1329L132.347 96.5929C129.82 93.6869 127.984 93.3509 127.107 95.6359ZM30.75 99.2029C28.845 101.109 29.258 104.854 31.506 106.057C33.147 106.936 34.145 106.624 37.006 104.342C41.106 101.071 41.268 100.47 38.25 99.7509C37.013 99.4569 35.1 98.9309 34 98.5839C32.9 98.2369 31.438 98.5149 30.75 99.2029ZM145.123 99.4869L142.246 100.758L145.717 103.406C149.777 106.503 150.265 106.577 152.606 104.458C154.041 103.16 154.165 102.414 153.274 100.458C152.054 97.7799 149.639 97.4929 145.123 99.4869ZM42.596 106.867C41.526 108.964 40.954 111.104 41.325 111.622C42.28 112.955 49.309 115.29 50.379 114.629C51.465 113.958 52.369 108.41 51.573 107.304C50.904 106.375 45.811 103.054 45.056 103.054C44.772 103.054 43.665 104.77 42.596 106.867ZM133.385 105.071C130.938 106.898 130.839 107.283 131.842 111.039C133.06 115.606 132.998 115.58 137.878 113.541C141.95 111.839 142.271 110.57 139.75 106.141C137.712 102.561 136.923 102.428 133.385 105.071ZM56.598 111.203C55.994 112.935 55.5 114.51 55.5 114.703C55.5 114.896 57.075 115.054 59 115.054C61.79 115.054 62.5 114.663 62.5 113.125C62.5 111.175 60.055 108.054 58.526 108.054C58.069 108.054 57.202 109.471 56.598 111.203ZM122.25 109.446C121.288 110.177 120.5 111.737 120.5 112.914C120.5 114.693 121.09 115.054 124 115.054C125.925 115.054 127.5 114.896 127.5 114.703C127.5 113.441 125.184 108.06 124.652 108.086C124.293 108.103 123.212 108.715 122.25 109.446ZM30.492 113.859C27.637 116.171 28.595 118.054 32.625 118.054C35.297 118.054 35.598 117.756 35.316 115.381C34.913 111.972 33.408 111.498 30.492 113.859ZM147.588 113.448C146.693 114.526 146.807 115.218 148.09 116.501C150.202 118.613 153.87 118.128 154.338 115.674C154.963 112.399 149.856 110.715 147.588 113.448ZM112.471 119.701C111.631 119.929 110.391 120.999 109.716 122.08C108.624 123.829 108.846 124.194 111.745 125.419C113.535 126.175 115.383 126.447 115.851 126.023C116.796 125.166 115.732 118.986 114.671 119.17C114.302 119.234 113.312 119.473 112.471 119.701ZM134.5 119.523C134.5 120.239 138.655 128.054 139.036 128.054C139.22 128.054 140.524 127.615 141.935 127.079C143.874 126.341 144.5 125.396 144.5 123.204C144.5 120.756 144.013 120.207 141.375 119.679C137.674 118.939 134.5 118.867 134.5 119.523ZM38.5 122.054C37.043 124.776 38.873 128.054 41.85 128.054C43.475 128.054 44.614 127.039 45.815 124.52C46.742 122.576 47.5 120.776 47.5 120.52C47.5 120.264 45.716 120.054 43.535 120.054C40.594 120.054 39.294 120.57 38.5 122.054ZM52.936 122.452C52.605 123.771 52.484 125.909 52.667 127.202C52.942 129.142 53.681 129.61 56.882 129.872C61.835 130.278 62.514 129.511 61.811 124.304C61.248 120.139 61.159 120.054 57.387 120.054C54.159 120.054 53.441 120.441 52.936 122.452ZM66.893 121.636C67.227 122.506 67.5 123.905 67.5 124.744C67.5 125.91 68.15 126.108 70.248 125.581C73.743 124.704 73.813 124.617 73.024 122.129C72.548 120.629 71.524 120.054 69.326 120.054C66.965 120.054 66.422 120.407 66.893 121.636ZM121.107 121.636C120.773 122.506 120.5 124.472 120.5 126.004C120.5 128.522 120.906 128.845 124.705 129.355C127.018 129.665 129.268 129.698 129.705 129.427C130.142 129.157 130.5 126.938 130.5 124.495V120.054H126.107C123.024 120.054 121.533 120.526 121.107 121.636ZM81.75 125.716C80.084 126.388 80.166 129.214 81.919 131.613C83.31 133.515 83.3911 133.505 85.9181 131.131C88.3361 128.859 88.394 128.594 86.844 126.881C85.18 125.043 84.056 124.786 81.75 125.716ZM97.25 126.134C94.875 127.517 95.098 129.216 97.924 131.27C100.24 132.952 100.31 132.926 101.552 129.927C102.606 127.384 102.582 126.719 101.41 125.977C99.656 124.867 99.409 124.876 97.25 126.134ZM69.708 131.293C67.8 132.212 67.524 132.912 68.059 135.475C69.133 140.625 70.671 141.541 74.886 139.541C78.881 137.645 79.294 136.195 76.885 132.519C75.146 129.865 73.321 129.553 69.708 131.293ZM105.617 133.58L103.537 137.106L106.768 139.076C111.105 141.72 112.179 141.575 113.974 138.104C116.148 133.9 115.903 131.395 113.25 130.684C109.024 129.552 107.697 130.055 105.617 133.58ZM134.201 132.686C132.883 134.004 133.498 136.742 135.524 138.575C138.318 141.104 140.293 139.212 138.924 135.319C137.978 132.628 135.59 131.297 134.201 132.686ZM43.75 134.55C42.202 136.308 42.175 137.329 43.635 138.789C45.179 140.333 49.5 137.496 49.5 134.939C49.5 132.658 45.645 132.397 43.75 134.55ZM88.235 135.228C84.824 137.714 84.817 138.731 88.187 142.249C91.513 145.721 92.006 145.725 95.016 142.304C97.812 139.128 97.971 138.383 96.229 136.641C93.125 133.536 91.059 133.171 88.235 135.228ZM57.75 136.043C52.943 138.974 53.833 144.054 59.153 144.054C60.905 144.054 61.638 143.22 62.447 140.304C64.373 133.369 63.474 132.553 57.75 136.043ZM120.5 137.12C120.5 141.434 122.169 144.054 124.919 144.054C127.008 144.054 128.423 142.005 128.486 138.886C128.501 138.182 122.217 134.054 121.132 134.054C120.784 134.054 120.5 135.434 120.5 137.12ZM78.195 145.552C74.579 150.873 76.5421 154.51 81.9181 152.447C83.8911 151.69 84.033 146.165 82.146 143.584C80.875 141.846 80.63 141.968 78.195 145.552ZM99.861 145.995C98.71 150.306 99.04 151.345 101.895 152.401C103.881 153.136 107.527 150.682 107.468 148.649C107.429 147.285 102.897 142.054 101.755 142.054C101.292 142.054 100.44 143.828 99.861 145.995ZM65.107 147.636C63.305 152.331 65.981 155.39 68.986 152.07C70.314 150.602 70.429 149.791 69.545 148.137C68.223 145.669 65.96 145.413 65.107 147.636ZM113.484 147.573C112.453 148.816 112.55 149.451 114.017 151.073C117.355 154.761 120.868 152.478 118.542 148.132C117.229 145.678 115.239 145.458 113.484 147.573ZM89.75 151.705C88.117 152.379 88.14 156.51 89.784 157.874C91.647 159.421 93.546 157.827 93.789 154.51C94.001 151.625 92.488 150.575 89.75 151.705Z" fill="#c49354"/>
</svg>
