<svg width="160" height="159" viewBox="0 0 160 159" fill="none" xmlns="http://www.w3.org/2000/svg">
<path fill-rule="evenodd" clip-rule="evenodd" d="M68.0598 0.870295C51.2628 3.33729 34.7178 11.8803 22.8128 24.2323C16.2398 31.0533 14.1208 33.9803 9.36476 42.8123C2.80776 54.9893 0.745749 63.8813 0.789749 79.7983C0.844749 99.5633 4.74075 111.516 16.2948 127.367C21.3098 134.246 31.9498 144.25 35.4448 145.371C36.4068 145.68 37.1948 146.29 37.1948 146.726C37.1948 147.591 51.8528 154.529 56.6948 155.956C71.4088 160.292 93.8067 159.539 107.944 154.233C122.002 148.958 137.914 136.616 145.895 124.798C160.455 103.237 163.545 74.6483 154 49.7983C151.321 42.8213 142.657 29.6113 137.026 23.9183C118.902 5.5933 93.5608 -2.87571 68.0598 0.870295ZM62.6948 5.2113C45.4208 9.6413 29.1068 20.2783 19.6208 33.2983C18.0178 35.4983 16.4678 37.5233 16.1768 37.7983C14.7488 39.1463 9.14879 51.0003 7.38979 56.3963C6.29679 59.7503 4.83178 66.5263 4.13478 71.4533C1.84878 87.6043 6.56579 106.593 16.5978 121.628C21.2688 128.627 29.6228 137.798 31.3278 137.798C31.8778 137.798 30.2668 135.677 27.7478 133.086C11.6238 116.496 4.73676 88.3003 11.3128 65.7983C12.8188 60.6433 18.3658 47.7983 19.0858 47.7983C19.4268 47.7983 20.2668 46.5313 20.9528 44.9833C22.5248 41.4313 32.8658 30.8083 38.5768 26.8793C44.6818 22.6793 56.9618 17.0033 62.7788 15.6923C65.4828 15.0833 71.9818 14.3693 77.2208 14.1053C110.187 12.4433 139.352 33.6873 148.873 66.2983C151.381 74.8873 151.334 94.9853 148.785 103.798C146.148 112.917 140.621 123.222 134.453 130.518C128.13 137.998 127.53 139.897 133.445 133.711C144.014 122.658 150.193 112.148 153.797 99.0913C156.493 89.3263 156.714 73.8203 154.313 62.9673C150.564 46.0233 142.451 32.8463 128.658 21.2983C121.842 15.5923 120.588 14.7613 113.695 11.3883C101.95 5.6403 96.5288 4.41631 81.6948 4.16531C72.8058 4.01531 65.8698 4.3973 62.6948 5.2113ZM69.1948 17.9413C52.1888 20.7513 36.3988 30.2533 26.3828 43.7043C24.9108 45.6813 23.4158 47.5233 23.0618 47.7983C21.5128 49.0003 15.7698 62.6683 14.0798 69.1753C8.73879 89.7343 15.6588 116.287 30.0508 130.455C36.7128 137.014 38.2898 137.942 33.9348 132.74C23.2978 120.038 18.3278 107.996 17.4398 92.7753C16.8538 82.7153 19.3568 71.4033 24.5058 60.8413C28.9298 51.7643 41.2748 39.4323 50.6948 34.6783C62.3378 28.8023 69.0928 27.4503 83.8938 28.0333C95.0808 28.4743 97.5147 28.8943 103.195 31.3593C106.77 32.9103 110.967 35.2193 112.522 36.4893C114.076 37.7593 115.659 38.7983 116.038 38.7983C117.332 38.7983 126.877 48.2863 130.606 53.2773C135.255 59.5013 139.597 68.7833 141.068 75.6443C142.701 83.2573 142.465 98.9623 140.61 106.154C138.439 114.568 132.787 124.989 126.903 131.427C124.203 134.381 122.423 136.798 122.947 136.798C124.707 136.798 134.829 125.18 138.272 119.209C145.275 107.064 147.484 98.7733 147.442 84.7983C147.413 75.0593 146.999 72.0733 144.738 65.2983C140.92 53.8593 136.035 45.7113 128.376 38.0063C120.583 30.1683 119.349 29.1943 112.686 25.6253C98.4427 17.9963 84.1468 15.4703 69.1948 17.9413ZM67.0128 32.2483C53.6478 35.1763 38.3398 45.7153 30.6718 57.2673C22.9868 68.8453 19.2758 84.6343 21.2218 97.4803C23.5958 113.158 30.7478 125.943 42.6738 135.829C44.7368 137.538 44.3538 136.846 41.4298 133.577C36.0938 127.612 31.1218 119.733 28.6308 113.298C27.0558 109.229 26.6978 105.783 26.7088 94.7983L26.7228 81.2983L30.8118 72.7983C37.3158 59.2773 46.0968 50.8243 59.1948 45.4773C68.6748 41.6073 86.1558 39.3093 87.6558 41.7353C87.9748 42.2503 90.0678 42.6473 92.3078 42.6163C94.8808 42.5803 97.3748 43.2943 99.0778 44.5533C100.561 45.6503 103.136 46.8463 104.8 47.2113C107.864 47.8843 115.61 53.7133 119.959 58.6193C124.143 63.3373 129.448 72.1353 131.525 77.7983C134.376 85.5683 134.486 102.869 131.74 111.298C129.351 118.631 124.372 127.19 119.299 132.686C113.775 138.669 115.868 137.723 122.218 131.366C141.706 111.855 144.63 80.5683 129.131 57.3943C123.153 48.4563 117.628 43.4223 109.048 39.0943C98.6087 33.8293 95.5778 32.9113 85.0448 31.8313C73.4808 30.6443 74.4348 30.6223 67.0128 32.2483ZM65.6948 46.6543C62.9448 47.5623 58.4498 49.4083 55.7048 50.7573C50.3598 53.3833 37.1948 65.7753 37.1948 68.1803C37.1948 68.9783 36.8578 69.7813 36.4448 69.9653C35.1048 70.5603 32.3108 77.1543 30.7348 83.4423C26.6248 99.8393 31.2448 117.404 42.8368 129.453C45.6648 132.393 48.3408 134.798 48.7828 134.798C49.2258 134.798 48.2198 133.336 46.5498 131.548C38.2358 122.652 34.7638 113.458 34.7508 100.298C34.7368 87.0563 38.6258 77.5253 47.7738 68.3773C60.5708 55.5803 80.5958 51.1663 96.5338 57.6303C106.456 61.6533 115.636 70.2663 120.754 80.3523L124.695 88.1203V100.709C124.695 112.944 124.603 113.481 121.418 119.798C119.616 123.373 116.804 127.821 115.168 129.684C111.468 133.897 111.388 134.578 114.922 131.798C120.09 127.733 125.474 119.096 128.636 109.798C130.685 103.771 130.716 86.5623 128.688 80.6743C124.568 68.7113 118.801 60.9273 109.196 54.3663C106.171 52.3003 103.4 50.1303 103.038 49.5433C102.675 48.9573 101.55 48.3913 100.537 48.2873C95.9098 47.8073 91.1948 46.4953 91.1948 45.6873C91.1948 44.1073 71.0988 44.8703 65.6948 46.6543ZM68.6948 59.7383C63.0878 61.1133 55.3028 65.7703 50.1777 70.8143C38.6087 82.2033 34.5747 101.809 40.8288 116.256C42.7578 120.713 48.7868 129.607 51.1728 131.516C54.0168 133.792 54.5798 132.81 52.0148 130.048C50.6098 128.536 48.1628 125.048 46.5778 122.298C43.8788 117.616 43.6948 116.598 43.6948 106.298C43.6948 96.2683 43.9428 94.7943 46.5028 89.5803C50.1278 82.1963 59.5448 73.5303 66.5738 71.1103C70.0018 69.9303 74.6848 69.3493 80.7398 69.3553C88.5498 69.3613 90.5448 69.7343 95.3608 72.0913C111.73 80.0993 120.475 97.8753 116.124 114.298C114.821 119.217 111.749 126.066 109.999 127.954C103.897 134.536 103.916 136.026 110.026 130.048C118.2 122.05 122.831 109.619 121.949 98.0413C120.188 74.9363 102.383 58.5903 79.3148 58.9003C75.1238 58.9573 70.3448 59.3343 68.6948 59.7383ZM71.0728 73.3003C68.5308 74.1163 65.1768 75.4453 63.6198 76.2533C58.7658 78.7713 52.3608 85.7603 49.5088 91.6503C47.2028 96.4133 46.7678 98.6303 46.7348 105.798C46.7008 113.096 47.0838 115.091 49.4468 119.902C51.9458 124.989 57.3088 131.798 58.8188 131.798C59.1518 131.798 58.7068 130.702 57.8288 129.362C52.4497 121.152 51.8688 119.392 51.8688 111.298C51.8688 102.158 53.4048 97.7853 58.6598 91.9683C63.9758 86.0843 71.8728 82.5483 79.6978 82.5483C87.3158 82.5483 90.9078 83.7963 97.6948 88.8023C104.051 93.4903 107.461 100.007 108.018 108.527C108.578 117.085 107.687 120.866 103.727 126.75C100.194 132 101.679 132.31 106.069 127.24C110.951 121.601 113.319 114.517 113.3 105.615C113.284 98.3443 112.905 96.6383 110.071 91.0543C108.305 87.5753 105.08 83.1203 102.903 81.1533C94.4337 73.5023 80.8688 70.1563 71.0728 73.3003ZM71.9428 87.1613C60.6088 91.3983 52.8788 103.778 54.7798 114.648C56.1288 122.362 62.5468 130.691 69.6158 133.901C74.6418 136.184 84.5518 136.382 89.5358 134.3C108.307 126.457 110.425 100.224 93.1478 89.5663C87.5398 86.1063 77.7378 84.9953 71.9428 87.1613Z" fill="#c49354"/>
</svg>
