<svg width="159" height="160" viewBox="0 0 159 160" fill="none" xmlns="http://www.w3.org/2000/svg">
<path fill-rule="evenodd" clip-rule="evenodd" d="M68.6952 0.792574C56.7402 3.04957 53.0302 4.13157 46.2622 7.33957C32.2522 13.9786 21.9972 22.7866 13.5982 35.3976C10.6262 39.8596 8.19518 43.8016 8.19518 44.1586C8.19518 44.5166 7.34018 46.7156 6.29518 49.0476C2.92218 56.5726 2.02418 60.0936 0.750182 70.7866C-0.257818 79.2516 -0.251819 82.9616 0.779181 89.9276C2.27918 100.056 3.66218 105.537 5.70518 109.454C6.51818 111.012 7.18519 112.781 7.18919 113.384C7.19819 115.012 17.8952 130.783 21.5392 134.542C27.0222 140.198 38.4542 148.457 45.1952 151.633C71.2252 163.896 102.789 161.288 125.695 144.981C130.338 141.676 139.545 132.859 143.321 128.102C147.279 123.117 153.308 111.637 155.83 104.287C158.374 96.8706 158.579 95.0826 158.635 79.7866C158.694 63.6226 158.629 63.1046 155.462 54.3736C151.027 42.1456 145.252 32.8356 136.82 24.3206C128.57 15.9896 123.038 12.0356 112.939 7.24957C106.261 4.08557 102.503 3.00857 90.1952 0.736575C84.7532 -0.268425 74.1662 -0.240426 68.6952 0.792574ZM76.1892 6.58957L73.9622 8.39356L76.5952 13.5896C78.0442 16.4486 79.4512 18.7866 79.7222 18.7866C79.9932 18.7866 81.3102 16.4236 82.6492 13.5366L85.0842 8.28656L82.8902 6.55857C80.0932 4.35757 78.9402 4.36257 76.1892 6.58957ZM63.0762 7.49057C61.1152 7.79257 60.0662 8.88655 58.9062 11.8405C58.0492 14.0215 57.7932 15.7866 58.3342 15.7866C58.8712 15.7866 61.4232 13.7716 64.0032 11.3096C66.5842 8.84757 68.0202 6.88957 67.1952 6.95957C66.3702 7.02957 64.5162 7.26757 63.0762 7.49057ZM96.1652 11.9426C100.325 16.0066 101.717 16.8835 101.976 15.6035C102.483 13.0945 99.3962 7.78855 97.4192 7.77255C96.4712 7.76555 94.5702 7.49756 93.1952 7.17856C91.1272 6.69856 91.6412 7.52257 96.1652 11.9426ZM42.6952 12.8446C37.0312 16.0556 28.9162 22.7446 33.1952 20.6746C38.5182 18.0996 50.5752 9.62156 48.5222 9.89756C48.0672 9.95856 45.4452 11.2846 42.6952 12.8446ZM82.3552 21.7866H91.7752C96.9562 21.7866 101.195 21.6416 101.195 21.4646C101.195 21.2866 98.3042 18.5886 94.7722 15.4676L88.3482 9.79257L82.3552 21.7866ZM110.195 10.2516C110.195 11.2466 127.182 21.9576 128.215 21.6136C129.569 21.1616 124.84 17.6076 116.959 13.1536C110.903 9.73057 110.195 9.42656 110.195 10.2516ZM63.6952 16.2715L57.6952 21.7236L66.9452 21.7556C72.0332 21.7726 76.1952 21.5466 76.1952 21.2536C76.1952 20.0216 71.1002 10.7876 70.4282 10.8036C70.0252 10.8126 66.9952 13.2735 63.6952 16.2715ZM47.8442 15.8136C44.6262 17.9986 41.6152 19.7866 41.1532 19.7866C40.6912 19.7866 40.0352 20.2366 39.6952 20.7866C39.3092 21.4116 41.3632 21.7866 45.1722 21.7866H51.2662L53.2312 17.2036C54.3112 14.6826 55.1952 12.4326 55.1952 12.2036C55.1952 11.1796 53.2932 12.1146 47.8442 15.8136ZM106.85 17.2866L108.383 21.7866H120.601L113.75 17.2866C109.982 14.8116 106.542 12.7866 106.107 12.7866C105.672 12.7866 106.006 14.8116 106.85 17.2866ZM32.7442 27.0366C32.5312 27.7246 32.0702 30.7616 31.7202 33.7866C31.3702 36.8116 30.8202 40.3576 30.4982 41.6666C29.6462 45.1316 30.8332 44.2506 40.1132 34.5366L48.4712 25.7866H40.8012C35.5402 25.7866 33.0102 26.1786 32.7442 27.0366ZM55.1822 26.5366C55.1482 28.5696 60.6202 44.7866 61.3402 44.7866C62.1272 44.7866 74.3242 28.6876 75.0282 26.7176C75.2202 26.1826 71.0772 25.7866 65.2782 25.7866C59.7322 25.7866 55.1892 26.1236 55.1822 26.5366ZM84.3622 26.5576C85.5492 29.3026 96.8912 44.7136 97.7482 44.7466C98.6312 44.7806 101.249 38.1406 104.335 28.0366C105.017 25.8026 104.948 25.7866 94.5252 25.7866C88.7522 25.7866 84.1782 26.1336 84.3622 26.5576ZM115.39 30.4946C117.758 33.0846 121.647 37.2476 124.033 39.7446L128.37 44.2866L127.744 40.2866C127.4 38.0866 126.848 33.9236 126.517 31.0366L125.915 25.7866H111.085L115.39 30.4946ZM133.083 27.5366C133.61 28.4986 136.182 31.3116 138.8 33.7866C142.664 37.4416 143.215 37.7346 141.732 35.3506C137.958 29.2836 130.203 22.2776 133.083 27.5366ZM72.0692 37.0836C67.8782 42.6956 64.6432 47.6236 64.8812 48.0366C65.4952 49.1016 92.9632 48.9716 93.6252 47.9006C94.0542 47.2056 83.3312 30.8056 80.3412 27.5836C79.9822 27.1966 76.2602 31.4716 72.0692 37.0836ZM41.8512 37.8506C37.0902 42.8356 33.1952 47.3356 33.1952 47.8506C33.1952 48.3796 38.4062 48.7866 45.1952 48.7866C55.8042 48.7866 57.1952 48.5906 57.1952 47.0936C57.1952 44.4716 52.1122 28.7866 51.2632 28.7866C50.8472 28.7866 46.6122 32.8656 41.8512 37.8506ZM106.292 33.1196C105.139 35.7776 104.195 38.5356 104.195 39.2476C104.195 39.9596 103.532 42.1286 102.722 44.0676C101.407 47.2146 101.416 47.6576 102.804 48.1896C105.057 49.0546 123.478 48.8936 124.889 47.9966C125.691 47.4866 123.18 44.1286 117.236 37.7626L108.39 28.2866L106.292 33.1196ZM130.785 37.5136C131.749 48.5806 132.032 48.9406 139.505 48.5826C143.297 48.4016 145.695 47.8456 145.695 47.1476C145.695 46.5206 142.188 42.3476 137.901 37.8736L130.107 29.7406L130.785 37.5136ZM20.0042 39.0366C15.0432 44.4116 12.7912 47.5425 13.5422 48.0215C14.1762 48.4255 17.0422 48.7625 19.9102 48.7715C23.8982 48.7825 25.3492 48.3676 26.0782 47.0056C27.0532 45.1846 28.7912 30.7866 28.0362 30.7866C27.8062 30.7866 24.1922 34.4986 20.0042 39.0366ZM10.1952 53.4686C10.1952 54.3946 10.7052 59.1246 11.3272 63.9816C12.1652 70.5096 12.7642 72.5596 13.6272 71.8426C14.7982 70.8716 24.1952 53.5966 24.1952 52.4156C24.1952 52.0696 21.0452 51.7866 17.1952 51.7866C11.3022 51.7866 10.1952 52.0526 10.1952 53.4686ZM35.2442 62.8976C37.9672 69.0086 40.1952 74.1836 40.1952 74.3976C40.1952 76.9346 53.8032 58.5776 55.8212 53.3186C56.3312 51.9906 54.6672 51.7866 43.3512 51.7866H30.2942L35.2442 62.8976ZM64.1952 52.3256C64.1952 52.6216 67.6092 58.0795 71.7822 64.4525C78.1042 74.1065 79.5862 75.8106 80.6642 74.6636C82.6162 72.5876 94.1952 53.8216 94.1952 52.7346C94.1952 52.1796 87.9772 51.7866 79.1952 51.7866C70.9452 51.7866 64.1952 52.0296 64.1952 52.3256ZM105.868 57.5366C110.103 64.2116 118.228 75.7866 118.679 75.7866C118.849 75.7866 120.636 71.3996 122.649 66.0366C124.662 60.6736 126.734 55.5056 127.252 54.5506C127.771 53.5956 128.195 52.5826 128.195 52.3006C128.195 52.0176 122.351 51.7866 115.207 51.7866H102.22L105.868 57.5366ZM134.195 52.1786C134.195 52.3946 136.247 56.3316 138.756 60.9286C141.264 65.5256 143.676 69.9616 144.115 70.7866C146.202 74.7096 147.508 71.4186 148.58 59.5366L149.278 51.7866H141.737C137.589 51.7866 134.195 51.9626 134.195 52.1786ZM58.3602 56.4386C53.5282 63.1856 45.1952 76.1626 45.1952 76.9396C45.1952 77.4056 51.9932 77.7866 60.3022 77.7866C73.6412 77.7866 75.3382 77.6026 74.8042 76.2106C74.2142 74.6736 62.5562 56.1226 61.1222 54.4386C60.7242 53.9726 59.4822 54.8726 58.3602 56.4386ZM95.0032 58.9486C87.6542 70.1456 84.1952 75.8596 84.1952 76.8056C84.1952 77.4036 90.0602 77.7866 99.1952 77.7866C107.597 77.7866 114.195 77.3846 114.195 76.8716C114.195 75.9146 104.799 61.6506 100.815 56.5606L98.5062 53.6106L95.0032 58.9486ZM26.8952 55.4696C24.3352 59.6506 16.1952 75.7616 16.1952 76.6476C16.1952 77.4276 19.5072 77.7866 26.6952 77.7866C32.4702 77.7866 37.1952 77.5326 37.1952 77.2226C37.1952 76.5476 28.2442 55.5026 27.7442 55.0026C27.5522 54.8106 27.1702 55.0206 26.8952 55.4696ZM126.748 65.1056C124.625 70.7046 122.683 75.8496 122.434 76.5366C122.09 77.4866 124.527 77.7866 132.588 77.7866C139.637 77.7866 143.195 77.4176 143.195 76.6866C143.195 75.3846 132.468 56.0736 131.366 55.3926C130.95 55.1346 128.871 59.5056 126.748 65.1056ZM5.48718 62.3256C4.85418 64.5036 4.02718 68.8736 3.65018 72.0366L2.96518 77.7866H5.91318C7.53518 77.7866 9.08518 77.5626 9.35918 77.2896C9.82618 76.8216 8.87419 69.5686 7.32919 61.8256L6.63818 58.3636L5.48718 62.3256ZM152.129 58.8366C150.302 71.3176 149.671 76.9295 150.052 77.3105C150.886 78.1445 155.055 77.8216 155.639 76.8776C156.421 75.6116 154.251 60.4986 153.12 59.3366C152.611 58.8146 152.165 58.5896 152.129 58.8366ZM3.82518 82.5766C3.23718 83.5276 4.72518 95.0846 5.97618 99.2866C6.75518 101.902 6.94818 102.031 7.47918 100.287C7.81518 99.1866 8.39618 94.5746 8.77118 90.0366L9.45319 81.7866H6.88319C5.47019 81.7866 4.09318 82.1416 3.82518 82.5766ZM16.1952 83.1906C16.1952 83.9626 17.6582 87.2496 19.4452 90.4946C21.2322 93.7396 23.8082 98.5036 25.1692 101.081C28.2142 106.849 28.6912 106.446 33.2072 94.2866C35.0452 89.3366 36.9162 84.7955 37.3632 84.1945C38.8472 82.2055 36.9622 81.7866 26.5282 81.7866C18.3242 81.7866 16.1952 82.0756 16.1952 83.1906ZM45.1952 82.8495C45.1952 84.1445 60.2492 106.794 61.0942 106.77C61.7612 106.751 74.5062 85.0336 75.0182 83.0426C75.2672 82.0756 71.8692 81.7866 60.2682 81.7866C50.2912 81.7866 45.1952 82.1455 45.1952 82.8495ZM84.1952 82.6815C84.1952 83.8275 97.0422 105.575 98.1092 106.234C98.9952 106.781 114.195 84.7586 114.195 82.9286C114.195 82.1236 109.773 81.7866 99.1952 81.7866C90.9452 81.7866 84.1952 82.1895 84.1952 82.6815ZM122.195 82.4956C122.195 84.4516 130.668 105.613 131.296 105.225C132.305 104.601 143.195 84.0986 143.195 82.8216C143.195 82.1736 139.265 81.7866 132.695 81.7866C126.92 81.7866 122.195 82.1056 122.195 82.4956ZM150.595 90.8826C151.492 102.774 152.609 104.959 154.087 97.7186C154.697 94.7306 155.308 90.0366 155.445 87.2866C155.687 82.4446 155.603 82.2766 152.795 81.9556L149.896 81.6246L150.595 90.8826ZM77.9022 85.9696C77.1172 87.2436 74.3882 91.7886 71.8372 96.0686C69.2872 100.348 66.4722 104.961 65.5822 106.319L63.9652 108.787H79.0802C87.8432 108.787 94.1952 108.392 94.1952 107.847C94.1952 107.331 91.4952 102.578 88.1952 97.2866C84.8952 91.9956 82.1952 87.2986 82.1952 86.8486C82.1952 86.3996 81.5502 85.4966 80.7622 84.8426C79.6102 83.8866 79.0482 84.1076 77.9022 85.9696ZM37.6922 92.5026C36.1542 96.7836 34.5652 100.737 34.1612 101.287C33.7572 101.837 33.1132 103.749 32.7312 105.537L32.0362 108.787H44.6512C56.4942 108.787 57.2062 108.677 56.3012 106.985C54.2782 103.205 42.0182 85.2736 41.2712 85.0026C40.8412 84.8456 39.2302 88.2206 37.6922 92.5026ZM117.274 85.9706C115.53 88.0166 104.664 104.043 103.323 106.548L102.125 108.787H127.957L123.634 97.1776C121.256 90.7926 119.105 85.3626 118.854 85.1116C118.602 84.8606 117.892 85.2476 117.274 85.9706ZM141.64 94.0496C139.556 98.0296 137.029 102.763 136.023 104.567C135.018 106.372 134.195 108.059 134.195 108.317C134.195 108.576 137.61 108.787 141.783 108.787H149.371L148.832 105.037C148.536 102.975 148.012 98.2535 147.666 94.5475C147.321 90.8405 146.676 87.5835 146.233 87.3105C145.791 87.0365 143.724 90.0696 141.64 94.0496ZM11.7842 94.9976C11.4122 99.0066 10.8522 103.749 10.5402 105.537L9.97218 108.787H25.3472L19.9242 98.5876C16.9422 92.9786 14.0422 88.2356 13.4812 88.0486C12.8882 87.8506 12.1782 90.7596 11.7842 94.9976ZM13.1952 113.421C13.1952 114.223 27.2742 129.159 28.4982 129.655C28.9972 129.858 29.1622 128.733 28.8632 127.155C28.5642 125.578 28.0342 121.7 27.6852 118.537L27.0512 112.787H20.1232C16.3132 112.787 13.1952 113.072 13.1952 113.421ZM38.2292 118.43C50.0902 130.675 51.2132 131.787 51.7202 131.787C52.4002 131.787 54.1022 127.466 55.6582 121.787C56.3372 119.312 57.2152 116.275 57.6112 115.037L58.3302 112.787H32.7632L38.2292 118.43ZM65.1972 113.537C65.1992 113.95 66.5602 115.862 68.2222 117.787C69.8842 119.712 72.8822 123.65 74.8852 126.537C76.8892 129.424 79.0432 131.787 79.6732 131.787C80.3032 131.787 81.8962 130.325 83.2122 128.537C84.5292 126.749 85.9692 124.837 86.4142 124.287C90.5552 119.161 94.1772 114.15 94.1852 113.537C94.1912 113.124 87.6702 112.787 79.6952 112.787C71.7202 112.787 65.1962 113.124 65.1972 113.537ZM101.195 113.633C101.195 114.811 107.085 131.011 107.758 131.683C108.06 131.985 110.597 129.769 113.395 126.76C116.194 123.75 120.313 119.374 122.548 117.037L126.611 112.787H113.903C106.914 112.787 101.195 113.168 101.195 113.633ZM131.876 113.537C131.635 113.95 131.125 117.887 130.743 122.287L130.047 130.287L138.121 122.04C142.562 117.504 146.195 113.567 146.195 113.29C146.195 112.476 132.355 112.715 131.876 113.537ZM58.8372 123.361C54.8602 135.302 54.5512 134.787 65.6952 134.787C71.7582 134.787 75.1952 134.401 75.1952 133.72C75.1952 133.134 73.9572 130.996 72.4452 128.971C70.9332 126.946 69.3842 124.838 69.0042 124.288C68.6242 123.737 66.7752 121.519 64.8962 119.358L61.4792 115.429L58.8372 123.361ZM90.3752 124.713C86.9762 129.098 84.1952 133.158 84.1952 133.736C84.1952 134.401 87.8732 134.787 94.1952 134.787C103.225 134.787 104.195 134.609 104.195 132.954C104.195 131.945 103.891 130.816 103.519 130.444C103.146 130.072 101.879 126.987 100.701 123.588C99.5232 120.189 98.1092 117.258 97.5572 117.074C97.0062 116.891 93.7742 120.328 90.3752 124.713ZM31.8472 123.537C33.1182 134.465 32.9482 134.248 40.5132 134.583C45.1022 134.786 47.1952 134.513 47.1952 133.713C47.1952 132.387 33.2692 117.787 32.0042 117.787C31.5502 117.787 31.4792 120.374 31.8472 123.537ZM119.387 125.496C115.431 129.735 112.195 133.56 112.195 133.996C112.195 135.326 123.856 134.906 124.935 133.537C125.477 132.85 126.195 130.037 126.532 127.287C126.868 124.537 127.433 121.275 127.786 120.037C128.887 116.18 126.832 117.516 119.387 125.496ZM38.1952 138.267C38.1952 138.53 39.8832 139.66 41.9452 140.777C46.8132 143.414 49.2912 144.994 50.9742 146.537C51.7242 147.225 53.0182 147.787 53.8502 147.787C54.6812 147.787 55.1282 147.225 54.8432 146.537C54.5582 145.85 53.7742 143.6 53.1022 141.537L51.8782 137.787H45.0372C41.2742 137.787 38.1952 138.003 38.1952 138.267ZM64.1952 143.76C67.7702 147.027 70.9262 149.72 71.2092 149.743C71.4912 149.767 72.9162 147.087 74.3752 143.787L77.0262 137.787L57.6952 137.82L64.1952 143.76ZM83.1382 139.537C83.6662 140.499 84.8742 143.087 85.8222 145.287C86.7712 147.487 87.6662 149.448 87.8122 149.645C88.1932 150.159 101.047 139.436 101.128 138.537C101.165 138.124 96.9162 137.787 91.6872 137.787C82.9322 137.787 82.2542 137.926 83.1382 139.537ZM106.384 142.787C105.241 145.537 104.557 147.787 104.864 147.787C105.642 147.787 120.195 138.671 120.195 138.183C120.195 137.965 117.555 137.787 114.328 137.787H108.462L106.384 142.787ZM124.016 140.071C123.29 140.777 120.522 142.617 117.866 144.159C112.204 147.448 112.17 148.819 117.825 145.844C122.59 143.338 128.118 138.872 126.516 138.823C125.868 138.803 124.743 139.365 124.016 140.071ZM77.1682 146.037C74.6812 151.517 74.7162 152.193 77.5702 153.72C79.3782 154.688 80.4522 154.72 82.0702 153.854C83.2392 153.228 84.1952 152.32 84.1952 151.835C84.1952 150.411 80.3212 141.787 79.6822 141.787C79.3602 141.787 78.2292 143.7 77.1682 146.037ZM58.8922 147.698C60.1632 150.932 61.0312 151.721 63.9142 152.262C65.8312 152.622 67.5882 152.728 67.8182 152.498C68.3842 151.931 59.4842 143.787 58.2982 143.787C57.7802 143.787 58.0472 145.547 58.8922 147.698ZM96.4452 147.39C94.1072 149.349 92.1952 151.354 92.1952 151.845C92.1952 152.534 97.8502 152.111 98.9132 151.342C99.7162 150.761 102.07 143.791 101.458 143.807C101.039 143.817 98.7832 145.43 96.4452 147.39Z" fill="#c49354"/>
</svg>
