<svg width="160" height="159" viewBox="0 0 160 159" fill="none" xmlns="http://www.w3.org/2000/svg">
<path fill-rule="evenodd" clip-rule="evenodd" d="M64.7391 1.10834C53.6351 3.60234 37.0731 10.6493 36.0301 13.3233C35.7721 13.9853 33.9521 15.4763 31.9861 16.6363C28.6771 18.5883 21.4881 25.7613 15.3341 33.2513C10.6391 38.9643 4.74313 52.8233 2.59113 63.2063C0.988127 70.9363 0.652133 75.3213 1.06613 83.1193C2.21413 104.737 9.57613 120.936 25.2161 136.26C34.5281 145.384 42.8351 150.497 55.6751 155.007C63.7411 157.841 65.1401 158.019 79.7391 158.067C95.9411 158.121 98.4451 157.699 110.739 152.844C129.155 145.571 145.635 129.582 153.287 111.562C158.095 100.24 159.703 92.1833 159.722 79.3253C159.743 64.5273 158.056 57.2183 151.522 43.7973C141.648 23.5183 122.568 7.87634 100.739 2.16534C91.7171 -0.194664 72.9921 -0.744663 64.7391 1.10834ZM74.3922 3.34534C72.0072 3.70134 71.6501 4.12334 72.1881 5.94534C75.5631 17.3633 75.8771 19.5223 75.3391 27.6193C75.0281 32.2943 74.4871 37.8483 74.1361 39.9603C73.7771 42.1273 73.9781 44.7433 74.5981 45.9603C75.2031 47.1483 76.1461 49.3573 76.6941 50.8693C77.2411 52.3813 78.0951 53.6193 78.5911 53.6193C79.7281 53.6193 83.2151 45.5863 84.7861 39.3493C86.4521 32.7293 85.5911 11.3093 83.4591 6.36934C81.7771 2.47034 81.2992 2.31134 74.3922 3.34534ZM87.5701 7.86934C88.7321 10.9603 89.1771 15.7513 89.2031 25.4353C89.2361 37.6353 89.3651 38.5593 90.7391 36.4503C91.5641 35.1843 94.1691 31.7643 96.5281 28.8503C101.208 23.0683 101.127 23.7933 98.5861 10.4713C97.6041 5.32134 97.2441 4.77034 94.4991 4.22134C92.8441 3.89034 90.2481 3.61934 88.7311 3.61934H85.9731L87.5701 7.86934ZM61.2391 5.33234C57.7711 6.16634 57.5691 7.18534 59.6801 13.1933C60.8131 16.4143 61.7391 20.5993 61.7391 22.4923C61.7391 24.9933 62.8641 27.3923 65.8521 31.2663C68.1141 34.1983 70.3011 36.3903 70.7111 36.1363C73.4151 34.4653 72.3331 15.6783 69.0861 7.90734C67.6981 4.58534 66.2801 4.12034 61.2391 5.33234ZM102.132 8.20134C102.466 9.07134 102.746 11.4333 102.754 13.4513C102.781 19.8363 103.851 20.2533 109.606 16.1193C112.429 14.0913 114.739 12.0563 114.739 11.5973C114.739 10.7653 104.624 6.61934 102.594 6.61934C102.006 6.61934 101.798 7.33134 102.132 8.20134ZM48.4891 10.0113C46.6631 11.3973 46.1141 13.6193 47.5981 13.6193C48.0711 13.6193 50.5021 15.4193 53.0021 17.6193C55.5011 19.8193 57.7901 21.6193 58.0891 21.6193C58.8591 21.6193 55.7431 11.3743 54.5151 9.86934C53.2051 8.26434 50.7131 8.32334 48.4891 10.0113ZM114.01 17.1193C111.761 19.0443 109.634 20.6193 109.282 20.6193C108.931 20.6193 107.566 21.8573 106.249 23.3693C104.619 25.2413 103.66 27.8753 103.246 31.6193C102.911 34.6443 102.383 38.9193 102.073 41.1193L101.509 45.1193L103.786 42.1193C108.331 36.1303 116.365 28.3493 121.989 24.4903C125.152 22.3203 127.729 20.2243 127.718 19.8323C127.691 18.9363 120.238 13.6193 119.009 13.6193C118.509 13.6193 116.259 15.1943 114.01 17.1193ZM36.4711 17.1553C34.4181 18.5503 32.7391 19.8943 32.7391 20.1433C32.7391 20.3913 34.6521 21.7923 36.9891 23.2563C39.3261 24.7203 41.5261 26.3583 41.8771 26.8973C43.2071 28.9353 44.8521 26.4073 44.2351 23.2743C43.4151 19.1103 41.6591 14.6193 40.8501 14.6193C40.4941 14.6193 38.5241 15.7603 36.4711 17.1553ZM47.5081 24.3843C47.9521 29.9683 48.5962 31.8443 51.2752 35.3613C54.9152 40.1383 55.6061 39.8553 57.6411 32.7463C58.8721 28.4453 58.8381 28.3163 55.5661 24.9093C53.7361 23.0043 51.0541 20.5913 49.6051 19.5473L46.9721 17.6483L47.5081 24.3843ZM24.7542 27.1043C22.8962 29.0213 21.5701 30.7643 21.8071 30.9773C22.0451 31.1903 23.8141 32.1593 25.7391 33.1293C27.6641 34.0993 30.9501 36.2383 33.0411 37.8813L36.8431 40.8703L39.2741 38.5863C42.7451 35.3253 43.2991 32.7893 41.0051 30.6533C38.1461 27.9883 30.9711 23.6193 29.4551 23.6193C28.7271 23.6193 26.6112 25.1873 24.7542 27.1043ZM125.239 26.5933C118.895 30.3233 110.346 38.6633 106.248 45.1193C102.666 50.7613 98.1081 61.3213 98.9091 62.1223C99.1991 62.4123 102.143 61.4053 105.453 59.8843C110.386 57.6173 111.899 56.3143 113.854 52.6493C117.018 46.7193 125.561 38.4273 132.574 34.4813C135.69 32.7273 138.433 31.1343 138.671 30.9413C139.336 30.3993 132.486 23.6173 131.293 23.6363C130.713 23.6453 127.989 24.9763 125.239 26.5933ZM93.5321 39.3693C90.9991 43.6313 88.2441 48.6943 87.4091 50.6193C85.6611 54.6493 82.7261 67.4163 82.7661 70.8163C82.7911 72.9553 83.0021 72.8703 85.7291 69.6193C91.9591 62.1933 99.6651 42.5093 99.7241 33.8693C99.7501 30.0463 98.3141 31.3213 93.5321 39.3693ZM59.4711 38.0173C57.7211 43.3453 57.7261 43.4463 59.9711 47.9603C61.2181 50.4683 62.5832 52.5433 63.0042 52.5703C63.9882 52.6333 67.6071 46.7813 68.3571 43.9153C68.9301 41.7203 64.4271 33.6513 62.2391 32.9543C61.6891 32.7783 60.4431 35.0573 59.4711 38.0173ZM16.8121 37.2543C14.0481 40.7673 14.1981 43.0523 17.2861 44.4583C20.6271 45.9813 28.6371 45.8823 31.5161 44.2843L33.7941 43.0193L31.5161 40.9323C29.1271 38.7423 21.5091 34.6193 19.8511 34.6193C19.3191 34.6193 17.9511 35.8053 16.8121 37.2543ZM134.239 37.4873C131.489 39.0763 127.418 42.1193 125.192 44.2483C121.036 48.2233 116.241 54.4693 116.88 55.0743C117.78 55.9263 129.489 53.3373 131.605 51.8183C136.968 47.9663 144.32 43.6273 145.489 43.6233C148.416 43.6133 144.306 35.2843 141.163 34.8583C140.105 34.7143 136.989 35.8973 134.239 37.4873ZM43.7091 38.7233C42.4041 40.5913 40.9701 42.3743 40.5231 42.6873C40.0771 42.9993 41.2851 45.0243 43.2081 47.1873L46.7041 51.1193L49.7211 47.8533C51.3811 46.0573 52.7391 44.1383 52.7391 43.5893C52.7391 43.0393 51.2411 40.9563 49.4111 38.9583L46.0831 35.3273L43.7091 38.7233ZM31.7391 47.4653C29.2641 48.3483 27.0781 49.1673 26.8821 49.2853C25.9911 49.8203 33.4171 57.5853 34.8351 57.6013C36.7821 57.6233 42.7391 54.7423 42.7391 53.7783C42.7391 52.5993 37.7101 45.6123 36.9531 45.7393C36.5601 45.8053 34.2141 46.5823 31.7391 47.4653ZM11.0811 47.8283C9.55815 50.2083 7.95912 55.6373 8.65512 56.0673C13.3101 58.9443 27.8712 60.8333 29.1722 58.7283C29.8292 57.6643 23.0201 51.3233 19.0491 49.3023C14.2761 46.8733 11.9661 46.4463 11.0811 47.8283ZM141.862 49.2453C138.963 50.6903 136.962 52.2073 137.415 52.6173C137.868 53.0273 141.277 53.6283 144.989 53.9533C152.35 54.5973 152.856 54.1643 150.578 49.1663C149.13 45.9883 148.385 45.9953 141.862 49.2453ZM51.4892 50.8013C48.3022 54.2123 48.1391 55.5383 50.3661 59.9193C52.5462 64.2063 52.3441 64.1083 55.1731 62.2543C59.4181 59.4733 60.1591 57.0073 58.2501 52.0093C57.3281 49.5953 56.0481 47.6723 55.4061 47.7383C54.7641 47.8033 53.0012 49.1813 51.4892 50.8013ZM67.9411 52.6003C64.9301 57.4443 64.8731 57.7543 65.9951 63.1053C66.6311 66.1383 67.3961 68.6123 67.6951 68.6043C68.8021 68.5733 70.4181 67.0213 73.1891 63.3313C75.9251 59.6893 75.9831 59.3813 74.6971 55.3313C72.1351 47.2623 71.4361 46.9793 67.9411 52.6003ZM132.115 57.3843C130.571 58.3933 126.747 64.8243 126.743 66.4183C126.74 67.3353 128.157 67.6533 131.556 67.4983C135.769 67.3063 137.02 66.6843 141.523 62.5433C145.44 58.9413 146.302 57.6653 145.124 57.2133C142.943 56.3763 133.466 56.5013 132.115 57.3843ZM39.4811 59.7283L35.7221 61.6433L37.2831 65.3813C39.4711 70.6223 40.0241 70.9453 43.9851 69.2893C48.5991 67.3623 48.9651 66.5743 47.3771 61.9843C45.8181 57.4763 44.5911 57.1263 39.4811 59.7283ZM117.739 59.0243C114.123 60.3183 112.198 63.0733 111.11 68.5133C110.576 71.1863 110.777 71.6193 112.555 71.6193C113.691 71.6193 114.899 71.1693 115.239 70.6193C115.579 70.0693 116.929 69.6193 118.239 69.6193C120.877 69.6193 121.237 69.1983 124.428 62.3693L126.647 57.6193L123.943 57.6953C122.456 57.7373 119.664 58.3353 117.739 59.0243ZM5.94013 62.9403C4.00313 68.2973 4.39514 69.3313 8.98914 70.9723C14.6401 72.9923 20.4581 73.8833 21.1091 72.8293C22.5321 70.5263 11.9471 59.6193 8.29013 59.6193C7.65813 59.6193 6.60013 61.1133 5.94013 62.9403ZM149.239 61.2843C145.742 63.1323 142.739 65.6163 142.739 66.6613C142.739 67.4293 155.578 70.1343 156.173 69.4913C156.912 68.6933 154.225 59.6213 153.262 59.6593C152.699 59.6813 150.889 60.4123 149.239 61.2843ZM57.2001 64.9653C53.5281 68.2323 53.3581 68.6503 53.6281 73.7573C53.7841 76.7063 54.0701 79.2793 54.2641 79.4753C54.4581 79.6713 56.7161 78.3233 59.2821 76.4813C63.9001 73.1653 63.9421 73.0823 63.4841 68.3163C62.8281 61.4863 61.7531 60.9133 57.2001 64.9653ZM20.7391 63.0273C20.7391 63.2513 21.9511 65.7703 23.4311 68.6243L26.1241 73.8133L30.1811 73.1653C32.4131 72.8083 34.6001 72.1573 35.0401 71.7163C35.4811 71.2763 35.0951 69.0493 34.1821 66.7683L32.5221 62.6193H26.6301C23.3901 62.6193 20.7391 62.8023 20.7391 63.0273ZM101.571 65.3633C96.6961 68.1693 95.7391 70.1133 95.7391 77.2123C95.7391 80.0023 96.0281 80.4363 97.4891 79.8373C102.117 77.9383 106.711 73.9353 107.208 71.3693C107.5 69.8573 108 67.2693 108.318 65.6193C109.049 61.8353 107.784 61.7873 101.571 65.3633ZM71.8661 70.0973C67.9821 74.3103 67.7391 74.9303 67.7391 80.5973C67.7391 83.9093 68.1261 86.6193 68.5981 86.6193C69.0711 86.6193 71.5461 84.7813 74.0981 82.5343C77.8511 79.2313 78.7391 77.8203 78.7391 75.1593C78.7391 70.7473 77.6652 65.6193 76.7411 65.6193C76.3301 65.6193 74.1362 67.6343 71.8661 70.0973ZM44.4771 72.8233C39.7671 74.8623 39.7391 74.9023 39.7391 79.6873C39.7391 82.3353 40.0871 84.7163 40.5121 84.9793C40.9371 85.2413 43.4121 84.5363 46.0121 83.4103C50.5581 81.4423 50.7381 81.2063 50.7241 77.2423C50.7001 70.9663 49.9661 70.4473 44.4771 72.8233ZM128.091 71.3353C124.775 71.7523 123.779 73.4813 123.753 78.8693C123.74 81.4033 124.046 81.6193 127.657 81.6193C134.018 81.6193 134.739 80.9973 134.739 75.5123C134.739 70.2373 135.087 70.4553 128.091 71.3353ZM138.643 74.5443C136.993 80.0513 137.866 81.6193 142.582 81.6193C144.73 81.6193 148.401 82.2943 150.739 83.1193C153.077 83.9443 155.384 84.6193 155.865 84.6193C156.346 84.6193 156.739 82.1743 156.739 79.1863C156.739 74.8743 156.378 73.6483 154.989 73.2423C153.015 72.6653 141.788 70.6193 140.595 70.6193C140.169 70.6193 139.29 72.3853 138.643 74.5443ZM86.2241 76.1863L81.5251 80.7523L82.2321 86.4363C82.6211 89.5613 83.1281 92.4283 83.3591 92.8053C83.5891 93.1833 85.7941 91.3363 88.2591 88.7023C92.5601 84.1033 92.7391 83.6663 92.7391 77.7653C92.7391 74.3853 92.3301 71.6193 91.8311 71.6193C91.3311 71.6193 88.8081 73.6743 86.2241 76.1863ZM4.28912 74.4023C3.10812 75.5833 3.82115 82.5583 5.27115 84.0083C6.11415 84.8513 8.47615 85.8023 10.5211 86.1223C12.5661 86.4413 15.3851 86.8793 16.7861 87.0953C20.6791 87.6953 22.0432 86.2663 22.1462 81.4793L22.2391 77.1503L17.2391 76.4323C14.4891 76.0363 10.5741 75.2943 8.53912 74.7833C6.50412 74.2713 4.59212 74.1003 4.28912 74.4023ZM115.739 74.2713C110.008 76.1593 109.49 76.8673 110.096 81.9843C110.415 84.6823 110.86 87.0733 111.084 87.2973C111.639 87.8523 119.058 84.3653 119.974 83.1193C120.378 82.5693 120.715 80.2073 120.724 77.8693C120.739 73.5113 119.895 72.9023 115.739 74.2713ZM27.2961 77.8693C27.0861 78.5573 26.4201 80.6663 25.8141 82.5563C25.1981 84.4793 25.0921 86.3723 25.5741 86.8543C26.0481 87.3283 28.6421 87.3483 31.3381 86.8993L36.2391 86.0823L36.8491 76.6193H32.2621C29.4631 76.6193 27.5281 77.1063 27.2961 77.8693ZM58.6171 80.9613C54.4141 83.7733 53.9021 84.5553 52.9781 89.5863C52.4181 92.6293 52.1481 95.3193 52.3781 95.5643C52.6071 95.8083 55.1941 94.8323 58.1261 93.3943C62.5151 91.2413 63.5701 90.2123 64.0981 87.5743C64.9601 83.2643 64.9081 78.8353 63.9891 78.3033C63.5761 78.0643 61.1591 79.2613 58.6171 80.9613ZM100.375 82.3903C96.5751 84.9973 96.5201 85.1253 97.0981 90.0043C97.9361 97.0813 98.9391 97.5433 103.618 93.0053C107.443 89.2953 107.598 88.9043 107.052 84.3693C106.737 81.7563 105.975 79.6463 105.359 79.6793C104.743 79.7123 102.5 80.9323 100.375 82.3903ZM74.8641 88.4613C71.3761 92.8653 66.6391 102.062 64.7381 108.119C64.0481 110.319 63.1321 113.063 62.7021 114.216C62.2731 115.37 61.6291 118.97 61.2731 122.216L60.6251 128.119L62.7241 125.706C65.6461 122.347 71.5601 111.582 73.7031 105.717C75.8531 99.8343 79.1001 85.6473 78.4461 84.9923C78.1901 84.7363 76.5781 86.2973 74.8641 88.4613ZM128.239 85.3323C124.695 86.1853 124.326 87.3773 126.273 91.6943C128.135 95.8253 128.153 95.8343 132.579 95.2273C135.021 94.8933 137.581 94.6193 138.27 94.6193C139.087 94.6193 138.604 92.8853 136.88 89.6273C134.214 84.5893 133.273 84.1213 128.239 85.3323ZM139.475 85.2173C137.556 87.1353 145.398 96.0213 150.494 97.7033C152.352 98.3163 153.975 98.6613 154.099 98.4693C154.223 98.2763 154.812 96.1803 155.408 93.8113C156.398 89.8783 156.307 89.3863 154.366 88.1613C153.196 87.4223 149.854 86.3233 146.94 85.7183C140.81 84.4473 140.28 84.4113 139.475 85.2173ZM42.8611 88.0023C40.1871 88.8753 38.9611 90.2063 36.9781 94.3953C35.6001 97.3053 34.7231 99.9363 35.0281 100.242C35.3341 100.547 38.0661 100.242 41.1001 99.5633C46.9571 98.2523 47.7971 97.2543 49.2561 89.8693C49.9771 86.2203 49.1051 85.9653 42.8611 88.0023ZM115.477 89.6933C112.163 91.4423 111.793 92.0023 112.366 94.3993C113.249 98.0953 114.618 100.619 115.74 100.619C116.252 100.619 118.277 99.8533 120.24 98.9173C123.478 97.3733 123.749 96.9323 123.156 94.1673C122.373 90.5173 120.938 87.6023 119.954 87.6633C119.561 87.6883 117.546 88.6013 115.477 89.6933ZM4.73914 90.3903C4.73914 93.3823 6.81415 98.6193 7.99915 98.6193C10.0281 98.6193 17.7391 93.5283 17.7391 92.1883C17.7391 91.4143 16.1461 90.5673 13.9891 90.1963C11.9271 89.8413 9.00114 89.3053 7.48914 89.0053C5.25014 88.5623 4.73914 88.8193 4.73914 90.3903ZM87.9011 94.1123C84.3071 98.8843 84.2171 101.262 87.3941 107.629C88.8871 110.622 90.7391 111.637 90.7391 109.463C90.7391 108.828 91.9111 106.772 93.3421 104.895C96.0121 101.394 96.0051 101.507 94.0891 92.3693C93.2861 88.5423 91.7771 88.9673 87.9011 94.1123ZM21.9791 92.7553C21.0221 93.9303 19.0011 96.0303 17.4891 97.4213C15.9771 98.8123 14.7391 100.325 14.7391 100.784C14.7391 101.243 18.0011 101.613 21.9891 101.605L29.2391 101.59L31.9891 96.6043C33.5011 93.8623 34.7391 91.3933 34.7391 91.1183C34.7391 90.8443 32.2601 90.6193 29.2291 90.6193C24.8121 90.6193 23.3741 91.0433 21.9791 92.7553ZM103.919 97.4583C100.18 100.797 100.023 102.294 102.834 107.805L104.929 111.911L108.334 108.083C110.207 105.978 111.739 103.897 111.739 103.458C111.739 101.888 108.508 94.6193 107.811 94.6193C107.419 94.6193 105.668 95.8973 103.919 97.4583ZM54.2391 99.0213C50.4371 100.76 48.6541 102.363 46.7981 105.713C43.4311 111.792 34.3931 120.566 27.4051 124.543L21.5711 127.862L29.0841 135.556L34.1611 132.838C42.4591 128.395 52.6891 117.314 57.5491 107.504C63.4791 95.5323 63.2351 94.9073 54.2391 99.0213ZM131.306 99.5103C130.073 101.505 144.041 111.619 148.03 111.619C149.636 111.619 151.627 108.143 151.987 104.712C152.202 102.654 151.515 102.045 147.239 100.504C141.971 98.6053 132.241 97.9983 131.306 99.5103ZM120.989 102.364C117.029 104.335 116.962 105.282 120.489 109.424L123.239 112.654L128.479 110.886C131.361 109.914 133.712 108.894 133.702 108.619C133.661 107.437 126.6 100.625 125.476 100.683C124.795 100.718 122.777 101.475 120.989 102.364ZM36.3661 103.804C32.1161 104.486 29.6461 105.539 27.4261 107.614C25.7391 109.191 21.9531 111.659 19.0121 113.099L13.6661 115.716L15.8871 119.668C18.5921 124.481 21.0181 124.751 27.0101 120.905C35.2731 115.6 47.1791 102.065 42.9891 102.74C42.5761 102.806 39.5962 103.285 36.3661 103.804ZM8.73914 104.358C8.73914 104.888 9.23313 106.738 9.83713 108.47C11.1461 112.227 13.1411 112.471 18.4591 109.525C24.1791 106.356 24.3001 105.884 19.5851 105.157C17.1951 104.788 13.7771 104.242 11.9891 103.942C10.1971 103.641 8.73914 103.828 8.73914 104.358ZM78.8621 109.869C75.9221 117.188 73.4901 130.997 74.2091 136.294C75.1771 143.436 76.5222 149.925 77.6422 152.869C78.5932 155.365 79.1531 155.619 83.7141 155.619C89.4251 155.619 89.6201 155.206 87.0881 148.495C85.0901 143.197 84.6941 122.36 86.5281 118.983C87.4831 117.223 87.2231 115.769 85.0501 110.733C83.5991 107.37 82.0871 104.619 81.6911 104.619C81.2951 104.619 80.0221 106.982 78.8621 109.869ZM94.2811 109.957C92.8831 112.343 91.7391 114.835 91.7391 115.496C91.7391 116.157 93.2951 119.009 95.1971 121.833C98.5571 126.822 98.6812 126.899 99.5602 124.544C103.292 114.535 103.256 115.177 100.357 110.231C98.8711 107.694 97.4681 105.619 97.2391 105.619C97.0101 105.619 95.6791 107.571 94.2811 109.957ZM110.384 110.812C108.929 112.568 107.746 114.48 107.754 115.062C107.762 115.643 109.253 117.873 111.067 120.018L114.366 123.917L116.787 120.018C118.118 117.873 119.369 115.767 119.567 115.337C120.002 114.391 114.97 107.619 113.833 107.619C113.391 107.619 111.839 109.056 110.384 110.812ZM130.091 113.612C126.268 115.155 126.635 116.383 131.879 119.61C140.53 124.933 141.318 125.037 144.214 121.24C145.603 119.42 146.739 117.387 146.739 116.724C146.739 113.698 135.216 111.544 130.091 113.612ZM55.7841 117.695C52.4061 122.64 41.8521 132.484 37.5571 134.695C35.5321 135.737 33.6331 136.981 33.3381 137.459C32.7411 138.424 36.1021 141.785 39.3151 143.436C41.7531 144.689 45.9571 142.459 52.6311 136.372C55.9711 133.325 56.7391 131.958 56.7391 129.064C56.7391 127.107 57.2361 123.533 57.8421 121.122C59.3841 115 58.5611 113.629 55.7841 117.695ZM119.807 121.523C118.67 123.121 117.739 124.883 117.739 125.439C117.739 126.575 123.595 131.343 128.402 134.12L131.564 135.947L135.152 132.143C137.125 130.051 138.739 128.21 138.739 128.053C138.739 127.895 136.317 126.38 133.356 124.686C130.396 122.992 127.416 120.934 126.734 120.113C124.804 117.787 122.071 118.343 119.807 121.523ZM65.9891 126.937C61.4591 133.135 60.7451 134.736 60.7831 138.619C60.8381 144.351 62.2071 151.487 63.4991 152.779C64.7291 154.009 72.7941 155.897 73.5581 155.134C73.8631 154.828 73.2891 150.52 72.2811 145.558C70.9061 138.786 70.6121 134.43 71.1001 128.078C71.4581 123.426 71.6361 119.649 71.4951 119.687C71.3541 119.724 68.8771 122.987 65.9891 126.937ZM103.9 122.166C103.261 123.567 102.739 126.342 102.739 128.333C102.739 131.382 103.489 132.632 107.489 136.253C110.102 138.617 112.521 140.567 112.866 140.586C113.211 140.604 113.351 137.685 113.177 134.099C112.899 128.356 112.455 127.105 109.454 123.599C107.58 121.41 105.825 119.619 105.554 119.619C105.282 119.619 104.538 120.765 103.9 122.166ZM89.1931 123.764C88.1201 127.143 88.6371 140.537 90.0361 145.619C92.1821 153.413 92.8021 153.987 98.2061 153.176C102.43 152.543 102.884 152.231 102.397 150.292C102.097 149.097 101.108 144.969 100.199 141.119C98.2121 132.705 96.6131 129.188 92.7881 124.826C89.9611 121.602 89.8861 121.58 89.1931 123.764ZM116.624 131.818C116.174 136.904 118.427 143.629 120.567 143.583C121.486 143.563 123.557 142.469 125.169 141.152C127.66 139.116 127.903 138.522 126.796 137.188C126.08 136.325 125.029 135.619 124.461 135.619C123.893 135.619 121.923 134.471 120.083 133.068C117.885 131.391 116.7 130.963 116.624 131.818ZM102.739 139.7C102.739 141.669 105.034 146.921 106.942 149.316C107.672 150.232 108.697 150.13 111.317 148.88C113.199 147.983 114.738 146.994 114.737 146.684C114.736 146.373 112.721 144.769 110.259 143.119C107.797 141.469 105.773 139.83 105.761 139.476C105.749 139.122 105.064 138.574 104.239 138.257C103.211 137.863 102.739 138.317 102.739 139.7ZM53.1711 140.694C52.1381 141.836 50.0431 143.508 48.5161 144.41C46.9891 145.312 45.7391 146.335 45.7391 146.683C45.7391 147.031 47.6521 148.108 49.9891 149.076C58.8911 152.765 58.7391 152.738 58.7391 150.647C58.7391 147.351 56.6141 138.619 55.8111 138.619C55.3921 138.619 54.2041 139.553 53.1711 140.694Z" fill="#c49354"/>
</svg>
