<svg width="410" height="500" viewBox="0 0 410 500" fill="none" xmlns="http://www.w3.org/2000/svg">
<path d="M205.767 39.9046C206.328 34.2649 206.071 28.385 207.641 23.0414C210.035 14.8872 216.457 9.13322 223.719 5.63911C237.682 -1.07969 252.41 -2.37516 266.696 4.93748C282.307 12.9276 290.384 33.2744 287.562 45.6709C287.081 47.7843 286.15 49.9815 284.837 51.6855C280.205 57.6975 281.642 63.4865 284.532 69.6662C287.503 76.0174 291.276 80.1242 299.107 79.4784C303.669 79.1023 308.432 79.8272 312.969 80.7343C326.377 83.4152 336.011 95.977 336.413 112.208C336.582 119.005 339.131 123.66 343.451 128.655C346.827 132.558 348.646 138.221 349.925 143.406C351.209 148.613 351.314 153.337 357.487 156.161C363.977 159.13 365.748 165.956 364.343 172.641C363.191 178.118 361.158 183.598 358.499 188.527C354.311 196.288 346.506 194.995 339.535 194.288C333.203 193.646 328.375 190.221 327.219 183.518C326.369 178.591 324.259 175.985 319.184 174.269C313.961 172.504 310.587 170.077 316.072 159.448C318.671 154.277 320.946 149.744 323.22 145.211C322.624 144.943 322.028 144.675 321.431 144.407C319.45 149.272 317.47 154.137 315.489 159.002C311.742 162.244 308.475 166.956 304.133 168.371C298.16 170.317 291.226 170.833 284.986 169.955C279.915 169.241 277.856 163.858 277.527 158.678C276.919 149.091 277.873 139.701 281.273 130.626C282.086 128.457 282.537 126.152 283.155 123.91C282.649 123.732 282.144 123.555 281.638 123.377C280.67 125.977 279.704 128.577 278.733 131.176C271.952 149.334 259.999 162.809 242.094 170.437C233.406 174.139 224.4 170.209 219.902 161.61C218.552 159.029 217.496 156.294 216.041 153.04C214.78 153.792 213.497 154.239 212.651 155.11C203.858 164.165 192.306 167.738 180.713 171.138C178.3 171.845 175.583 171.439 173.04 171.792C166.085 172.758 159.176 174.155 152.196 174.813C145.889 175.407 139.456 175.795 133.191 175.161C130.65 174.904 127.402 172.173 126.255 169.731C124.324 165.624 123.172 160.883 122.926 156.343C122.754 153.176 124.062 150.146 128.873 149.494C132.274 149.034 135.281 145.673 138.574 143.196C138.685 142.784 138.725 142.709 139.084 142.636C140.099 142.252 140.755 141.94 141.392 141.639C141.374 141.649 141.336 141.669 141.682 141.56C142.694 141.163 143.36 140.875 144.231 140.377C145.61 138.936 146.784 137.705 147.957 136.474C151.048 133.716 154.297 131.114 157.2 128.171C165.362 119.893 175.815 118.099 186.658 117.869C191.723 117.762 194.605 116.753 196.441 111.219C200.457 99.1163 208.419 93.6611 221.181 94.0363C229.6 94.2838 235.76 92.1456 240.299 84.5752C242.075 81.6128 246.034 79.6656 249.369 77.9938C255.901 74.7189 256.523 73.8363 253.913 66.9699C253.233 65.1822 252.05 63.5857 251.053 61.8207C250.313 62.4377 250.053 62.5995 250.072 62.647C253.559 71.1915 248.096 74.7191 241.845 78.4062C238.912 80.1356 236.637 83.2782 234.611 86.1642C232.349 89.3848 229.208 90.5381 226.088 89.3C223.797 88.3903 221.838 85.7988 220.538 83.5002C219.5 81.6654 220.118 78.9352 219.196 76.9835C218.304 75.097 216.677 72.9645 214.854 72.2294C210.405 70.4361 208.892 68.2699 211.176 64.081C214.358 58.2474 214.056 52.2678 213.637 45.9487C213.298 40.8544 211.234 39.2086 206.156 39.8425C205.741 39.8755 205.767 39.9046 205.767 39.9046ZM231.802 40.9791C229.26 36.0096 225.384 36.2642 221.698 37.6869C224.813 39.0347 228.235 40.515 231.925 42.6718C235.469 49.024 241.771 46.3702 246.802 47.7904C241.861 45.7254 236.974 43.6834 231.802 40.9791Z" fill="#231F20"/>
<path d="M99.2173 448.152C96.379 450.405 93.757 453.042 90.6391 454.799C87.7723 456.414 84.3715 457.081 80.6978 457.47C75.2073 466.351 70.6472 476.245 68.833 486.983C67.084 497.337 65.0276 499.869 54.5836 499.936C40.5627 500.025 26.5403 500.028 12.5201 499.899C9.43861 499.871 6.28194 499.422 3.32223 498.59C1.95395 498.205 0.354097 496.583 0.0274315 495.239C-0.212639 494.25 1.17066 492.346 2.31631 491.652C4.65691 490.234 7.22745 488.919 9.87431 488.328C24.2006 485.131 35.4586 476.463 46.3083 467.448C50.9589 463.584 54.8256 458.263 57.7219 452.89C70.4258 429.319 82.6353 405.482 95.0618 381.761C95.7707 380.408 96.5863 378.945 97.7419 378.02C102.859 373.923 103.708 368.325 104.056 362.287C104.342 357.33 105.032 352.356 106.034 347.491C107.839 338.726 114.752 334.08 121.546 329.565C125.353 327.034 127.469 324.029 128.386 319.332C132.652 297.479 144.088 279.197 158.924 263.188C164.119 257.582 171.564 253.946 178.288 249.924C181.654 247.911 183.592 246.171 181.47 242.244C178.606 236.943 179.781 232.625 183.105 227.477C188.934 218.448 195.168 209.229 195.358 197.782C195.489 189.879 194.708 189.196 187.146 190.753C179.451 192.337 172.232 191.621 166.025 186.595C164.204 185.12 162.98 182.61 162.103 180.335C160.874 177.144 162.611 175.319 165.823 175.1C180.473 174.104 194.418 170.472 207.679 164.174C210.241 162.957 212.139 163.331 213.645 166.122C220.084 178.054 227.475 181.57 240.332 176.693C248.045 173.768 254.752 168.21 261.957 163.909C263.453 163.016 265.145 162.451 266.747 161.735C267.172 163.34 268.276 165.133 267.894 166.514C266.757 170.616 265.571 174.869 263.448 178.505C254.304 194.158 244.828 209.618 235.449 225.134C233.327 228.646 233.063 231.688 235.354 235.638C244.389 251.216 244.436 267.535 237.941 284.035C237.076 286.233 235.479 288.144 234.021 290.667C233.82 291.146 233.587 291.46 233.587 291.46C226.053 295.887 218.332 299.093 209.175 298.589C199.121 298.037 190.627 293.895 183.355 287.751C180.296 285.166 179.279 279.959 177.788 275.781C176.106 271.065 175.309 270.687 171.542 274.015C162.361 282.126 155.475 292.034 150.042 302.858C144.032 314.831 138.377 327.004 133.146 339.335C131.081 344.205 130.179 349.762 134.094 355.701C134.598 353.88 135.123 352.945 135.063 352.05C134.267 340.172 138.13 329.631 144.24 319.738C150.671 309.324 157.149 298.939 163.648 288.569C164.283 287.556 165.183 286.698 166.016 285.821C171.927 279.601 172.821 279.543 177.371 286.502C182.403 294.197 190.033 297.613 198.44 299.326C208.916 301.46 209.715 303.325 203.373 312.118C191.072 329.173 176.578 343.892 160.028 356.982C154.226 361.571 151.444 370.042 147.465 376.847C145.3 380.55 143.513 384.475 141.564 388.305C140.132 391.117 138.159 391.035 136.179 389.083C134.34 387.27 132.885 385.066 131.04 383.26C124.941 377.291 117.797 377.889 112.134 384.701C115.621 384.701 119.128 384.646 122.633 384.712C130.94 384.87 135.329 390.21 134.5 398.634C133.241 411.422 127.35 421.859 118.572 430.876C113.54 436.045 108.389 441.099 102.826 446.575C101.813 446.99 101.267 447.034 100.468 447.231C99.8979 447.616 99.58 447.848 99.2519 448.099C99.2418 448.117 99.2173 448.152 99.2173 448.152Z" fill="#231F20"/>
<path d="M205.723 39.8669C212.346 44.5674 213.448 48.2575 210.63 55.8208C209.123 59.8627 207.747 63.9537 206.359 68.0386C205.365 70.9657 206.095 72.974 209.254 74.1125C211.444 74.9018 214.485 75.7644 215.282 77.4667C216.846 80.8068 217.268 84.7348 217.76 88.4724C217.846 89.1249 216.079 90.4336 214.965 90.768C203.926 94.0842 195.711 100.474 191.149 111.362C190.527 112.845 188.101 114.431 186.46 114.486C175.63 114.846 165.717 117.573 156.954 124.18C153.616 126.697 151.754 125.169 150.615 121.488C148.397 114.315 145.508 107.227 138.806 103.185C122.499 93.3512 104.202 102.907 104.299 121.857C104.367 135.062 105.844 148.491 108.658 161.391C112.081 177.086 116.273 192.68 116.101 208.747C115.958 222.141 114.753 235.684 112.351 248.857C107.915 273.19 107.473 297.214 113.602 321.263C114.144 323.388 114.487 325.789 114.032 327.867C113.712 329.325 111.87 331.486 110.724 331.476C109.135 331.463 106.496 329.982 106.152 328.652C103.784 319.496 101.311 310.298 99.9815 300.956C97.4309 283.03 98.1781 265.163 102.858 247.537C110.369 219.249 106.725 191.444 99.8335 163.555C96.9212 151.77 96.1486 139.436 94.7003 127.316C93.8482 120.185 95.0326 113.215 97.7265 106.508C98.3314 105.002 98.4555 103.303 98.801 101.693C98.291 101.391 97.7811 101.089 97.2712 100.787C96.0959 102.358 94.4164 103.759 93.8225 105.525C87.1184 125.465 83.6408 145.357 89.877 166.474C95.4075 185.201 98.2905 204.699 97.5176 224.322C97.1846 232.78 95.0646 241.366 92.4976 249.496C87.6024 265.001 81.8128 280.21 83.1983 296.921C84.3843 311.225 85.7015 325.46 91.6123 338.844C95.0208 346.562 97.8587 354.53 101.18 362.289C102.776 366.017 101.069 368.543 98.3597 370.185C95.2067 372.096 93.7746 369.301 92.5306 366.939C79.801 342.775 73.0082 317.128 74.0149 289.729C74.4573 277.685 78.7195 266.481 82.8582 255.234C92.0981 230.126 94.7953 204.724 86.432 178.552C80.8936 161.22 77.6252 143.318 79.0952 124.912C79.2842 122.547 79.8907 120.215 80.3229 117.76C76.4982 121.109 73.6138 129.069 71.7462 138.595C67.7659 158.898 70.235 178.836 74.1647 198.803C77.8104 217.328 80.0731 236.034 78.8925 254.953C78.6193 259.333 77.4505 263.854 75.748 267.914C66.897 289.019 58.8839 310.365 56.5092 333.326C54.7008 350.812 56.6255 367.962 63.906 384.073C66.4927 389.797 70.7112 394.809 74.3803 400.009C76.9316 403.624 76.8573 406.94 73.886 410.942C72.3366 409.625 70.6965 408.662 69.6312 407.261C54.7366 387.673 45.9463 365.783 47.1266 340.946C47.578 331.447 50.0227 321.868 52.7817 312.693C57.4073 297.311 63.373 282.334 68.1135 266.982C73.837 248.446 71.8118 229.615 67.9545 211.103C64.6766 195.371 59.8286 179.954 60.2428 163.636C60.2619 162.882 59.818 162.115 59.5897 161.354C59.1118 161.325 58.6339 161.296 58.1559 161.267C57.5214 166.202 56.0967 171.188 56.4093 176.062C57.1692 187.913 58.3144 199.775 60.0882 211.515C62.146 225.134 66.006 238.387 65.7335 252.455C65.4144 268.934 61.105 283.783 51.8217 297.306C45.0751 307.134 38.9756 317.121 36.9602 329.329C33.6404 349.439 35.6747 368.644 45.0552 386.779C51.1405 398.543 57.8678 409.974 64.2097 421.607C64.9135 422.899 65.5302 424.68 65.1978 425.982C64.774 427.641 63.6272 429.533 62.2247 430.347C61.5305 430.751 59.0082 429.313 58.2626 428.117C51.8045 417.754 44.7544 407.644 39.5 396.682C34.9196 387.126 31.972 376.694 29.1294 366.42C24.0627 348.108 28.4553 330.936 36.3081 314.198C42.5339 300.928 48.7495 287.596 53.881 273.884C59.6576 258.448 57.8305 242.525 53.5886 227.007C48.6693 209.011 46.1524 190.821 46.8439 172.163C47.7017 149.019 53.8333 127.535 67.2347 108.504C70.83 103.399 75.4892 98.9754 80.0278 94.6224C83.6303 91.1675 85.2719 87.4875 85.4566 82.3689C85.8963 70.1775 88.3508 58.3204 94.5237 47.5705C98.9106 39.9312 104.855 34.3822 114.136 33.1312C124.139 31.7831 131.734 37.4035 131.846 47.7113C131.951 57.366 138.111 61.2048 146.349 61.5819C148.027 61.6588 150.215 60.5654 151.409 59.2973C154.474 56.0437 156.971 52.2625 159.949 48.9178C168.959 38.7973 180.159 33.299 193.846 32.7681C199.379 32.5535 202.008 36.2826 205.438 39.7655C205.767 39.9046 205.741 39.8755 205.723 39.8669ZM98.3199 86.1475C101.361 85.8649 104.82 84.5287 107.353 85.5305C111.884 87.3216 113.82 85.2141 114.731 81.8416C116.557 75.0785 118.275 68.2123 119.084 61.2773C119.54 57.3635 119.13 52.5173 114.248 50.7969C109.219 49.0248 105.059 51.097 103.184 55.8317C99.7221 64.579 96.7506 73.5302 93.8607 82.4887C92.974 85.2373 94.5644 86.7515 98.3199 86.1475ZM170.09 64.8081C173.436 67.9996 175.943 66.0852 178.382 63.4832C180.469 61.2579 182.76 59.2065 184.675 56.846C185.825 55.4275 186.427 53.5642 187.275 51.9007C185.096 50.927 182.009 48.5252 180.9 49.2313C176.53 52.0148 172.614 55.6085 168.945 59.3131C168.218 60.0473 169.325 62.5982 170.09 64.8081Z" fill="#242021"/>
<path d="M331.471 387.787C332.718 389.629 333.941 391.489 335.216 393.312C340.936 401.488 343.837 410.562 343.895 420.536C343.924 425.553 343.975 430.573 343.859 435.589C343.702 442.377 340.523 444.38 333.96 441.893C324.653 438.367 317.296 432.288 311.034 424.643C301.552 413.068 300.325 399.662 301.901 385.551C301.974 384.898 301.91 384.231 301.91 382.682C295.466 388.105 291.411 383.867 287.762 379.79C284.576 376.232 281.705 372.276 279.365 368.118C277.955 365.613 277.95 362.957 282.469 362.488C298.472 360.824 305.882 351.265 302.879 335.432C300.712 324.012 297.39 312.81 294.583 301.511C293.788 301.701 292.994 301.892 292.199 302.082C292.922 304.502 293.646 306.921 294.367 309.341C295.107 311.825 296.207 314.264 296.518 316.801C297.522 324.972 299.522 333.299 298.776 341.347C297.472 355.417 286.682 359.884 273.675 355.133C259.152 349.828 250.529 338.298 243.937 324.955C240.799 318.603 237.519 312.319 234.533 305.897C233.814 304.35 234.013 302.376 233.79 300.598C235.444 300.592 237.116 300.427 238.75 300.607C248.175 301.647 257.415 302.925 266.755 298.965C275.685 295.18 281.535 289.176 284.594 280.159C284.98 279.021 285.442 277.899 285.98 276.825C286.189 276.409 286.708 276.149 287.598 275.367C288.97 276.87 290.522 278.168 291.578 279.789C303.17 297.573 310.06 317.075 312.736 338.109C313.302 342.561 313.972 347.006 314.772 351.423C315.952 357.935 318.742 363.178 324.615 367.119C328.49 369.72 330.915 374.379 334.393 377.692C346.58 389.3 353.717 403.843 359.226 419.391C362.962 429.931 366.58 440.517 370.505 450.986C373.313 458.475 378.784 463.661 386.009 466.942C391.981 469.654 398.016 472.229 404.056 474.788C407.124 476.088 409.68 477.749 409.067 481.595C408.41 485.715 405.536 487.259 401.663 487.436C394.245 487.777 386.821 488.034 379.411 488.507C373.177 488.905 368.004 486.729 364.64 481.655C358.077 471.757 351.721 461.701 345.812 451.404C344.355 448.865 344.578 445.141 344.661 441.978C344.927 431.861 346.768 421.597 345.565 411.686C344.459 402.573 340.209 393.838 331.703 387.547C324.497 377.708 310.28 372.929 304.93 378.887C308.939 379.363 312.843 379.14 316.207 380.382C321.487 382.331 326.402 385.268 331.471 387.787Z" fill="#231F20"/>
<path d="M233.937 290.989C247.427 285.129 252.73 269.628 250.995 256.748C250.057 249.789 248.346 242.804 245.958 236.202C243.01 228.055 243.701 221.126 248.359 213.677C255.668 201.989 262.161 189.777 268.717 177.635C270.825 173.73 273.042 172.286 277.356 174.158C284.847 177.409 292.242 175.769 299.548 173.131C304.008 171.521 305.933 172.835 305.229 177.475C304.774 180.472 303.678 183.532 302.19 186.182C297.455 194.617 292.286 202.683 284.088 208.454C280.465 211.003 277.602 214.65 274.468 217.871C269.654 222.821 269.67 224.52 273.426 230.51C281.558 243.479 284.423 257.92 282.039 272.722C278.954 291.88 270.872 298.384 249.015 298.272C243.522 298.243 237.375 297.936 233.747 291.773C233.588 291.46 233.821 291.147 233.937 290.989Z" fill="#231F20"/>
<path d="M138.725 142.709C138.725 142.709 138.685 142.784 138.688 142.788C135.599 144.311 132.61 146.116 129.388 147.27C125.961 148.498 123.196 147.48 122.465 143.428C120.397 131.957 120.11 120.447 122.95 109.103C124.53 102.789 131.915 101.036 136.991 105.822C145.4 113.751 150.678 123.116 148.077 135.888C146.783 137.705 145.61 138.936 143.871 140.45C142.649 141.045 141.992 141.357 141.335 141.669C141.335 141.669 141.373 141.649 141.043 141.738C140.05 142.121 139.388 142.415 138.725 142.709Z" fill="#231F20"/>
<path d="M137.098 417.024C138.711 414.132 140.204 411.62 142.409 407.91C144.051 411.016 145.908 413.279 146.483 415.831C149.346 428.536 150.701 441.384 148.958 454.411C147.429 465.839 145.994 477.28 144.404 488.699C144.145 490.555 143.282 492.325 142.727 494.143C141.68 497.572 139.322 498.056 136.192 497.269C132.81 496.418 132.458 494.23 133.113 491.321C135.007 482.901 137.371 474.542 138.571 466.022C140.596 451.639 142.093 437.16 136.921 422.958C136.328 421.33 136.93 419.266 137.098 417.024Z" fill="#242021"/>
<path d="M112.304 492.665C112.201 490.686 112.055 488.965 112.45 487.378C114.688 478.37 117.704 469.496 119.14 460.37C120.027 454.734 118.516 448.733 118.208 442.889C118.112 441.084 117.833 438.865 118.704 437.533C119.93 435.659 122.149 434.436 123.944 432.934C125.076 434.886 126.977 436.746 127.22 438.803C129.372 456.972 128.986 474.931 121.541 492.103C119.729 496.282 117.156 496.535 112.304 492.665Z" fill="#242021"/>
<path d="M70.3791 350.749C72.6133 361.225 75.7785 370.836 82.266 379.051C82.9054 379.861 83.8817 380.768 83.8946 381.642C83.9363 384.446 83.599 387.256 83.4079 390.063C81.1577 388.971 77.9964 388.485 76.8034 386.69C68.3854 374.027 64.3063 359.733 63.6818 344.716C63.2202 333.618 64.2026 322.456 64.6844 311.329C64.7534 309.736 65.6269 308.178 65.9907 307.035C67.3976 321.312 68.8276 335.821 70.3791 350.749Z" fill="#242021"/>
<path d="M100.72 447.079C101.267 447.035 101.813 446.99 102.769 446.912C106.448 445.838 107.961 447.835 107.968 450.464C107.989 458.474 108.34 466.596 107.143 474.458C106.256 480.285 103.387 485.879 100.936 491.369C99.777 493.965 97.7283 496.617 94.0514 494.569C90.6988 492.703 91.0983 490.303 92.6276 487.183C97.9291 476.366 101.543 465.155 99.1047 452.828C98.8766 451.675 99.1319 450.426 99.1899 448.688C99.217 448.153 99.2415 448.118 99.5113 447.955C100.094 447.555 100.407 447.317 100.72 447.079Z" fill="#242021"/>
<path d="M79.8819 475.704C80.4433 472.571 80.5631 469.73 81.4725 467.17C82.0088 465.66 83.7962 464.594 85.021 463.328C86.0999 464.654 87.8964 465.861 88.1392 467.326C89.546 475.814 86.6581 483.387 82.041 490.276C81.3426 491.318 78.3542 491.67 76.9323 491.093C75.9413 490.69 75.0612 487.93 75.4508 486.613C76.5189 483.003 78.2833 479.599 79.8819 475.704Z" fill="#242021"/>
<path d="M315.604 159.092C317.47 154.137 319.45 149.272 321.431 144.407C322.028 144.675 322.624 144.943 323.22 145.211C320.946 149.744 318.671 154.277 316.174 159.086C315.951 159.362 315.721 159.181 315.604 159.092Z" fill="black"/>
<path d="M141.682 141.56C141.992 141.357 142.649 141.044 143.665 140.659C143.359 140.875 142.694 141.163 141.682 141.56Z" fill="black"/>
<path d="M139.084 142.636C139.387 142.415 140.05 142.121 141.062 141.728C140.755 141.94 140.099 142.252 139.084 142.636Z" fill="black"/>
<path d="M100.468 447.232C100.407 447.317 100.094 447.555 99.5215 447.936C99.5798 447.848 99.8977 447.616 100.468 447.232Z" fill="black"/>
</svg>
