<svg width="441" height="500" viewBox="0 0 441 500" fill="none" xmlns="http://www.w3.org/2000/svg">
<path d="M179.603 336.491C178.774 353.709 178.458 370.432 176.895 387.061C176.258 393.834 171.64 400.313 171.06 407.08C169.794 421.855 169.927 436.729 169.544 451.564C169.401 457.105 170.809 463.111 162.269 465.241C160.942 465.571 159.989 468.225 159.495 469.951C157.676 476.319 156.448 482.834 154.381 489.13C152.115 496.034 141.218 501.49 133.485 499.633C131.294 499.107 129.593 496.93 126.734 494.822C125.856 495.319 124.15 496.717 122.151 497.297C120.15 497.879 117.07 498.472 115.886 497.562C114.37 496.398 113.18 493.389 113.801 491.788C115.131 488.361 117.031 484.678 119.897 482.24C136.6 468.033 143.76 450.675 143.261 430.184C142.816 411.94 143.084 393.679 143.198 375.426C143.263 365.051 140.482 355.343 135.42 346.112C130.702 337.507 125.709 329.02 121.147 320.35C113.277 305.392 113.476 289.152 116.633 273.824C120.056 257.207 125.649 240.406 133.882 225.262C147.116 200.917 160.803 176.61 178.836 154.558C184.901 147.141 192.298 146.311 200.163 148.458C208.814 150.819 217.169 154.553 225.024 158.662C236.544 164.688 247.168 172.123 258.787 177.972C275.505 186.389 293.725 188.179 312.796 186.86C330.011 185.669 347.465 184.223 364.466 189.019C389.482 196.077 406.477 217.202 406.907 240.833C407.192 256.477 402.981 271.015 395.238 284.789C386.486 300.357 376.888 315.552 368.522 331.282C362.733 342.165 361.168 353.938 368.32 364.904C375.186 375.432 373.519 384.991 366.516 394.476C355.19 409.816 347.298 426.423 343.098 444.457C341.738 450.295 338.481 454.063 331.805 456.754C327.755 458.387 325.733 464.206 322.949 468.228C320.343 471.995 318.519 476.344 315.295 479.589C310.75 484.164 305.886 483.839 300.333 480.351C298.761 479.363 296.221 479.218 294.171 479.333C289.651 479.586 285.156 480.673 280.659 480.637C275.457 480.596 273.756 477.552 276.365 473.377C277.438 471.659 279.238 470.136 281.071 468.999C302.508 455.698 318.176 437.936 330.096 417.393C337.84 404.047 341.236 389.576 338.401 374.766C337.227 368.632 332.159 363.055 328.628 357.342C317.353 339.098 308.301 320.167 307.706 298.912C307.2 280.833 313.794 264.431 322.766 248.233C321.168 249.923 319.572 251.614 317.973 253.302C308.077 263.751 304.137 276.284 302.676 289.564C301.854 297.031 301.913 304.577 301.1 312.045C300.892 313.955 299.379 316.601 297.62 317.395C270.56 329.626 243.554 342.123 213.25 346.726C207.127 347.656 200.766 347.402 194.51 347.51C190.087 347.587 187.387 345.726 187.25 341.454C187.114 337.249 189.314 335.475 193.992 335.112C205.396 334.229 215.634 329.848 224.071 323.441C240.121 311.252 255.517 298.335 270.693 285.258C281.357 276.069 291.22 266.127 301.397 256.484C302.328 255.603 302.941 254.451 302.892 252.484C301.409 253.222 299.629 253.698 298.486 254.74C284.131 267.811 269.596 280.735 255.657 294.158C240.678 308.582 223.975 320.808 204.299 329.637C202.998 330.221 201.587 330.639 200.186 331.006C192.336 333.06 189.423 331.331 189.7 324.031C190.312 307.92 191.786 291.825 191.946 275.716C192.051 265.157 189.265 254.82 183.49 245.442C179.003 238.156 173.246 235.932 165.797 238.42C166.572 239.523 167.035 240.835 168.032 241.506C183.534 251.952 186.627 266.897 185.486 282.742C184.205 300.52 181.627 318.222 179.603 336.491Z" fill="#231F20"/>
<path d="M71.3774 263.982C64.717 266.894 58.954 266.092 54.1517 261.212C45.9421 252.87 40.8852 243.185 39.046 232.036C35.1922 208.675 41.6055 187.032 52.0656 166.006C55.0439 160.018 58.1227 154.069 61.2808 148.157C63.1837 144.595 65.9285 141.891 70.8413 142.072C87.7863 142.697 102.289 137.609 114.483 127.055C114.874 126.717 115.616 126.708 117.126 126.286C117.849 131.764 118.542 137.014 119.235 142.264C119.884 142.261 120.533 142.259 121.182 142.257C122.131 138.325 122.646 134.257 124.118 130.491C127.405 122.085 131.022 113.775 134.893 105.574C135.491 104.307 138.091 103.239 139.871 103.089C146.865 102.499 153.918 102.477 160.915 101.909C164.636 101.607 167.055 102.142 169.021 105.467C176.055 117.364 172.424 135.383 161.769 144.336C137.576 164.665 115.578 186.779 99.6624 213.087C91.6239 226.375 85.3074 240.502 78.0526 254.181C76.2846 257.514 73.8877 260.578 71.3774 263.982Z" fill="#231F20"/>
<path d="M87.806 133.239C80.4558 134.036 73.599 134.61 66.7732 135.401C54.0409 136.876 41.655 139.041 31.917 147.667C28.5435 150.655 23.0969 153.144 19.7527 149.342C16.6043 145.761 15.8473 140.298 14.8711 135.525C14.6973 134.676 18.4375 132.817 20.6352 132C30.0324 128.506 32.9381 125.39 32.5342 116.239C32.1774 108.155 34.0033 101.253 40.1065 94.982C49.6524 85.1739 49.2968 72.4758 51.6705 60.5163C55.0377 43.5502 62.413 28.2204 77.9215 17.1341C86.3768 11.0899 96.7512 9.35629 107.092 8.07944C108.303 7.93003 110.687 10.4139 111.215 12.0248C112.019 14.4773 112.113 17.2854 111.74 19.8518C110.597 27.7045 113.923 33.927 118.992 40.0645C120.92 42.3981 121.175 46.2967 121.077 49.4539C120.769 59.3167 119.189 69.1927 119.631 79.0081C119.829 83.4067 123.051 88.0511 125.998 91.9058C129.869 96.9701 130.1 101.503 126.449 106.481C117.088 119.247 105.27 129.151 87.806 133.239ZM102.223 81.1212C104.041 77.0316 102.183 72.8216 97.27 72.7071C92.1802 72.5885 86.7122 73.82 82.0052 75.68C77.7482 77.3623 72.5645 81.0458 74.9564 85.5011C77.2016 89.6834 83.4889 89.7562 88.3707 87.9484C92.9494 86.2529 97.1621 83.7583 102.223 81.1212Z" fill="#231F20"/>
<path d="M85.7264 246.477C95.7467 230.444 104.638 214.242 115.715 199.356C125.386 186.36 137.288 174.667 148.658 162.748C154.603 156.516 161.516 151.028 168.016 145.226C168.751 144.57 169.575 143.699 170.485 143.547C174.179 142.93 177.923 142.554 181.649 142.089C180.664 144.921 180.377 148.191 178.578 150.513C168.458 163.579 157.346 176.054 147.79 189.434C138.345 202.66 129.026 216.198 122 230.53C109.338 256.358 104.797 283.399 113.321 311.343C114.249 314.386 114.815 317.61 114.866 320.759C114.97 327.189 110.206 329.783 102.293 327.926C85.3344 323.946 72.9517 313.836 61.569 302.706C49.6009 291.003 45.5793 276.165 42.8869 260.974C42.7638 260.28 43.0477 259.528 43.1388 258.827C43.7249 258.758 44.3678 258.573 44.444 258.69C48.3414 264.63 54.5949 267.814 61.315 270.487C67.8393 273.081 70.4037 278.445 72.9306 283.89C75.1766 288.729 77.5243 293.539 80.1128 298.235C81.0385 299.914 82.8014 301.219 85.3666 302.067C83.6417 297 82.0458 291.894 80.166 286.874C75.4331 274.232 79.9543 262.431 84.0417 250.577C84.4735 249.325 85.0418 248.111 85.7264 246.477ZM88.2254 307.024C88.3977 306.784 88.5698 306.543 88.742 306.303C88.4462 306.193 88.1503 306.083 87.8547 305.973C87.8862 306.278 87.9178 306.584 88.2254 307.024Z" fill="#242021"/>
<path d="M202.154 0C205.778 0.293303 209.98 0.227349 209.151 4.15206C208.655 6.49717 205.875 9.06749 203.37 10.2944C200.377 11.7604 196.51 11.7029 193.151 12.6693C189.805 13.6318 188.429 15.3637 190.837 18.5875C203.601 35.6757 204.363 54.4432 197.13 72.9574C190.91 88.8759 180.531 97.6367 161.004 96.8524C153.6 96.5548 145.728 96.3602 138.991 93.9941C127.798 90.0626 126.508 79.8997 125.868 70.7971C124.369 49.4843 133.487 32.3732 152.26 18.9602C166.932 8.47771 183.492 2.78658 202.154 0ZM158.272 56.8046C158.031 60.753 158.678 64.553 163.199 66.2112C164.989 66.868 167.614 66.4027 169.534 65.7142C170.337 65.4261 171.045 62.8877 170.52 61.952C164.799 51.7607 165.643 41.3002 168.612 30.601C161.401 37.8685 159.684 46.7887 158.272 56.8046Z" fill="#231F20"/>
<path d="M103.744 451.984C112.66 423.075 114.614 394.697 102.731 366.382C98.6764 356.721 95.3224 346.818 91.8684 336.963C91.2342 335.153 91.6592 333.043 91.5951 331.072C93.6306 331.449 95.6915 331.74 97.6968 332.219C103.317 333.562 108.843 335.328 114.541 336.264C119.405 337.063 122.311 338.736 123.629 343.343C127 355.13 132.34 366.618 134.148 378.562C135.69 388.753 134.447 399.563 132.578 409.826C130.006 423.957 130.857 437.905 132.424 451.908C132.862 455.831 131.951 458.437 127.716 459.054C121.899 459.902 121.263 463.953 119.434 467.794C115.368 476.328 111.4 485.023 106.009 492.886C101.241 499.841 94.7347 500.166 86.5525 496.378C84.7249 495.531 81.7982 495.919 79.6246 496.494C73.5906 498.091 70.3837 496.47 72.0508 491.147C73.5368 486.402 76.6566 481.278 80.7732 478.15C90.3851 470.846 98.4032 462.73 103.744 451.984Z" fill="#231F20"/>
<path d="M266.644 419.098C272.795 402.3 280.219 386.071 278.562 368.388C277.764 359.876 275.318 351.427 272.892 343.121C271.012 336.684 271.119 334.795 277.804 331.771C284.882 328.57 292.245 325.877 300.775 322.442C301.441 325.142 302.482 327.467 302.514 329.802C302.684 342.536 302.346 355.279 302.737 368.005C302.902 373.374 304.143 378.764 305.398 384.047C307.103 391.225 301.429 395.9 298.688 401.577C293.226 412.892 287.668 424.172 282.377 435.552C281.445 437.555 281.456 439.966 281.31 442.204C280.801 450.027 278.137 451.986 269.25 452.126C267.128 452.16 264.089 453.911 263.155 455.618C261.444 458.745 260.662 462.383 260.066 465.887C258.005 478.011 240.917 485.268 228.963 479.241C227.557 478.532 224.021 479.365 222.823 480.569C220.006 483.402 216.996 483.709 213.954 481.919C210.583 479.936 210.588 476.903 212.857 474.046C214.786 471.617 216.68 469.092 219.041 467.028C232.002 455.704 245.394 444.766 257.978 433.117C261.874 429.511 263.698 424.095 266.644 419.098Z" fill="#242021"/>
<path d="M436.101 207.829C431.953 214.951 425.837 219.673 418.469 223.132C414.446 225.02 411.154 224.788 408.554 220.601C404.907 214.728 400.839 209.033 396.491 203.556C393.991 200.406 394.38 198.519 398.054 196.897C398.992 196.483 399.912 196.002 400.899 195.718C418.924 190.54 422.801 174.545 419.456 160.267C418.812 157.516 417.704 154.79 417.572 152.023C417.403 148.467 419.831 147.104 423.229 149.011C425.84 150.476 428.714 152.343 430.086 154.688C439.907 171.478 445.67 188.783 436.101 207.829Z" fill="#231F20"/>
<path d="M49.1446 47.5059C47.7385 52.0866 46.4473 56.2376 45.2561 60.4117C44.0961 64.4756 43.038 68.563 41.5394 74.1033C38.4728 71.5555 36.2906 70.3929 35.124 68.673C23.1481 51.0157 23.2546 32.608 32.6535 14.3568C37.712 4.53367 57.4837 1.13002 67.5144 7.34423C71.8481 10.0291 72.863 14.9679 68.6501 18.5101C59.1668 26.4836 54.0034 36.6092 49.1446 47.5059Z" fill="#231F20"/>
<path d="M0.91967 39.0301C2.46112 27.6315 3.75429 16.6743 15.6227 7.86597C15.9454 12.0752 16.3233 14.7451 16.3247 17.4153C16.33 28.6865 15.4068 40.0979 20.0233 50.8721C23.669 59.3804 28.1776 67.5867 32.0792 76.011C33.1201 78.2585 33.3395 80.8139 33.9359 83.228C31.3407 83.2323 28.4322 83.933 26.2042 83.1216C16.0364 79.4195 9.26492 72.1208 4.59184 63.6646C0.483503 56.2303 -1.20293 47.9872 0.91967 39.0301Z" fill="#242021"/>
<path d="M161.311 4.92734C160.381 5.83005 159.676 6.75441 158.772 6.95536C144.589 10.1073 137.729 20.728 129.343 29.8831C127.889 31.4701 124.445 33.3015 122.976 32.7491C120.853 31.951 118.75 29.2245 118.337 27.059C117.652 23.4647 117.695 19.5399 118.559 15.9753C119.933 10.3067 123.71 6.1503 130.637 5.26784C139.071 4.19339 147.499 3.02618 155.972 2.30202C157.698 2.15447 159.614 3.79582 161.311 4.92734Z" fill="#242021"/>
<path d="M18.5628 129.543C10.4047 131.287 5.71857 128.181 5.13865 121.075C4.4536 112.681 6.38861 108.975 12.6057 108.543C17.2715 108.219 23.099 106.449 25.7798 112.026C28.7628 118.231 25.4043 126.318 18.5628 129.543Z" fill="#242021"/>
<path d="M326.387 245.403C326.426 245.361 326.348 245.445 326.387 245.403Z" fill="black"/>
<path d="M88.0874 306.956C87.9178 306.584 87.8862 306.278 87.8545 305.973C88.1503 306.083 88.4462 306.193 88.7418 306.303C88.5697 306.543 88.3976 306.784 88.0874 306.956Z" fill="black"/>
</svg>
