<svg width="571" height="500" viewBox="0 0 571 500" fill="none" xmlns="http://www.w3.org/2000/svg">
<path d="M313.534 115.49C317.271 109.442 320.603 103.571 324.305 98.2659C325.347 96.7728 327.48 96.9383 329.113 96.343C328.944 99.042 329.423 102.449 328.489 104.311C325.31 110.651 321.517 116.312 318.19 122.503C316.331 125.962 316.679 128.907 319.89 130.676C333.404 138.126 345.066 149.493 355.98 163.692C368.898 180.497 379.8 199.428 389.542 220.103C390.067 221.217 390.518 222.412 390.97 223.597C397.717 241.301 397.408 254.785 381.404 264.95C355.592 281.345 329.4 295.568 301.92 304.406C288.176 308.826 275.02 306.401 261.376 300.936C236.965 291.16 212.788 280.965 190.234 263.729C186.782 261.09 183.413 258.097 180.257 254.751C175.229 249.419 173.797 239.268 177.043 231.442C190.095 199.982 205.289 171.26 226.101 149.996C233.871 142.057 241.688 134.258 251.44 132.15C255.828 131.201 256.472 127.744 253.52 122.342C250.5 116.815 247.026 111.816 244.115 106.175C242.714 103.459 242.15 99.7997 241.208 96.5674C243.492 97.9138 246.284 98.4655 247.949 100.782C250.863 104.836 253.124 109.929 255.584 114.67C258.007 119.342 260.267 120.738 264.509 117.854C278.295 108.483 292.347 107.714 306.476 117.3C308.224 118.486 310.979 116.434 313.534 115.49Z" fill="#231F20"/>
<path d="M192.698 14.797C206.329 7.58863 219.275 -1.31739 233.894 0.824016C235.334 1.03498 236.698 2.38985 238.097 3.2139C237.209 5.36667 236.657 8.38622 235.359 9.48348C232.994 11.4828 230.248 13.061 227.555 13.5592C211.42 16.5426 201.974 33.0347 191.833 49.4323C182.427 64.6427 173.047 80.5488 160.302 90.3682C154.273 95.0125 148.335 100.552 141.887 103.233C129.318 108.459 117.882 95.1968 120.877 70.7091C121.875 62.552 127.029 58.5247 131.661 55.2973C147.674 44.1396 163.834 33.4434 179.967 22.6642C184.026 19.9522 188.191 17.586 192.698 14.797Z" fill="#242021"/>
<path d="M134.035 191.934C125.729 185.751 117.728 180.069 109.962 173.759C106.456 170.911 105.47 166.335 107.691 160.539C112.1 149.033 116.537 138.044 125.319 132.102C131.08 128.204 136.536 127.877 141.807 131.888C153.998 141.164 166.934 146.344 180.4 149.284C182.753 149.798 185.154 150.831 187.286 152.369C193.887 157.132 195.363 163.457 190.842 171.781C185.19 182.186 178.979 192.053 172.388 201.175C167.919 207.362 161.87 205.868 156.485 203.457C149.047 200.126 141.778 195.978 134.035 191.934Z" fill="#231F20"/>
<path d="M461.379 156.706C465.047 168.159 464.749 171.886 457.363 176.807C443.006 186.372 428.425 195.297 413.67 203.431C406.529 207.367 399.43 205.949 394.053 196.046C389.425 187.523 384.024 179.872 379.678 171.068C375.544 162.691 378.799 152.817 385.819 150.698C392.36 148.724 399.093 147.708 405.431 144.799C412.949 141.349 420.326 136.907 427.421 131.848C438.332 124.067 453.932 134.783 458.723 149.719C459.437 151.944 460.36 154.022 461.379 156.706Z" fill="#231F20"/>
<path d="M416.476 96.1946C397.647 81.3818 385.006 57.1272 370.682 35.8219C362.658 23.8871 353.909 15.3817 342.684 12.5531C341.223 12.185 339.613 11.9517 338.398 10.8627C336.256 8.94258 334.366 6.41102 332.371 4.13547C335.06 2.68356 337.853 -0.338911 340.421 0.0311293C359.151 2.72981 376.344 13.2334 393.325 24.354C408.901 34.5553 424.313 45.309 439.76 55.9382C445.275 59.7337 449.068 65.567 449.79 75.092C451.922 103.223 435.729 108.361 423.84 101.565C421.424 100.183 419.169 98.1882 416.476 96.1946Z" fill="#231F20"/>
<path d="M398.277 488.698C392.17 479.232 390.714 458.91 396.205 450.099C398.869 445.825 403.48 444.011 407.359 441.609C417.397 435.394 420.39 436.975 421.818 453.298C422.805 464.58 421.919 476.794 420.006 487.891C418.071 499.114 407.644 505.299 402.287 494.033C401.355 492.073 399.825 490.733 398.277 488.698Z" fill="#242021"/>
<path d="M159.233 499.086C150.803 493.564 145.935 476.438 147.686 459.562C147.938 457.126 148.328 454.712 148.753 452.326C150.801 440.826 153.455 435.501 163.896 441.192C175.264 447.389 177.23 458.65 177.951 473.032C178.005 474.112 178.141 475.221 178.038 476.273C177.182 484.969 165.842 499.1 159.233 499.086Z" fill="#231F20"/>
<path d="M455.444 96.143C456.886 91.9691 458.409 88.4503 459.28 84.6092C460.766 78.0488 462.993 78.2333 466.3 81.8072C477.847 94.286 482.182 115.561 477.114 137.61C475.916 142.822 473.417 147.382 471.517 152.242C469.027 148.556 466.388 145.061 464.086 141.135C461.312 136.406 459.172 130.763 456.113 126.531C453.087 122.344 449.257 119.423 444.886 115.053C448.321 108.944 451.776 102.799 455.444 96.143Z" fill="#242021"/>
<path d="M94.5239 139.593C89.3081 118.257 90.6924 99.6433 102.49 84.3671C108.18 76.9989 108.789 77.6129 112.253 87.2364C114.901 94.5921 118.647 101.137 122.153 107.756C126.117 115.238 125.634 115.66 120.204 120.344C116.057 123.921 112.781 129.924 109.471 135.32C106.994 139.356 105.183 144.266 102.864 148.537C101.924 150.268 100.26 152.642 99.2184 152.36C98.0213 152.036 96.9224 149.271 96.199 147.241C95.4344 145.096 95.1626 142.569 94.5239 139.593Z" fill="#231F20"/>
<path d="M316.511 324.468C317.338 331.199 315.178 334.683 311.458 335.708C295.06 340.227 278.609 344.211 261.919 338.991C255.385 336.947 252.887 332.928 253.772 326.563C254.607 320.553 259.376 317.182 264.825 317.222C279.218 317.329 293.619 317.148 308.002 316.433C312.327 316.218 315.265 317.25 316.511 324.468Z" fill="#242021"/>
<path d="M316.845 17.4581C329.302 23.7737 341.465 29.5227 353.498 35.8113C358.887 38.6274 364.038 42.4529 369.247 45.9816C370.577 46.8825 372.136 48.0079 372.86 49.7075C374.606 53.8089 375.921 58.3106 377.409 62.6508C374.54 61.893 371.632 61.3676 368.809 60.3361C358.229 56.4717 347.456 53.3948 337.185 48.1807C328.538 43.7915 320.485 36.851 312.177 31.0145C311.681 30.6657 310.992 30.2282 310.843 29.5994C309.877 25.525 307.588 20.4626 308.465 17.4668C310.129 11.781 313.693 14.5129 316.845 17.4581Z" fill="#242021"/>
<path d="M215.938 53.8368C210.036 56.6633 204.634 59.5213 199.155 62.0169C197.363 62.8334 195.374 62.7079 193.475 63.0131C193.807 60.3509 193.511 56.6904 194.588 55.2113C198.011 50.5134 201.555 45.1824 205.758 42.7101C216.929 36.139 228.495 31.0422 239.852 25.1413C244.9 22.5182 249.732 18.9233 254.844 16.6625C257.167 15.6354 259.93 16.7783 262.494 16.9368C261.945 20.6793 262.171 25.432 260.672 27.9372C258.159 32.1395 254.859 36.2592 251.34 38.0351C239.83 43.8434 228.071 48.5791 215.938 53.8368Z" fill="#242021"/>
<path d="M89.4792 360.981C84.5009 357.532 83.1135 349.866 86.9326 343.592C97.3335 326.506 108.002 309.742 122.396 299.505C126.844 296.342 128.73 300.259 131.046 304.567C133.71 309.524 131.883 312.304 129.422 315.475C120.195 327.365 111.217 339.693 101.785 351.213C98.3454 355.414 93.8968 357.816 89.4792 360.981Z" fill="#242021"/>
<path d="M449.758 300.615C460.737 313.555 471.413 326.125 481.917 339.002C483.517 340.964 485.247 344.338 485.266 347.083C485.295 351.335 484.717 356.979 482.839 359.41C481.486 361.161 476.934 359.959 474.958 357.791C467.844 349.981 461.194 341.243 454.414 332.776C450.457 327.836 446.713 322.507 442.635 317.803C439.646 314.355 437.006 311.454 439.593 305.099C442.021 299.135 444.722 295.624 449.758 300.615Z" fill="#242021"/>
<path d="M399.477 382.924C406.769 381.422 410.414 387.049 412.53 395.458C415.111 405.712 417.764 416.164 415.221 427.26C414.652 429.742 412.793 432.791 411.177 433.344C399.809 437.24 396.137 434.052 392.847 417.552C391.387 410.23 390.423 402.677 389.424 395.174C388.033 384.726 388.929 383.222 396.188 382.94C397.114 382.904 398.041 382.926 399.477 382.924Z" fill="#242021"/>
<path d="M169.104 383.027C183.41 382.713 183.51 382.76 180.319 402.303C179.017 410.274 177.504 418.226 175.564 425.898C173.546 433.879 167.912 436.316 159.826 433.647C154.746 431.97 154.928 425.854 155.333 420.576C156.011 411.744 156.958 402.843 158.626 394.327C159.943 387.607 163.638 383.639 169.104 383.027Z" fill="#231F20"/>
<path d="M151.696 274.289C148.245 273.75 145.307 273.186 142.36 272.767C137.698 272.104 136.012 268.205 136.33 261.574C136.656 254.795 139.471 252.168 143.456 252.954C152.393 254.719 161.329 256.733 170.138 259.528C173.099 260.468 176.867 262.661 176.125 269.391C175.368 276.253 171.575 275.806 168.297 275.696C162.928 275.517 157.568 274.812 151.696 274.289Z" fill="#242021"/>
<path d="M80.2746 237.723C84.5806 239.308 87.3556 242.779 86.7893 248.777C86.1927 255.094 83.0128 259.355 78.6247 259.011C70.9212 258.407 63.1953 257.292 55.5974 255.369C51.7422 254.393 49.1468 249.173 50.7588 243.621C51.8296 239.932 55.2607 235.464 57.7185 235.353C65.0699 235.021 72.4622 236.661 80.2746 237.723Z" fill="#242021"/>
<path d="M423.906 274.07C415.835 274.645 408.264 275.521 400.694 275.498C398.669 275.492 396.648 272.739 394.625 271.248C395.727 268.075 396.273 263.368 398.024 261.983C408.07 254.041 419.058 251.766 430.264 253.634C431.772 253.886 433.823 259.646 433.86 262.899C433.895 266.04 432.054 269.928 430.277 272.182C428.945 273.873 426.407 273.493 423.906 274.07Z" fill="#231F20"/>
<path d="M484.693 250.586C484.179 242.485 487.083 238.167 491.486 237.21C498.237 235.741 505.112 235.051 511.939 234.99C516.277 234.952 519.776 237.698 520.113 245.609C520.448 253.434 517.163 255.8 513.01 256.51C505.864 257.733 498.666 259.121 491.511 258.908C489.222 258.839 486.999 253.926 484.693 250.586Z" fill="#242021"/>
<path d="M539.482 245.029C535.167 248.011 531.676 247.585 529.949 241.013C528.248 234.54 530.111 230.145 534.371 227.282C545.148 220.04 555.814 212.437 566.596 205.212C567.831 204.385 569.521 205.039 571 205.006C570.617 207.139 570.715 210.185 569.776 211.263C559.895 222.611 549.848 233.644 539.482 245.029Z" fill="#242021"/>
<path d="M76.9466 197.541C71.8409 194.005 67.2058 190.534 62.4078 187.655C58.9288 185.567 56.7752 182.307 56.7817 176.757C56.7855 173.473 56.6889 169.235 57.9518 167.227C58.8524 165.796 62.1861 166.541 64.0104 167.731C72.4545 173.239 80.7398 179.276 89.1051 185.05C92.2797 187.241 94.9427 190.744 93.0874 195.701C92.1566 198.188 88.5733 199.31 86.1221 199.551C83.2353 199.835 80.2754 198.495 76.9466 197.541Z" fill="#242021"/>
<path d="M479.742 186.442C489.151 180.196 498.172 174.106 507.331 168.507C509.116 167.416 512.603 167.042 513.255 168.432C514.429 170.935 514.939 175.614 514.115 178.31C512.897 182.292 510.71 186.999 508.16 188.468C500.305 192.995 492.142 196.476 483.956 199.533C482.205 200.187 478.927 198.128 478.056 195.88C477.28 193.879 478.862 189.885 479.742 186.442Z" fill="#242021"/>
<path d="M30.2544 244.62C0.268253 213.188 0.00136271 212.835 0 203.23C4.00485 205.481 7.75194 207.284 11.3259 209.656C19.5974 215.145 27.8705 220.662 35.9487 226.731C38.0315 228.295 40.3357 231.622 40.8232 234.727C41.3021 237.776 40.2573 243.335 38.6932 244.605C36.6069 246.299 33.3731 244.915 30.2544 244.62Z" fill="#242021"/>
<path d="M349.807 303.039C352.653 312.095 351.315 319.853 347.016 325.961C342.667 332.14 337.181 334.461 331.211 331.361C327.286 329.322 326.877 324.379 327.416 319.195C328.804 305.852 340.19 297.32 349.807 303.039Z" fill="#242021"/>
<path d="M223.904 301.035C231.725 299.74 237.32 304.799 241.83 312.596C246.455 320.593 243.771 330.382 236.75 332.102C227.446 334.383 217.757 321.235 219.161 307.633C219.411 305.208 221.97 303.302 223.904 301.035Z" fill="#242021"/>
<path d="M96.5749 253.734C102.142 244.444 118.701 243.364 124.39 251.962C125.904 254.25 126.883 259.185 126.29 262.1C125.712 264.943 122.812 268.665 120.927 268.671C114.735 268.688 108.499 267.583 102.362 266.142C98.1815 265.159 96.1188 260.764 96.5749 253.734Z" fill="#242021"/>
<path d="M461.636 245.977C464.098 245.858 466.72 244.583 467.948 245.979C470.404 248.774 473.374 252.818 473.674 256.755C473.889 259.578 470.418 265.076 468.054 265.863C461.815 267.941 455.271 268.957 448.873 268.757C443.772 268.598 442.002 260.071 445.456 253.964C449.549 246.728 455.291 245.937 461.636 245.977Z" fill="#242021"/>
<path d="M144.438 305.205C141.735 294.931 142.89 290.469 149.648 288.92C155.759 287.52 162.147 287.311 168.277 288.339C170.363 288.689 172.827 294.073 173.538 297.812C173.856 299.484 170.471 304.516 168.429 305.015C160.597 306.928 152.662 312.1 144.438 305.205Z" fill="#242021"/>
<path d="M401.804 288.052C408.535 288.232 414.868 287.991 421.075 289.182C424.571 289.854 428.874 291.931 428.213 299.286C427.608 306.014 424.249 309.16 419.78 308.574C414.072 307.825 408.324 306.964 402.754 305.104C400.587 304.38 397.224 300.678 397.298 298.551C397.421 295.018 399.879 291.661 401.804 288.052Z" fill="#242021"/>
<path d="M22.7511 128.55C21.2172 124.445 19.6702 120.966 18.7257 117.16C18.3387 115.602 19.2529 113.339 19.5753 111.396C20.6923 112.018 22.0849 112.211 22.883 113.329C29.5295 122.638 36.2482 131.864 42.5452 141.674C45.0064 145.508 46.6807 150.609 48.2272 155.47C48.7921 157.246 48.4979 160.938 47.6097 162.071C46.456 163.542 43.8239 164.573 42.7021 163.599C39.9445 161.205 37.2866 158.021 35.3104 154.316C30.964 146.168 27.0633 137.501 22.7511 128.55Z" fill="#242021"/>
<path d="M532.129 160.076C529.242 163.763 525.983 167.983 523.461 162.358C522.134 159.398 522.899 152.93 524.226 149.221C525.796 144.832 529.006 141.731 531.48 138.035C536.784 130.11 542.019 122.08 547.415 114.293C548.415 112.85 550.038 112.346 551.373 111.409C551.537 113.974 552.42 117.11 551.732 118.998C549.559 124.964 546.91 130.581 544.237 136.114C540.395 144.067 536.369 151.827 532.129 160.076Z" fill="#242021"/>
<path d="M82.535 399.228C81.0558 408.54 79.6611 417.183 78.2664 425.827C77.6767 425.987 77.0867 426.147 76.4968 426.308C75.5584 424.454 73.8003 422.588 73.8116 420.747C73.902 406.042 74.2279 391.334 74.7474 376.648C74.8355 374.159 75.775 370.858 77.0708 369.548C78.9607 367.637 82.0142 365.533 83.6732 366.588C85.3316 367.643 87.0045 372.736 86.7066 375.616C85.903 383.389 84.0538 390.927 82.535 399.228Z" fill="#242021"/>
<path d="M179.789 348.323C180.209 349.631 180.623 350.338 180.679 351.103C181.056 356.251 182.916 363.824 181.341 366.042C178.492 370.056 173.462 373.012 169.554 372.547C163.248 371.797 158.39 366.428 163.55 355.29C164.471 353.302 164.786 350.721 165.627 348.631C167.31 344.447 167.723 338.711 172.438 338.404C177.18 338.096 178.071 343.241 179.789 348.323Z" fill="#242021"/>
<path d="M119.918 200.269C121.78 201.078 123.808 201.225 124.426 202.678C126.283 207.044 128.658 211.928 128.639 216.59C128.63 218.752 123.37 223.02 120.796 222.567C115.117 221.566 109.493 218.677 104.159 215.437C102.664 214.529 100.988 208.72 101.637 206.916C102.724 203.895 105.45 201.012 107.778 200.371C111.541 199.335 115.539 200.163 119.918 200.269Z" fill="#242021"/>
<path d="M389.207 352.858C392.126 347.895 394.867 343.493 397.609 339.091C400.442 343.431 403.279 347.765 406.099 352.122C406.349 352.507 406.606 353.023 406.657 353.523C407.223 359.104 413.053 365.335 406.486 370.107C398.643 375.806 390.105 372.028 388.253 362.535C387.725 359.831 388.728 356.476 389.207 352.858Z" fill="#242021"/>
<path d="M494.053 370.747C497.893 384.66 497.859 420.149 493.715 426.223C492.925 423.88 491.989 421.93 491.582 419.764C488.967 405.836 486.203 391.946 484.12 377.84C483.615 374.421 484.717 368.978 486.438 366.695C489.192 363.042 491.868 366.508 494.053 370.747Z" fill="#231F20"/>
<path d="M443.437 207.259C445.165 201.552 447.687 199.424 451.57 199.97C455.253 200.487 459.219 199.116 462.62 200.674C465.146 201.831 467.54 205.914 468.801 209.586C469.261 210.926 466.65 216.231 464.795 217.307C460.22 219.962 455.319 222.315 450.462 222.776C442.961 223.489 441.052 218.842 443.437 207.259Z" fill="#242021"/>
<path d="M358.887 294.995C366.525 285.323 375.495 283.97 384.599 284.635C388.957 284.954 389.479 291.472 389.036 295.972C388.755 298.824 385.903 303.042 384.006 303.286C377.218 304.158 370.343 303.769 363.507 303.501C360.292 303.375 358.298 300.872 358.887 294.995Z" fill="#231F20"/>
<path d="M190.727 284.146C196.449 285.97 201.84 287.141 206.834 289.887C208.883 291.014 210.076 295.537 211.658 298.515C209.592 300.257 207.609 303.169 205.443 303.505C200.48 304.277 195.427 303.86 190.412 303.801C183.304 303.717 182.091 302.262 182.06 294.128C182.029 285.979 183.258 284.476 190.727 284.146Z" fill="#231F20"/>
<path d="M369.306 343.105C369.28 341.063 369.281 339.686 369.175 338.327C368.5 329.624 370.021 326.136 374.807 325.483C380.71 324.679 384.913 329.544 385.058 337.325C385.201 344.982 383.616 351.994 378.93 355.33C376.714 356.908 372.823 355.967 370.605 353.963C369.261 352.748 369.665 347.316 369.306 343.105Z" fill="#231F20"/>
<path d="M156.687 232.489C151.832 232.653 147.249 233.726 143.039 232.334C140.309 231.431 137.715 227.379 135.918 223.8C135.296 222.561 137.113 216.221 138.063 216.09C144.17 215.243 150.399 214.765 156.464 215.78C158.287 216.085 160.548 221.284 161.013 224.713C161.295 226.792 158.519 229.775 156.687 232.489Z" fill="#242021"/>
<path d="M424.569 233.115C421.725 233.102 419.33 233.161 416.949 232.929C413.214 232.565 409.729 231.075 409.189 224.627C408.814 220.14 413.943 213.733 417.857 213.796C422.103 213.865 426.426 214.117 430.548 215.431C432.228 215.966 434.518 219.384 434.644 221.711C434.798 224.59 433.488 228.677 431.896 230.445C430.149 232.383 427.359 232.274 424.569 233.115Z" fill="#242021"/>
<path d="M201.007 339.807C201.128 342.16 201.2 343.796 201.345 345.417C202.118 354.092 199.786 357.485 193.858 356.28C189.184 355.33 185.757 347.988 185.687 338.113C185.637 331.069 188.344 326.939 192.912 325.675C198.798 324.045 200.732 327.362 201.007 339.807Z" fill="#231F20"/>
<path d="M208.082 336.271C210.33 331.479 211.994 324.612 216.457 327.907C219.469 330.131 222.889 334.982 223.52 339.459C224.369 345.478 218.872 350.585 214.081 349.653C209.019 348.669 207.344 343.914 208.082 336.271Z" fill="#242021"/>
<path d="M351.709 348.651C347.935 344.833 345.95 339.879 348.21 334.449C349.538 331.256 353.313 327.279 355.02 328.09C358.046 329.528 361.37 333.638 362.706 337.902C365.132 345.645 359.999 350.749 351.709 348.651Z" fill="#242021"/>
</svg>
