<svg width="497" height="500" viewBox="0 0 497 500" fill="none" xmlns="http://www.w3.org/2000/svg">
<path d="M127.331 205.768C126.433 199.765 125.119 194.359 124.866 188.89C124.732 185.999 125.645 181.773 127.449 180.233C148.454 162.303 153.556 138.077 149.244 110.098C147.862 101.13 145.366 92.3812 144.089 83.4006C143.714 80.7646 145.359 77.3529 146.825 74.8711C149.006 71.177 152.116 68.2022 154.331 64.5287C156.214 61.4051 157.498 62.2382 158.918 64.5764C160.78 67.6395 162.499 70.8156 164.279 73.9431C164.825 73.8363 165.371 73.7296 165.917 73.6228C165.917 71.5939 165.747 69.5404 165.969 67.5436C166.158 65.8451 166.797 64.2119 167.238 62.5498C168.599 63.475 170.39 64.0498 171.231 65.3979C173.013 68.2532 174.298 71.512 177.001 74.5319C177.398 71.1799 177.794 67.828 178.247 64.0053C185.461 66.9686 183.433 76.1406 187.98 81.7244C188.783 79.3858 189.265 77.6825 189.944 76.0889C190.619 74.5048 191.492 73.031 192.279 71.5088C193.468 72.938 195.046 74.1505 195.767 75.84C197.446 79.7702 198.712 83.9302 200.598 89.2848C201.7 87.093 202.329 86.0454 202.774 84.904C203.392 83.3197 203.872 81.6649 204.411 80.0403C205.68 81.3393 207.336 82.3867 208.136 83.991C209.682 87.0944 210.745 90.5117 212.462 94.9776C213.961 93.0171 214.951 91.5363 216.115 90.2611C216.991 89.3003 218.404 87.7016 219.021 87.9824C220.186 88.5117 221.292 90.0337 221.786 91.4356C222.314 92.9332 222.411 94.8292 222.164 96.4453C221.427 101.264 220.705 105.506 227.287 102.572C227.974 102.266 230.329 105.024 230.955 106.799C231.798 109.188 231.713 112.004 231.813 112.848C235.357 113.711 238.734 113.406 239.825 115.064C241.446 117.527 241.449 121.377 242.209 124.956C243.616 124.714 244.672 124.612 245.695 124.343C249.469 123.351 251.358 124.971 251.454 129.449C251.57 134.816 251.673 140.215 256.616 143.305C257.173 143.653 257.592 144.614 257.769 145.383C261.509 161.642 268.506 176.355 274.459 191.57C284.152 216.338 299.54 236.429 314.459 257.093C327.443 275.076 346.103 282.654 362.529 294.242C375.406 303.325 388.468 312.055 398.77 324.748C426.528 358.945 437.421 398.701 426.355 444.509C421.974 462.647 409.954 474.74 396.849 484.719C373.538 502.47 347.674 502.64 321.539 495.88C301.568 490.715 288.536 475.427 280.783 454.343C274.267 436.623 272.726 418.128 277.079 399.396C280.708 383.777 286.742 368.97 297.36 358.417C310.251 345.605 325.57 337.277 343.362 337.193C352.28 337.151 361.102 336.879 369.807 340.565C379.546 344.689 386.915 351.725 390.317 362.509C395.19 377.959 398.817 394.036 392.386 410.218C390.605 414.7 388.125 419.169 385.054 422.57C373.42 435.459 352.192 437.84 339.649 427.559C336.512 424.988 334.406 420.575 332.25 416.702C329.988 412.64 328.235 408.208 326.229 403.873C321.506 407.628 320.428 418.345 323.509 424.943C329.951 438.737 341.228 443.622 353.666 444.028C361.456 444.283 369.583 442.049 377.113 439.325C391.984 433.946 399.116 420.669 401.634 403.87C403.481 391.55 403.014 379.189 399.422 367.321C393.717 348.468 381.819 336.599 364.877 333.417C345.922 329.857 326.961 330.811 309.421 341.785C297.199 349.432 288.282 360.812 281.318 374.327C278.98 378.862 277.852 384.517 274.803 388.175C272.159 391.348 267.699 393.762 263.84 394.2C241.759 396.708 219.62 397.58 197.604 393.22C195.656 392.834 193.174 391.362 192.381 389.564C191.836 388.33 193.591 385.514 194.653 383.655C199.477 375.21 204.436 366.865 209.29 358.442C209.663 357.794 209.667 356.823 209.709 355.993C209.727 355.639 209.401 355.263 208.901 354.184C207.792 355.379 206.375 356.219 205.919 357.504C200.687 372.219 189.674 381.032 179.753 390.857C162.401 408.04 143.322 422.318 122.938 434.452C114.363 439.556 107.161 446.87 101.215 457.37C103.784 457.829 105.646 458.498 107.488 458.436C117.897 458.085 128.655 459.265 138.602 456.58C147.383 454.21 154.716 452.569 163.218 457.726C168.24 460.772 172.711 455.806 175.41 450.47C180.237 440.927 180.236 440.643 189.075 444.034C195.044 446.324 200.901 449.113 206.587 452.209C211.813 455.055 212.187 458.268 207.541 461.977C202.719 465.828 197.444 469.012 192.165 472.026C180.977 478.415 169.186 480.963 156.548 480.392C140.409 479.663 124.221 479.969 108.061 480.309C99.1865 480.496 90.33 481.712 81.4603 482.38C76.8706 482.725 71.9445 484.084 68.4637 479.13C64.5496 473.558 65.8058 467.637 67.8928 461.643C71.8489 450.281 80.7456 443.913 87.686 435.537C96.5647 424.823 105.155 413.796 113.831 402.863C118.779 396.628 123.65 390.312 129.586 382.713C125.261 380.888 122.346 379.033 119.25 378.469C110.497 376.875 103.322 371.892 96.2674 366.187C86.9 358.611 78.3462 349.138 66.6821 346.293C61.2082 344.958 55.2543 344.406 49.8065 345.455C47.0161 345.992 43.6422 350.398 42.7006 353.831C41.2416 359.151 41.2474 365.141 41.3272 370.835C41.5024 383.355 42.2183 395.865 42.4477 408.385C42.4896 410.672 41.6843 413.301 40.5606 415.236C36.6358 421.992 38.2442 427.645 44.9943 429.789C58.5453 434.093 61.5792 439.784 59.5165 455.661C58.5919 462.777 58.8656 470.102 57.8603 477.197C56.8108 484.604 53.0805 486.028 48.8512 480.327C39.5214 467.749 30.2699 455.012 21.9783 441.543C15.7776 431.471 16.5149 419.253 18.1516 407.648C21.8689 381.291 19.7884 355.58 12.9153 330.189C11.9758 326.718 11.2816 322.719 11.8339 319.247C13.4142 309.31 20.145 306.092 30.5168 309.748C51.8355 317.263 73.3175 314.819 94.8016 315.444C103.756 315.704 103.323 315.65 105.405 325.487C108.418 339.723 111.586 354.093 122.476 363.843C123.929 365.144 125.402 366.477 127.018 367.471C136.743 373.448 139.477 371.504 139.695 358.99C139.943 344.762 139.801 330.469 140.996 316.333C142.224 301.801 148.356 289.316 156.862 278.501C162.425 271.428 168.017 264.339 174.064 257.823C177.341 254.292 181.6 251.948 185.203 248.746C168.34 255.198 153.868 264.759 145.018 283.831C138.052 298.845 134.029 314.479 133.253 331.23C132.991 336.888 134.099 342.628 134.579 348.331C134.775 350.656 135.461 353.106 135.04 355.276C134.417 358.489 133.006 361.502 131.93 364.6C129.003 362.798 124.815 361.82 123.411 359.022C120.407 353.036 117.619 346.276 116.911 339.535C114.379 315.447 115.403 291.939 130.103 272.072C140.132 258.518 150.204 245.002 160.014 231.244C167.378 220.914 170.865 208.441 172.931 195.647C176.539 173.309 175.213 150.919 171.552 128.739C170.981 125.281 168.343 122.268 166.661 119.049C166.377 122.555 165.484 126.159 165.903 129.552C171.21 172.574 164.67 212.419 141.853 247.928C135.046 258.521 127.7 268.667 121.036 279.371C118.112 284.068 116.277 289.65 113.161 294.567C111.705 287.115 112.65 279.98 115.047 273.288C120.683 257.545 126.401 241.83 127.759 224.705C128.24 218.646 127.525 212.464 127.331 205.768Z" fill="#231F20"/>
<path d="M178.278 45.3773C166.652 44.2205 155.542 42.6948 144.406 42.3749C135.336 42.1143 126.714 45.0156 119.29 51.4405C118.107 52.4645 116.674 53.3926 115.956 54.7717C114.908 56.7826 114.402 59.1622 113.666 61.3846C115.658 62.1744 117.713 63.7845 119.631 63.5944C124.616 63.1003 129.543 61.8243 134.491 60.8437C141.01 59.5518 142.664 61.7418 141.026 69.0689C139.218 77.1595 133.604 80.2491 127.616 82.9839C123.96 84.6534 120.321 86.3695 116.674 88.0646C116.806 88.9521 116.938 89.8395 117.07 90.727C121.571 90.727 126.072 90.7051 130.573 90.7314C141.117 90.7929 143.163 92.4152 144.79 103.902C146.757 117.788 147.838 131.899 141.788 144.88C134.997 159.45 128.318 174.229 112.753 179.7C97.1924 185.17 89.2074 199.39 82.9589 215.352C81.0022 220.351 78.781 225.292 76.119 229.83C73.5437 234.221 68.2164 235.036 64.228 232.288C57.388 227.576 52.3878 220.957 50.9718 211.935C49.9428 205.379 50.0732 198.555 49.9783 191.845C49.822 180.79 50.5009 169.669 49.6247 158.702C49.1972 153.35 45.9196 148.34 44.19 143.065C42.9865 139.394 41.6612 135.593 41.3631 131.751C40.346 118.646 39.6927 105.502 39.0437 92.3631C38.8035 87.4991 36.6231 85.5938 32.5866 85.6415C28.4881 85.6899 24.3872 85.642 20.289 85.5455C13.1732 85.3778 7.33362 81.8495 2.62889 76.0244C-1.90485 70.4109 -0.475285 64.7759 6.15107 63.6801C14.5881 62.2849 23.1636 61.7074 31.6964 61.4109C42.2144 61.0454 42.4265 61.3767 44.5727 49.8167C47.3111 35.066 53.7105 22.8007 65.5599 16.3547C75.6839 10.8473 86.6923 6.7256 97.6988 4.23252C116.33 0.0124537 135.252 2.3355 153.78 5.87455C185.575 11.9476 217.568 12.6828 249.556 11.0701C261.202 10.483 272.678 5.38158 284.219 2.27539C286.561 1.64504 288.809 0.310186 291.163 0.0556149C293.522 -0.199521 295.959 0.490359 298.363 0.766044C296.698 2.97746 295.406 6.21076 293.301 7.21124C286.628 10.3816 279.812 13.7513 272.762 15.1675C256.683 18.3975 240.477 21.0159 224.236 22.9069C212.983 24.217 201.556 24.686 190.259 24.1384C169.837 23.1486 149.43 21.4225 129.061 19.412C115.864 18.1093 103.157 19.9767 92.0331 27.8754C86.5011 31.8034 82.6945 39.0006 78.3936 44.9871C77.7102 45.9383 78.541 48.3083 78.6718 50.0224C80.0877 49.388 82.0065 49.2217 82.8434 48.0487C94.1868 32.1513 109.501 26.3401 126.671 25.6871C155.735 24.5819 184.661 26.8975 213.568 30.3444C243.604 33.9258 273.77 33.7632 303.776 30.2785C322.508 28.1031 340.66 22.3394 357.222 11.4279C361.049 8.90605 364.775 6.15051 368.739 3.95147C369.964 3.27175 371.821 4.07756 373.389 4.20318C373.253 6.1662 373.793 8.90602 372.865 9.96014C368.441 14.9862 364.132 20.5595 358.839 24.0982C342.535 34.9978 324.431 40.4203 305.793 41.9724C276.136 44.4422 246.406 45.9835 216.683 47.1338C204.08 47.6215 191.418 46.1246 178.278 45.3773ZM67.4304 126.329C65.447 128.527 62.7375 130.349 61.6774 133.023C60.5374 135.899 60.9451 139.575 60.6775 142.902C63.7268 142.198 67.9057 142.68 69.6096 140.563C74.3334 134.696 78.0263 127.746 82.1267 121.224C81.556 120.525 80.9853 119.826 80.4146 119.127C76.3096 121.353 72.2046 123.58 67.4304 126.329Z" fill="#231F20"/>
<path d="M367.247 284.837C367.333 274.821 367.947 265.272 367.719 255.749C367.112 230.402 356.896 210.874 339.301 195.873C337.023 193.931 335.626 190.641 333.82 187.976C335.946 187.077 338.224 185.088 340.175 185.444C365.737 190.107 387.791 201.57 401.064 228.707C403.384 233.451 404.686 238.922 406.001 244.206C407.248 249.215 409.436 250.636 413.794 248.913C427.433 243.518 441.459 242.909 455.698 244.76C470.156 246.639 480.949 255.305 489.529 268.101C492.205 272.093 494.626 276.362 496.722 280.777C497.321 282.038 496.893 284.987 495.985 285.831C495.103 286.652 492.65 286.391 491.491 285.536C470.001 269.69 450.133 276.355 431.538 291.952C424.014 298.262 417.832 306.725 411.322 314.516C408.647 317.716 405.884 320.882 402.343 317.723C390.519 307.175 379.017 296.154 367.247 284.837Z" fill="#231F20"/>
<path d="M83.5773 239.299C81.3865 225.371 87.7941 209.501 97.856 203.362C100.865 201.526 102.99 202.918 103.881 206.34C108.283 223.25 108.964 239.841 99.2837 254.939C96.0517 259.979 92.254 264.603 88.3442 268.986C87.202 270.266 84.7811 270.059 82.9464 270.534C82.7365 268.537 82.2796 266.526 82.36 264.544C82.6932 256.323 83.1889 248.111 83.5773 239.299Z" fill="#242021"/>
</svg>
