<svg width="489" height="500" viewBox="0 0 489 500" fill="none" xmlns="http://www.w3.org/2000/svg">
<path d="M283.674 365.953C279.006 369.314 274.401 372.754 269.659 376.021C253.156 387.389 235.536 396.213 214.165 395.139C207.079 394.782 200.057 393.323 193.006 392.367C192.972 391.675 192.938 390.983 192.904 390.291C194.558 389.872 196.192 389.187 197.869 389.077C210.423 388.253 221.827 384.701 230.8 376.246C233.673 373.539 236.001 369.969 237.467 366.398C242.028 355.298 245.792 343.891 255.225 335.191C256.184 334.306 256.516 332.834 257.527 330.888C250.892 332.029 247.762 335.917 244.85 340.088C239.213 348.163 234.021 356.55 227.816 364.229C213.541 381.896 183.034 382.852 166.477 368.422C152.314 356.078 145.109 341.139 143.767 323.379C143.184 315.65 142.163 307.95 141.561 300.222C141.408 298.26 142.101 296.242 142.53 293.427C144.727 294.845 146.436 295.58 147.614 296.77C154.258 303.488 162.607 305.105 171.445 302.54C178.963 300.359 186.108 296.965 193.245 293.773C198.692 291.337 203.869 288.377 208.887 284.643C202.665 286.007 196.347 287.08 190.241 288.803C180.589 291.526 171.16 293.23 161.731 288.149C154.217 284.1 149.12 278.314 148.389 270.258C146.038 244.351 151.274 219.802 167.834 198.609C173.357 191.541 177.957 185.483 179.699 176.421C182.006 164.413 190.896 155.418 203.056 149.897C203.739 149.587 204.531 149.485 205.272 149.286C204.849 148.597 204.427 147.908 204.005 147.218C201.927 147.677 199.736 147.883 197.79 148.637C187.193 152.738 181.704 161.454 175.891 169.877C163.098 188.416 154.4 208.777 146.277 229.277C139.156 247.246 134.68 265.922 133.594 285.188C133.402 288.589 133.007 292.237 131.487 295.236C130.206 297.763 127.336 300.956 124.84 301.226C122.006 301.534 117.53 299.653 116.043 297.415C113.318 293.316 110.884 288.291 110.746 283.591C110.047 259.688 109.119 235.767 115.789 212.211C121.452 192.206 129.841 173.414 141.994 156.153C147.401 148.474 149.193 147.122 158.104 151.531C164.517 154.704 170.22 152.115 172.454 145.571C175.046 137.975 177.707 130.701 184.799 125.288C198.823 114.582 223.295 113.014 235.303 124.611C236.333 125.606 237.461 126.515 238.447 127.545C243.772 133.107 249.922 134.92 257.874 132.563C267.567 129.69 277.342 130.403 286.599 134.478C288.853 135.47 290.648 137.367 292.654 138.848C292.401 139.373 292.148 139.898 291.895 140.423C289.965 140.423 288.035 140.435 286.106 140.421C270.536 140.309 254.804 139.421 239.904 144.682C227.381 149.102 215.087 154.611 207.159 165.059C196.082 179.657 192.197 194.73 204.157 208.975C210.533 216.571 219.253 221.47 229.322 224.281C245.545 228.809 261.923 227.783 278.383 226.046C287.175 225.119 295.997 224.441 305.073 222.406C298.96 221.665 292.863 220.477 286.729 220.28C275.608 219.922 264.462 220.28 253.331 220.101C243.366 219.942 234.058 217.665 225.448 212.658C215.813 207.054 211.702 198.869 211.726 188.769C211.776 168.453 225.81 154.4 248.277 153.229C245.645 155.023 243.064 156.885 240.374 158.6C229.716 165.391 225.308 181.766 231.448 192.271C235.716 199.574 243.282 203.202 251.316 204.254C263.712 205.879 276.345 206.119 288.893 206.505C299.898 206.844 310.926 206.576 321.164 206.576C322.616 205.677 324.035 204.057 325.157 204.219C336.026 205.788 345.06 214.117 346.749 224.498C347.12 226.782 345.3 229.375 344.489 231.826C342.005 231.062 339.04 230.852 337.133 229.422C332.722 226.115 329.049 221.955 324.62 218.674C322.533 217.127 319.395 216.808 316.176 216.684C324.288 219.351 326.623 226.463 330.836 231.996C335.81 238.529 342.66 239.582 350.534 238.541C368.682 236.143 385.747 239.054 400.691 249.157C409.949 255.416 414.951 264.465 415.293 275.229C415.567 283.851 409.881 289.503 400.71 290.419C398.7 290.619 396.536 290.753 394.62 290.288C384.375 287.804 374.38 289.551 364.415 291.629C362.817 291.962 361.431 293.177 359.947 293.984C361.057 295.265 361.974 296.763 363.31 297.789C369.287 302.381 375.634 306.584 381.328 311.453C384.099 313.823 386.087 317.18 387.797 320.383C390.712 325.846 390.925 331.492 386.446 336.41C382.025 341.263 375.951 342.294 369.691 340.781C362.173 338.963 354.791 336.61 347.445 334.233C339.475 331.655 337.434 332.587 334.828 340.033C332.049 347.974 330.173 355.744 333.101 364.179C336.878 375.063 340.914 378.371 353.422 378.59C361.298 378.727 369.179 378.587 377.058 378.582C378.17 378.582 379.578 378.249 380.338 378.747C382.419 380.11 384.228 381.834 386.144 383.415C384.391 385.073 382.734 388.048 380.868 388.166C371.839 388.739 362.745 388.803 353.694 388.507C349.502 388.37 345.356 387.002 341.19 386.191C328.175 383.658 321.306 374.901 316.254 364.526C311.926 355.639 309.798 346.258 309.404 336.45C309.314 334.19 307.004 332.007 305.716 329.789C303.528 331.678 299.587 333.495 299.494 335.471C299.251 340.584 299.655 346.167 301.716 350.831C305.14 358.581 305.364 358.044 299.708 364.792C291.301 374.822 282.609 384.823 275.826 395.792C271.334 403.057 269.639 411.915 267.319 420.211C265.687 426.043 263.821 428.197 257.759 428.153C236.737 427.998 219.175 419.934 203.572 407.475C203.225 407.198 203.21 406.559 202.646 404.997C236.547 404.637 266.068 396.303 284.038 366.556C284.051 366.079 283.863 366.016 283.674 365.953ZM270.925 283.514C259.829 285.186 253.327 292.82 247.312 300.342C238.272 311.647 230.329 323.705 221.588 335.225C216.41 342.049 209.344 346.584 200.301 348.286C183.332 351.481 172.084 342.224 174.32 327.344C175.73 317.962 181.34 316.974 189.156 315.644C194.628 314.712 198.387 318.158 201.256 325.009C201.938 326.638 204.407 329.235 204.962 329.014C207.305 328.081 210.713 326.503 211.068 324.706C212.827 315.784 210.64 307.072 197.29 306.268C194.704 306.112 192.081 306.05 189.505 306.258C166.084 308.146 156.26 322.347 159.895 342.629C161.793 353.219 170.389 361.15 181.181 361.626C192.051 362.106 203.678 361.609 212.447 354.881C220.291 348.861 227.122 341.414 233.195 333.769C238.292 327.352 241.282 319.525 245.869 312.709C252.556 302.772 259.969 293.291 270.05 285.939C270.852 285.353 271.202 284.231 271.707 283.272C271.707 283.272 271.772 283.367 270.925 283.514ZM191.094 259.526C175.19 259.198 168.535 251.938 171.523 238.175C172.825 232.174 175.652 229.212 182.078 228.75C195.566 227.779 196.804 227.778 200.289 239.598C200.436 240.096 200.34 240.747 200.655 241.095C201.859 242.427 203.185 243.665 204.465 244.938C205.673 243.564 207.506 242.357 207.986 240.79C210.748 231.789 206.37 224.795 196.608 222.087C183.329 218.402 168.954 223.592 162.314 234.742C156.866 243.891 159.058 252.595 165.615 260.287C171.568 267.271 179.184 273.279 189.414 270.136C200.382 266.767 210.944 262.031 221.268 257.136C231.896 252.097 242.09 246.418 254.779 248.902C255.683 249.079 256.748 248.547 257.738 248.345C257.832 247.851 257.926 247.357 258.02 246.862C255.793 246.267 253.595 245.294 251.333 245.141C241.112 244.447 232.431 249.297 223.117 252.017C212.942 254.987 202.465 257.062 191.094 259.526ZM308.151 235.653C309.174 235.122 310.197 234.591 311.221 234.06C310.337 233.32 309.448 231.941 308.571 231.947C304.158 231.982 299.75 232.418 295.337 232.638C289.067 232.951 285.588 236.649 283.754 241.596C281.888 246.628 282.713 251.742 287.121 255.369C289.039 256.948 292.328 257.084 294.994 257.875C295.103 255.667 295.796 253.317 295.223 251.274C292.17 240.382 295.611 235.793 308.151 235.653ZM341.167 279.427C347.922 288.783 356.733 290.739 364.567 284.726C358.622 281.44 352.697 278.043 346.622 274.9C345.22 274.174 343.299 274.317 341.618 274.06C341.369 275.624 341.121 277.187 341.167 279.427Z" fill="#231F20"/>
<path d="M424.363 28.517C432.707 40.4115 440.511 52.2339 444.051 65.8062C450.008 88.6456 435.09 113.556 404.938 116.688C384.743 118.787 366.903 114.357 349.667 105.287C330.001 94.9394 313.196 81.2478 296.248 67.5551C270.957 47.1227 245.517 26.7815 214.513 13.7229C201.868 8.39676 189.066 6.42382 175.155 7.5076C165.37 8.26998 156.712 9.86208 149.174 16.1336C141.448 22.5606 138.985 30.3172 140.94 39.4098C142.192 45.2332 147.28 48.4645 153.783 47.2434C174.638 43.3266 194.518 46.0067 212.927 55.5344C229.776 64.2542 241.563 77.1864 245.21 95.396C246.562 102.148 247.587 108.982 248.197 115.822C248.378 117.847 246.633 120.021 245.771 122.127C243.478 121.283 240.756 120.915 238.965 119.516C230.597 112.979 221.64 107.936 210.51 106.51C199.618 105.115 189.126 109.274 183.498 117.981C181.876 120.491 180.567 123.182 178.872 125.646C175.113 131.112 170.657 135.74 163.402 137.392C153.13 139.731 144.221 144.43 136.236 153.242C135.708 150.078 134.976 148.348 135.224 146.749C137.006 135.21 137.523 123.637 133.384 112.53C131.387 107.172 128.395 101.566 124.18 97.6178C116.845 90.7454 102.291 91.72 93.7197 98.5141C90.97 100.694 88.34 103.004 84.1729 105.137C84.4194 102.729 84.0041 100.043 85.0175 97.9574C92.9181 81.698 103.5 66.9333 119.517 56.9801C127.288 52.1511 131.711 48.9161 130.117 39.0206C128.982 31.977 132.072 23.5501 135.644 16.8299C141.091 6.58076 152.189 2.09557 163.761 0.730283C184.006 -1.65853 203.339 1.88286 221.833 10.3315C247.337 21.9827 271.071 36.0982 293.541 52.2031C310.513 64.3677 326.695 77.682 346.487 85.9785C354.233 89.2253 362.222 92.0669 370.327 94.413C372.784 95.1242 376.843 94.4425 378.735 92.8884C390.249 83.4285 401.472 73.6522 412.549 63.7455C421.927 55.3587 424.225 42.4239 418.971 31.3378C417.253 27.7134 415.969 23.9108 414.487 20.1897C415.021 19.9172 415.555 19.6448 416.089 19.3723C418.78 22.3142 421.47 25.2562 424.363 28.517Z" fill="#231F20"/>
<path d="M333.257 151.689C343.115 152.826 352.502 153.684 361.784 155.121C368.529 156.165 369.329 158.461 365.591 163.644C362.323 168.174 363.499 172.105 369.626 174.887C377.272 178.36 385.287 181.133 392.914 184.638C411.442 193.153 421.476 208.105 408.809 226.422C407.707 228.016 406.716 229.68 405.559 231.239C400.617 237.894 398.921 238.331 390.766 235.761C388.336 234.995 385.72 234.749 383.195 234.24C376.103 232.808 375.314 231.911 375.346 225.238C375.359 222.49 375.611 219.734 375.454 216.996C374.284 196.586 363.193 185.298 341.305 183.05C329.182 181.805 316.913 181.806 304.779 180.631C299.847 180.153 294.629 178.787 290.391 176.475C285.763 173.951 285.321 169.006 287.063 164.419C288.79 159.872 293.294 159.72 297.341 160.24C301.994 160.837 306.522 162.272 311.846 163.516C311.66 160.873 311.927 158.438 311.24 156.264C309.994 152.328 312.18 150.948 315.591 150.938C321.307 150.923 327.024 151.392 333.257 151.689Z" fill="#231F20"/>
<path d="M69.7725 130.747C77.6637 122.072 85.0415 113.465 93.0672 105.416C95.5135 102.963 99.5705 101.433 103.191 100.552C112.36 98.3211 117.505 102.574 118.149 111.395C119.02 123.339 113.597 133.61 108.824 144.027C100.681 161.795 87.3189 176.145 72.4586 189.189C67.9512 193.145 61.6244 195.836 55.623 197.659C47.83 200.026 42.8588 195.839 42.3389 188.335C41.7031 179.156 45.3514 170.995 49.6277 163.265C55.7148 152.261 62.8313 141.75 69.7725 130.747Z" fill="#231F20"/>
<path d="M262.838 154.511C267.783 154.37 272.285 154.37 277.352 154.37C276.774 156.238 276.612 157.428 276.062 158.434C271.7 166.406 275.556 172.937 282.541 178.35C288.373 182.87 295.4 184.903 303.153 184.991C315.181 185.128 327.331 184.764 339.183 186.283C346.429 187.211 353.535 190.714 360.118 194.058C367.658 197.888 371.144 204.498 370.873 212.631C370.757 216.079 370.844 219.539 370.566 222.974C370.219 227.268 367.507 229.9 363.091 230.917C359.074 231.842 355.621 230.78 353.495 227.428C351.55 224.361 349.292 221.204 348.494 217.817C346.111 207.701 337.595 204.21 328.643 201.834C316.362 198.575 303.786 200.082 291.239 201.272C275.807 202.735 260.949 200.456 247.295 193.149C243.353 191.039 241.132 187.861 240.714 183.548C240.028 176.462 240.663 169.282 245.506 163.85C248.704 160.263 254.221 158.446 258.757 155.927C259.852 155.319 261.176 155.068 262.838 154.511Z" fill="#231F20"/>
<path d="M130.611 374.987C130.492 376.123 130.422 376.81 130.393 377.5C130.11 384.289 130.156 383.811 122.994 383.238C118.34 382.866 113.419 383.719 108.835 384.812C105.616 385.58 104.169 384.996 103.794 382.17C100.989 361.025 92.4257 340.551 94.8283 318.83C95.502 312.74 97.5706 306.772 99.199 300.795C99.5044 299.674 100.759 298.777 102.104 297.128C103.682 300.031 104.783 302.143 105.965 304.215C110.266 311.752 117.088 315.334 126.091 314.076C129.404 313.613 131.142 314.529 132.059 317.063C134.064 322.607 135.887 328.21 137.689 333.816C139.891 340.671 139.102 347.378 136.794 354.135C134.496 360.86 132.698 367.732 130.611 374.987Z" fill="#231F20"/>
<path d="M34.4437 193.422C34.9198 195.151 35.236 196.502 35.7228 197.798C39.9496 209.051 43.4702 210.605 55.496 206.619C56.6442 206.238 57.8579 206.028 60.8636 205.294C58.8252 211.726 57.609 217.182 55.3872 222.257C49.8917 234.807 47.7239 247.695 49.785 261.104C50.3441 264.742 49.5228 266.445 45.2499 266.905C42.2765 267.225 39.2329 268.447 36.6203 269.892C31.4508 272.75 27.871 272.234 22.375 267.365C18.5039 263.935 19.1947 259.635 21.6312 256.606C28.3851 248.209 29.986 238.605 29.9533 228.775C29.9149 217.28 28.6807 205.792 28.1641 194.293C28.0474 191.695 28.7512 189.064 29.0773 186.448C29.7124 186.324 30.3475 186.2 30.9826 186.076C32.1094 188.39 33.2361 190.704 34.4437 193.422Z" fill="#242021"/>
<path d="M373.603 397.711C375.537 400.711 377.969 403.375 378.504 406.335C379.683 412.865 382.328 418.469 387.102 423.344C392.427 428.782 391.773 431.483 384.928 435.456C379.728 438.474 373.148 440.077 371.167 446.711C370.979 447.341 367.754 448.034 366.743 447.464C360.761 444.092 354.851 440.563 349.235 436.688C342.153 431.802 341.276 424.672 342.02 417.138C343.24 404.799 360.442 393.976 373.603 397.711Z" fill="#231F20"/>
<path d="M455.309 498.832C442.51 498.645 442.019 500.753 438.395 487.24C437.413 483.578 436.077 479.935 435.686 476.211C434.981 469.508 440.611 465.645 447.157 468.521C452.79 470.996 457.887 471.094 463.65 468.956C470.662 466.354 477.16 468.26 482.624 472.86C488.154 477.516 489.885 483.545 488.593 490.218C487.504 495.838 481.421 498.02 477.149 494.282C474.143 491.653 471.984 492.493 468.847 494.084C464.786 496.144 460.19 497.289 455.309 498.832Z" fill="#242021"/>
<path d="M394.043 466.568C392.006 467.806 390.346 468.93 388.524 469.735C382.955 472.193 376.738 468.926 376.638 463.144C376.571 459.25 377.015 455.164 378.271 451.47C382.556 438.869 394.798 438.995 404.648 443.26C411.633 446.286 417.824 450.866 424.692 454.172C430.07 456.761 435.988 458.365 441.562 460.629C442.784 461.126 443.566 462.562 444.551 463.565C443.322 464.057 442.137 464.81 440.856 464.996C436.361 465.646 431.844 466.369 427.313 466.528C424.756 466.617 421.826 466.207 419.633 465.07C410.812 460.499 402.453 460.148 394.043 466.568Z" fill="#231F20"/>
<path d="M392.312 482.651C391.731 470.947 397.06 466.099 409.213 466.789C421.939 467.511 432.533 477.433 432.105 487.873C431.837 494.417 425.661 500.281 418.408 499.99C406.067 499.494 396.803 493.838 392.312 482.651Z" fill="#231F20"/>
<path d="M388.539 307.072C387.608 303.112 386.87 299.515 386.059 295.565C388.42 295.23 389.824 294.606 390.857 294.949C401.689 298.547 413.537 299.957 422.364 307.9C426.329 311.468 427.306 315.373 425.444 320.063C421.935 328.901 416.617 336.343 406.829 340.029C405.207 340.64 401.9 340.695 401.428 339.921C400.533 338.455 400.49 335.932 401.264 334.341C402.287 332.238 404.619 330.724 406.049 328.744C407.45 326.805 408.598 324.66 409.487 322.474C409.762 321.798 409.08 320.294 408.37 319.905C407.724 319.551 406.128 319.888 405.496 320.451C400.765 324.667 397.818 321.709 395.33 318.187C392.898 314.745 390.913 311.031 388.539 307.072Z" fill="#242021"/>
<path d="M120.252 138.216C121.959 133.636 123.588 129.457 125.217 125.278C126.169 125.401 127.121 125.524 128.073 125.646C128.333 128.307 129.222 131.069 128.751 133.613C125.334 152.06 121.702 170.473 117.943 188.863C117.576 190.659 116.023 193.508 114.796 193.614C112.586 193.804 109.973 192.624 107.945 191.412C103.868 188.976 100.08 186.121 96.1546 183.461C92.0306 180.667 94.724 178.172 96.4836 175.581C103.552 165.174 110.635 154.775 117.599 144.308C118.749 142.579 119.33 140.523 120.252 138.216Z" fill="#242021"/>
<path d="M371.371 347.81C379.051 344.204 386.24 345.98 392.912 349.002C394.778 349.848 396.01 353.491 396.047 355.87C396.1 359.308 393.491 360.158 390.264 358.389C389.481 357.96 388.839 357.301 388.155 356.724C380.608 350.363 374.118 352.066 371.42 361.12C369.109 368.877 365.54 372.423 357.78 372.331C351.1 372.252 344.377 370.509 341.015 364.152C338.214 358.856 336.08 353.092 339.19 347.395C340.498 344.998 343.942 341.685 345.892 341.963C348.887 342.39 351.471 345.513 354.126 347.605C354.59 347.97 354.516 348.902 354.744 349.556C357.137 356.437 360.724 357.317 366.273 352.383C367.879 350.954 369.46 349.501 371.371 347.81Z" fill="#242021"/>
<path d="M117.723 391.412C126.663 392.902 133.311 397.097 137.947 403.725C139.155 405.451 139.809 408.705 138.841 410.219C137.871 411.735 134.596 412.099 132.247 412.669C131.276 412.904 129.964 412.587 129.017 412.137C123.257 409.398 117.706 409.87 111.402 411.144C105.925 412.252 99.7411 410.835 93.9666 409.971C90.5474 409.46 90.8995 403.467 94.3813 400.347C100.777 394.616 108.35 391.51 117.723 391.412Z" fill="#231F20"/>
<path d="M293.709 421.379C293.64 425.581 294.214 429.76 288.343 430.333C282.603 430.893 279.349 428.757 278.419 423.04C276.462 411.008 280.01 399.836 285.779 389.269C289.174 383.049 292.661 376.644 299.142 372.59C300.906 371.486 303.56 371.615 305.806 371.177C305.482 373.264 305.748 375.651 304.727 377.382C301.458 382.926 297.331 388.046 294.238 393.664C289.349 402.544 291.933 411.806 293.709 421.379Z" fill="#242021"/>
<path d="M334.176 420.059C333.566 424.364 332.856 428.65 327.659 428.815C322.484 428.978 318.532 425.934 317.951 421.151C317.241 415.293 316.943 409.2 317.89 403.41C319.064 396.23 328.948 392.108 336.289 394.967C339.968 396.4 341.124 398.695 339.743 402.43C337.653 408.083 336.037 413.888 334.176 420.059Z" fill="#242021"/>
<path d="M28.3856 298.277C27.4501 293.112 26.0699 288.252 26.2575 283.445C26.4239 279.183 29.9465 276.29 34.5865 275.541C39.3485 274.772 43.4569 276.401 46.1664 280.14C49.7226 285.047 50.9869 290.604 49.7708 296.413C48.4916 302.524 39.774 305.271 32.9111 301.81C31.3254 301.01 30.0442 299.688 28.3856 298.277Z" fill="#231F20"/>
<path d="M79.7101 417.482C83.6208 416.171 87.2039 414.613 90.911 414.291C95.7159 413.874 100.178 418.465 100.241 423.038C100.276 425.611 100.35 428.198 100.129 430.758C99.6184 436.667 94.4797 441.233 88.1201 441.618C82.2423 441.973 78.5282 438.761 76.9175 432.38C75.5923 427.129 75.4362 422.18 79.7101 417.482Z" fill="#231F20"/>
<path d="M311.898 381.849C316.408 380.168 318.766 382.583 318.952 385.6C319.16 388.978 318.553 392.896 316.795 395.787C312.126 403.467 308.702 411.175 310.533 420.215C310.765 421.363 310.944 422.974 310.291 423.729C308.834 425.415 306.985 427.544 305.005 427.846C303.67 428.049 300.575 425.537 300.449 424.076C299.872 417.432 299.196 410.608 300.245 404.085C301.209 398.099 304.101 392.325 306.639 386.65C307.471 384.789 309.855 383.529 311.898 381.849Z" fill="#242021"/>
<path d="M110.158 423.314C115.059 418.837 119.633 418.175 125.016 420.332C130.78 422.642 130.362 427.209 130.103 431.638C129.974 433.832 129.056 435.994 128.432 438.155C127.227 442.325 124.971 445.526 119.707 445.33C114.816 445.148 109.712 441.298 109.314 436.759C108.936 432.434 109.673 428.023 110.158 423.314Z" fill="#242021"/>
<path d="M18.6846 295.941C14.2645 296.191 10.0497 296.962 6.25725 296.108C0.25612 294.758 -2.14144 287.485 2.26013 282.131C5.13183 278.639 9.97482 275.925 14.5243 274.548C16.4154 273.976 20.596 277.311 22.4004 279.731C25.3764 283.722 23.2039 291.934 18.6846 295.941Z" fill="#242021"/>
<path d="M55.7002 280.115C58.165 275.506 63.0953 274.357 67.2285 278.81C71.196 283.085 73.9124 288.928 75.357 294.491C76.5725 299.172 72.7163 302.022 67.9012 301.871C62.9902 301.716 58.4903 297.747 58.055 293.789C57.5635 289.321 56.5287 284.905 55.7002 280.115Z" fill="#231F20"/>
<path d="M283.779 366.039C283.862 366.017 284.051 366.079 284.169 366.218C284.097 366.295 283.885 366.124 283.779 366.039Z" fill="black"/>
<path d="M271.769 283.365C271.772 283.367 271.708 283.272 271.735 283.315C271.763 283.358 271.765 283.362 271.769 283.365Z" fill="black"/>
</svg>
