<svg width="447" height="500" viewBox="0 0 447 500" fill="none" xmlns="http://www.w3.org/2000/svg">
<path d="M157.002 55.3898C155.722 60.8373 156.113 61.4965 161.752 61.4205C172.149 61.2806 182.483 61.3664 192.59 64.3923C193.906 64.7861 195.634 63.9094 197.143 63.5123C198.221 63.2284 199.387 62.2363 200.28 62.4667C204.513 63.5592 205.524 61.1368 205.388 57.8542C205.153 52.1618 204.386 46.4856 204.299 40.7957C204.26 38.2943 204.715 35.3698 206.032 33.3428C209.663 27.7526 210.292 23.3209 206.536 18.0471C198.646 6.96643 187.515 1.34842 174.164 0.238892C169.106 -0.181476 163.904 -0.0436663 158.873 0.625441C145.492 2.40506 138.906 14.5672 137.997 25.8813C137.412 33.1654 138.164 40.5768 138.587 47.9156C138.908 53.4812 136.764 56.9641 131.916 60.0551C121.473 66.713 110.22 72.4586 103.437 83.6308C102.684 84.8714 100.863 85.5065 99.4708 86.3082C94.9403 88.9177 90.0713 91.0561 85.8922 94.1353C76.3062 101.198 74.4701 111.608 74.6669 122.672C74.9474 138.444 75.2012 154.217 75.5715 169.987C75.6451 173.121 76.0957 176.259 76.5477 179.369C77.0634 182.916 78.6754 185.554 82.6678 186.046C83.4362 186.141 84.1341 186.81 85.3381 187.476C84.366 188.003 83.9118 188.413 83.4017 188.501C77.4407 189.535 76.1337 191.318 76.4551 197.476C76.8381 204.816 77.1565 212.163 77.3139 219.51C77.6866 236.908 80.8485 253.864 85.8882 270.426C88.1065 277.716 88.4743 284.325 84.8579 291.244C81.8032 297.089 81.6339 303.532 84.2281 309.561C85.2758 311.995 87.7533 314.363 90.1684 315.433C91.3992 315.977 93.9319 313.582 96.2431 312.314C95.9732 315.575 95.8923 319.218 95.3327 322.786C93.9666 331.496 92.8576 340.29 90.7462 348.828C88.6199 357.426 84.0321 364.963 77.1132 370.693C66.177 379.751 61.7042 392.331 58.4226 405.329C55.1217 418.404 52.7614 431.717 50.0356 444.935C47.8324 455.619 43.4691 465.582 35.7401 473.022C26.9696 481.465 17.4557 489.595 4.10248 490.369C2.66666 490.453 1.36436 492.836 3.76845e-05 494.152C1.36304 495.469 2.55463 497.6 4.1255 497.931C7.1572 498.57 10.4077 498.1 13.5594 498.254C25.0967 498.817 36.6247 499.669 48.168 499.983C57.7681 500.244 60.4148 497.613 60.1101 488.042C59.7595 477.028 61.2921 466.507 66.1431 456.537C68.6483 451.387 72.6969 448.041 77.2506 444.566C89.6589 435.097 98.221 422.747 100.764 406.93C101.595 401.76 101.7 396.456 102.776 391.349C103.302 388.854 104.741 385.9 106.718 384.471C117.329 376.803 125.987 367.844 129.573 354.793C133.776 339.494 140.962 326.07 152.182 314.423C160.345 305.951 165.612 295.206 166.13 282.975C166.223 280.78 165.044 277.8 163.412 276.377C148.371 263.262 143.748 247.499 149.763 228.495C151.423 223.251 152.852 221.771 156.748 221.57C156.748 222.426 156.827 223.275 156.736 224.105C155.856 232.12 154.628 240.113 154.134 248.151C153.588 257.029 157.617 263.808 165.313 268.252C168.424 270.048 170.632 272.253 170.247 276.091C169.112 287.396 174.425 296.189 181.532 304.04C195.924 319.94 210.447 335.724 225.146 351.34C236.142 363.022 244.26 375.98 245.394 392.432C246.095 402.59 251.284 410.842 257.712 417.929C264.32 425.214 272.01 431.609 279.73 437.761C285.508 442.365 285.879 441.908 288.176 435.151C288.312 434.752 288.686 434.434 289.81 432.913C290.33 435.484 291.245 437.274 290.9 438.773C289.434 445.12 290.706 450.955 293.366 456.682C297.137 464.799 299.467 473.204 299.472 482.295C299.475 489.374 303.302 492.34 310.731 491.781C321.05 491.004 331.351 489.822 341.683 489.429C347.944 489.191 354.249 490.113 360.535 490.517C362.027 490.613 364.016 491.374 364.912 490.692C366.992 489.111 369.628 487.036 370.043 484.792C370.595 481.811 367.819 480.501 364.684 480.189C346.403 478.367 332.069 469.375 320.266 455.667C312.361 446.485 305.991 436.347 301.975 424.999C298.378 414.834 296.396 404.09 292.688 393.972C290.002 386.639 285.947 379.743 281.963 372.97C279.012 367.954 275.079 363.526 271.825 358.674C270.708 357.008 269.62 354.815 269.72 352.926C270.203 343.812 268.043 335.958 261.612 329.041C255.558 322.528 253.004 314.131 251.062 305.516C245.987 283.007 235.122 263.336 220.999 245.304C219.826 243.806 218.623 242.014 218.315 240.208C216.417 229.081 210.865 220.069 202.687 212.573C194.354 204.935 191.037 196.313 194.071 184.741C196.134 176.873 195.625 168.351 196.528 160.15C196.847 157.255 197.21 153.925 198.804 151.685C205.989 141.596 206.268 130.254 205.05 118.803C203.907 108.048 204.498 107.245 215.429 108.613C223.166 109.581 230.876 109.573 238.206 106.029C242.207 104.094 244.414 101.079 245.377 96.8397C245.803 94.9666 246.726 93.2065 247.423 91.3952C247.912 91.4555 248.401 91.516 248.891 91.5764C249.132 92.9062 249.604 94.2448 249.555 95.5637C249.493 97.1934 249.085 98.829 248.675 100.423C246.788 107.77 247.249 108.002 254.93 108.458C274.23 109.605 292.834 105.491 311.558 101.839C320.815 100.033 330.204 98.5501 339.232 103.765C342.11 105.428 343.578 107.084 343.548 110.321C343.482 117.539 343.598 124.76 343.505 131.978C343.438 137.203 342.634 137.702 337.555 136.663C328.897 134.893 320.258 134.003 312.183 138.817C308.206 141.188 304.363 143.791 300.499 146.347C292.434 151.681 283.871 150.989 276.407 144.739C274.952 143.52 272.566 143.414 270.61 142.795C270.641 144.927 269.913 147.509 270.857 149.1C273.054 152.805 275.909 156.163 278.784 159.408C280.67 161.537 280.683 163.405 279.752 165.95C270.584 191.033 261.569 216.171 252.422 241.262C250.714 245.948 246.914 250.437 250.754 255.547C253.782 259.578 256.991 263.582 260.687 266.981C271.287 276.73 284.418 274.659 297.119 274.039C305.275 273.64 310.845 268.633 315.782 262.753C317.134 261.142 318.3 259.364 319.744 257.846C323.901 253.473 324.325 249.206 321.251 243.69C318.437 238.641 317.065 232.786 315.077 227.28C308.354 208.665 301.716 190.019 294.861 171.453C293.378 167.434 294.305 165.98 298.488 165.036C303.695 163.86 308.732 161.84 313.754 159.951C321.407 157.072 329.26 156.845 336.583 159.978C339.756 161.336 341.697 165.534 344.259 168.386C345.097 169.319 346.024 170.382 347.125 170.757C347.537 170.897 348.808 169.365 349.262 168.396C352.925 160.571 360.333 155.068 369.708 157.869C374.576 159.324 379.49 160.637 384.413 161.895C388.013 162.814 391.628 163.821 395.3 164.279C399.974 164.862 400.73 165.52 399.272 169.906C394.631 183.869 389.928 197.811 385.172 211.736C381.144 223.525 376.861 235.23 373.06 247.091C372.368 249.249 372.874 252.224 373.808 254.402C380.785 270.682 401.55 277.254 415.83 274.884C429.529 272.611 439.44 265.179 445.755 252.859C446.913 250.601 447.784 248.608 445.085 246.559C443.914 245.67 443.372 243.799 442.82 242.274C433.574 216.73 424.398 191.16 415.123 165.626C414.064 162.71 414.602 160.635 416.679 158.317C419.667 154.982 422.364 151.336 424.779 147.563C425.555 146.351 425.046 144.317 425.125 142.659C423.694 143.241 422.14 143.63 420.857 144.445C417.845 146.358 415.142 148.827 411.992 150.445C403.038 155.045 396.153 150.332 389.697 144.808C380.305 136.772 369.489 134.113 357.44 135.85C352.04 136.628 351.718 136.454 351.69 131.058C351.653 124.14 351.759 117.22 351.678 110.303C351.637 106.904 353.023 105.48 356.427 104.458C360.292 103.298 364.673 101.51 367.16 98.5792C373.026 91.667 368.414 80.1616 359.25 78.7234C354.246 77.938 348.637 77.95 343.857 79.4161C332.89 82.7796 322.247 82.1797 311.536 79.1045C295.142 74.3974 278.551 75.6252 261.91 77.0243C258.236 77.3333 254.487 77.0164 250.791 76.7447C241.526 76.0637 232.171 75.8489 223.038 74.3291C211.064 72.3362 199.316 69.0191 187.378 66.7598C180.321 65.4242 173.099 64.6105 165.926 64.4015C162.604 64.3048 159.228 66.227 155.867 67.2034C154.645 67.5588 153.396 67.8259 152.159 68.1334C152.099 66.7485 151.595 65.1856 152.065 64.0136C153.234 61.0988 154.847 58.3621 156.602 55.0094C158.896 49.7857 160.58 44.9497 162.978 40.4989C164.039 38.5311 166.326 36.5669 168.445 35.9636C172.86 34.706 176.981 33.5817 179.652 29.3366C180.284 28.3327 182.357 28.2357 183.767 27.7213C183.476 29.4488 183.79 32.0235 182.781 32.744C179.809 34.8652 176.429 37.3284 172.998 37.6962C166.19 38.4265 163.267 42.4562 161.058 48.0552C160.041 50.6324 158.374 52.9529 157.002 55.3898ZM306.313 226.392C308.037 231.335 309.687 236.306 311.508 241.213C313.263 245.943 312.526 247.211 307.484 247.33C293.388 247.664 279.292 247.974 265.194 248.25C257.987 248.391 257.682 247.853 260.186 240.833C266.628 222.777 272.996 204.696 279.47 186.652C281.422 181.211 283.626 175.859 285.714 170.467C286.144 170.424 286.574 170.38 287.003 170.337C293.353 188.801 299.702 207.264 306.313 226.392ZM428.834 223.923C430.901 230.194 432.949 236.471 435.044 242.732C435.892 245.268 435.973 247.268 432.449 247.271C416.883 247.285 401.317 247.304 385.75 247.321C382.846 247.324 382.092 246.08 383.063 243.305C387.818 229.717 392.505 216.105 397.15 202.479C400.479 192.713 403.69 182.908 406.999 173.135C407.347 172.105 408.001 171.178 408.513 170.203C408.989 170.148 409.465 170.093 409.941 170.038C416.155 187.779 422.369 205.521 428.834 223.923ZM105.374 316.559C108.285 304.069 112.645 292.136 118.757 280.83C121.17 276.367 120.426 274.64 116.255 271.941C112.348 269.412 110.828 272.444 109.26 274.892C106.939 278.513 104.898 282.313 102.739 286.037C102.667 283.534 103.243 281.343 103.457 279.118C104.688 266.287 106.311 253.469 106.863 240.606C107.345 229.385 106.88 218.096 106.278 206.866C105.83 198.513 104.359 190.218 103.654 181.871C103.492 179.947 104.602 177.915 105.127 175.933C105.637 176 106.148 176.068 106.658 176.135C108.228 178.648 110.102 181.024 111.312 183.7C115.415 192.769 120.242 201.327 127.119 208.634C128.763 210.381 129.462 212.372 127.581 214.654C120.268 223.53 117.225 234.215 115.517 245.238C113.369 259.096 118.77 270.126 129.628 275.242C131.782 276.257 134.183 276.734 136.43 277.568C138.129 278.199 139.764 279.002 141.428 279.729C141.287 280.237 141.146 280.744 141.005 281.252C137.302 280.665 133.607 279.704 129.893 279.627C127.495 279.578 124.223 280.083 122.842 281.655C120.336 284.51 118.73 288.249 117.131 291.792C111.978 303.211 108.627 315.06 107.603 327.673C106.953 335.674 107.384 343.206 110.805 350.503C111.453 351.885 111.764 353.424 112.3 355.107C107.452 354.898 103.748 351.174 103.774 345.556C103.818 336.137 104.696 326.723 105.374 316.559ZM203.708 275.033C200.789 275.033 197.87 275.033 194.951 275.033C194.874 274.564 194.797 274.095 194.72 273.626C195.625 272.974 196.615 272.412 197.42 271.653C201.19 268.098 204.894 264.474 208.653 260.908C209.88 259.744 211.203 258.681 212.481 257.572C213.395 259.024 214.879 260.382 215.135 261.942C218.283 281.06 229.399 296.376 239.086 312.343C244.972 322.044 247.85 332.353 246.776 343.661C246.614 345.363 245.678 346.991 244.943 349.104C244.195 348.121 243.865 347.886 243.869 347.658C243.89 346.621 244.045 345.588 244.081 344.55C244.358 336.607 245.263 328.556 241.188 321.182C238.505 316.328 236.106 311.203 232.714 306.878C225.321 297.453 219.999 286.986 215.454 276.023C213.797 272.027 211.029 271.169 207.116 273.285C206.193 273.784 205.28 274.3 203.708 275.033ZM88.1187 379.216C92.7565 377.819 93.1514 377.897 94.9924 380.588C91.5704 381.157 88.1613 381.725 84.7522 382.293C84.6535 382.088 84.5547 381.883 84.456 381.678C85.4812 380.947 86.5066 380.216 88.1187 379.216ZM80.8885 386.629C80.6403 387.104 80.3921 387.579 80.1438 388.055C79.889 387.816 79.6342 387.577 79.3795 387.338C79.8043 387.031 80.2291 386.725 80.8885 386.629Z" fill="#231F20"/>
</svg>
