<svg width="500" height="500" viewBox="0 0 500 500" fill="none" xmlns="http://www.w3.org/2000/svg">
<path d="M311.487 104.932C290.111 103.124 269.172 100.238 248.196 99.8655C222.832 99.4152 198.501 106.432 175.451 118.237C161.993 125.13 150.004 134.62 140.575 147.429C131.678 159.513 129.354 173.735 131.41 189.059C133.665 205.862 142.371 218.739 151.952 230.983C156.961 237.383 162.699 243.075 168.08 249.118C169.277 250.462 170.357 251.937 171.49 253.351C171.38 253.908 171.269 254.465 171.158 255.021C168.986 255.021 166.813 255.069 164.642 255.012C158.305 254.847 151.913 253.963 145.644 254.596C134.395 255.733 126.947 265.868 126.227 278.359C125.126 297.442 130.657 314.543 138.757 330.62C144.736 342.484 152.158 353.448 158.923 364.822C159.587 365.938 160.157 367.122 161.172 369.029C152.925 369.347 146.102 366.552 139.358 363.682C117.899 354.548 98.9728 340.639 82.0044 323.713C73.3841 315.115 66.7198 304.299 61.2596 292.737C55.0202 279.525 48.4994 266.425 45.7707 251.633C39.5436 217.878 39.173 184.469 52.3007 152.341C58.794 136.45 69.1354 123.824 80.9665 112.449C104.657 89.6726 133.019 80.3881 163.229 76.0605C175.381 74.3197 187.847 73.864 199.601 70.4199C220.734 64.2277 238.424 51.1409 252.056 31.8473C258.652 22.5122 264.863 12.8395 271.537 3.57629C272.834 1.7753 275.462 1.16137 277.477 0C278.304 2.10059 279.618 4.13351 279.863 6.31506C280.452 11.573 280.49 16.9048 280.847 22.1987C281.258 28.2796 279.404 32.9427 274.397 35.8479C273.607 36.3062 272.994 37.1414 272.3 37.8022C272.461 38.3262 272.622 38.8502 272.783 39.3741C274.623 38.7242 276.521 38.2275 278.291 37.394C282.64 35.3461 285.187 36.1808 286.903 40.4255C288.427 44.1946 286.76 47.4942 282.565 49.3901C280.249 50.4366 278.038 51.7728 275.78 52.9785C275.92 53.3987 276.06 53.8191 276.2 54.2394C278.749 53.2724 281.282 52.2461 283.851 51.3513C288.713 49.6583 291.46 51.1066 293.37 56.1459C295.174 60.9075 293.741 64.0042 289.575 65.8788C288.706 66.2701 287.946 66.9636 287.002 68.1242C293.974 65.631 300.32 65.1417 303.831 73.8598C306.499 80.4843 299.667 80.0562 297.281 84.5417C300.005 83.9035 301.897 83.4756 303.783 83.0136C305.5 82.5931 307.422 81.365 308.875 81.8624C311.522 82.7685 315.332 84.1669 315.965 86.3333C316.589 88.4721 313.883 91.8154 312.429 95.1032C314.999 95.1032 318.483 94.949 321.953 95.1338C330.29 95.5776 337.261 99.8918 343.704 105.313C345.029 106.429 345.582 108.68 346.491 110.408C344.636 110.908 342.654 112.149 340.946 111.787C331.231 109.725 321.58 107.282 311.487 104.932Z" fill="#231F20"/>
<path d="M446.659 224.768C453.072 239.802 455.858 255.32 456.84 271.466C457.858 288.198 458.306 304.91 455.057 321.313C447.879 357.553 428.244 383.294 399.851 401.88C381.088 414.163 360.617 419.585 339.512 423.056C326.752 425.155 313.744 425.837 301.183 428.874C286.226 432.49 272.901 440.55 261.238 451.879C247.899 464.835 238.057 481.016 227.274 496.351C226.145 497.956 224.145 498.802 222.549 500C221.58 498.058 220.029 496.212 219.755 494.155C219.033 488.722 218.769 483.204 218.501 477.708C218.196 471.441 220.605 466.797 225.558 463.678C227.076 462.722 228.323 461.232 229.694 459.986C229.473 459.594 229.251 459.203 229.03 458.811C226.494 460.081 224 461.47 221.412 462.594C217.067 464.481 214.478 463.258 212.628 458.331C211.126 454.331 213.831 452.657 216.326 451.066C218.64 449.592 221.024 448.256 223.11 445.788C220.963 446.468 218.81 447.126 216.67 447.834C210.856 449.758 207.909 448.507 206.088 443.309C204.302 438.212 205.523 435.731 211.287 432.86C211.973 432.518 212.738 432.371 213.262 431.203C211.107 431.872 208.951 432.536 206.798 433.214C201.906 434.755 193.87 427.174 195.401 421.98C196.06 419.742 198.835 418.274 201.286 415.819C199.304 416.14 197.76 416.438 196.205 416.632C193.369 416.986 190.38 418.01 187.737 417.352C185.843 416.881 183.917 414.386 183.002 412.262C182.611 411.357 184.675 409.018 185.793 407.484C186.348 406.722 187.285 406.306 189.053 404.982C185.584 404.982 183.249 404.989 180.914 404.981C170.797 404.948 162.522 399.662 154.705 393.312C153.778 392.559 153.076 389.909 153.564 388.972C154.105 387.933 156.261 387.172 157.489 387.464C164.958 389.236 172.274 392.185 179.807 393.175C199.258 395.731 218.772 397.838 238.306 399.443C261.793 401.374 284.694 397.307 306.971 389.019C326.299 381.827 343.929 371.442 357.678 354.145C367.064 342.338 370.015 328.348 368.592 313.044C366.948 295.357 358.007 281.694 347.958 268.886C342.735 262.228 336.759 256.302 331.151 250.016C329.949 248.668 328.864 247.19 327.725 245.772C327.837 245.255 327.949 244.738 328.061 244.221C329.557 244.221 331.06 244.113 332.547 244.241C338.257 244.731 343.962 245.75 349.668 245.745C363.944 245.735 373.465 234.927 373.953 218.988C374.378 205.118 370.568 192.309 365.775 179.905C360.158 165.369 353.311 151.541 343.555 139.76C342.272 138.21 341.225 136.342 340.38 134.45C339.869 133.306 339.959 131.83 339.779 130.503C340.96 130.411 342.199 130.012 343.313 130.273C356.704 133.409 369.413 138.85 380.9 146.951C393.9 156.12 407.08 165.378 418.589 176.617C426.155 184.007 431.17 194.775 436.816 204.402C440.523 210.722 443.318 217.705 446.659 224.768Z" fill="#231F20"/>
<path d="M285.727 126.275C293.622 125.528 301.086 124.734 308.563 124.151C314.245 123.708 318.648 126.304 322.254 131.262C332.364 145.16 339.371 161.2 340.861 178.537C342.34 195.73 339.61 212.943 325.454 224.924C319.267 230.16 313.531 235.819 305.335 235.82C294.589 235.822 284.38 232.562 275.245 226.567C266.782 221.013 258.951 214.237 251.041 207.7C249.596 206.506 249.107 203.879 248.176 201.914C249.847 201.208 251.468 200.196 253.197 199.852C259.145 198.666 265.152 197.844 271.097 196.639C277.963 195.246 278.966 193.757 275.874 186.691C273.105 180.366 269.571 174.296 265.587 168.824C259.675 160.703 253.21 153.057 246.694 145.515C243.655 141.997 244.064 140.263 247.823 138.116C259.627 131.373 272.243 128.02 285.727 126.275Z" fill="#231F20"/>
<path d="M248.922 299.538C241.771 300.627 234.967 301.511 228.181 302.537C222.181 303.444 220.887 305.216 223.432 311.217C226.262 317.892 229.578 324.506 233.671 330.278C239.58 338.611 246.363 346.179 252.805 354.04C256.047 357.996 255.937 358.776 251.596 361.424C238.428 369.455 223.88 371.798 209.32 373.894C203.485 374.734 197.529 374.479 191.667 375.142C184.171 375.99 179.338 371.983 175.392 365.471C167.838 353.006 161.178 339.953 159.553 324.869C157.64 307.119 158.749 289.595 172.074 276.83C179.034 270.163 185.947 261.419 196.344 263.03C204.236 264.253 212.118 267.091 219.481 270.579C227.206 274.238 234.521 279.161 241.591 284.261C245.105 286.796 247.822 290.817 250.599 294.451C252.002 296.286 251.957 298.488 248.922 299.538ZM186.627 352.467C187.325 357.447 190.201 359.861 194.359 358.955C198.958 357.953 202.093 353.794 201.158 349.935C200.32 346.472 195.987 344.094 192.159 345.912C190.013 346.931 188.552 349.737 186.627 352.467Z" fill="#231F20"/>
<path d="M360.814 230.074C355.24 236.827 348.446 240.234 340.753 240.774C333.962 241.25 327.113 240.852 320.298 240.577C318.701 240.513 317.139 239.388 315.561 238.751C315.505 238.25 315.449 237.75 315.393 237.249C319.389 235.473 323.465 233.89 327.365 231.881C335.276 227.805 343.165 223.21 345.814 213.104C350.453 195.404 349.94 177.841 343.014 160.793C342.249 158.909 341.756 156.89 341.137 154.933C341.492 154.71 341.846 154.486 342.201 154.263C342.839 154.63 343.723 154.811 344.077 155.392C348.723 162.996 353.779 170.361 357.73 178.396C360.914 184.87 363.149 192.035 365.074 199.138C367.989 209.893 365.571 220.079 360.814 230.074Z" fill="#242021"/>
<path d="M151.255 306.738C151.203 320.412 153.145 333.127 159.144 344.941C158.566 345.258 157.988 345.574 157.41 345.891C155.044 342.858 152.098 340.173 150.421 336.725C145.267 326.129 140.054 315.493 135.9 304.393C131.985 293.932 133.687 283.006 136.97 272.569C138.655 267.211 142.693 264.103 147.312 262.264C157.672 258.14 168.29 256.279 179.223 259.019C180.795 259.413 182.233 260.467 185.247 261.97C172.752 267.919 159.73 270.894 154.652 284.929C152.284 291.473 152.313 299.091 151.255 306.738Z" fill="#242021"/>
<path d="M479.537 241.585C485.45 241.607 490.888 241.474 496.313 241.704C500.086 241.864 501.104 243.982 498.712 247.106C492.957 254.623 491.744 263.653 491.059 272.928C490.63 278.734 489.622 279.557 484.878 277.728C479.757 275.754 474.503 274.125 469.563 271.699C467.704 270.787 465.642 268.262 465.267 266.126C464.046 259.183 463.415 252.091 462.957 245.025C462.89 243.998 464.941 241.944 466.128 241.828C470.412 241.409 474.744 241.615 479.537 241.585Z" fill="#231F20"/>
<path d="M11.6424 221.221C18.0541 223.315 24.25 225.03 30.0936 227.7C32.1654 228.647 34.4004 231.72 34.7847 234.167C35.7642 240.407 35.7019 246.845 36.1382 253.196C36.3672 256.53 34.8426 257.587 32.132 257.577C22.5643 257.54 12.996 257.607 3.429 257.509C2.27192 257.497 0.578405 257.064 0.127441 256.191C-0.284329 255.394 0.376941 253.513 1.03932 252.49C5.95444 244.896 8.0612 236.38 8.27742 227.128C8.33419 224.699 7.43778 221.378 11.6424 221.221Z" fill="#242021"/>
<path d="M18.8731 293.913C15.4625 293.727 12.5163 293.541 8.91504 293.313C13.5312 283.159 16.129 273.797 9.1674 263.754C11.5315 263.38 12.8516 263.003 14.1746 262.991C20.7248 262.928 27.2793 263.108 33.8251 262.909C37.9484 262.783 40.2865 264.418 41.4265 269.055C43.0219 275.545 44.955 281.966 47.2009 288.212C48.7612 292.552 47.2824 293.829 43.7824 293.856C35.6343 293.919 27.4858 293.899 18.8731 293.913Z" fill="#242021"/>
<path d="M454.689 217.984C450.447 205.263 450.447 205.258 462.076 205.266C469.748 205.271 477.419 205.255 485.09 205.328C487.623 205.353 490.609 205.768 489.11 209.726C485.929 218.128 484.873 226.385 489.539 235.484C487.047 235.81 485.406 236.192 483.762 236.21C477.689 236.277 471.614 236.142 465.543 236.248C462.27 236.305 460.061 235.079 458.998 231.419C457.723 227.029 456.218 222.722 454.689 217.984Z" fill="#231F20"/>
<path d="M432.613 179.452C431.398 176.088 432.662 174.426 435.228 174.491C444.616 174.731 454.005 175.111 463.375 175.771C464.532 175.852 466.386 177.82 466.537 179.114C467.454 186.939 471.826 192.193 476.628 197.242C476.936 197.565 477 198.175 477.507 199.537C475.61 200.05 473.912 200.87 472.199 200.909C465.5 201.063 458.783 201.24 452.103 200.82C449.816 200.676 446.977 199.441 445.499 197.602C440.961 191.956 436.96 185.776 432.613 179.452Z" fill="#242021"/>
<path d="M38.57 324.833C36.4972 323.354 34.2804 322.27 33.3127 320.391C31.6018 317.069 31.0433 312.998 29.2691 309.734C27.5854 306.636 24.9619 304.17 22.0752 300.587C24.2183 300.046 25.7348 299.357 27.2602 299.332C34.2776 299.217 41.3148 298.977 48.3065 299.464C50.665 299.628 53.4219 301.253 55.1026 303.178C58.8315 307.447 62.3409 312.072 65.2993 317.025C68.8706 323.005 67.8415 324.793 61.4798 324.859C53.9833 324.936 46.4856 324.873 38.57 324.833Z" fill="#242021"/>
<path d="M183.496 120.228C186.025 119.584 188.194 119.014 190.388 118.613C193.909 117.971 195.69 119.133 196.666 123.563C197.555 127.599 200.616 130.98 202.193 134.912C203.315 137.713 203.564 140.948 204.203 143.989C201.6 144.542 198.904 145.874 196.414 145.5C189.345 144.44 182.332 142.828 175.361 141.116C173.124 140.566 169.997 139.627 169.187 137.812C167.645 134.353 168.633 130.353 171.752 127.992C175.409 125.224 179.337 122.897 183.496 120.228Z" fill="#242021"/>
<path d="M316.721 357.754C319.815 358.219 322.494 358.649 325.18 359.002C330.65 359.72 332.87 364.719 329.295 369.357C323.662 376.664 316.168 380.571 307.546 380.993C306.131 381.062 304.288 378.343 303.185 376.509C301.134 373.1 299.484 369.393 297.663 365.813C296.884 364.281 295.638 362.831 295.425 361.21C295.155 359.151 295.07 356.323 296.11 355C297.132 353.7 299.784 353.163 301.509 353.527C306.499 354.58 311.383 356.254 316.721 357.754Z" fill="#231F20"/>
<path d="M488.89 292.612C486.99 295.479 485.224 298.004 483.708 300.704C481.973 303.794 480.694 306.613 476.329 305.146C467.303 302.113 466.219 301.475 466.131 295.116C466.06 289.958 465.917 284.778 466.298 279.653C466.401 278.265 468.657 275.719 469.303 275.942C477.461 278.752 485.505 281.971 494.595 285.479C492.188 288.507 490.66 290.428 488.89 292.612Z" fill="#242021"/>
<path d="M33.1885 208.398C33.4162 211.722 33.6765 214.543 33.8609 217.37C34.215 222.799 32.288 224.581 27.7218 222.883C21.9729 220.745 16.2488 218.517 10.5585 216.192C6.26741 214.44 6.08718 213.164 8.76269 209.412C11.4107 205.698 14.0144 201.893 16.1924 197.832C17.976 194.507 20.0559 193.323 23.2933 194.663C23.5915 194.787 23.9054 194.864 24.2138 194.956C33.1483 197.607 33.2001 195.105 33.1885 208.398Z" fill="#242021"/>
<path d="M157.518 227.191C154.66 223.27 155.504 220.627 159.023 218.336C163.415 215.476 167.474 211.929 172.009 209.422C174.098 208.267 176.977 208.878 179.497 208.688C179.441 211.31 179.779 214.034 179.254 216.534C177.777 223.557 175.972 230.495 174.231 237.447C173.821 239.084 173.15 240.641 172.599 242.234C171.272 241.518 169.666 241.118 168.667 240.029C164.926 235.952 161.384 231.65 157.518 227.191Z" fill="#242021"/>
<path d="M335.963 264.701C338.07 267.367 339.685 270.085 341.839 272.083C344.243 274.313 344.814 276.992 342.567 278.772C336.785 283.35 330.778 287.685 324.479 291.292C321.679 292.896 318.716 290.84 319.63 286.713C321.758 277.108 324.347 267.63 326.781 258.111C326.847 257.855 327.281 257.716 328.045 257.152C330.509 259.494 333.109 261.965 335.963 264.701Z" fill="#242021"/>
<path d="M474.676 308.673C476.912 309.934 478.824 311.006 481.733 312.636C477.264 316.863 473.579 320.374 469.867 323.85C468.042 325.559 466.306 327.461 464.278 328.807C462.021 330.304 460.096 329.03 460.653 326.285C461.838 320.441 463.055 314.423 465.416 309.114C467.357 304.75 471.259 307.558 474.676 308.673Z" fill="#242021"/>
<path d="M22.8851 182.056C27.7433 177.677 32.3386 173.542 38.0732 168.382C38.3519 171.917 38.8847 173.785 38.556 175.441C37.6352 180.08 36.4088 184.649 35.2057 189.214C34.3194 192.577 32.3325 193.657 29.3322 192.399C27.402 191.589 25.3626 191.056 23.5103 190.076C22.0309 189.293 20.76 188.022 19.3965 186.967C20.4717 185.412 21.547 183.856 22.8851 182.056Z" fill="#242021"/>
<path d="M269.833 40.2395C269.849 40.2726 269.817 40.2065 269.833 40.2395Z" fill="black"/>
</svg>
