<svg width="487" height="500" viewBox="0 0 487 500" fill="none" xmlns="http://www.w3.org/2000/svg">
<path d="M470.505 201.496C481.145 201.437 484.069 210.134 485.248 218.777C488.442 242.188 488.017 265.334 477.597 287.105C468.201 306.739 462.598 327.695 461.471 349.773C461.147 356.12 463.452 362.646 464.701 369.056C465.107 371.142 466.359 373.081 466.538 375.158C466.697 377.014 465.911 378.967 465.543 380.877C463.912 380.06 461.711 379.724 460.738 378.353C448.566 361.209 436.597 343.893 424.518 326.669C420.041 320.285 415.411 314.028 410.346 307.013C409.357 308.953 408.559 310.097 408.15 311.387C404.062 324.286 397.393 335.397 388.853 345.317C385.118 349.655 381.874 354.489 378.216 358.91C375.103 362.673 374.42 366.951 377.341 370.575C381.587 375.844 386.183 381.013 391.383 385.085C400.909 392.544 412.087 396.01 423.482 398.56C424.822 398.859 426.142 399.274 427.465 399.663C440.319 403.443 443.406 415.111 433.962 425.445C428.082 431.878 421.427 437.463 415.384 443.729C405.51 453.968 395.657 464.247 386.194 474.928C382.159 479.482 378.174 481.955 372.105 482.319C365.726 482.702 359.28 484.838 353.204 487.232C347.371 489.53 342.027 493.267 336.349 496.085C334.934 496.787 333.057 496.382 331.393 496.487C331.309 494.591 330.563 492.302 331.276 490.879C332.917 487.607 335.167 484.668 337.352 481.755C340.704 477.287 344.01 472.742 347.72 468.641C350.193 465.907 353.307 464.34 357.217 465.898C359.904 466.969 362.82 467.48 365.675 467.894C369.14 468.397 371.878 467.635 372.874 463.067C373.326 460.992 374.874 458.885 376.44 457.465C385.413 449.33 394.645 441.533 403.557 433.321C406.531 430.58 409.032 427.126 411.355 423.682C413.325 420.761 412.715 417.979 409.454 416.42C402.217 412.962 395.002 410.08 386.754 410.181C378.002 410.288 369.053 409.851 360.527 407.905C352.444 406.06 345.664 400.606 340.139 393.58C339.115 392.277 336.944 392.045 335.302 391.319C334.852 393.219 333.474 395.704 334.118 396.917C336.558 401.51 338.969 406.637 342.665 409.801C347.96 414.333 354.443 417.192 360.272 421.028C362.679 422.612 365.128 424.524 366.824 426.905C371.231 433.095 370.336 439.223 363.988 443.221C355.197 448.756 345.99 453.501 337.01 458.686C324.385 465.977 311.584 472.955 299.301 480.88C293.326 484.734 287.719 486.301 281.772 482.591C273.054 477.151 263.753 473.953 253.949 472.084C251.717 471.658 249.468 470.978 247.41 469.972C246.152 469.358 244.248 467.711 244.385 466.861C244.659 465.154 245.827 463.19 247.166 462.191C251.292 459.116 255.715 456.519 259.943 453.601C264.724 450.301 270.289 450.355 274.823 454.008C276.534 455.387 278.287 456.756 279.785 458.386C286.313 465.488 288.849 464.448 297.319 460.009C310.719 452.986 323.768 445.168 336.987 437.733C341.358 435.275 342.005 432.114 337.665 430.028C329.55 426.127 321.002 423.207 312.49 420.397C304.965 417.912 297.077 416.658 289.668 413.858C284.604 411.944 280.828 407.674 278.876 401.758C276.818 395.518 272.896 392.264 266.395 391.428C251.762 389.545 238.043 384.26 225.626 375.436C210.33 364.565 200.918 348.491 194.597 330.549C190.224 318.135 187.51 304.913 185.085 291.826C181.099 270.307 171.941 252.48 155.911 239.066C148.368 232.754 127.461 235.568 121.907 243.745C125.675 242.957 129.123 242.137 132.603 241.524C144.886 239.359 157.719 246.084 161.087 258.336C163.876 268.486 163.726 279.395 158.244 289.046C145.602 311.303 129.734 330.697 112.388 348.638C106.194 355.045 98.7372 359.739 90.0175 361.3C81.0353 362.909 76.3339 357.227 79.2083 347.844C85.8998 326 90.8857 303.722 94.8189 281.104C95.7457 275.774 98.0419 270.282 101.014 265.92C106.024 258.567 104.011 251.047 102.714 243.624C101.936 239.175 96.9669 237.513 92.0413 239.978C88.5419 241.729 84.7345 244.098 82.5445 247.366C73.6116 260.698 65.4588 274.647 56.5863 288.029C52.1711 294.688 47.1273 300.946 41.7984 306.767C37.3942 311.578 33.751 311.977 29.18 308.314C17.2717 298.774 7.59146 287.032 1.33378 272.254C0.701414 270.761 0.0676567 269.121 0.00756697 267.524C-0.0682566 265.508 0.444597 263.466 0.703535 261.435C2.219 262.224 4.02224 262.673 5.2025 263.857C12.1946 270.875 17.0904 268.546 25.1014 262.187C36.3933 253.223 42.4376 239.812 47.8385 226.38C53.977 211.115 58.9889 195.317 64.7104 179.847C68.3765 169.935 75.5505 164.094 84.8254 161.39C98.984 157.263 112.79 160.631 119.787 173.775C122.564 178.991 123.872 185.488 124.56 191.575C125.373 198.766 124.673 206.148 124.856 213.441C124.988 218.709 126.624 219.715 130.875 217.391C147.715 208.183 165.132 207.464 183.2 212.347C197.325 216.164 210.508 222.334 223.515 229.224C234.443 235.013 246.12 237.846 258.266 238.173C263.899 238.325 269.546 238.347 275.173 238.08C282.709 237.723 287.581 233.585 287.252 227.524C287.134 225.335 285.684 222.464 284.018 221.288C279.184 217.876 273.884 215.254 268.868 212.13C267.067 211.008 265.287 209.584 263.96 207.873C260.218 203.046 261.463 197.118 266.685 194.41C268.44 193.5 270.327 192.729 272.23 192.349C284.913 189.816 285.072 189.754 291.909 201.707C299.764 215.44 310.895 223.732 325.416 226.742C334.142 228.551 341.898 225.246 349.472 221.137C349.832 220.942 350.094 220.428 350.282 220.001C350.394 219.746 350.272 219.369 350.209 218.157C346.989 218.641 343.818 219.111 340.65 219.596C332.108 220.904 323.601 221.125 315.534 217.233C312.675 215.854 309.855 213.923 307.625 211.563C304.358 208.106 305.495 204.395 309.939 203.31C317.442 201.479 324.996 199.895 332.515 198.136C333.3 197.952 333.991 197.288 334.725 196.848C334.65 196.421 334.574 195.994 334.499 195.567C332.929 195.784 331.291 195.761 329.798 196.257C320.396 199.383 310.852 201.053 300.979 200.366C296.27 200.039 292.815 198.115 291.101 193.094C289.278 187.752 291.556 183.709 296.828 183.556C303.679 183.358 310.538 183.516 317.393 183.414C319.112 183.389 320.827 182.957 322.51 182.036C311.733 183.125 301.337 175.808 290.643 180.115C279.386 184.648 268.332 189.812 257.322 195.03C241.116 202.71 224.155 205.494 206.923 202.177C190.165 198.952 189.544 186.59 193.508 173.384C194.41 170.376 197.115 167.473 199.677 165.699C205.855 161.421 210.69 155.955 214.785 149.436C218.791 143.059 224.311 138.75 231.406 137.315C238.552 135.87 244.35 132.661 248.784 125.882C254.031 117.859 262.078 114.737 270.907 113.759C273.084 113.518 276.49 114.241 276.012 110.046C275.568 106.155 273.309 104.563 269.473 105.216C259.955 106.835 251.341 104.599 244.293 97.0682C239.522 91.971 239.922 88.7187 245.701 85.4792C250.197 82.9582 252.115 79.4457 252.077 73.6179C252.014 63.9026 252.736 54.152 253.598 44.4659C254.688 32.2273 262.271 25.2831 271.964 21.4119C283.711 16.7202 296.036 15.878 308.407 18.4727C314.938 19.8424 319.029 24.0675 319.36 29.3603C319.62 33.5128 318.3 36.3358 314.193 37.3184C307.696 38.8723 301.151 40.3379 294.818 42.5044C286.775 45.2555 284.454 50.3658 286.147 59.4086C288.348 71.1683 288.334 82.6033 283.131 93.7397C279.423 101.677 282.649 107.71 290.909 108.64C295.366 109.142 299.938 108.343 304.459 108.285C313.915 108.163 323.518 105.726 332.475 111.821C335.94 114.178 340.009 113.003 342.892 109.593C347.715 103.891 352.425 98.0699 357.042 92.1687C364.968 82.0383 372.764 71.7881 380.653 61.6239C392.504 46.3557 404.542 31.254 416.134 15.757C418.564 12.509 419.442 7.86962 420.957 3.83665C421.421 2.60215 421.626 1.252 423.038 0C424.463 5.64953 426.022 11.2637 427.286 16.9554C431.145 34.3299 437.539 50.5929 446.07 65.7621C451.683 75.7448 458.494 84.9229 464.25 94.8188C470.623 105.776 478.297 116.336 478.912 130.017C479.196 136.352 478.713 142.929 477.394 149.096C475.893 156.109 471.279 159.202 464.255 159.557C463.893 159.588 463.928 159.603 463.893 159.183C463.57 155.48 463.043 152.197 463.04 148.913C463.035 140.035 462.263 131.305 458.562 123.27C454.347 114.117 450.207 104.879 445.355 96.1235C433.65 75.0003 423.428 53.2949 419.755 28.5896C419.608 27.6061 418.824 26.7353 417.93 25.0415C408.894 36.6407 400.327 47.7775 391.62 58.7837C379.845 73.6669 367.991 88.4755 356.109 103.258C353.271 106.789 353.357 107.755 357.241 109.707C360.004 111.095 362.765 112.493 365.489 113.971C372.39 117.717 379.588 132.102 378.77 140.535C378.661 141.664 378.059 142.751 378.018 143.872C377.934 146.17 377.622 148.628 378.211 150.755C379.963 157.073 382.635 163.131 383.974 169.533C386.134 179.855 385.806 179.936 376.436 182.164C375.841 182.305 375.216 182.36 374.653 182.592C371.162 184.032 369.84 182.638 368.55 178.795C365.912 170.938 362.651 163.285 359.139 155.832C356.584 150.411 352.913 145.619 350.283 140.232C347.057 133.626 348.699 129.065 354.771 125.599C355.492 125.188 356.032 124.402 356.818 123.631C354.509 121.172 352.36 120.042 349.824 122.416C347.003 125.058 344.269 127.81 341.116 130.885C341.4 131.551 341.666 133.191 342.559 134.098C348.732 140.365 352.814 148.175 355.48 156.629C357.564 163.237 358.94 170.313 359.369 177.273C359.722 182.999 356.967 187.729 351.163 189.456C347.875 190.434 344.713 191.909 341.493 193.16C345.161 193.009 348.564 191.899 352.014 191C356.392 189.861 360.407 192.006 361.736 196.015C363.932 202.639 362.33 209.816 357.436 214.565C355.299 216.637 356.02 217.931 358.177 218.917C359.143 219.358 360.246 219.656 361.287 219.657C366.857 219.664 368.116 222.782 368.189 228.506C368.277 235.475 371.361 241.568 376.233 246.476C376.511 244.763 376.238 243.257 375.911 241.764C374.818 236.771 373.527 231.818 372.673 226.777C372.239 224.211 372.154 220.871 375.552 220.593C379.932 220.234 384.372 220.429 388.761 220.774C389.843 220.859 391.313 222.215 391.778 223.378C396.346 234.8 398.275 246.451 393.745 258.517C392.696 261.313 391.823 264.188 390.868 267.026C391.324 267.257 391.779 267.487 392.234 267.718C392.974 266.33 393.866 265.01 394.422 263.539C395.346 261.093 395.864 258.453 396.895 256.07C398.772 251.729 401.775 251.356 404.008 255.499C406.129 259.435 408.288 263.724 408.964 268.125C410.185 276.076 410.141 284.248 410.992 292.282C411.287 295.069 412.127 298.159 413.641 300.359C421.648 311.994 429.887 323.444 438.177 334.844C441.933 340.009 445.996 344.911 449.979 350.001C450.176 350.015 450.314 349.958 450.453 349.902C450.389 349.803 450.324 349.704 450.245 349.168C450.043 346.596 449.838 344.462 449.672 342.324C448.77 330.724 448.518 319.092 452.519 308.081C456.25 297.814 460.706 287.86 464.757 277.728C471.57 260.689 473.147 243.474 466.393 225.86C464.592 221.164 463.282 216.207 462.122 211.265C460.08 202.561 460.856 201.573 469.404 201.216C470.016 201.372 470.261 201.434 470.505 201.496ZM285.995 145.917C279.716 149.886 279.821 149.787 274.86 143.591C272.195 140.263 269.331 137.017 266.129 134.34C263.435 132.088 260.508 132.711 257.667 136.612C259.62 137.097 260.985 137.349 262.296 137.792C263.253 138.115 264.418 138.437 265.004 139.201C267.067 141.887 266.829 150.524 264.73 153.969C262.453 157.704 259.133 156.528 256.034 155.963C253.792 155.554 251.599 154.834 249.383 154.256C245.983 153.369 242.614 152.208 239.166 151.753C238.012 151.601 236.657 153.254 235.395 154.081C236.514 154.859 237.563 156.126 238.765 156.332C245.193 157.434 251.639 158.559 258.119 159.133C267.524 159.966 276.904 160.427 285.888 155.863C296.586 150.427 307.47 145.428 318.245 140.171C319.201 139.705 319.943 138.724 320.785 137.982C320.626 137.611 320.467 137.239 320.308 136.867C318.764 137.226 317.101 137.297 315.697 137.991C308.388 141.6 301.064 145.195 293.908 149.143C289.314 151.677 288.163 151.347 286.521 145.56C286.521 145.56 286.571 145.651 285.995 145.917ZM330.351 244.687C335.858 248.794 341.517 252.682 346.833 257.063C353.878 262.867 359.497 270.172 362.06 279.467C367.014 297.438 368.351 315.697 365.585 334.414C362.829 353.068 353.03 365.392 338.218 373.873C337.151 374.484 335.878 375.087 335.258 376.098C334.514 377.312 333.95 379.033 334.151 380.387C334.24 380.994 336.557 381.874 337.554 381.539C341.281 380.285 345.27 379.225 348.462 376.938C365.534 364.704 374.643 346.685 378.825 325.4C381.398 312.302 383.631 299.125 386.087 285.999C386.628 283.107 387.468 280.281 388.387 276.547C381.699 281.398 380.648 280.817 379.925 272.922C379.617 269.556 379.475 266.171 379.258 262.794C378.828 262.816 378.398 262.839 377.968 262.861C378.097 265.737 378.164 268.619 378.368 271.49C378.789 277.42 379.56 283.344 379.577 289.273C379.582 291.038 377.703 294.083 376.418 294.263C374.737 294.499 372.446 292.84 371.059 291.309C369.88 290.007 369.524 287.76 368.951 285.878C363.193 266.969 352.394 252.595 336.104 243.473C330.794 240.499 324.968 238.614 318.4 235.815C319.019 237.912 319.026 238.382 319.207 238.483C322.718 240.449 326.25 242.372 330.351 244.687ZM339.15 154.705C337.174 149.169 335.708 143.246 329.508 140.464C336.98 152.419 333.053 165.99 334.385 179.218C338.863 177.634 341.612 175.24 341.292 170.571C340.945 165.511 340.05 160.495 339.15 154.705ZM323.404 123.969C318.912 124.69 314.249 124.815 309.967 126.269C303.114 128.597 297.861 126.105 292.921 121.396C292.426 120.924 291.799 120.615 290.888 119.995C292.58 124.012 294.595 127.348 295.367 130.996C296.297 135.389 297.857 135.14 301.1 133.83C307.733 131.149 314.547 128.987 321.326 126.753C323.508 126.034 325.813 125.757 328.062 125.278C328.013 124.883 327.964 124.488 327.915 124.094C326.634 124.025 325.354 123.957 323.404 123.969Z" fill="#231F20"/>
<path d="M167.574 273.826C167.613 270.477 167.613 267.564 167.613 263.908C168.789 264.733 169.846 265.082 170.296 265.851C175.923 275.475 179.583 285.808 180.68 297.302C181.274 303.515 182.693 309.698 184.303 315.716C186.89 325.389 189.362 335.18 192.941 344.436C198.088 357.749 206.244 368.731 218.372 376.779C217.105 377.499 216.32 378.291 215.481 378.366C209.769 378.882 204.689 377.351 200.441 372.866C195.204 367.338 189.943 361.825 184.476 356.573C178.514 350.846 175.833 351.165 169.93 356.614C164.506 361.623 158.294 365.708 153.262 371.119C138.065 387.465 130.568 407.977 127.562 430.668C127.129 433.939 126.873 437.242 126.617 440.538C125.263 457.96 132.45 472.636 139.382 487.388C139.726 488.121 140.374 488.727 140.578 489.489C141.267 492.063 141.821 494.681 142.426 497.283C140.295 497.831 138.183 498.702 136.029 498.855C132.39 499.113 128.718 498.764 125.071 498.949C120.75 499.167 118.538 496.57 117.701 492.482C117.011 489.115 117.311 485.467 116.386 482.208C115.353 478.568 114.198 474.246 111.734 471.96C106.84 467.419 105.723 462.334 107.016 456.02C109.166 445.515 111.661 435.077 113.382 424.49C115.008 414.485 116.937 404.435 114.913 394.101C113.653 387.662 116.197 382.791 120.277 377.795C126.601 370.049 132.539 361.652 137.165 352.634C140.49 346.149 144.319 342.857 150.869 342.601C152.174 342.55 153.45 341.652 154.74 341.145C154.711 340.42 154.682 339.695 154.652 338.97C151.745 338.709 148.724 337.782 145.955 338.338C141.497 339.233 137.23 341.21 132.826 342.503C131.502 342.892 129.991 342.526 128.565 342.506C129.106 340.926 129.27 338.959 130.248 337.83C136.218 330.942 142.377 324.25 148.465 317.483C159.312 305.426 166.63 291.52 167.574 273.826Z" fill="#231F20"/>
<path d="M50.0343 426.599C51.9651 415.146 54.1647 404.14 55.4683 393.009C56.1891 386.855 55.3087 380.492 55.3292 374.224C55.3581 365.422 60.5483 358.829 68.508 357.767C69.7995 357.595 72.1521 358.864 72.5481 360.048C74.6922 366.462 77.678 368.548 84.1696 367.302C85.3487 367.076 86.4927 366.633 88.7211 367.048C87.7297 368.967 86.9087 371.023 85.7191 372.783C77.4073 385.086 69.7891 397.673 66.7793 413.02C63.1111 431.724 61.6647 450.452 66.7132 468.971C68.5662 475.769 72.7247 481.794 75.5455 488.319C76.832 491.295 77.4247 494.626 78.3321 497.796C75.487 498.506 72.6698 499.564 69.7896 499.839C66.1652 500.185 62.489 499.862 58.8355 499.884C55.0055 499.907 51.9959 498.082 51.4212 494.003C50.5795 488.026 49.9456 481.878 50.3101 475.881C50.6117 470.918 50.6688 467.219 45.6489 465.117C42.0068 463.592 41.0225 460.093 42.1088 456.034C44.7008 446.35 47.3204 436.674 50.0343 426.599Z" fill="#231F20"/>
<path d="M326.077 50.9137C328.93 55.1883 331.637 59.1482 334.174 63.2329C335.716 65.7162 335.61 68.1382 333.396 70.3122C330.538 73.1168 328.318 76.2184 328.016 80.7872C327.919 82.2519 326.044 84.5635 324.735 84.7897C314.813 86.5037 304.79 87.6689 295.503 82.0029C293.931 81.0439 292.487 78.7498 292.088 76.8039C290.866 70.8574 290.061 64.7977 289.326 58.7485C288.633 53.0385 291.183 47.7553 296.186 45.4579C300.87 43.3069 305.769 41.5567 310.713 40.2713C315.948 38.9106 319.71 41.9985 322.696 46.4267C323.683 47.8891 324.801 49.2464 326.077 50.9137ZM310.064 53.3651C307.808 54.7534 305.552 56.1419 303.296 57.5302C305.511 61.215 308.597 59.3796 311.436 59.0303C312.176 58.9393 313.016 58.8921 313.602 58.4765C314.416 57.8995 315.523 57.0405 315.589 56.2151C315.649 55.4653 314.621 54.3191 313.824 53.8601C312.958 53.3612 311.804 53.4536 310.064 53.3651Z" fill="#231F20"/>
<path d="M470.876 201.469C470.261 201.434 470.016 201.372 469.308 200.916C465.505 199.477 462.21 197.786 458.818 197.514C451.068 196.89 446.802 192.135 447.612 183.733C447.958 180.147 448.461 176.483 449.534 173.094C452.315 164.312 456.529 158.451 463.928 159.603C463.928 159.603 463.893 159.588 463.875 159.582C468.165 160.243 472.457 161.244 476.785 161.503C483.904 161.927 485.946 163.845 485.785 171.715C485.655 178.115 485.303 184.523 484.734 190.894C484.113 197.834 479.822 201.037 470.876 201.469Z" fill="#231F20"/>
<path d="M315.101 104.888C307.868 104.833 301.05 105.024 294.264 104.604C289.131 104.287 286.092 100.098 286.843 95.3686C287.673 90.1362 292.396 87.0173 297.218 87.8091C309.206 89.7779 321.144 90.2161 332.516 84.3748C335.249 82.9711 338.344 81.6773 340.417 84.6776C342.677 87.9485 344.313 91.854 345.555 95.7355C345.816 96.5528 343.358 99.3853 341.855 99.7254C333.129 101.7 324.315 103.206 315.101 104.888Z" fill="#242021"/>
<path d="M450.175 349.687C450.324 349.704 450.388 349.803 450.452 349.902C450.314 349.958 450.176 350.015 449.978 350.002C449.919 349.932 450.089 349.768 450.175 349.687Z" fill="black"/>
<path d="M286.568 145.648C286.571 145.651 286.521 145.56 286.542 145.601C286.563 145.643 286.565 145.646 286.568 145.648Z" fill="black"/>
<path d="M393.608 194.748C395.693 182.499 400.189 178.393 411.505 178.534C420.161 178.641 428.813 179.119 437.466 179.46C440.524 179.58 442.376 181.159 443.451 184.456C447.492 196.849 448.095 197.977 437.252 203.774C425.904 209.84 413.582 214.026 401.358 217.759C394.241 219.932 390.338 213.771 392.365 205.961C393.257 202.523 393.206 198.794 393.608 194.748Z" fill="#231F20"/>
<path d="M389.833 203.139C389.59 205.388 389.408 207.193 389.11 208.974C388.143 214.75 384.901 218.133 380.522 218.004C375.019 217.842 370.32 213.379 369.838 207.806C369.511 204.025 369.195 200.242 368.963 196.453C368.618 190.852 370.576 187.503 374.607 186.62C381.955 185.011 387.531 187.04 388.912 192.406C389.753 195.67 389.566 199.248 389.833 203.139Z" fill="#231F20"/>
<path d="M396.607 179.034C392.428 181.392 389.894 180.023 388.577 175.645C386.214 167.793 383.824 159.95 381.606 152.049C381.32 151.028 381.639 149.163 382.308 148.635C383.063 148.039 385.064 147.982 385.597 148.614C388.109 151.599 390.788 154.624 392.492 158.157C394.736 162.811 396.078 167.974 397.903 172.877C398.756 175.171 399.405 177.284 396.607 179.034Z" fill="#242021"/>
</svg>
