<svg width="411" height="500" viewBox="0 0 411 500" fill="none" xmlns="http://www.w3.org/2000/svg">
<path d="M177.353 164.307C178.553 163.192 179.351 162.297 180.303 161.543C186.818 156.384 189.356 151.619 182.275 144.579C177.239 139.572 180.243 128.832 186.077 124.698C187.781 123.491 190.221 123.042 194.029 121.599C193.055 124.973 192.656 126.526 192.156 128.055C190.145 134.194 192.885 139.949 200.108 140.976C206.195 141.842 212.981 141.117 219.004 139.694C224.071 138.496 224.914 133.096 222.653 127.711C221.642 125.302 221.494 122.628 220.955 120.074C223.769 121.73 227.394 122.893 229.251 125.131C236.033 133.3 235.16 143.422 227.149 150.557C223.012 154.242 223.413 157.24 227.23 160.602C228.734 161.926 230.518 163.242 231.34 164.87C235.75 173.604 243.951 174.431 253.496 173.276C258.624 172.656 263.852 172.424 269.036 172.405C277.887 172.373 279.215 173.607 280.12 182.318C273.137 183.048 266.114 183.784 259.089 184.514C257.58 184.67 256.051 184.725 254.56 184.958C243.094 186.75 242.933 186.967 245.092 196.879C247.419 207.562 245.517 211.378 233.8 215.027C212.196 221.755 190.904 221.622 170.458 211.376C165.408 208.846 162.725 205.503 163.407 200.478C163.98 196.262 164.438 192.008 165.508 187.877C166.535 183.913 165.064 182.723 160.449 182.301C151.439 181.477 142.495 180.079 133.56 178.744C131.471 178.432 128.899 177.877 127.669 176.627C126.063 174.997 124.586 172.436 124.928 170.52C125.18 169.103 128.359 167.169 130.351 167.062C134.611 166.832 138.963 167.542 143.25 168.04C150.743 168.909 158.197 170.039 165.703 170.811C171.294 171.385 174.415 168.224 177.353 164.307Z" fill="#231F20"/>
<path d="M355.543 112.007C341.403 105.493 336.249 94.3695 332.983 82.3713C326.532 58.6725 330.401 36.2751 345.484 15.5113C346.835 13.6513 349.332 12.3997 351.296 10.8657C352.548 12.476 354.043 13.9866 355.008 15.7137C359.124 23.0793 362.891 30.5909 367.162 37.8881C370.487 43.5685 376.275 43.8383 380.099 38.3298C383.517 33.4061 385.697 27.8626 388.971 22.8547C391.516 18.961 394.905 15.4706 398.095 11.5871C406.774 17.7607 408.252 25.3916 409.655 33.1453C413.061 51.9756 409.805 70.1334 402.044 87.7625C398.201 96.4906 393.069 104.359 382.928 109.452C374.109 113.881 365.392 114.193 355.543 112.007Z" fill="#231F20"/>
<path d="M42.1715 8.38042C46.2249 17.3856 49.6883 26.1509 54.3541 34.4198C57.1134 39.31 59.8952 38.9822 62.8402 34.0332C67.8344 25.6403 72.2984 17.0147 77.3896 8.66731C78.655 6.59274 81.4695 5.20936 83.5719 3.50832C85.5816 5.5234 88.5028 7.27582 89.4204 9.60556C91.6841 15.3525 93.8773 21.2907 94.5881 27.2829C97.037 47.9313 97.3866 68.5301 84.5628 87.2784C78.9875 95.4295 71.2859 101.341 59.0327 101.011C49.5329 100.755 39.6039 102.054 32.0601 95.4993C28.971 92.8153 25.8294 89.7383 24.2254 86.3205C18.5427 74.2123 17.2317 61.5795 19.5901 48.6462C21.5522 37.8873 22.8617 27.0289 25.2713 16.3484C26.2693 11.9247 29.0782 7.70626 31.6804 3.68658C32.7354 2.0566 35.4352 1.20547 37.3867 0C38.6215 1.56988 39.9845 3.07986 41.0417 4.73285C41.647 5.67899 41.7551 6.85771 42.1715 8.38042Z" fill="#231F20"/>
<path d="M223.235 253.522C230.826 251.679 237.882 249.894 244.962 248.186C249.915 246.991 252.531 249.105 253.082 253.049C254.31 261.847 251.784 269.404 242.008 273.901C219.179 284.402 186.994 287.705 162.815 271.267C155.538 266.32 151.592 252.992 155.987 245.864C156.766 244.601 159.755 243.494 161.496 243.703C164.142 244.02 166.631 245.481 169.114 246.577C186.064 254.055 203.386 259.39 223.235 253.522Z" fill="#242021"/>
<path d="M223.148 285.943C229.929 283.855 236.143 281.622 242.597 280.168C249.471 278.62 253.131 281.936 251.314 287.883C247.712 299.676 238.865 306.858 224.91 309.816C212.065 312.539 199.147 313.919 186.42 310.51C177.651 308.161 169.009 304.977 161.038 301.077C153.413 297.346 149.653 286.631 152.009 279.343C153.384 275.092 156.837 274.226 161.078 276.099C165.883 278.22 170.517 280.643 175.12 283.081C190.373 291.163 206.327 290.843 223.148 285.943Z" fill="#231F20"/>
<path d="M177.381 244.037C173.93 242.769 170.808 241.878 167.986 240.528C160.245 236.826 156.524 230.537 158.586 223.271C159.156 221.262 162.589 218.533 164.807 218.464C168.932 218.336 173.45 219.345 177.244 220.888C195.909 228.48 214.339 227.996 233.186 221.247C247.643 216.071 251.001 218.534 250.737 232.145C250.595 239.507 244.94 242.743 238.296 244.686C218.169 250.569 197.924 251.001 177.381 244.037Z" fill="#231F20"/>
<path d="M225.129 317.583C230.211 317.531 234.777 317.628 239.344 317.725C239.011 321.669 239.367 325.768 238.216 329.53C234.769 340.791 224.543 345.154 212.211 346.657C192.849 349.018 174.948 346.825 160.938 333.613C155.304 328.298 153.561 321.975 154.497 315.031C155.03 311.085 157.171 310.162 161.64 311.991C168.442 314.775 175.433 317.311 182.564 319.401C196.755 323.559 210.784 321.784 225.129 317.583Z" fill="#242021"/>
<path d="M207.489 358.57C215.981 356.867 223.853 355.167 232.242 353.354C229.541 364.595 233.227 375.068 236.632 385.538C238.043 389.876 236.366 392.75 231.433 393.376C223.993 394.321 216.444 394.865 208.927 394.998C206.366 395.043 203.195 393.86 201.27 392.341C189.014 382.666 180.805 370.625 173.428 356.738C185.295 357.389 196.081 357.98 207.489 358.57Z" fill="#231F20"/>
<path d="M79.9868 146.676C79.3361 146.68 78.6855 146.683 78.0348 146.687C57.7398 146.793 56.159 145.901 48.2783 129.788C45.6132 124.339 42.5749 118.991 40.4578 113.39C38.5135 108.245 40.2134 106.721 46.4678 106.579C60.5077 106.258 66.0685 109.463 71.325 120.426C73.4606 124.88 76.7867 128.971 78.4249 133.528C79.8196 137.408 79.5702 141.721 79.9961 146.269C79.944 146.695 79.9868 146.676 79.9868 146.676Z" fill="#242021"/>
<path d="M241.234 421.315C235.197 416.513 229.456 412.024 223.82 407.44C220.5 404.74 221.2 402.694 225.428 401.292C230.074 399.752 234.534 397.622 239.325 396.648C242.321 396.039 246.604 396.132 248.878 397.568C256.862 402.61 264.43 408.18 271.748 413.929C275.972 417.247 275.07 422.432 270.504 425.537C264.35 429.723 254.539 430.051 248.098 426.163C245.806 424.78 243.741 423.121 241.234 421.315Z" fill="#242021"/>
<path d="M133.516 431.226C129.407 436.443 131.374 440.36 136.024 443.781C137.662 444.986 139.688 445.836 141.18 447.146C142.415 448.231 143.771 449.737 143.817 451.088C143.844 451.866 141.459 452.854 140.001 453.475C138.663 454.045 137.105 454.233 135.654 454.618C130.711 455.929 130.363 458.691 132.892 461.914C134.447 463.895 136.553 465.577 138.531 467.293C141.839 470.162 142.418 472.995 138.693 475.92C134.836 478.95 131.104 477.589 128.439 474.92C121.875 468.346 117.027 460.897 115.486 452.188C112.049 432.77 127.045 419.561 151.711 415.463C145.322 420.921 139.511 425.884 133.516 431.226Z" fill="#242021"/>
<path d="M353.385 147.541C349.104 150.407 345.267 153.137 341.169 155.542C337.013 157.98 331.839 158.567 328.828 155.099C327.088 153.095 327.289 148.573 328.725 146.068C333.753 137.298 339.553 128.837 345.466 120.47C346.253 119.357 349.502 118.84 351.401 119.114C355.849 119.757 360.107 121.413 364.559 121.97C368.995 122.526 370.192 124.117 368.77 127.57C365.631 135.189 360.767 141.836 353.385 147.541Z" fill="#242021"/>
<path d="M289.397 280.07C280.667 275.995 272.222 272.331 264.323 267.949C259.141 265.074 259.027 259.844 260.129 255.301C261.091 251.33 265.539 249.274 269.643 251.283C279.901 256.307 289.999 261.698 299.352 267.842C301.389 269.18 301.391 274.895 299.807 277.45C298.644 279.326 293.362 279.334 289.397 280.07Z" fill="#242021"/>
<path d="M259.343 493.317C253.636 495.521 250.041 494.1 248.215 489.539C246.492 485.234 243.859 481.155 251.008 477.766C256.751 475.043 261.604 470.852 266.557 467.034C269.847 464.498 272.914 463.649 277.026 465.525C279.458 466.634 282.226 467.293 284.926 467.868C290.971 469.158 292.484 471.994 287.663 475.456C278.821 481.806 269.133 487.294 259.343 493.317Z" fill="#242021"/>
<path d="M139.182 246.251C142.166 247.519 146.798 248.917 146.742 250.162C146.564 254.148 146.138 259.859 143.13 261.698C133.903 267.336 123.554 271.699 113.325 276.01C111.445 276.802 106.543 275.664 105.76 274.286C104.505 272.077 104.182 267.717 105.822 266.376C112.616 260.824 120.143 255.888 127.72 251.095C130.973 249.036 135.005 247.878 139.182 246.251Z" fill="#242021"/>
<path d="M275.057 457.349C270.837 449.568 267.054 442.017 263.03 433.983C269.227 431.652 274.438 429.451 279.853 427.716C286.624 425.547 289.105 430.762 290.75 434.094C293.218 439.096 294.139 444.785 294.826 450.263C295.509 455.699 291.622 458.854 284.987 458.817C281.82 458.799 278.659 458.015 275.057 457.349Z" fill="#242021"/>
<path d="M111.096 233.87C118.586 230.009 125.798 226.478 133.076 223.051C137.035 221.186 140.962 219.168 145.165 217.812C150.302 216.155 153.18 218.294 152.546 222.983C151.76 228.793 148.527 233.506 142.872 236.81C134.333 241.798 124.521 243.475 114.534 242.91C107.994 242.541 110.184 237.767 111.096 233.87Z" fill="#242021"/>
<path d="M258.832 235.169C258.631 230.683 256.777 225.167 259.174 222.804C262.835 219.192 268.203 222.823 272.609 224.797C277.973 227.2 283.505 229.327 288.932 231.63C290.869 232.453 293.468 233.062 294.42 234.446C295.925 236.633 297.308 239.554 296.801 241.852C296.449 243.445 292.961 245.43 290.658 245.662C278.24 246.911 267.634 243.433 258.832 235.169Z" fill="#242021"/>
<path d="M232.914 485.923C238.781 487.508 239.571 491.557 238.397 494.99C237.712 496.993 233.682 499.306 230.998 499.46C220.302 500.073 209.54 500.052 198.808 499.933C194.216 499.882 191.476 497.529 192.366 493.353C193.166 489.601 193.554 485.476 200.173 485.633C210.899 485.886 221.635 485.797 232.914 485.923Z" fill="#242021"/>
<path d="M296.917 307.702C286.243 303.107 275.896 298.865 265.842 294.165C260.387 291.615 259.146 287.194 260.912 282.158C262.317 278.149 265.264 276.394 269.679 278.722C279.602 283.955 289.48 289.279 299.031 294.987C303.377 297.584 301.999 305.542 296.917 307.702Z" fill="#242021"/>
<path d="M79.9263 146.708C91.55 146.91 101.128 151.338 109.694 157.6C111.429 158.868 112.696 160.805 113.623 162.64C115.612 166.578 113.939 169.384 108.961 169.856C98.6221 170.837 88.9908 168.54 80.7069 163.329C73.5171 158.805 73.3348 152.503 79.6711 146.958C79.9871 146.676 79.9443 146.695 79.9263 146.708Z" fill="#242021"/>
<path d="M105.681 290.432C115.948 284.219 125.788 278.179 135.873 272.455C140.568 269.79 144.166 271.569 144.875 276.446C145.502 280.754 143.704 284.145 139.302 286.334C130.306 290.809 121.353 295.366 112.143 299.498C109.809 300.545 106.573 300.121 103.751 300.372C103.798 297.772 103.752 295.166 103.956 292.574C104.006 291.937 104.867 291.346 105.681 290.432Z" fill="#242021"/>
<path d="M122.675 201.953C132.824 198.257 142.65 195.001 152.205 191.241C157.888 189.005 159.958 189.755 160.677 195.124C161.409 200.591 159.43 204.899 153.2 206.661C144.623 209.088 135.861 211.077 127.085 212.934C123.484 213.695 118.844 215.012 117.069 210.611C115.483 206.676 117.947 203.846 122.675 201.953Z" fill="#242021"/>
<path d="M342.299 300.431C344.211 301.397 346.86 302.482 346.775 303.378C346.497 306.308 346.287 310.1 344.143 311.891C336.659 318.144 320.908 318.811 311.875 314.019C307.49 311.694 304.893 304.332 307.54 300.779C308.238 299.842 310.633 298.902 311.702 299.237C321.623 302.349 331.676 301.61 342.299 300.431Z" fill="#242021"/>
<path d="M96.8423 295.336C98.536 301.171 95.6358 307.009 90.0063 309.633C80.6576 313.99 70.9498 313.762 61.1808 310.856C56.7624 309.541 54.6858 306.831 55.3499 302.693C56.0623 298.255 59.9632 298.385 63.6585 298.401C72.5178 298.441 81.3197 298.626 89.6377 295.11C91.4776 294.333 94.1763 295.041 96.8423 295.336Z" fill="#242021"/>
<path d="M251.106 205.036C251.032 202.943 250.745 201.225 251.151 199.637C252.194 195.561 254.987 194.204 259.78 195.78C268.4 198.614 277.045 201.415 285.807 203.899C290.538 205.241 293.532 207.468 292.724 211.819C291.946 216.008 287.625 216.095 284.002 215.732C275.901 214.92 267.673 214.231 259.881 212.337C256.503 211.516 254.071 207.846 251.106 205.036Z" fill="#242021"/>
<path d="M179.962 496.726C169.412 493.654 159.23 490.887 149.536 487.187C147.262 486.319 145.851 482.382 145.441 479.7C144.872 475.969 147.986 473.912 152.073 475.142C162.872 478.392 173.578 481.918 184.048 485.862C185.649 486.465 186.953 490.184 186.321 491.906C185.616 493.831 182.549 495.123 179.962 496.726Z" fill="#242021"/>
<path d="M34.5963 224.44C40.6374 226.578 46.2022 228.611 51.7527 230.673C55.8491 232.195 57.1571 235.034 55.8357 238.436C54.4112 242.104 50.9866 241.301 47.6902 240.466C28.7729 235.676 14.4273 225.745 4.03332 211.625C2.08945 208.984 1.67055 205.522 0.547852 202.439C1.09512 202.17 1.64238 201.901 2.18964 201.632C6.58446 206.317 10.2771 211.725 15.5705 215.485C20.9265 219.289 27.8672 221.461 34.5963 224.44Z" fill="#242021"/>
<path d="M381.253 214.909C387.613 208.746 393.611 202.833 400.833 195.715C399.56 199.991 399.122 203.242 397.644 206.099C393.103 214.877 386.303 222.237 376.965 227.657C370.729 231.277 364.426 234.897 357.73 237.803C355.572 238.74 352.066 237.405 349.177 237.109C350.176 234.331 350.207 230.608 352.383 228.976C356.506 225.883 361.822 223.932 366.711 221.612C371.392 219.391 376.16 217.305 381.253 214.909Z" fill="#242021"/>
<path d="M30.6899 173.187C38.8796 178.37 46.7687 183.244 54.5946 188.191C58.6377 190.746 63.3345 193.329 60.2152 198.491C59.4332 199.784 55.6609 201.271 54.7 200.746C37.8542 191.538 22.6637 180.952 16.4255 163.698C16.2575 163.233 16.5746 162.64 16.8855 160.814C21.8186 165.241 26.0909 169.075 30.6899 173.187Z" fill="#242021"/>
<path d="M302.303 237.594C313.706 236.175 324.616 234.808 335.576 233.889C337.413 233.735 340.945 235.352 341.112 236.441C341.427 238.488 340.361 241.048 338.909 242.819C337.813 244.155 335.309 245.075 333.279 245.347C325.16 246.436 317.004 247.633 308.817 247.952C301.774 248.225 299.063 243.774 302.303 237.594Z" fill="#231F20"/>
<path d="M69.1806 204.719C68.0669 197.808 68.951 196.914 76.2197 197.757C85.7971 198.867 95.375 200.017 104.892 201.446C108.88 202.045 111.364 204.229 111.007 208.129C110.656 211.95 107.554 212.718 104.12 212.383C94.4785 211.443 84.8353 210.406 75.2881 208.95C73.1245 208.62 71.3469 206.438 69.1806 204.719Z" fill="#242021"/>
<path d="M96.4732 234.814C101.362 234.946 105.554 235.133 105.77 240.165C105.975 244.945 102.029 246.436 97.8074 246.477C89.0002 246.564 80.1545 246.258 71.3848 245.561C67.2293 245.23 64.1264 242.837 64.5922 238.724C65.0722 234.485 69.0894 234.867 72.5019 234.833C80.2912 234.757 88.0824 234.807 96.4732 234.814Z" fill="#231F20"/>
<path d="M321.752 269.411C326.45 269.262 330.572 268.966 334.684 269.042C337.392 269.091 340.086 269.674 342.787 270.018C341.99 272.811 342.12 276.234 340.221 278.279C334.852 284.063 314.431 285.294 307.997 280.341C306.035 278.83 303.877 275.063 304.736 273.859C306.215 271.786 309.833 270.481 312.854 269.671C315.406 268.987 318.383 269.462 321.752 269.411Z" fill="#242021"/>
<path d="M93.0009 267.32C95.434 268.445 98.9976 269.767 98.8697 270.731C98.5182 273.38 97.4094 277.276 95.193 278.194C85.5511 282.19 75.1419 283.266 65.2174 279.055C62.8987 278.072 61.7388 274.329 61.164 271.678C61.0334 271.076 65.4684 269.09 67.9472 268.854C76.0778 268.078 84.2754 267.815 93.0009 267.32Z" fill="#242021"/>
<path d="M347.215 198.522C345.068 194.298 346.096 191.004 349.889 188.302C355.336 184.421 361.014 180.744 366.139 176.572C371.412 172.28 376.091 167.459 381.138 162.957C382.492 161.75 384.239 160.866 385.805 159.834C386.332 160.112 386.859 160.391 387.386 160.669C386.949 162.323 386.858 164.119 386.022 165.608C378.658 178.735 367.62 189.259 353.967 197.783C352.373 198.778 349.696 198.502 347.215 198.522Z" fill="#242021"/>
<path d="M301.031 204.041C312.27 201.309 323.02 198.687 333.857 196.362C337.698 195.537 340.856 199.07 338.312 201.963C335.297 205.392 330.82 208.479 326.202 210.127C320.309 212.23 313.687 213.01 307.286 213.821C304.51 214.172 301.5 213.177 298.596 212.794C299.256 209.952 299.916 207.11 301.031 204.041Z" fill="#242021"/>
<path d="M324.464 167.68C320.443 169.529 317.009 171.833 313.142 172.67C307.03 173.991 300.641 174.681 294.34 174.85C292.646 174.895 289.697 172.221 289.443 170.558C289.218 169.084 291.525 166.666 293.43 165.742C298.287 163.386 303.635 161.784 308.616 159.597C314.848 156.861 319.718 158.798 324.642 162.127C327.549 164.092 327.245 165.62 324.464 167.68Z" fill="#242021"/>
<path d="M371.828 290.484C381.695 282.779 391.146 275.264 401.75 266.833C401.108 269.323 401.1 270.631 400.459 271.647C391.522 285.811 379.075 297.107 362.361 304.639C360.788 305.348 356.526 304.391 355.802 303.194C354.455 300.968 353.818 297.881 358.109 296.299C362.646 294.627 366.987 292.566 371.828 290.484Z" fill="#242021"/>
<path d="M392.415 244.74C394.198 243.863 395.652 243.213 397.106 242.563C397.542 242.919 397.979 243.275 398.415 243.631C394.781 247.548 391.772 252.104 387.381 255.246C378.655 261.49 369.262 267.072 359.9 272.627C358.34 273.553 355.549 272.959 353.326 273.068C353.384 270.932 352.429 268.002 353.7 266.814C356.925 263.8 360.946 261.296 365.013 259.076C373.917 254.213 383.047 249.652 392.415 244.74Z" fill="#242021"/>
<path d="M22.1907 264.082C14.4214 259.448 6.86767 255.186 4.04883 246.914C9.07582 249.594 13.8994 252.624 19.1765 254.876C27.4967 258.427 36.1514 261.4 44.595 264.746C46.4909 265.498 48.884 266.472 49.6439 267.893C50.607 269.693 50.1353 272.055 50.2823 274.175C48.2283 274.27 45.7895 275.028 44.1864 274.347C36.8487 271.23 29.745 267.709 22.1907 264.082Z" fill="#242021"/>
<path d="M0 273.712C1.39422 273.657 3.12848 273.505 3.87071 274.167C15.1003 284.176 27.8635 292.065 43.3607 296.693C45.165 297.231 45.7436 300.773 46.8903 302.922C44.7621 303.544 42.2758 305.091 40.5754 304.609C36.1496 303.354 31.701 301.65 27.9193 299.338C16.6893 292.472 5.17724 285.709 0 273.712Z" fill="#242021"/>
</svg>
