<svg width="531" height="500" viewBox="0 0 531 500" fill="none" xmlns="http://www.w3.org/2000/svg">
<path d="M251.794 140.725C249.227 134.833 248.09 128.574 241.689 126.042C234.178 123.071 228.317 127.212 221.963 130.11C208.086 136.438 199.007 149.055 187.586 158.589C185.961 159.946 183.702 160.458 181.737 161.36C181.315 159.111 180.299 156.776 180.575 154.626C181.743 145.495 177.868 141.066 169.356 143.843C162.491 146.082 156.068 150.035 149.704 153.718C144.637 156.65 143.507 156.215 142.844 150.122C142.363 145.699 142.116 141.055 140.605 136.989C137.322 128.148 140.102 121.787 146.42 116.064C152.204 110.825 157.776 105.319 163.357 99.8361C182.96 80.5785 203.475 62.6076 226.888 48.5912C246.934 36.5904 268.064 35.5101 289.414 42.8461C296.086 45.1384 302.051 50.623 307.555 55.6094C320.23 67.0913 332.783 78.7789 344.689 91.1302C352.899 99.6472 360.002 109.362 367.497 118.634C381.35 135.774 399.84 146.097 418.199 156.346C435.049 165.751 451.305 176.075 463.861 191.205C481.207 212.106 492.627 236.252 495.492 264.418C497.238 281.576 497.724 298.724 493.051 315.309C490.403 324.705 486.71 334.363 481.199 342.085C476.821 348.221 468.993 351.635 462.653 356.191C452.838 363.244 451.104 373.018 457.393 383.879C458.306 385.454 458.258 388.743 457.284 390.259C451.673 398.989 445.707 407.47 439.753 415.95C429.882 430.01 419.855 443.949 410.068 458.073C407.824 461.311 405.77 463.201 402.149 460.467C401.853 460.243 401.418 460.222 401.045 460.117C389.12 456.769 388.893 455.328 397.321 445.055C403.464 437.567 409.286 429.765 414.933 421.851C422.166 411.713 426.702 400.299 426.674 387.476C426.665 383.193 425.411 378.59 423.628 374.691C416.495 359.094 409.113 343.716 405.762 326.491C399.419 293.877 397.594 261.513 408.287 229.438C408.805 227.885 408.843 226.153 409.104 224.505C408.527 224.221 407.95 223.937 407.373 223.652C405.509 226.738 403.858 229.998 401.743 232.88C392.209 245.874 389.747 261.422 387.829 276.967C386.773 285.524 383.698 290.97 375.826 294.294C361.281 300.437 350.51 312.482 338.504 322.566C327.788 331.567 315.946 336.449 302.093 332.627C294.025 330.401 293.069 327.595 298.283 320.874C307.724 308.704 317.232 296.455 321.973 281.382C325.089 271.478 326.686 260.98 328.275 250.631C329.099 245.266 328.102 239.618 328.508 234.146C329.196 224.868 325.831 217.166 321.457 209.501C319.59 206.229 318.401 202.12 318.149 198.3C317.076 182.08 317.503 165.671 315.344 149.637C313.793 138.116 309.167 127.024 305.57 115.863C304.664 113.052 302.443 110.712 300.826 108.155C300.206 108.425 299.586 108.695 298.966 108.966C299.175 110.528 299.082 112.224 299.64 113.632C304.637 126.245 306.577 139.393 306.447 153.005C306.307 167.685 306.311 182.37 306.535 197.048C306.579 199.929 307.095 203.593 308.795 205.52C316.205 213.918 318.488 223.924 319.219 234.949C321.245 265.493 310.466 291.745 294.297 315.761C289.957 322.207 282.481 326.742 275.731 330.846C264.223 337.843 252.131 343.768 240.32 350.218C234.613 353.335 232.19 359.022 231.43 365.189C230.464 373.034 229.888 381.01 230.029 388.911C230.262 401.93 241.499 416.625 253.287 420.326C259.885 422.397 262.754 428.213 260.827 435.606C259.541 440.535 252.814 443.971 247.405 441.398C243.543 439.561 239.847 436.486 237.093 433.055C225.881 419.088 215.002 404.82 204.139 390.546C201.504 387.084 199.119 383.332 197.117 379.43C193.836 373.034 195.509 366.403 200.969 359.992C208.812 350.783 216.962 341.78 223.992 331.905C233.488 318.567 240.247 304.097 238.161 286.303C236.981 276.239 236.966 265.778 244.244 257.374C245.854 255.516 247.427 253.623 249.017 251.746C248.506 251.181 247.995 250.618 247.484 250.053C244.067 253.711 240.086 256.955 237.355 261.113C232.183 268.989 230.069 278.116 229.892 287.689C229.794 292.989 229.937 298.295 229.787 303.592C229.542 312.259 225.206 318.122 217.901 321.517C210.177 325.107 202.896 322.475 199.816 314.036C196.082 303.805 193.618 293.067 190.238 282.681C188.368 276.933 185.603 271.515 183.551 265.824C182.825 263.81 183.018 261.428 182.792 259.214C185.291 259.491 188.849 258.758 190.104 260.222C195.336 266.324 201.449 271.81 203.627 280.41C205.142 286.389 207.7 292.075 209.791 297.892C210.36 297.87 210.929 297.848 211.498 297.826C211.818 295.885 212.353 293.952 212.421 292.002C212.658 285.079 212.645 278.147 212.893 271.225C213.519 253.829 222.478 240.106 231.237 226.474C240.203 212.521 250.922 199.445 253.256 182.103C255.084 168.511 255.862 154.694 251.794 140.725Z" fill="#231F20"/>
<path d="M89.9268 272.116C85.7665 269.101 81.6108 266.715 78.2658 263.413C76.4502 261.622 74.7006 257.843 75.3188 255.747C75.9609 253.57 79.3828 251.211 81.7889 250.945C86.2942 250.448 89.2849 248.784 91.5162 244.614C93.7246 240.486 97.5979 239.37 101.965 239.477C107.102 239.603 110.111 236.782 111.581 230.139C102.623 234.267 94.6056 238.002 86.5482 241.638C84.9878 242.342 83.2717 243.081 81.6272 243.081C76.6375 243.083 72.1726 243.698 68.5901 248.188C67.7922 249.188 63.6591 248.877 62.4923 247.653C43.6781 227.911 49.6612 194.109 68.1812 179.652C75.2751 174.114 83.1093 172.372 91.2142 171.003C93.0577 170.692 95.6518 172.85 97.3467 174.504C102.392 179.425 107.309 184.519 111.957 189.856C113.497 191.624 114.651 194.24 114.987 196.624C117.311 213.145 119.713 214.719 135.509 211.617C143.462 210.056 149.384 205.807 154.219 199.415C159.857 191.961 166.103 191.414 171.935 198.949C174.882 202.755 177.216 207.628 178.301 212.404C182.392 230.417 179.076 247.348 171.162 263.785C168.305 269.719 167.393 276.798 166.187 283.474C165.512 287.213 166.098 291.196 166.039 295.067C165.906 303.846 161.703 308.226 153.527 306.368C146.322 304.73 139.147 302.046 132.543 298.585C123.535 293.865 123.331 293.582 118.163 302.318C117.092 304.129 114.634 306.366 113.064 306.172C111.068 305.924 108.605 303.791 107.62 301.776C105.341 297.117 104.471 291.611 101.846 287.24C98.6162 281.861 94.1826 277.286 89.9268 272.116ZM140.42 244.399C139.511 239.927 138.611 235.448 132.952 233.524C131.14 240.383 129.289 246.544 127.98 252.831C127.559 254.856 128.331 259.013 128.96 259.104C131.562 259.481 134.763 259.474 136.927 258.137C141.477 255.326 140.464 250.078 140.42 244.399Z" fill="#231F20"/>
<path d="M503.023 254.998C504.04 252.999 504.708 251.222 505.855 249.91C518.924 234.975 521.095 216.717 518.335 197.989C515.831 180.997 506.954 166.985 494.129 156.215C477.25 142.04 457.893 133.548 436.971 128.204C425.131 125.18 412.164 123.259 404.204 111.816C400.223 106.094 397.272 99.4035 394.77 92.7672C393.172 88.5282 393.267 83.5837 392.566 78.9618C391.074 69.126 393.899 60.3509 398.901 52.3266C405.42 41.8693 405.132 30.5883 402.114 19.4263C400.999 15.3039 396.673 12.2453 394.295 8.37073C392.776 5.89393 392.143 2.81111 391.113 0C393.851 0.351632 396.875 0.0275597 399.284 1.15946C423.653 12.6113 432.502 30.2894 432.477 59.6951C432.469 68.7928 428.662 77.4002 420.896 83.3034C416.045 86.9899 412.744 92.0739 413.697 98.9471C414.744 106.507 419.963 109.603 426.15 111.736C441.699 117.096 457.687 121.411 472.632 128.254C494.662 138.341 513.962 152.563 524.928 176.496C531.501 190.84 532.105 205.807 529.725 221.135C527.904 232.865 525.147 244.291 517.808 253.777C515.876 256.274 513.849 258.909 511.347 260.648C506.635 263.923 503.065 261.542 503.023 254.998Z" fill="#242021"/>
<path d="M181.382 199.083C177.76 195.443 174.592 191.862 170.911 189.02C167.937 186.724 167.81 184.995 170.056 182.156C181.706 167.432 194.707 154.283 210.334 144.347C217.956 139.501 226.657 139.142 234.94 141.379C237.959 142.194 241.125 146.378 242.37 149.78C246.023 159.759 246.243 170.243 242.142 180.168C237.315 191.847 231.572 203.102 226.657 214.743C220.874 228.437 215.522 242.334 210.056 256.175C208.905 259.091 208.07 262.146 206.944 265.577C200.353 259.354 194.246 253.877 188.54 247.969C187.314 246.7 186.912 243.771 187.197 241.776C189.301 227.053 186.581 213.108 181.382 199.083Z" fill="#231F20"/>
<path d="M148.368 350.655C165.199 333.41 173.968 311.686 181.062 288.928C181.719 289.092 182.376 289.256 183.033 289.42C183.446 290.794 184.271 292.19 184.206 293.539C183.487 308.473 189.356 319.433 201.903 326.286C205.907 328.472 206.577 330.982 203.285 334.216C196.117 341.257 189.247 348.729 181.531 355.039C157.2 374.935 165.442 399.773 181.113 416.355C182.906 418.252 185.851 418.984 188.321 420.112C192.455 422 193.805 425.544 193.726 429.937C193.642 434.552 191.931 438.103 187.773 440.189C181.213 443.479 172.271 440.461 169.148 433.378C163.87 421.407 159.029 409.221 153.701 397.275C150.752 390.665 146.743 384.563 144.005 377.871C140.059 368.227 140.196 358.834 148.368 350.655Z" fill="#242021"/>
<path d="M369.967 370.819C362.861 361.443 356.033 352.401 349.204 343.359C349.305 342.752 349.406 342.145 349.506 341.539C356.234 341.539 362.963 341.512 369.69 341.569C370.632 341.577 371.565 342.027 372.511 342.23C384.914 344.885 385.244 345.521 387.342 358.464C388.859 367.82 391.054 377.052 392.923 386.345C394.266 393.023 392.616 398.126 387.699 403.204C378.074 413.141 369.223 423.931 360.343 434.637C358.187 437.236 356.668 437.849 353.548 436.691C348.945 434.981 344.056 434.132 338.073 432.607C342.132 428.558 345.515 425.195 348.887 421.819C355.149 415.547 361.778 409.626 367.561 402.896C373.966 395.445 378.812 380.606 369.967 370.819Z" fill="#242021"/>
<path d="M107.664 110.293C105.76 106.951 103.94 104.074 102.404 101.037C101.968 100.175 101.948 98.421 102.482 97.8464C103.083 97.1998 104.566 97.168 105.59 97.3471C106.472 97.5013 107.253 98.3211 108.072 98.8577C123.695 109.093 133.847 123.783 135.205 143.019C135.954 153.623 133.064 164.726 130.603 175.29C129.165 181.463 122.151 183.735 115.529 181.295C112.318 180.113 109.147 178.245 106.523 175.964C99.1968 169.596 99.1724 166.629 105.634 159.5C115.969 148.098 118.083 131.997 111.134 117.828C109.984 115.482 108.945 113.076 107.664 110.293Z" fill="#242021"/>
<path d="M1.10529 217.32C-0.354372 202.795 -1.57848 188.723 5.77835 175.891C6.90205 173.931 9.29614 172.782 11.1027 171.257C11.7135 173.481 12.5974 175.666 12.8849 177.936C13.8058 185.205 11.4449 192.667 16.1476 199.741C21.7268 208.133 29.4779 210.932 38.2327 212.398C46.1334 213.722 48.2653 216.647 47.6112 225.499C47.0083 233.657 42.7724 238.247 35.487 237.815C29.1469 237.44 22.7204 236.926 16.5555 235.441C7.90292 233.357 4.09171 225.884 1.10529 217.32Z" fill="#231F20"/>
<path d="M376.37 334.262C364.883 332.869 353.868 331.598 342.854 330.328C342.66 329.773 342.466 329.217 342.272 328.662C344.988 326.083 347.931 323.722 350.376 320.884C358.539 311.411 368.102 304.007 378.962 298.366C384.008 295.745 386.149 296.975 387.606 302.636C390.468 313.758 393.701 324.774 396.766 335.839C397.332 337.88 397.83 339.943 398.695 343.293C390.601 339.993 383.722 337.189 376.37 334.262Z" fill="#242021"/>
<path d="M135.505 174.266C142.043 164.113 150.747 157.623 161.396 154.439C168.309 152.371 172.673 156.446 170.476 162.715C164.216 180.576 153.177 194.18 136.388 201.886C133.032 203.427 128.117 205.732 125.933 201.262C124.351 198.022 124.539 192.684 125.966 189.21C128.138 183.922 132.067 179.437 135.505 174.266Z" fill="#242021"/>
<path d="M124.837 335.997C115.116 331.934 111.566 317.164 118.049 308.875C120.651 305.548 124.212 304.55 127.863 306.923C135.703 312.019 144.225 312.146 153.003 311.576C155.396 311.42 159.382 311.955 159.973 313.392C161.021 315.94 160.91 319.865 159.745 322.438C153.156 336.994 140.675 339.599 124.837 335.997Z" fill="#231F20"/>
<path d="M359.901 493.135C358.688 493.84 357.83 494.675 356.963 494.686C354.488 494.717 352.01 494.413 349.533 494.241C350.225 491.572 350.129 488.05 351.748 486.385C358.349 479.598 365.08 472.791 372.573 467.197C376.376 464.358 381.828 463.52 386.669 462.825C390.761 462.238 393.296 465.069 394.206 469.557C397.115 483.906 386.593 498.894 372.706 499.963C368.507 500.286 366.382 498.545 367.33 493.843C367.596 492.526 367.949 491.229 368.705 488.074C365.028 490.169 362.641 491.529 359.901 493.135Z" fill="#242021"/>
<path d="M325.062 443.89C328.692 442.405 331.861 440.858 335.18 439.877C341.802 437.918 348.044 440.908 350.097 446.705C352.845 454.466 350.219 462.811 343.694 465.499C339.296 467.31 334.62 468.914 329.973 469.286C327.608 469.475 325.084 466.625 322.536 465.366C321.052 464.633 319.252 463.677 317.817 463.982C315.629 464.449 313.719 466.32 311.529 466.848C309.527 467.331 307.311 466.823 305.188 466.751C305.553 464.317 305.109 461.074 306.433 459.599C310.484 455.086 315.161 451.184 319.713 447.196C321.174 445.917 323.006 445.109 325.062 443.89Z" fill="#242021"/>
<path d="M267.257 434.474C266.8 429.936 266.624 425.862 265.972 421.873C265.307 417.806 267.148 415.317 270.485 416.069C278.849 417.955 287.134 420.408 295.212 423.358C296.612 423.869 298.058 428.448 297.369 430.245C295.91 434.047 293.49 431.221 291.298 430.084C290.028 429.424 288.271 429.807 286.734 429.721C286.975 431.195 286.947 432.803 287.529 434.109C288.167 435.542 290.129 436.666 290.176 437.979C290.308 441.629 289.746 445.308 289.458 448.975C286.482 448.577 282.829 449.189 280.668 447.576C275.827 443.964 271.729 439.244 267.257 434.474Z" fill="#242021"/>
<path d="M44.562 269.222C41.6508 272.221 39.2163 275.16 36.3646 277.545C33.219 280.175 30.2125 279.424 29.5174 275.079C28.895 271.189 28.704 266.968 29.4546 263.139C31.221 254.13 33.8506 245.307 42.8004 241.147C44.3386 240.432 47.4255 240.47 48.2581 241.519C52.3845 246.719 55.9949 252.374 59.856 257.97C54.855 261.619 49.8549 265.268 44.562 269.222Z" fill="#242021"/>
<path d="M197.456 436.041C196.43 430.457 195.226 425.431 194.568 420.328C194.399 419.016 195.786 416.341 196.733 416.188C204.367 414.96 211.75 415.647 217.984 421.243C220.604 423.595 221.478 426.412 218.544 428.948C215.304 431.748 216.772 434.421 217.593 437.656C218.315 440.498 218.947 444.786 217.53 446.429C215.989 448.215 211.848 448.594 209.174 447.977C203.436 446.655 197.922 444.288 197.456 436.041Z" fill="#231F20"/>
</svg>
