<svg width="413" height="500" viewBox="0 0 413 500" fill="none" xmlns="http://www.w3.org/2000/svg">
<path d="M50.3459 74.341C49.2292 72.5232 47.8148 70.8007 47.0616 68.8665C45.7437 65.4818 44.1827 62.0074 43.9173 58.4964C43.5979 54.272 46.653 52.6053 50.9008 54.3839C54.2494 55.7861 57.4049 57.6752 60.3871 59.6673C66.3609 63.6577 69.1745 63.3571 73.9334 58.0336C75.0957 56.7334 76.5238 55.4107 78.1501 54.7107C83.1356 52.5648 86.8462 54.4374 87.0851 59.5129C87.2059 62.0798 86.1361 64.7977 85.0946 67.2706C84.3074 69.14 82.7114 70.729 81.4619 72.4611C82.0436 72.9209 82.2848 73.2807 82.5594 73.303C86.1074 73.5908 90.6332 73.6343 90.9751 77.4791C91.2372 80.4287 89.6161 84.1161 87.5004 86.504C84.0027 90.4515 79.3094 93.5078 75.3637 97.1566C73.4333 98.9416 71.8247 101.107 70.5408 103.324C70.0711 104.135 70.9612 105.594 71.231 106.757C72.6679 106.456 74.4892 106.545 75.4538 105.763C76.9953 104.515 77.8597 102.607 79.2056 101.124C81.3561 98.7548 83.933 98.6401 86.8099 100.155C89.991 101.83 89.4989 104.087 87.9759 106.32C86.2183 108.897 84.2349 111.357 82.2167 113.776C80.3108 116.06 79.6591 117.672 82.4353 120.289C84.8328 122.548 85.7711 126.121 87.1977 129.173C87.9762 130.839 88.429 132.631 89.1606 134.747C93.6179 132.147 95.4058 129.878 93.9119 125.271C92.3475 120.448 91.9273 115.152 92.1349 110.101C92.2211 108.004 94.7928 104.98 97.0143 104.196C100.594 102.933 102.756 105.743 103.912 108.698C104.786 110.933 105.501 113.218 106.539 116.206C110.27 111.583 113.553 107.36 117.021 103.266C120.032 99.7108 124.59 98.7391 128.07 100.967C132.012 103.49 133.019 107.465 130.528 110.742C127.5 114.726 123.138 117.885 119.275 121.329C118.442 122.071 117.277 122.507 115.405 123.574C117.377 124.881 118.711 126.03 120.283 126.752C123.79 128.362 127.691 130.509 126.141 134.199C125.162 136.53 120.97 137.764 118.186 139.446C117.772 139.696 117.174 139.697 116.681 139.809C115.154 149.868 113.545 152.009 102.167 150.787C90.4317 149.527 82.4166 152.981 76.4092 161.605C74.7531 163.982 73.295 166.473 71.7461 168.912C74.6439 169.771 77.6151 170.468 80.427 171.517C93.7331 176.479 104.649 170.059 115.69 165.21C130.062 158.898 144.482 152.9 160.013 149.18C163.285 148.396 166.346 145.686 168.728 143.24C181.143 130.499 193.869 117.952 205.335 104.527C211.743 97.0246 219.65 92.3247 228.655 88.4326C229.295 88.1559 229.923 87.8431 230.515 87.4904C233.011 86.0054 236.494 84.593 234.555 81.364C234.009 80.4554 229.801 80.7175 227.618 81.379C221.38 83.2692 217.782 82.3371 213.777 77.6078C212.621 76.2432 210.615 75.0872 208.769 74.6674C204.924 73.7931 202.605 71.8674 202.753 68.3358C203.09 60.2486 200.16 54.1522 193.247 48.4394C189.801 45.5914 188.709 38.8862 189.107 34.1008C189.623 27.9001 190.98 21.3848 195.965 16.1942C210.892 0.65308 234.529 -6.23401 254.597 7.02846C261.896 11.8519 266.613 18.3287 270.831 25.2388C274.762 31.6799 275.689 31.8765 282.197 27.7625C285.503 25.6727 289.066 23.745 292.806 22.4288C301.272 19.4496 307.609 23.3923 308.077 31.8491C308.389 37.4793 308.037 43.1374 308.242 48.7753C308.47 55.0463 308.746 61.3349 309.553 67.557C309.767 69.2126 311.705 71.4107 313.4 71.9551C314.787 72.4007 317.626 71.2193 318.73 69.9673C327.654 59.8459 335.958 49.2585 345.205 39.3945C350.421 33.8301 356.686 28.9087 363.161 24.5282C369.723 20.0895 378.362 22.6015 380.074 29.8522C381.548 36.0914 380.852 42.8816 380.268 49.3653C378.926 64.2579 376.791 79.0927 375.516 93.9888C374.653 104.08 374.429 114.236 374.426 124.363C374.423 134.484 375.062 144.605 375.392 154.726C375.439 156.174 375.966 158.04 375.197 159.012C369.108 166.702 375.371 174.106 375.581 181.616C375.735 187.078 376.033 192.544 376.5 197.991C377.83 213.529 379.15 229.069 380.72 244.588C382.338 260.592 383.978 276.603 386.117 292.555C387.615 303.734 389.991 314.815 391.914 325.949C392.242 327.848 392.839 329.943 392.282 331.675C391.566 333.902 390.242 337.051 388.386 337.602C386.384 338.195 382.765 336.867 381.074 335.295C375.354 329.979 375.273 322.769 374.365 315.912C373.963 312.881 373.702 309.822 373.054 306.833C372.453 304.064 370.739 303.265 367.573 304.476C360.049 307.353 359.83 306.984 355.817 300.437C348.741 288.894 346.462 276.225 344.789 263.412C344.297 259.638 342.765 257.848 338.33 257.255C332.335 256.454 329.707 252.071 328.318 247.142C323.583 230.34 321.494 213.269 322.051 195.927C322.175 192.061 322.275 188.172 321.944 184.325C321.743 181.984 321.478 179.03 319.892 177.515C313.537 171.444 312.953 163.828 312.649 156.348C312.311 148.019 313.141 139.653 313.42 131.302C313.587 126.317 313.171 121.484 307.984 116.819C307.277 123.895 306.267 129.874 306.165 135.865C305.914 150.535 305.545 165.23 306.191 179.879C307.673 213.474 309.009 247.208 318.247 279.938C322.798 296.062 330.307 311.503 336.555 327.227C338.177 331.31 340.685 335.186 341.624 339.372C342.096 341.475 340.504 344.535 338.741 346.201C338.003 346.899 333.54 345.73 332.272 344.309C329.424 341.117 327.303 337.331 325.274 333.612C322.316 328.192 319.936 323.109 312.708 320.271C308.407 318.583 305.106 313.12 303.071 308.703C298.499 298.784 295.069 288.435 290.977 278.326C290.382 276.857 288.844 274.793 287.503 274.631C279.569 273.67 279.024 267.983 277.305 262.759C276.293 259.68 274.987 256.458 272.878 253.947C268.967 249.289 267.573 244.107 267.741 238.55C268.108 226.404 267.544 214.388 263.376 202.715C262.353 199.852 261.299 196.998 260.108 193.725C253.075 195.797 250.824 200.726 248.74 205.614C246.765 210.248 245.623 210.991 241.181 208.154C225.34 198.034 208.695 198.546 191.477 204.479C190.085 204.959 188.562 205.124 187.099 205.436C186.748 205.088 186.398 204.74 186.047 204.392C188.304 201.322 190.214 197.974 192.884 195.235C200.572 187.348 204.028 177.72 206.843 167.898C208.476 162.202 201.58 153.916 195.063 153.335C193.438 153.19 191.451 154.433 189.948 155.431C181.798 160.838 173.625 166.227 165.693 171.891C155.238 179.356 142.921 181.13 130.254 182.011C119.467 182.761 108.531 182.695 97.9278 184.377C89.4984 185.714 81.5989 189.609 73.2227 191.48C68.0153 192.643 62.3136 192.65 56.9151 192.257C51.569 191.867 48.0606 187.074 48.0392 181.704C48.0155 175.8 51.1387 171.701 56.5775 170.425C57.5363 170.2 58.4441 169.796 60.4454 169.105C55.1295 163.033 50.3178 157.367 45.235 151.909C44.4487 151.065 42.4218 150.904 40.9629 150.889C34.7456 150.824 28.5206 151.097 22.3095 150.921C18.1779 150.803 14.1156 149.648 14.186 145.018C14.2582 140.27 18.4865 139.724 22.5795 139.505C25.373 139.356 28.1707 139.269 31.3055 139.14C30.7345 135.177 28.6716 134.478 25.3648 135.73C22.5789 136.785 19.8837 138.474 17.0061 138.779C13.6283 139.138 9.86236 138.894 6.68473 137.855C1.46988 136.15 1.1519 132.075 5.59808 129.038C7.00766 128.075 8.59068 127.306 10.15 126.542C11.5088 125.876 12.9461 125.342 15.5887 124.227C12.6856 122.294 10.621 120.732 8.36294 119.452C2.51655 116.137 0.220467 111.13 0.00457162 105.192C-0.179293 100.134 5.21916 97.0926 9.65154 100.072C12.933 102.278 15.4357 105.513 18.0081 108.487C19.8879 110.66 21.317 113.153 22.9469 115.504C23.4895 115.434 24.0322 115.363 24.5748 115.292C25.2855 113.433 26.0343 111.585 26.6988 109.712C27.9168 106.278 30.7503 103.478 34.324 104.306C36.4681 104.802 38.8973 108.617 39.0145 111.028C39.2188 115.231 37.861 119.524 36.9241 123.736C36.0783 127.541 34.8239 131.314 40.6009 133.942C41.3679 131.873 41.8062 130.035 42.7083 128.408C44.1679 125.776 45.3845 122.711 47.7091 120.878C50.4975 118.68 50.2269 117.556 48.3608 115.013C45.9909 111.784 44.203 108.077 42.9638 104.357C42.5084 102.99 43.9518 99.901 45.2056 99.5421C47.2232 98.9646 50.1742 99.4464 52.058 100.485C54.9587 102.084 57.29 104.533 60.3365 107.006C62.3155 103.577 61.8556 101.407 59.2181 99.5909C55.8243 97.2544 51.8392 95.3879 49.14 92.5203C46.0444 89.2317 42.9429 85.3099 41.8875 81.2283C40.3022 75.0967 42.1998 73.9318 49.6726 74.7269C50.2822 74.8505 50.4048 74.8801 50.5274 74.9097C50.4669 74.7201 50.4063 74.5305 50.3459 74.341ZM222.172 38.8417C223.4 40.2089 225.04 41.4156 225.779 42.9739C227.865 47.3738 229.387 51.995 231.501 56.3827C233.445 60.4198 235.696 64.3621 238.22 68.1213C238.755 68.9184 241.054 68.7413 242.54 69.0131C242.544 67.6946 242.974 66.2252 242.482 65.0824C239.319 57.7369 235.899 50.4829 232.703 43.1487C232.06 41.6727 232.018 39.9812 231.699 38.389C232.133 38.1354 232.568 37.8817 233.003 37.6281C234.385 38.5877 236.191 39.3044 237.064 40.5564C239.04 43.39 240.59 46.4722 242.253 49.4809C245.308 55.0109 248.32 60.5608 251.735 66.8063C256.267 62.5026 254.857 58.7415 253.116 55.3842C249.647 48.6913 245.664 42.2187 241.995 35.6086C241.054 33.9126 240.492 32.0434 239.756 30.2538C240.222 29.9979 240.688 29.742 241.154 29.4861C242.318 30.5033 243.789 31.3532 244.595 32.5661C248.42 38.3161 251.905 44.2571 255.883 49.9152C256.893 51.3517 259.265 52.0004 261.011 53.0111C261.035 51.2313 261.724 49.1652 260.969 47.7201C257.279 40.6556 253.148 33.7813 249.312 26.7775C248.58 25.4421 248.469 23.8268 248.072 22.3406C248.815 21.9992 249.557 21.6578 250.299 21.3165C250.554 21.9271 250.673 22.6304 251.087 23.1342C255.426 28.418 259.679 33.7689 264.28 38.8609C265.425 40.1289 267.734 40.5324 269.508 41.3333C270.242 39.464 271.968 37.3564 271.506 35.774C270.488 32.2843 268.673 28.8967 266.642 25.7549C258.644 13.3794 240.775 3.41263 224.395 8.20992C211.361 12.0273 200.567 18.5216 198.043 31.9762C197.607 34.3037 198.754 37.32 200.299 39.29C200.916 40.0767 204.838 39.3644 206.824 38.5096C211.824 36.3578 216.594 34.6113 222.172 38.8417ZM345.482 169.847C349.735 166.405 348.2 161.951 346.148 158.865C340.511 150.386 341.238 141.126 342.84 132.544C347.089 109.773 336.166 93.7108 317.802 80.2423C316.852 79.5455 315.702 79.0121 314.558 78.6048C311.021 77.3455 308.752 78.807 309.597 82.1562C310.004 83.7712 311.58 85.6624 313.2 86.426C327.851 93.3296 333.97 104.493 333.825 119.065C333.713 130.342 333.479 141.634 333.956 152.896C334.257 160.018 335.494 167.242 345.482 169.847ZM318.898 147.678C319.082 152.488 318.809 157.368 319.683 162.073C320.017 163.876 322.969 165.279 324.728 166.865C325.611 164.967 327.218 163.082 327.258 161.17C327.504 149.471 327.809 137.749 327.237 126.069C326.935 119.919 325.641 113.607 323.444 107.788C320.911 101.082 315.412 96.06 308.686 92.044C305.559 98.8066 307.08 104.263 311.597 108.574C314.261 111.117 317.024 114.6 317.41 117.886C318.532 127.434 318.476 137.095 318.898 147.678ZM61.6178 152.878C61.6568 145.808 61.7367 138.737 61.7149 131.666C61.7061 128.853 60.8901 126.419 57.9067 125.694C56.0491 131.75 54.2771 137.396 52.5924 143.064C51.3525 147.234 56.8341 153.624 61.6178 152.878ZM73.7703 153.129C75.6102 150.348 79.2989 147.341 78.9237 144.833C78.0064 138.708 75.2097 132.813 73.0609 126.507C72.3878 127.317 71.1403 128.121 71.1092 128.962C70.8145 136.931 70.7053 144.906 70.6946 152.88C70.6942 153.093 72.4072 153.308 73.7703 153.129ZM278.442 134.014C276.467 131.804 274.493 129.593 272.296 127.133C272.281 137.645 283.235 146.691 291.491 142.473C287.206 139.652 283.166 136.993 278.442 134.014ZM343.247 181.959C341.564 181.333 339.882 180.707 337.713 179.9C336.806 183.858 336.998 186.172 341.486 186.846C345.582 187.461 349.547 188.798 353.644 189.406C355.166 189.632 356.899 188.692 358.536 188.284C357.403 187.194 356.483 185.583 355.094 185.113C351.496 183.895 347.69 183.179 343.247 181.959ZM250.712 164.591C250.606 173.261 250.637 173.336 255.87 175.054C255.379 169.33 254.923 164.007 254.467 158.685C253.963 158.598 253.459 158.512 252.954 158.426C252.232 160.214 251.509 162.003 250.712 164.591ZM279.337 186.519C283.868 186.795 288.404 187.009 292.926 187.372C295.516 187.581 297.857 187.754 297.677 183.318C289.545 186.57 282.339 184.105 275.23 180.966C274.927 181.436 274.623 181.905 274.319 182.375C275.731 183.718 277.143 185.062 279.337 186.519ZM105.478 136.258C102.565 134.802 100.31 134.803 99.2359 138.933C103.169 138.933 106.665 138.933 111.479 138.933C108.849 137.812 107.455 137.218 105.478 136.258Z" fill="#231F20"/>
<path d="M290.78 341.923C280.803 325.178 278.445 306.725 273.022 289.101C270.557 281.089 267.736 273.049 263.833 265.555C260.364 258.895 259.364 252.256 258.863 245.079C258.498 239.863 255.795 234.744 253.821 229.681C253.297 228.337 251.622 227.361 249.65 225.393C248.684 227.824 247.658 229.314 247.553 230.856C247.014 238.725 246.621 246.606 246.351 254.487C245.917 267.196 245.571 279.907 245.274 292.62C244.795 313.152 248.335 333.326 251.372 353.596C254.488 374.389 260.771 394.299 269.868 413.392C277.104 428.58 285.885 443.171 294.215 457.918C298.814 466.059 304.04 473.908 308.712 482.017C311.828 487.425 311.234 491.442 307.682 493.115C303.524 495.073 295.344 493.405 292.954 489.472C289.449 483.705 285.982 477.8 283.626 471.601C276.801 453.646 270.244 435.596 264.137 417.43C258.298 400.059 251.99 382.709 248.027 364.957C243.924 346.574 239.333 328.101 239.804 309.048C240.014 300.564 238.767 292.057 238.752 283.56C238.738 276.028 239.875 268.493 239.853 260.961C239.821 250.2 239.167 239.441 238.838 228.68C238.728 225.085 237.227 221.919 233.261 221.432C229.219 220.935 227.605 223.912 227.043 227.289C224.614 241.893 221.971 256.468 219.706 271.092C218.229 280.632 216.68 290.214 216.207 299.82C215.449 315.211 215.372 330.637 215.371 346.048C215.37 354.721 215.678 363.433 216.603 372.06C217.82 383.399 219.186 394.776 221.547 405.953C226.418 429.019 231.994 451.962 237.262 474.959C237.514 476.058 237.714 477.188 237.729 478.306C237.787 482.54 238.199 487.064 232.146 488.437C226.282 489.767 219.83 486.857 218.119 481.517C215.996 474.89 214.098 468.109 213.191 461.276C211.395 447.734 209.534 434.13 209.15 420.518C208.278 389.594 207.927 358.649 208.092 327.715C208.169 313.278 209.691 298.83 211.004 284.42C212.548 267.467 214.755 250.563 216.265 233.608C216.643 229.363 215.885 224.909 214.79 220.736C214.263 218.727 212.06 216.335 210.005 215.671C208.713 215.254 205.408 217.34 204.553 218.97C202.69 222.524 201.047 226.446 200.69 230.322C199.836 239.617 200.014 248.986 199.347 258.3C197.737 280.75 196.76 303.278 193.88 325.599C190.96 348.236 186.981 370.839 181.784 393.135C175.983 418.025 167.456 442.312 155.665 465.509C151.673 473.363 147.462 481.15 142.804 488.69C139.969 493.279 134.898 495.041 129.086 494.365C124.003 493.774 122.153 490.516 125.086 486.819C138.551 469.84 147.171 450.546 156.443 431.675C170.054 403.972 179.37 374.931 185.12 345.006C189.717 321.082 193.243 297.04 194.121 272.738C194.58 260.022 194.902 247.301 195.058 234.58C195.1 231.23 194.617 227.799 193.739 224.546C193.304 222.936 191.695 220.938 190.113 220.444C188.948 220.08 186.063 221.529 185.499 222.757C182.749 228.747 179.087 234.804 178.397 241.077C176.777 255.787 177.119 270.666 175.846 285.419C173.829 308.803 171.187 332.143 168.713 355.493C167.712 364.941 166.609 374.386 165.224 383.793C164.804 386.645 163.286 389.364 162.27 392.144C161.496 392.099 160.721 392.055 159.947 392.011C159.687 390.079 158.976 388.095 159.238 386.224C161.231 372.02 163.698 357.868 165.457 343.643C167.157 329.899 168.571 316.106 169.418 302.3C170.521 284.304 170.907 266.273 171.675 248.26C171.928 242.327 172.44 236.404 172.764 230.473C172.825 229.357 172.558 228.226 172.442 227.103C171.738 226.973 171.034 226.843 170.329 226.713C168 232.954 164.453 239.059 163.582 245.463C161.369 261.722 159.128 278.119 159.182 294.454C159.246 313.553 155.845 332.037 150.977 350.339C146.411 367.507 145.194 384.878 143.691 402.36C142.288 418.679 139.036 434.875 136.213 451.07C135.944 452.613 132.938 453.763 131.202 455.095C130.651 453.414 129.497 451.69 129.639 450.059C131.465 429.221 133.891 408.419 135.295 387.56C136.226 373.724 139.333 360.621 145.55 347.955C151.079 336.693 150.753 324.5 151.532 312.534C151.083 312.412 150.633 312.29 150.184 312.168C149.176 314.914 148.17 317.662 147.159 320.408C138.611 343.608 131.574 367.388 121.111 389.855C109.346 415.119 94.6623 439.28 80.8739 463.747C76.6185 471.298 71.3035 478.38 66.1298 485.471C64.2115 488.1 61.6286 490.599 58.7255 492.261C57.1101 493.186 53.8181 492.875 52.0507 491.934C51.1104 491.433 50.9651 487.903 51.905 486.593C57.781 478.401 63.7959 470.265 70.2654 462.452C87.8667 441.194 100.884 417.592 112.791 393.513C119.896 379.144 126.187 364.345 131.375 349.322C137.133 332.651 141.305 315.524 146 298.558C148.803 288.427 151.509 278.266 153.842 268.04C155.849 259.243 157.122 250.309 158.981 241.481C161.109 231.379 162.811 221.038 172.317 213.845C173.379 213.042 174.45 211.958 175.695 211.693C184.662 209.785 193.615 207.722 202.692 206.378C209.302 205.399 215.658 206.691 221.458 210.271C225.571 212.81 230.169 213.583 235.505 213.176C250.896 212.002 260.336 220.082 264.28 234.331C265.943 240.339 265.588 246.784 266.688 252.951C267.637 258.267 268.425 263.871 270.932 268.634C275.203 276.744 277.953 285.049 279.543 293.874C283.509 315.876 290.653 336.866 306.451 354.496C313.035 361.844 320.573 368.493 327.756 375.392C343.511 390.524 357.053 407.108 367.761 425.542C372.948 434.472 378.221 443.374 382.913 452.518C384.117 454.863 384.215 460.151 383.194 460.536C378.517 462.3 378.145 457.722 376.845 455.324C370.832 444.233 365.967 432.558 359.095 421.942C352.05 411.059 343.754 400.714 334.908 390.952C324.461 379.423 312.583 368.97 301.846 357.643C297.507 353.065 294.549 347.411 290.78 341.923Z" fill="#242021"/>
<path d="M363.198 498.015C358.256 501.296 353.838 500.286 350.677 496.625C345.775 490.948 340.97 485.088 337.109 478.808C328.581 464.934 320.071 451.003 312.634 436.635C299.84 411.916 286.839 387.212 275.865 361.811C266.161 339.351 259.795 315.792 256.516 291.708C256.319 290.265 256.971 288.726 258.495 287.115C260.103 292.248 261.683 297.388 263.324 302.513C268.557 318.857 273.615 335.249 279.106 351.521C287.347 375.941 300.054 398.628 312.645 421.349C323.599 441.116 337.756 458.944 352.619 476.388C356.694 481.171 359.922 486.592 363.092 491.938C364.014 493.493 363.391 495.802 363.198 498.015Z" fill="#242021"/>
<path d="M196.196 395.853C195.481 422.855 194.803 449.388 194.014 475.919C193.885 480.25 193.899 484.731 192.619 488.828C191.93 491.031 188.91 493.615 186.448 494.146C183.013 494.888 178.343 494.287 177.572 490.096C176.774 485.759 176.661 481.152 177.31 476.793C180.941 452.414 184.884 428.074 188.739 403.723C189.819 396.9 190.799 390.058 192.156 383.28C192.708 380.52 194.143 377.906 195.176 375.225C195.843 375.301 196.51 375.377 197.177 375.454C196.85 382.097 196.523 388.74 196.196 395.853Z" fill="#242021"/>
<path d="M404.343 496.485C393.101 496.2 384.791 491.401 377.146 484.999C356.971 468.104 342.254 447.873 331.841 424.947C331.651 424.529 331.712 424.017 332.485 422.931C333.83 424.514 335.342 426.003 336.493 427.694C344.69 439.74 352.785 451.865 364.256 461.686C377.962 473.42 392.722 483.828 409.934 491.128C411.252 491.687 411.992 493.369 413 494.528C411.695 495.165 410.459 496.032 409.067 496.373C407.737 496.698 406.245 496.474 404.343 496.485Z" fill="#242021"/>
<path d="M102.771 483.299C100.985 490.595 98.7357 492.566 92.4601 492.606C85.5267 492.651 83.4009 489.951 86.1409 484.109C89.8179 476.269 93.6113 468.467 97.6241 460.764C103.969 448.585 110.521 436.494 117.034 424.388C117.688 423.171 118.673 422.101 119.505 420.963C119.948 421.128 120.39 421.293 120.833 421.459C114.852 441.947 108.871 462.435 102.771 483.299Z" fill="#242021"/>
<path d="M330.208 420.022C330.207 420.083 329.982 420.015 329.982 420.015C329.982 420.015 330.209 419.961 330.208 420.022Z" fill="#242021"/>
</svg>
